<svg viewBox="-10.577 110.985 819.712 787.465" xmlns="http://www.w3.org/2000/svg" xmlns:xlink="http://www.w3.org/1999/xlink" xmlns:blush="http://design.blush" overflow="visible" width="1000" height="960.661">
  <g fill="none" fill-rule="evenodd">
    <g blush:width="138" blush:height="138" blush:component="Small Elements">
      <path d="M225.678 766.342c0-30.255-24.386-55.02-54.178-55.02v55.02l37.025 40.047c10.532-9.791 17.153-24.154 17.153-40.047z" fill="#F2F2F2"/>
      <path d="M172.996 765.5h-54.652c0 14.143 5.763 27.395 14.874 37.025 10.02 10.532 24.29 17.153 39.778 17.153 14.266 0 27.325-5.713 37.348-14.745L172.996 765.5z" fill="#AFB9C5"/>
      <path d="M117.322 765.5c0-29.792 24.386-54.178 54.178-54.178V765.5h-54.178zm81.267-54.178l-21.671 48.76 48.76-21.67c-4.822-12.64-15.65-22.268-27.09-27.09z" fill="#902EE9"/>
    </g>
    <path d="M668.303 203.455c65.866 41.617 111.25 117.5 124.07 194.852 12.968 77.5-6.63 156.616-33.596 231.469-26.818 75-61.004 145.587-117.145 194.41-55.994 48.676-133.944 75.44-209.978 72.94-76.181-2.646-150.3-34.558-218.966-79.116-68.666-44.706-131.88-102.058-162.235-175-30.355-72.793-27.997-161.174 5.157-232.203 33.155-71.03 97.106-124.705 164.593-165.882 67.488-41.029 138.512-69.558 217.198-79.999 78.686-10.588 165.035-3.088 230.902 38.53z" fill="#48258E" blush:width="826" blush:height="792" blush:component="Space/Space Blob"/>
    <g blush:width="612" blush:height="585" blush:component="Space/Stars">
      <path fill="#E7C92D" d="M136.387 680.715l-9.39-2.705 9.616-3.41 3.405-9.631 2.701 9.405 9.39 2.705-9.616 3.41-3.405 9.631zM651.18 580.561l-8.447-2.717 8.447-2.718 2.714-8.46 2.713 8.46 8.448 2.718-8.448 2.717-2.713 8.46z"/>
      <path fill="#2773B1" d="M630.079 611.86l-9.856-3.171 9.856-3.17 3.166-9.871 3.166 9.87 9.855 3.171-9.855 3.17-3.166 9.871zM145.236 733.334l-10.798-3.158 11.024-3.863 3.857-11.042 3.153 10.815 10.799 3.158-11.025 3.863-3.857 11.042z"/>
      <g transform="matrix(1.86018 0 0 1.86306 307.9 280.713)" fill="#F0C026">
        <circle opacity=".31" cx="17" cy="17" r="17"/>
        <circle cx="17" cy="17" r="6"/>
      </g>
      <g transform="matrix(1.86018 0 0 1.86306 177.687 731.573)" fill="#1C6AE6">
        <ellipse fill-opacity=".4" cx="19" cy="18.5" rx="19" ry="18.5"/>
        <circle cx="19.5" cy="18.5" r="6.5"/>
      </g>
      <g transform="matrix(1.86018 0 0 1.86306 146.064 288.166)" fill="#1C6AE6">
        <circle fill-opacity=".4" cx="5.5" cy="5.5" r="5.5"/>
        <circle cx="5.5" cy="5.5" r="2.5"/>
      </g>
      <g transform="matrix(1.86018 0 0 1.86306 464.155 498.691)" fill="#1C6AE6">
        <circle fill-opacity=".4" cx="7" cy="7" r="7"/>
        <circle cx="7" cy="7" r="4"/>
      </g>
      <g transform="matrix(1.86018 0 0 1.86306 291.158 254.63)" fill="#1C6AE6">
        <circle fill-opacity=".4" cx="7" cy="7" r="7"/>
        <circle cx="7" cy="7" r="4"/>
      </g>
      <g transform="matrix(1.86018 0 0 1.86306 445.553 534.09)" fill="#E7C92D">
        <circle opacity=".352" cx="5" cy="5" r="5"/>
        <circle cx="5" cy="5" r="2.857"/>
      </g>
      <g transform="matrix(1.86018 0 0 1.86306 272.556 290.029)" fill="#E7C92D">
        <circle opacity=".352" cx="5" cy="5" r="5"/>
        <circle cx="5" cy="5" r="2.857"/>
      </g>
      <g transform="matrix(1.86018 0 0 1.86306 155.365 267.672)" fill="#E7C92D">
        <circle opacity=".352" cx="4" cy="4" r="4"/>
        <circle cx="4" cy="4" r="2"/>
      </g>
      <g transform="matrix(1.86018 0 0 1.86306 618.55 664.503)" fill="#1C6AE6">
        <circle fill-opacity=".4" cx="5.5" cy="5.5" r="5.5"/>
        <circle cx="5.5" cy="5.5" r="2.5"/>
      </g>
      <g transform="matrix(1.86018 0 0 1.86306 627.851 644.01)" fill="#E7C92D">
        <circle opacity=".352" cx="4" cy="4" r="4"/>
        <circle cx="4" cy="4" r="2"/>
      </g>
      <path fill="#439DE6" d="M667.52 633.129l-15.487-4.983 15.487-4.983 4.975-15.51 4.975 15.51 15.487 4.983-15.487 4.983-4.975 15.51zM196.442 694.159l-16.895-5.436 16.895-5.436 5.427-16.92 5.428 16.92 16.894 5.436-16.894 5.436-5.428 16.92z"/>
    </g>
    <g transform="scale(.97902 .97183) rotate(45 -77.662 342.254)" blush:width="140" blush:height="138" blush:component="Space/Space Stuff">
      <path d="M32.146 131.154c0-7.63 6.045-13.818 13.5-13.818 7.456 0 13.5 6.187 13.5 13.818 0 7.632-13.5 24.182-13.5 24.182s-13.5-16.55-13.5-24.182z" fill="#CC471D" fill-rule="nonzero"/>
      <path d="M38.646 132.515c0-3.754 3.136-6.8 7-6.8s7 3.046 7 6.8-7 10.2-7 10.2-7-6.446-7-10.2z" fill="#E4D125" fill-rule="nonzero"/>
      <path d="M30.923 131.48c-5.204 0-9.423-1.76-9.423-7.416v-84.11c0-2.232 6.788-13.366 20.364-33.402a5 5 0 018.276-.003c13.508 19.9 20.293 30.926 20.355 33.082l.005.323v84.11c0 5.56-4.077 7.26-9.16 7.411l-.263.004H30.923z" fill="#C383F5"/>
      <path d="M70.854 120.73v2.848c0 5.363-4.078 7.001-9.16 7.148l-.264.004H31.277c-5.205 0-9.423-1.696-9.423-7.152v-2.848h49z" fill="#8F3ED8"/>
      <path d="M.852 112.07c5.224-13.61 12.696-24.91 21-35.357v38.742l-21 6.258v-9.643zM91.148 112.07c-5.224-13.61-12.696-24.91-21-35.357v38.742l21 6.258v-9.643z" fill="#8134C8"/>
      <circle fill="#7B34BB" cx="46" cy="53.958" r="13"/>
      <circle fill="#551D89" cx="46" cy="54.665" r="9.5"/>
    </g>
    <g opacity=".744" transform="matrix(.58741 0 0 .59155 578 399)" blush:width="84" blush:height="84" blush:component="Space/Space Stuff">
      <defs>
        <circle id="a" cx="55.5" cy="55.5" r="55.5"/>
      </defs>
      <g transform="rotate(10 -22.225 154.44)">
        <mask id="b" fill="#fff">
          <use xlink:href="#a"/>
        </mask>
        <use fill="#613CAB" xlink:href="#a"/>
        <path d="M135.711 67c.192.824.289 1.658.289 2.5C136 85.792 99.511 99 54.5 99S-27 85.792-27 69.5c0-.842.097-1.676.289-2.5 3.505 15.122 38.526 27 81.211 27 42.31 0 77.09-11.67 81.112-26.603z" fill="#155EC2" mask="url(#b)"/>
        <path d="M171.425 18c.38 1.316.575 2.65.575 4 0 22.091-52.159 40-116.5 40C-8.841 62-61 44.091-61 22c0-1.35.195-2.684.575-4C-54.58 38.213-4.91 54 55.5 54c59.837 0 109.138-15.49 115.747-35.427z" fill="#1A6FE4" mask="url(#b)"/>
        <path d="M141.692 9c.204.824.308 1.658.308 2.5C142 27.792 103.049 41 55 41s-87-13.208-87-29.5c0-.842.104-1.676.308-2.5C-27.95 24.122 9.434 36 55 36c45.166 0 82.293-11.67 86.586-26.603z" fill="#1A6FE4" mask="url(#b)"/>
      </g>
      <path d="M173.631 93.078c-2.685 15.229-50.938 19.45-107.775 9.428C9.02 92.484-34.879 72.014-32.194 56.786-30.387 46.535-7.94 41.272 23.87 41.98a55.193 55.193 0 00-3.033 5.829C8.948 48.415 1.38 50.658.709 54.464c-1.438 8.158 29.362 20.408 68.794 27.361 39.432 6.953 72.565 5.976 74.003-2.182.671-3.806-5.673-8.502-16.637-13.136a55.024 55.024 0 00-.858-6.516c30.136 10.215 49.427 22.838 47.62 33.087z" fill="#E09E3B"/>
    </g>
    <g blush:width="713" blush:height="839" blush:component="Master/Character/Astronaut">
      <g transform="rotate(-4 5946.561 -92.494)" blush:width="714" blush:height="630" blush:component="Lower">
        <defs>
          <path id="c" d="M0 .752h219.436v134.572H0z"/>
        </defs>
        <path d="M707.029 453.967c-91.36-15.108-68.021 15.13-69.121-71.462-3.615-154.56-54.011-221.282-195.394-280.419l30.303-72.957C609.684 86.055 693.258 162.3 712.069 314.82c2.987 21.952 4.496 44.432 4.83 66.557-1.175 10.283 3.45 77.317-9.87 72.591" fill="#B18058" blush:skin="500"/>
        <path d="M722.917 429.505c3.7-62.603-.552-125.686-18.874-186.137l-88.155 27.02c17.153 57.745 19.35 119.614 12.549 179.274.97.147 29.022 4.39 30.819 4.66.81-1.695 1.439-3.811 2.099-5.665l16.236 8.44 77.405 11.708a397.824 397.824 0 001.41-11.127c3.472-14.652-26.248-17.824-33.49-28.173" fill="#051026"/>
        <path d="M706.15 250.349l-88.652 25.343c-8.794-30.201-21.618-58.625-42.535-82.04-49.125-51.765-118.265-82.37-185.442-104.416L415.561.785c85.537 27.759 171.615 67.667 232.26 136.192 27.878 32.43 46.607 72.593 58.328 113.372" fill="#C0C6CE"/>
        <path stroke="#0A1B45" stroke-width="2" stroke-linecap="round" stroke-linejoin="round" d="M634.293 197.355l39.755-23.342M624.899 182.589l37.818-26.366M642.696 212.826l41.333-20.417"/>
        <path d="M413.526 7.695c87.016 28.416 175.813 69.34 235.085 141.594" stroke="#051026" stroke-width="2" stroke-linecap="round"/>
        <path d="M689.867 204.966c-9.45 2.441-35.05 20.941-44.277 11.572-5.693-6.684-8.463-15.744-13.522-22.967-1.43-2.545-5.522-8.464-7.17-10.982-10.653-14.979 21.903-29.525 29.385-37.74" stroke="#0A1B45" stroke-width="2" stroke-linecap="round" stroke-linejoin="round"/>
        <path d="M365.73 98.264h-10c-54.677 0-99-44.324-99-99h208c0 54.676-44.324 99-99 99" fill="#D7DBE2"/>
        <path d="M-40.004 305.168l2.173-66.011c.378-7.473 6.714-6.395 11.953-6.387 14.673-.483 41.769-.54 56.837-.617 57.49-1.835 141.263 2.736 191.724-23.262 41.622-35.17 43.208-93.718 41.656-144.928l78.933-3.22c4.05 74.306-8.595 158.999-69.876 208.783-36.752 28.17-84.501 32.974-128.682 37.697-48.061 4.225-97.348 3.78-145.435 4.093-7.394.05-16.595.27-23.987.445-5.68.103-15.272 1.373-15.296-6.593" fill="#B18058" blush:skin="500"/>
        <g transform="translate(-51.8 219.805)">
          <mask id="d" fill="#fff">
            <use xlink:href="#c"/>
          </mask>
          <path d="M37.598 98.918c60.16-.91 121.639.754 181.838-6.658L208.128.752C142.908 8.047 76.427 6.178 10.298 6.69c-.304 4.313-1.278 16.923-1.625 21.414-1.733 22.42 1.996-26.057 1.674-21.41l.22.018-2.573 31.063c1.444.74 3.61 1.113 5.315 1.631-2.092 5.555-4.758 11.301-6.847 16.85-1.6 19.34-4.872 58.816-6.462 78.02 2.494.203 6.14.38 8.655.482 19.119 5.027 19.035-24.804 28.943-35.84" fill="#0A1B45" mask="url(#d)"/>
        </g>
        <path d="M150.288 221.277c24.042-3.211 47.782-5.654 68.246-16.728a.921.921 0 01.532-.399c55.442-48.402 34.912-139.863 33.956-205.537l94.223 1.061c4.833 83.57 13.083 176.012-41.524 246.566-7.998 10.605-17.915 20.536-28.058 29.099-33.213 25.988-77.025 32.529-117.227 37.582l-10.148-91.644z" fill="#D7DBE2"/>
        <path d="M283.753 232.218c-9.854.562-19.931.052-29.661-1.43-1.239-9.275-3.349-18.34-6.542-27.113 43.991-58.588 29.589-136.283 27.779-205.043l46.102.027c3.931 78.462 14.255 167.472-37.678 233.56" fill="#0A1B45"/>
        <path stroke="#0A1B45" stroke-width="2" stroke-linecap="round" stroke-linejoin="round" d="M226.262 251.881l16.854 42.911M240.976 244.834l23.646 39.576M209.723 257.333l12.319 44.425"/>
        <path d="M340.04-.33c6.306 92.191 13.38 203.734-65.905 269.208" stroke="#0A1B45" stroke-width="2" stroke-linecap="round"/>
        <path d="M208.217 305.213c-.458-7.408-11.105-35.468-5.778-42.058 3.865-7.064 13.242-6.785 19.847-9.738 6.4-2.394 12.893-5.079 18.69-8.583 14.36-8.189 29.484 22.601 37.788 29.563" stroke="#0A1B45" stroke-width="2" stroke-linecap="round" stroke-linejoin="round"/>
      </g>
      <g transform="rotate(-4 187.31 -808.854)" blush:width="713" blush:height="631" blush:component="Upper">
        <defs>
          <path id="e" d="M0 838h712.461V.099H0z"/>
        </defs>
        <g transform="translate(0 126)">
          <path d="M708.94 124.838c4.128 2.766 4.73 9.097 1.256 14.024-15.11 21.377-31.39 41.794-49.594 61.22-4.237 4.442-10.545 5.196-14.1 1.676-3.5-3.483-3.074-9.753.973-13.994 17.526-18.695 33.352-38.533 48.002-59.263 3.348-4.748 9.33-6.429 13.463-3.663" fill="#051026"/>
          <path d="M702.723 105.125c4.217 2.633 5.015 8.934 1.733 13.83-6.352 9.514-12.973 18.711-19.836 27.771-3.557 4.653-9.638 5.891-13.542 2.792-3.88-3.083-4.22-9.196-.792-13.681 6.65-8.777 13.082-17.712 19.205-26.883 3.141-4.687 9.005-6.444 13.232-3.829" fill="#051026"/>
          <path d="M690.357 94.717c4.276 2.546 5.224 8.682 2.067 13.44a541.739 541.739 0 01-19.17 27.064c-3.41 4.564-9.46 5.682-13.348 2.619-3.922-3.088-4.312-9.054-1.028-13.45a525.519 525.519 0 0018.532-26.158c3.016-4.552 8.711-6.104 12.947-3.515M648.04 112.187c3.983 2.942 4.612 8.903 1.27 13.204a513.867 513.867 0 01-20.08 24.421c-1.793 2.023-5.612 2.998-9.016 3.341-3.392.367-6.298.209-6.298.209 4.302-4.718-3.72-9.147 3.85-17.773a506.655 506.655 0 0017.299-21.202c3.212-4.132 8.963-5.166 12.975-2.2" fill="#051026"/>
          <path d="M672.164 93.468c4.162 2.708 5.102 8.657 1.954 13.21-10.503 15.225-21.767 29.988-33.77 44.036-1.775 2.11-4.178 3.333-6.597 3.594-2.412.272-4.82-.4-6.677-2.051-1.856-1.652-2.817-3.965-2.887-6.348-.06-2.375.755-4.841 2.466-6.876 11.565-13.533 22.497-27.86 32.637-42.56 3.02-4.366 8.705-5.721 12.874-3.005" fill="#051026"/>
          <path d="M676.544 129.128c7.357 5.39 11.486 13.723 11.925 23.005.436 9.249-2.872 19.414-10.026 27.879-15.704 17.862-32.675 34.967-51.783 50.684-9.575 7.836-19.595 15.382-30.526 22.232-10.904 6.854-22.581 13.124-35.294 18.245-12.688 5.116-26.52 9.026-41.213 10.777-14.73 1.7-29.501.92-43.37-1.703-13.902-2.613-26.928-6.994-39.025-12.358-12.108-5.376-23.326-11.74-33.844-18.675-19.605-13.04-36.842-27.978-52.603-43.931-7.106-6.887-11.86-14.754-13.02-22.305-1.178-7.565 1.252-14.753 8.154-20.69 6.912-5.948 15.528-8.548 23.764-8.376 8.256.2 16.153 3.179 22.198 9.037 13.717 13.316 28.432 25.399 43.87 35.196 16.497 10.465 33.954 18.257 50.954 21.145 8.49 1.454 16.818 1.696 24.87.642 8.073-1.12 16.395-3.501 24.717-7.03 8.322-3.513 16.62-8.09 24.73-13.391 8.126-5.276 16.01-11.434 23.696-17.968 7.68-6.56 15.138-13.6 22.364-20.985 7.219-7.4 14.194-15.16 20.957-23.154 6.28-7.434 14.636-12.057 23.36-13.626 4.348-.787 8.793-.79 13.082.076 4.272.854 8.39 2.577 12.063 5.274" fill="#051026"/>
          <path d="M608.195 159.37l47.431 45.896c-8.864 8.673-18.149 17.082-27.994 25.108-9.319 8.433-19.195 16.572-30.049 24.08-10.834 7.51-22.552 14.475-35.524 20.294-.472.21-2.76 1.19-6.008 2.492l-5.664 1.959-3.154 1.068c-1.07.362-2.148.735-3.3 1.022l-6.692 1.782-3.116.804c-1.017.229-2.017.4-2.934.582-3.689.69-6.333 1.187-6.885 1.29-8.259 1.388-16.757 1.933-25.053 1.82-8.32-.114-16.504-.948-24.426-2.342-15.867-2.791-30.637-7.758-44.25-13.862-10.834-4.995-20.986-10.697-30.528-16.882-19.332-12.55-36.359-26.873-52.012-42.127-9.738-9.27-18.083-21.731-21.253-33.811-3.209-12.065-1.306-23.706 8.421-31.006 9.826-7.165 21.233-10.167 33.547-7.972 12.366 2.17 25.518 9.606 40.046 22.764 10.248 10.16 21.066 19.482 32.283 27.407 11.516 8.038 23.463 14.583 35.311 18.803 11.866 4.238 23.478 6.075 34.665 5.184.7-.013 1.42-.161 2.133-.251l2.15-.287 2.161-.261c.725-.104 1.465-.314 2.201-.46l4.442-.932 4.521-1.322c.757-.232 1.515-.392 2.277-.675l2.29-.842c1.528-.58 3.07-1.056 4.61-1.7 3.07-1.376 6.184-2.558 9.267-4.203 6.213-2.947 12.365-6.701 18.501-10.577 3.023-2.091 6.115-4.024 9.098-6.288l4.517-3.3 4.454-3.48c8.345-6.08 16.531-12.724 24.516-19.774" fill="#C0C6CE"/>
          <path d="M534.191 208.334l2.52 6.002c8.98-2.595 18.124-6.396 27.152-11.026 9.047-4.613 17.942-10.155 26.65-16.2l-6.834-7.965c-15.929 12.66-32.908 23.126-49.488 29.19M559.983 269.799l2.076 4.949c12.971-5.821 24.688-12.788 35.52-20.3 10.853-7.51 20.728-15.65 30.046-24.083l-8.136-9.483c-8.21 9.049-17.006 17.859-26.825 26.11-9.804 8.255-20.544 16.046-32.68 22.807M520.92 264.427l3.387 21.32c-8.26 1.388-16.758 1.932-25.054 1.82-8.32-.114-16.504-.948-24.426-2.343-15.867-2.791-30.636-7.757-44.25-13.861l8.845-19.693c1.462-3.237 4.369-5.421 7.806-6.494 3.455-1.082 7.414-1.012 11.322.32 7.2 2.533 14.638 4.48 22.207 5.83a121.968 121.968 0 0023.04 1.83 19.964 19.964 0 0111.15 2.978c3.1 2.005 5.41 4.795 5.974 8.293" fill="#051026"/>
          <path d="M619.489 220.882c12.223-4.573 24.28-9.843 36.137-15.617-8.866 8.671-18.155 17.075-28.001 25.1l-8.136-9.483zM590.513 187.11c6.35-8.978 12.208-18.256 17.683-27.74-7.986 7.05-16.172 13.696-24.517 19.776l6.834 7.964zM524.03 217.165l4.678 16.35c-2.141.546-4.271 1.182-6.416 1.672l-6.465 1.198c-4.311.683-8.66 1.014-13.035 1.09-8.753.122-17.575-.991-26.269-3.023-17.403-4.174-34.178-12.107-49.818-22.032-9.97-6.31-19.517-13.446-28.661-21.124-9.148-7.676-17.893-15.91-26.235-24.543-3.187-3.296-2.893-8.608.569-11.78 3.463-3.173 8.647-3.153 11.662-.035 15.928 16.446 33.318 31.418 51.768 43.118 14.47 9.195 29.655 16.265 44.646 19.85 7.488 1.745 14.9 2.666 22.117 2.565 3.612-.068 7.157-.333 10.695-.898 1.782-.35 3.565-.68 5.353-.991 1.796-.412 3.603-.966 5.411-1.417" fill="#051026"/>
          <path d="M400.27 274.252H188.458v-97.627c0-23.469 19.025-42.494 42.494-42.494h126.824c23.47 0 42.494 19.025 42.494 42.494v97.627z" fill="#D7DBE2"/>
          <mask id="f" fill="#fff">
            <use xlink:href="#e"/>
          </mask>
          <path fill="#0A1B45" mask="url(#f)" d="M210.942 274.361h46.122v-91.438h-46.122zM356.632 275.28a1 1 0 01-.988-1.158c.122-.764 12.254-76.754 15.997-102.996 1.478-10.365 3.488-24.46-2.15-30.957-2.061-2.376-4.967-3.532-8.883-3.532a1 1 0 110-2c4.467 0 7.964 1.42 10.394 4.222 6.235 7.187 4.15 21.803 2.629 32.476-3.756 26.332-15.891 102.338-16.013 103.103a.999.999 0 01-.986.842M320.322 275.28a1 1 0 01-.956-.707c-.23-.75-23.061-75.183-33.652-102.95-4.654-12.2-20.406-34.986-37.415-34.986a1 1 0 110-2c17.982 0 34.459 23.625 39.284 36.274 10.615 27.828 33.466 102.327 33.695 103.076a1 1 0 01-.956 1.293"/>
          <path d="M358.34 195.86h-45.336c-.594 0-1.131-.35-1.371-.893-.066-.15-6.725-15.118-15.777-29.877-11.753-19.162-22.097-29.29-29.912-29.29a1.5 1.5 0 110-3c20.04 0 44.484 52.238 48.03 60.06h43.152c.654-3.161 2.437-12.291 3.392-22.323 1.53-16.09.293-27.15-3.582-31.985-1.485-1.852-3.334-2.752-5.656-2.752a1.5 1.5 0 010-3c3.245 0 5.936 1.304 7.998 3.877 10.42 13.004.936 56.178.527 58.01a1.5 1.5 0 01-1.464 1.173" fill="#0A1B45" mask="url(#f)"/>
          <path d="M292.81 275.752a1.5 1.5 0 01-1.455-1.135l-11.354-45.21L256 205.249a1.501 1.501 0 012.13-2.115l24.291 24.45c.19.192.325.43.391.693l11.454 45.609a1.5 1.5 0 01-1.456 1.866M372.353 275.752a1.5 1.5 0 01-1.456-1.866l11.455-45.61c.045-.18.123-.35.23-.5l17.292-24.451a1.499 1.499 0 112.45 1.732l-17.13 24.222-11.387 45.338a1.5 1.5 0 01-1.454 1.135" fill="#C0C6CE" mask="url(#f)"/>
          <path d="M43.08 436.574c5.058 7.467 10.393 11.575 15.316 13.702a24.278 24.278 0 0012.933 1.838c3.523-.465 5.376-3.742 5.507-7.366.1-3.62-1.511-7.614-5.171-9.616-3.62-2.014-8.3-2.88-13.25-5.726-2.473-1.426-5.083-3.332-7.608-6.156a41.123 41.123 0 01-3.801-4.949c-1.231-1.914-2.446-4.103-3.638-6.614-4.626-10.087-7.203-7.818-7.47-.9-.234 6.886 2.124 18.32 7.183 25.787" fill="#051026" mask="url(#f)"/>
          <path d="M67.68 351.9c-.199-3-3.526-4.502-8.627-5.037-5.1-.528-11.973-.06-19.257 1.047-7.284 1.103-14.98 2.857-21.732 4.803-6.745 1.936-12.578 4.075-16.067 5.752 2.125 24.528 7.546 43.963 13.646 59.409 6.175 15.437 13.107 26.918 19.565 35.483 13 17.11 23.92 22.658 26.577 24.302a5.927 5.927 0 004.211.749c1.384-.27 2.674-1.011 3.706-2.011 2.057-2.01 3.071-5.131 1.475-8.296-.753-1.493-3.51-5.234-6.905-10.395-3.387-5.16-7.39-11.75-10.7-18.77-3.335-7.007-5.888-14.464-6.626-21.117-.328-3.335-.252-6.456.474-9.227.731-2.772 2.04-5.178 4.074-7.076 4.94-4.576 9.268-4.381 13.025-2.242 3.756 2.15 6.91 6.28 9.605 9.873 3.17 4.303 8.001 4.462 11.472 2.549 3.467-1.921 5.75-5.875 3.926-10.067-3.008-7.073-8.287-15.758-12.866-24.65-4.6-8.868-8.355-17.937-8.976-25.078" fill="#0A1B45" mask="url(#f)"/>
          <path d="M69.03 360.808c-4.695 11.966-8.786 24.54-12.357 37.465 0 0-5.028 1.65-7.905 6.827-1.431 2.555-1.898 5.86-1.958 8.514-.078 2.66.191 4.676.191 4.676a1675.243 1675.243 0 00-27.444 11.69l-.805-1.758c-.51-1.135-1.263-2.773-2.11-4.83-.852-2.056-1.872-4.504-2.931-7.254-1.033-2.76-2.163-5.8-3.253-9.029-2.156-6.467-4.238-13.665-5.635-20.626-1.422-6.949-2.141-13.664-1.885-18.967.67-10.76 17.262-11.784 33.621-10.688 8.181.546 16.304 1.59 22.375 2.438a376.13 376.13 0 0110.096 1.542" fill="#D7DBE2" mask="url(#f)"/>
          <path d="M69.03 360.808l-65.631 6.97C1.655 354.934.503 341.811.156 328.347c.011-1.226-.004-2.439.031-3.673l.138-3.713c.101-2.478.174-4.943.31-7.429l.579-7.517c.109-1.256.175-2.496.324-3.764l.454-3.806c1.067-10.093 3.079-20.456 5.722-30.847l2.243-7.832c.348-1.299.822-2.614 1.287-3.926l1.396-3.93 1.417-3.922c.469-1.305 1.097-2.618 1.644-3.923 1.141-2.613 2.27-5.22 3.47-7.814 2.751-5.196 5.255-10.223 8.772-15.583 3.429-5.17 7.152-10.075 11.133-14.632.393-.426 4.974-5.95 12.367-12.62 7.366-6.694 17.583-14.207 27.979-20.168 10.387-6.027 20.862-10.713 28.679-13.79a171.065 171.065 0 015.334-2.048c1.587-.586 2.971-1.107 4.108-1.49 2.274-.789 3.573-1.238 3.573-1.238 8.805-2.854 17.576-5.216 26.311-7.24 22.618-5.108 44.945-7.932 67.111-9.398 13.097-.32 28.471.224 40.438 5.382 11.952 5.117 20.469 14.803 19.476 31.708-.851 14.646-5.71 23.92-15.489 29.782-9.763 5.903-24.495 8.31-44.722 10.205-16.697.75-33.221 2.445-49.061 5.403-17.23 3.384-33.701 8.33-47.693 15.283-6.969 3.48-13.303 7.432-18.627 11.862-2.67 2.211-5.143 4.513-7.321 6.946-1.063 1.23-2.139 2.451-3.087 3.734-.516.623-.964 1.276-1.411 1.931l-.691.974c-.234.314-.445.75-.672 1.116l-2.739 4.593a263.093 263.093 0 01-2.449 4.978c-.45.802-.761 1.728-1.127 2.61l-1.085 2.667c-.788 1.734-1.353 3.654-1.982 5.535a138.67 138.67 0 00-5.612 24.22c-1.218 8.532-2.011 17.351-2.213 26.38-.198 9.027-.015 18.2.559 27.454" fill="#D7DBE2" mask="url(#f)"/>
          <path d="M199.481 211.713l-8.727-66.429c14.245-1.537 28.403-2.392 42.533-2.708 9.701-.446 18.6 3.124 24.846 9.114 6.278 5.99 9.858 14.356 9.604 23.462-.255 9.111-4.046 17.25-9.697 23.207-5.678 5.957-13.262 9.758-21.745 10.15-12.373.566-24.699 1.61-36.814 3.204M60.7 224.736l-21.624-18.699c5.92-6.86 12.385-12.904 19.065-18.258 6.688-5.35 13.606-10 20.595-14.098 13.997-8.182 28.24-14.203 42.38-18.999l9.154 27.082c1.13 3.357.493 6.97-1.336 10.067a16.335 16.335 0 01-3.584 4.265c-1.446 1.286-3.171 2.304-5.08 3.13-7.081 2.97-14.011 6.3-20.605 10.19-3.324 1.901-6.508 4.02-9.656 6.181-3.095 2.235-6.16 4.517-9.022 7.033-1.594 1.313-3.226 2.424-5.011 3.17a17.555 17.555 0 01-5.374 1.503c-3.559.471-7.234-.278-9.902-2.567M38.572 251.471l4.933 2.115c-6.738 11.306-11.778 23.597-15.587 36.144-3.808 12.565-6.409 25.42-8.197 38.31l-12.627-.734c3.029-13.32 6.901-26.547 12.001-39.374 5.1-12.807 11.46-25.247 19.477-36.46M14.243 366.626l-11.305.891C1.26 354.378.2 340.953 0 327.177l19.722.864c-2.556 12.749-4.331 25.657-5.48 38.585" fill="#0A1B45" mask="url(#f)"/>
          <path d="M213.578 191.189l-2.676-29.018a494.2 494.2 0 0120.85-1.48l1.462 29.104c-6.56.327-13.11.79-19.636 1.394" fill="#FFF" mask="url(#f)"/>
          <path fill="#CC2935" mask="url(#f)" d="M230.475 189.939l-1.626-29.095 2.903-.153 1.461 29.104zM224.835 190.29l-1.97-29.075 2.903-.19 1.802 29.084zM219.202 190.703l-2.32-29.048 2.902-.222 2.148 29.062zM213.578 191.189l-2.676-29.018 2.9-.261 2.502 29.033z"/>
          <path d="M223.85 175.752l-.997-14.716a484.9 484.9 0 018.931-.526l.74 14.731c-2.894.142-5.785.315-8.674.511" fill="#0A1B45" mask="url(#f)"/>
          <path fill="#FFF" mask="url(#f)" d="M231.39 163.734l-.677.37-.072.753-.566-.513-.754.168.322-.69-.397-.647.77.086.512-.57.15.744zM231.552 166.894l-.672.37-.07.754-.566-.514-.749.169.321-.69-.394-.649.764.088.508-.57.15.743zM231.713 170.056l-.667.37-.07.753-.561-.514-.744.168.318-.69-.392-.648.76.088.505-.57.149.744zM231.866 173.04l-.663.369-.069.754-.558-.515-.74.169.315-.69-.389-.648.755.087.502-.568.149.742zM228.934 163.864l-.674.375-.068.754-.57-.509-.752.172.32-.69-.402-.647.771.083.51-.573.153.741zM229.112 167.024l-.67.375-.067.753-.567-.509-.749.172.318-.689-.398-.648.766.083.506-.573.153.742zM229.289 170.185l-.665.374-.066.754-.564-.51-.743.172.314-.69-.395-.647.76.084.503-.573.152.742zM229.456 173.167l-.661.375-.066.754-.56-.51-.738.172.312-.69-.393-.649.755.084.499-.572.153.743zM226.48 164.008l-.672.375-.064.754-.573-.505-.753.178.317-.692-.403-.645.77.077.506-.576.158.74zM226.673 167.167l-.668.375-.063.754-.57-.505-.747.178.314-.693-.401-.645.766.078.503-.577.157.741zM226.865 170.326l-.663.375-.063.754-.566-.506-.742.178.31-.692-.398-.645.762.078.499-.577.156.741zM227.047 173.309l-.66.374-.062.754-.562-.505-.738.177.309-.692-.396-.645.756.078.497-.576.156.74z"/>
          <path d="M330.306 192.596a1 1 0 01-.974-.777c-5.366-23.477-16.994-37.649-25.803-45.405-9.555-8.41-17.954-11.307-18.038-11.336a.999.999 0 11.637-1.895c.346.116 34.626 12.13 45.154 58.19a1 1 0 01-.976 1.223M347.81 192.596a1 1 0 01-.975-.777c-10.486-45.88-4.66-57.675-4.407-58.155a1.001 1.001 0 011.773.927c-.082.167-5.638 12.06 4.584 56.782a1 1 0 01-.976 1.223" fill="#C0C6CE" mask="url(#f)"/>
        </g>
      </g>
      <path d="M406.17 234.412l-4.974.348c-23.177 1.62-43.277-15.853-44.898-39.029l-1.376-19.684c-1.241-17.741 12.136-33.13 29.878-34.37l5.58-.39c17.742-1.241 33.13 12.136 34.371 29.877l2.71 38.755c.884 12.643-8.648 23.609-21.29 24.493" fill="#B18058" blush:skin="500"/>
      <path d="M368.727 201.443c.482 6.887-4.711 12.86-11.598 13.342-6.886.481-12.86-4.71-13.341-11.598-.482-6.887 4.711-12.86 11.598-13.341 6.886-.482 12.86 4.71 13.341 11.597" fill="#B18058" blush:skin="500"/>
      <path d="M353.564 198.663s5.528-.387 5.915 5.142" stroke="#000" stroke-width="3"/>
      <path d="M354.887 189.88l-1.533.108c-6.236-5.27-9.29-16.685-10.75-27.87-2.003-15.326 23.81-30.183 39.23-31.261l17.941-1.255 18.789 24.75-39.209 2.742c1.186 16.958-12.497 31.95-24.468 32.787" fill="#000"/>
      <path d="M373.786 156.8l24.68 5.589c9.928 2.247 19.799-3.978 22.046-13.906l1.752-7.74a7.171 7.171 0 00-5.41-8.579l-21.022-4.76c-13.075-2.96-26.075 5.239-29.035 18.314a9.263 9.263 0 006.99 11.082M410.372 265.194l-16.827 1.176c-13.188.922-27.523-5.286-33.236-15.726 0 0-.746-8.215-1.049-12.551l-.49-7.004c-.14-2.014 1.466-3.767 3.588-3.916l57.625-4.03c2.122-.148 3.957 1.365 4.098 3.38l1.54 22.02c.599 8.565-6.228 16.02-15.249 16.65" fill="#000"/>
      <path d="M434.422 236.999c-2.918 8.787-11.326 14.981-21.056 15.661l-7.6.532c-22.709 1.588-36.72-6.86-51.166-16.819 0 0-9.132-7.631-16.258-22.857-8.92-19.059-15.795-47.545-10.263-59.59 5.62-12.233 21.103-36.863 45.96-38.6 35.898-2.511 63.744 15.012 66.11 48.836l-2.172 43.661c.495 7.07-1.168 21.988-3.555 29.176" fill="#D7DBE2"/>
      <path d="M345.048 176.84s8.112-42.612 52.77-45.735c23.85-1.668 38.376 16.076 42.043 38.819l-1.884 37.899s-8.68 47.211-70.844 11.27c-1.897-1.095-3.155-2.964-3.933-4.932l-18.152-37.321z" fill="#0A1B45"/>
      <path stroke="#FFF" stroke-width="7" stroke-linecap="round" stroke-linejoin="round" stroke-dasharray="12" d="M369.98 162.137l11.487 26.887"/>
    </g>
    <g transform="matrix(1.02852 1.0258 -1.02852 1.0258 666.185 648.8)" blush:width="208" blush:height="206" blush:component="Space/Space Stuff">
      <path d="M32.146 131.154c0-7.63 6.045-13.818 13.5-13.818 7.456 0 13.5 6.187 13.5 13.818 0 7.632-13.5 24.182-13.5 24.182s-13.5-16.55-13.5-24.182z" fill="#CC471D" fill-rule="nonzero"/>
      <path d="M38.646 132.515c0-3.754 3.136-6.8 7-6.8s7 3.046 7 6.8-7 10.2-7 10.2-7-6.446-7-10.2z" fill="#E4D125" fill-rule="nonzero"/>
      <path d="M30.923 131.48c-5.204 0-9.423-1.76-9.423-7.416v-84.11c0-2.232 6.788-13.366 20.364-33.402a5 5 0 018.276-.003c13.508 19.9 20.293 30.926 20.355 33.082l.005.323v84.11c0 5.56-4.077 7.26-9.16 7.411l-.263.004H30.923z" fill="#C383F5"/>
      <path d="M70.854 120.73v2.848c0 5.363-4.078 7.001-9.16 7.148l-.264.004H31.277c-5.205 0-9.423-1.696-9.423-7.152v-2.848h49z" fill="#8F3ED8"/>
      <path d="M.852 112.07c5.224-13.61 12.696-24.91 21-35.357v38.742l-21 6.258v-9.643zM91.148 112.07c-5.224-13.61-12.696-24.91-21-35.357v38.742l21 6.258v-9.643z" fill="#8134C8"/>
      <circle fill="#7B34BB" cx="46" cy="53.958" r="13"/>
      <circle fill="#551D89" cx="46" cy="54.665" r="9.5"/>
    </g>
  </g>
</svg>
