<svg viewBox="-10.576923076923094 110.98500000000001 819.7115384615383 787.4650000000001" xmlns="http://www.w3.org/2000/svg" xmlns:xlink="http://www.w3.org/1999/xlink" xmlns:blush="http://design.blush" overflow="visible" width="1000px" height="960.6611143695019px"><defs><ellipse id="mastercompsastronaut-path-1" cx="37.347" cy="36.436" rx="37.007" ry="36.38"/><ellipse id="mastercompsastronaut-path-5" cx="92.479" cy="89.355" rx="91.636" ry="89.218"/><polygon id="mastercompsastronaut-path-3" points="0 838 712.461 838 712.461 0.099 0 0.099"/></defs><g id="Master/Comps/Astronaut" stroke="none" stroke-width="1" fill="none" fill-rule="evenodd"><g id="Small Elements" transform="translate(102.500000, 696.500000) scale(0.5111111111111111 0.5111111111111111)" blush:width="138" blush:height="138" blush:component="Small Elements"><g id="Small Elements/Big Graph" stroke="none" stroke-width="1" fill="none" fill-rule="evenodd"><g id="Pie-Chart" transform="translate(29.000000, 29.000000)"><path d="M212,107.648233 C212,48.4524698 164.2894,0 106,0 L106,107.648233 L178.4404,186 C199.0468,166.843997 212,138.742426 212,107.648233 Z" id="Value" fill="#F2F2F2"/><path d="M108.926458,106 L2,106 C2,133.6713 13.275395,159.5989 31.1000356,178.4404 C50.7050018,199.0468 78.6235001,212 108.926458,212 C136.83961,212 162.389688,200.8223 182,183.1521 L108.926458,106 Z" id="Value" fill="#AFB9C5"/><path d="M0,106 C0,47.7106 47.7106,0 106,0 L106,106 L0,106 Z M159,0 L116.6,95.4 L212,53 C202.566,28.2702 181.3819,9.434 159,0 Z" id="Value" fill="#902EE9"/></g></g></g><g id="Space/Space Blob" transform="translate(0.000000, 133.000000) scale(1.5854126679462572 1.5808383233532934)" blush:width="826" blush:height="792" blush:component="Space/Space Blob"><g id="Space/Space Blob/1" stroke="none" stroke-width="1" fill="none" fill-rule="evenodd"><path d="M421.532241,44.5681909 C463.077658,70.8943232 491.70403,118.895328 499.790051,167.826584 C507.969014,216.850866 495.607626,266.898425 478.5991,314.248253 C461.683517,361.691106 440.120795,406.343203 404.709601,437.22757 C369.391349,468.018912 320.224625,484.949499 272.266158,483.368071 C224.214747,481.693617 177.464536,461.507148 134.153206,433.320512 C90.841877,405.04085 50.96943,368.761021 31.82322,322.620521 C12.6770101,276.573046 14.1640943,220.664899 35.0762169,175.733726 C55.9883394,130.802554 96.3255002,96.8483546 138.893287,70.801298 C181.461075,44.8472665 226.259488,26.8003772 275.890926,20.1955878 C325.522363,13.4977733 379.986825,18.2420586 421.532241,44.5681909 Z" id="blobs-burgers" fill="#48258E"/></g></g><g id="Space/Stars" transform="translate(107.000000, 236.000000) scale(1.8601823708206686 1.8630573248407643)" blush:width="612" blush:height="585" blush:component="Space/Stars"><g id="Space/Stars/3" stroke="none" stroke-width="1" fill="none" fill-rule="evenodd"><polygon id="Star" fill="#E7C92D" transform="translate(17.500000, 237.000000) rotate(45.000000) translate(-17.500000, -237.000000)" points="17.5 239.406901 12.9038059 241.949747 15.2650205 237 12.9038059 232.050253 17.5 234.593099 22.0961941 232.050253 19.7349795 237 22.0961941 241.949747"/><polygon id="Star" fill="#E7C92D" transform="translate(294.000000, 183.485281) rotate(45.000000) translate(-294.000000, -183.485281)" points="294 185.548339 289.757359 187.727922 291.936942 183.485281 289.757359 179.242641 294 181.422223 298.242641 179.242641 296.063058 183.485281 298.242641 187.727922"/><polygon id="Star" fill="#2773B1" transform="translate(282.899495, 200.041631) rotate(45.000000) translate(-282.899495, -200.041631)" points="282.899495 202.448532 277.949747 204.991378 280.492594 200.041631 277.949747 195.091883 282.899495 197.63473 287.849242 195.091883 285.306396 200.041631 287.849242 204.991378"/><polygon id="Star" fill="#2773B1" transform="translate(22.500000, 265.000000) rotate(45.000000) translate(-22.500000, -265.000000)" points="22.5 267.750744 17.1966991 270.656854 19.9211775 265 17.1966991 259.343146 22.5 262.249256 27.8033009 259.343146 25.0788225 265 27.8033009 270.656854"/><g id="Group" transform="translate(108.000000, 24.000000)" fill="#F0C026"><circle id="Oval" opacity=".31" cx="17" cy="17" r="17"/><circle id="Oval" cx="17" cy="17" r="6"/></g><g id="Group" transform="translate(38.000000, 266.000000)" fill="#1C6AE6"><ellipse id="Oval" fill-opacity=".4" cx="19" cy="18.5" rx="19" ry="18.5"/><circle id="Oval" cx="19.5" cy="18.5" r="6.5"/></g><g id="Group" transform="translate(21.000000, 28.000000)" fill="#1C6AE6"><circle id="Oval" fill-opacity=".4" cx="5.5" cy="5.5" r="5.5"/><circle id="Oval" cx="5.5" cy="5.5" r="2.5"/></g><g id="Group" transform="translate(192.000000, 141.000000)" fill="#1C6AE6"><circle id="Oval" fill-opacity=".4" cx="7" cy="7" r="7"/><circle id="Oval" cx="7" cy="7" r="4"/></g><g id="Group" transform="translate(99.000000, 10.000000)" fill="#1C6AE6"><circle id="Oval" fill-opacity=".4" cx="7" cy="7" r="7"/><circle id="Oval" cx="7" cy="7" r="4"/></g><g id="Group" transform="translate(182.000000, 160.000000)" fill="#E7C92D"><circle id="Oval" opacity=".352" cx="5" cy="5" r="5"/><circle id="Oval" cx="5" cy="5" r="2.857"/></g><g id="Group" transform="translate(89.000000, 29.000000)" fill="#E7C92D"><circle id="Oval" opacity=".352" cx="5" cy="5" r="5"/><circle id="Oval" cx="5" cy="5" r="2.857"/></g><g id="Group" transform="translate(26.000000, 17.000000)" fill="#E7C92D"><circle id="Oval" opacity=".352" cx="4" cy="4" r="4"/><circle id="Oval" cx="4" cy="4" r="2"/></g><g id="Group-2" transform="translate(275.000000, 219.000000)"><g id="Group" transform="translate(0.000000, 11.000000)" fill="#1C6AE6"><circle id="Oval" fill-opacity=".4" cx="5.5" cy="5.5" r="5.5"/><circle id="Oval" cx="5.5" cy="5.5" r="2.5"/></g><g id="Group" transform="translate(5.000000, 0.000000)" fill="#E7C92D"><circle id="Oval" opacity=".352" cx="4" cy="4" r="4"/><circle id="Oval" cx="4" cy="4" r="2"/></g></g><polygon id="Star" fill="#439DE6" transform="translate(304.000000, 210.485281) rotate(45.000000) translate(-304.000000, -210.485281)" points="304 214.267554 296.221825 218.263456 300.217727 210.485281 296.221825 202.707107 304 206.703008 311.778175 202.707107 307.782273 210.485281 311.778175 218.263456"/><polygon id="Star" fill="#439DE6" transform="translate(51.000000, 243.000000) rotate(45.000000) translate(-51.000000, -243.000000)" points="51 247.126116 42.5147186 251.485281 46.8738839 243 42.5147186 234.514719 51 238.873884 59.4852814 234.514719 55.1261161 243 59.4852814 251.485281"/></g></g><g id="Space/Space Stuff" transform="translate(123.000000, 167.000000) scale(0.9790209790209791 0.971830985915493)" blush:width="140" blush:height="138" blush:component="Space/Space Stuff"><g id="Space/Space Stuff/Comet" stroke="none" stroke-width="1" fill="none" fill-rule="evenodd"><g id="Group-27" transform="translate(71.000000, 71.000000) rotate(-315.000000) translate(-71.000000, -71.000000) translate(25.000000, -7.000000)"><path d="M32.1464466,131.154491 C32.1464466,123.5234 38.1910716,117.336309 45.6464466,117.336309 C53.1018216,117.336309 59.1464466,123.5234 59.1464466,131.154491 C59.1464466,138.785582 45.6464466,155.336309 45.6464466,155.336309 C45.6464466,155.336309 32.1464466,138.785582 32.1464466,131.154491 Z" id="Path" fill="#CC471D" fill-rule="nonzero"/><path d="M38.6464466,132.514989 C38.6464466,128.761389 41.7824466,125.714989 45.6464466,125.714989 C49.5104466,125.714989 52.6464466,128.761389 52.6464466,132.514989 C52.6464466,136.268589 45.6464466,142.714989 45.6464466,142.714989 C45.6464466,142.714989 38.6464466,136.268589 38.6464466,132.514989 Z" id="Path" fill="#E4D125" fill-rule="nonzero"/><path d="M30.9230769,131.479185 C25.7188552,131.479185 21.5,129.720734 21.5,124.064169 L21.5,39.9538316 C21.5,37.7215286 28.2879178,26.5876263 41.8637533,6.55212454 L41.8637555,6.55212607 C43.4127599,4.26607308 46.5216881,3.6685771 48.8077411,5.21758146 C49.332115,5.5728914 49.7842014,6.02460144 50.139948,6.54867914 C63.6477939,26.4481257 70.4329185,37.4754068 70.4953219,39.6305225 L70.5,39.9538316 L70.5,124.064169 C70.5,129.62486 66.4229448,131.323202 61.3406796,131.475017 L61.0769231,131.479185 L30.9230769,131.479185 Z" id="Path" fill="#C383F5"/><path d="M70.8535534,120.729708 L70.8535534,123.577569 C70.8535534,128.941122 66.7764982,130.579255 61.694233,130.725688 L61.4304765,130.729708 L31.2766303,130.729708 C26.0724086,130.729708 21.8535534,129.033597 21.8535534,123.577569 L21.8535534,120.729708 L70.8535534,120.729708 Z" id="Combined-Shape" fill="#8F3ED8"/><path d="M0.851767722,112.070346 C6.07565839,98.4601063 13.547994,87.1596034 21.8517677,76.7132034 L21.8517677,115.454851 L0.851767722,121.713203 L0.851767722,112.070346 Z" id="Rectangle" fill="#8134C8"/><path d="M70.1482323,112.070346 C75.3721229,98.4601063 82.8444586,87.1596034 91.1482323,76.7132034 L91.1482323,115.454851 L70.1482323,121.713203 L70.1482323,112.070346 Z" id="Rectangle" fill="#8134C8" transform="translate(80.648232, 99.213203) scale(-1, 1) translate(-80.648232, -99.213203)"/><circle id="Oval" fill="#7B34BB" cx="46" cy="53.958" r="13"/><circle id="Oval" fill="#551D89" cx="46" cy="54.665" r="9.5"/></g></g></g><g id="Space/Space Stuff" opacity=".744" transform="translate(578.000000, 399.000000) scale(0.5874125874125874 0.5915492957746479)" blush:width="84" blush:height="84" blush:component="Space/Space Stuff"><defs><circle id="spacespace-stuffsaturn-1-path-1" cx="55.5" cy="55.5" r="55.5"/></defs><g id="Space/Space Stuff/Saturn 1" stroke="none" stroke-width="1" fill="none" fill-rule="evenodd"><g id="Group" transform="translate(71.500000, 70.500000) rotate(10.000000) translate(-71.500000, -70.500000) translate(-33.000000, 15.000000)"><g id="planet" transform="translate(49.000000, 0.000000)"><mask id="spacespace-stuffsaturn-1-mask-2" fill="#fff"><use xlink:href="#spacespace-stuffsaturn-1-path-1"/></mask><use id="Mask" fill="#613CAB" xlink:href="#spacespace-stuffsaturn-1-path-1"/><path d="M135.711487,67.0001082 C135.902542,67.8242348 136,68.6579978 136,69.5 C136,85.7924001 99.5112071,99 54.5,99 C9.48879289,99 -27,85.7924001 -27,69.5 C-27,68.6579978 -26.9025424,67.8242348 -26.7114874,67.0001082 C-23.2059671,82.1221911 11.8148437,94 54.5,94 C96.8105347,94 131.590664,82.3297647 135.611962,67.3971297 Z" id="rings" fill="#155EC2" mask="url(#spacespace-stuffsaturn-1-mask-2)"/><path d="M171.424881,18.0003534 C171.805253,19.315864 172,20.6501233 172,22 C172,44.09139 119.841173,62 55.5,62 C-8.84117335,62 -61,44.09139 -61,22 C-61,20.6501233 -60.8052534,19.315864 -60.4248806,18.0003534 C-54.5804493,38.2130491 -4.90976781,54 55.5,54 C115.337291,54 164.638071,38.5108432 171.246977,18.5729971 Z" id="rings" fill="#1A6FE4" mask="url(#spacespace-stuffsaturn-1-mask-2)"/><path d="M141.692017,9.00010822 C141.895965,9.82423479 142,10.6579978 142,11.5 C142,27.7924001 103.048773,41 55,41 C6.95122677,41 -32,27.7924001 -32,11.5 C-32,10.6579978 -31.8959655,9.82423479 -31.6920173,9.00010822 C-27.9499281,24.1221911 9.43425037,36 55,36 C100.165847,36 137.293102,24.3297647 141.585775,9.39712965 Z" id="rings" fill="#1A6FE4" mask="url(#spacespace-stuffsaturn-1-mask-2)"/></g><path d="M209,60 C209,75.463973 162.213756,88 104.5,88 C46.7862436,88 0,75.463973 0,60 C0,49.5928783 21.1903083,40.5118747 52.6408394,35.6856243 C51.8640194,37.7191494 51.202476,39.8110239 50.6653308,41.9522575 C39.0636338,44.6122465 32,48.1354543 32,52 C32,60.2842712 64.4593556,67 104.5,67 C144.540644,67 177,60.2842712 177,52 C177,48.1354543 169.936366,44.6122465 158.334608,41.9528959 C157.797524,39.8110239 157.135981,37.7191494 156.358167,35.6847623 C187.809692,40.5118747 209,49.5928783 209,60 Z" id="ring" fill="#E09E3B"/></g></g></g><g transform="translate(450.500000, 529.500000) rotate(-4.000000) translate(-450.500000, -529.500000) translate(94.000000, 110.000000) scale(1 1)" blush:width="713" blush:height="839" id="Master/Character/Astronaut" blush:component="Master/Character/Astronaut"><defs><polygon id="mastercharacterastronaut-path-1" points="0 838 712.461 838 712.461 0.099 0 0.099"/></defs><g id="Master/Character/Astronaut" stroke="none" stroke-width="1" fill="none" fill-rule="evenodd"><g id="Group-121" transform="translate(0.000000, -126.000000)"><g id="Lower" transform="translate(-64.000000, 400.901000) scale(1 1)" blush:width="714" blush:height="630" blush:component="Lower"><defs><polygon id="lowergiant-step-path-1" points="0 0.7523 219.4356 0.7523 219.4356 135.324025 0 135.324025"/></defs><g id="Lower/Giant Step" stroke="none" stroke-width="1" fill="none" fill-rule="evenodd"><g id="Group-38" transform="translate(-51.800000, -2.330000)"><path d="M758.829,456.2972 C667.469,441.1892 690.808,471.4272 689.708,384.8352 C686.093,230.2752 635.697,163.5532 494.314,104.4162 L524.617,31.4592 C661.484,88.3852 745.058,164.6282 763.869,317.1482 C766.856,339.1012 768.365,361.5812 768.699,383.7062 C767.524,393.9892 772.149,461.0232 758.829,456.2972" id="Fill-1" fill="#B18058" blush:skin="500"/><path d="M774.7167,431.8348 C778.4167,369.2318 774.1647,306.1488 755.8427,245.6978 L667.6877,272.7188 C684.8407,330.4628 687.0377,392.3318 680.2367,451.9918 C681.2067,452.1388 709.2587,456.3818 711.0557,456.6528 C711.8667,454.9568 712.4947,452.8408 713.1547,450.9868 L729.3907,459.4268 C748.5947,462.3308 787.7327,468.2518 806.7957,471.1348 C807.2647,467.8358 807.8427,463.3088 808.2057,460.0078 C811.6777,445.3558 781.9577,442.1838 774.7167,431.8348" id="Fill-3" fill="#051026"/><path d="M757.9492,252.6785 L669.2982,278.0225 C660.5042,247.8205 647.6802,219.3965 626.7632,195.9825 C577.6382,144.2165 508.4982,113.6125 441.3212,91.5655 L467.3602,3.1145 C552.8982,30.8735 638.9762,70.7815 699.6212,139.3075 C727.4992,171.7365 746.2282,211.8995 757.9492,252.6785" id="Fill-5" fill="#C0C6CE"/><line x1="686.093" y1="199.685" x2="725.848" y2="176.343" id="Stroke-7" stroke="#0A1B45" stroke-width="2" stroke-linecap="round" stroke-linejoin="round"/><line x1="676.699" y1="184.919" x2="714.517" y2="158.553" id="Stroke-9" stroke="#0A1B45" stroke-width="2" stroke-linecap="round" stroke-linejoin="round"/><line x1="694.496" y1="215.156" x2="735.829" y2="194.739" id="Stroke-11" stroke="#0A1B45" stroke-width="2" stroke-linecap="round" stroke-linejoin="round"/><path d="M465.3261,10.0252 C552.3421,38.4412 641.1391,79.3652 700.4111,151.6192" id="Stroke-13" stroke="#051026" stroke-width="2" stroke-linecap="round"/><path d="M741.6669,207.2962 C732.2179,209.7372 706.6179,228.2372 697.3899,218.8682 C691.6969,212.1842 688.9269,203.1242 683.8679,195.9012 C682.4379,193.3562 678.3459,187.4372 676.6989,184.9192 C666.0449,169.9402 698.6009,155.3942 706.0829,147.1782" id="Stroke-15" stroke="#0A1B45" stroke-width="2" stroke-linecap="round" stroke-linejoin="round"/><path d="M417.5302,100.5943 L407.5292,100.5943 C352.8532,100.5943 308.5302,56.2703 308.5302,1.5943 L516.5302,1.5943 C516.5302,56.2703 472.2062,100.5943 417.5302,100.5943" id="Fill-17" fill="#D7DBE2"/><path d="M11.7959,307.4976 L13.9689,241.4866 C14.3469,234.0136 20.6829,235.0916 25.9219,235.0996 C40.5949,234.6166 67.6909,234.5596 82.7589,234.4826 C140.2489,232.6476 224.0219,237.2186 274.4829,211.2206 C316.1049,176.0516 317.6909,117.5026 316.1389,66.2926 L395.0719,63.0736 C399.1219,137.3786 386.4769,222.0716 325.1959,271.8556 C288.4439,300.0266 240.6949,304.8296 196.5139,309.5526 C148.4529,313.7776 99.1659,313.3336 51.0789,313.6456 C43.6849,313.6956 34.4839,313.9166 27.0919,314.0906 C21.4129,314.1936 11.8199,315.4636 11.7959,307.4976" id="Fill-19" fill="#B18058" blush:skin="500"/><g id="Group-23" transform="translate(0.000000, 222.135000)"><mask id="lowergiant-step-mask-2" fill="#fff"><use xlink:href="#lowergiant-step-path-1"/></mask><g id="Clip-22"/><path d="M37.5976,98.9183 C97.7576,98.0073 159.2366,99.6723 219.4356,92.2603 L208.1276,0.7523 C142.9086,8.0473 76.4266,6.1783 10.2986,6.6903 C9.9936,11.0033 9.0196,23.6133 8.6726,28.1043 C6.9396,50.5243 10.6686,2.0473 10.3466,6.6943 C10.3926,6.6973 10.5186,6.7083 10.5666,6.7123 C10.4856,7.6903 8.1436,35.9653 7.9936,37.7753 C9.4376,38.5153 11.6046,38.8883 13.3086,39.4063 C11.2166,44.9613 8.5506,50.7073 6.4616,56.2563 C4.8626,75.5963 1.5896,115.0723 -0.0004,134.2753 C2.4936,134.4793 6.1396,134.6563 8.6546,134.7583 C27.7736,139.7853 27.6896,109.9543 37.5976,98.9183" id="Fill-21" fill="#0A1B45" mask="url(#lowergiant-step-mask-2)"/></g><path d="M202.0883,223.607 C226.1303,220.396 249.8703,217.953 270.3343,206.879 C270.4573,206.684 270.6433,206.543 270.8663,206.48 C326.3083,158.078 305.77836,66.6171 304.82236,0.9431 L399.0453,2.004 C403.8783,85.574 412.1283,178.016 357.5213,248.57 C349.5233,259.175 339.6063,269.106 329.4633,277.669 C296.2503,303.657 252.4383,310.198 212.2363,315.251 L202.0883,223.607 Z" id="Fill-24" fill="#D7DBE2"/><path d="M335.553,234.5484 C325.699,235.1104 315.622,234.6004 305.892,233.1174 C304.653,223.8434 302.543,214.7784 299.35,206.0054 C343.341,147.4174 328.939,69.7224 327.129,0.9624 L373.231,0.9894 C377.162,79.4514 387.486,168.4614 335.553,234.5484" id="Fill-26" fill="#0A1B45"/><line x1="278.062" y1="254.211" x2="294.916" y2="297.122" id="Stroke-28" stroke="#0A1B45" stroke-width="2" stroke-linecap="round" stroke-linejoin="round"/><line x1="292.776" y1="247.164" x2="316.422" y2="286.74" id="Stroke-30" stroke="#0A1B45" stroke-width="2" stroke-linecap="round" stroke-linejoin="round"/><line x1="261.523" y1="259.663" x2="273.842" y2="304.088" id="Stroke-32" stroke="#0A1B45" stroke-width="2" stroke-linecap="round" stroke-linejoin="round"/><path d="M391.8408,2.0001 C398.1458,94.1911 405.2198,205.7341 325.9348,271.2081" id="Stroke-34" stroke="#0A1B45" stroke-width="2" stroke-linecap="round"/><path d="M260.0175,307.543 C259.5595,300.135 248.9125,272.075 254.2395,265.485 C258.1045,258.421 267.4805,258.7 274.0855,255.747 C280.4865,253.353 286.9795,250.668 292.7765,247.164 C307.1365,238.975 322.2605,269.765 330.5645,276.727" id="Stroke-36" stroke="#0A1B45" stroke-width="2" stroke-linecap="round" stroke-linejoin="round"/></g></g></g><g id="Upper" transform="translate(0.000000, 0.901000) scale(1 1)" blush:width="713" blush:height="631" blush:component="Upper"><defs><polygon id="upperspread-arms-path-1" points="0 838 712.461 838 712.461 0.099 0 0.099"/></defs><g id="Upper/Spread Arms" stroke="none" stroke-width="1" fill="none" fill-rule="evenodd"><g id="Upper" transform="translate(0.000000, 126.000000)"><path d="M708.9402,124.8384 C713.0682,127.6044 713.6692,133.9354 710.1962,138.8624 C695.0852,160.2394 678.8062,180.6564 660.6022,200.0824 C656.3652,204.5244 650.0572,205.2784 646.5012,201.7584 C643.0022,198.2754 643.4282,192.0054 647.4752,187.7644 C665.0012,169.0694 680.8272,149.2314 695.4772,128.5014 C698.8252,123.7534 704.8072,122.0724 708.9402,124.8384" id="Fill-38" fill="#051026"/><path d="M702.7234,105.125 C706.9404,107.758 707.7384,114.059 704.4564,118.955 C698.1044,128.469 691.4834,137.666 684.6204,146.726 C681.0634,151.379 674.9824,152.617 671.0784,149.518 C667.1974,146.435 666.8584,140.322 670.2864,135.837 C676.9354,127.06 683.3684,118.125 689.4914,108.954 C692.6324,104.267 698.4964,102.51 702.7234,105.125" id="Fill-40" fill="#051026"/><path d="M690.3572,94.7168 C694.6332,97.2628 695.5812,103.3988 692.4242,108.1578 C686.3062,117.3938 679.9092,126.3978 673.2542,135.2208 C669.8442,139.7848 663.7942,140.9028 659.9062,137.8398 C655.9842,134.7518 655.5942,128.7858 658.8782,124.3898 C665.3202,115.8488 671.5292,107.1088 677.4102,98.2318 C680.4262,93.6798 686.1212,92.1278 690.3572,94.7168" id="Fill-42" fill="#051026"/><path d="M648.0398,112.187 C652.0228,115.129 652.6518,121.09 649.3108,125.391 C642.8518,133.748 636.1578,141.907 629.2308,149.812 C627.4368,151.835 623.6178,152.81 620.2138,153.153 C616.8218,153.52 613.9158,153.362 613.9158,153.362 C618.2178,148.644 610.1958,144.215 617.7668,135.589 C623.6998,128.718 629.4658,121.628 635.0648,114.387 C638.2768,110.255 644.0278,109.221 648.0398,112.187" id="Fill-44" fill="#051026"/><path d="M672.1638,93.4678 C676.3258,96.1758 677.2658,102.1248 674.1178,106.6788 C663.6148,121.9028 652.3508,136.6658 640.3478,150.7138 C638.5728,152.8238 636.1698,154.0468 633.7508,154.3078 C631.3388,154.5798 628.9308,153.9088 627.0738,152.2568 C625.2178,150.6048 624.2568,148.2918 624.1868,145.9088 C624.1278,143.5338 624.9418,141.0678 626.6528,139.0328 C638.2178,125.4998 649.1498,111.1738 659.2898,96.4738 C662.3098,92.1068 667.9948,90.7518 672.1638,93.4678" id="Fill-46" fill="#051026"/><path d="M676.5437,129.1279 C683.9007,134.5179 688.0297,142.8509 688.4687,152.1329 C688.9047,161.3819 685.5967,171.5469 678.4427,180.0119 C662.7387,197.8739 645.7677,214.9789 626.6597,230.6959 C617.0847,238.5319 607.0647,246.0779 596.1337,252.9279 C585.2297,259.7819 573.5527,266.0519 560.8397,271.1729 C548.1517,276.2889 534.3197,280.1989 519.6267,281.9499 C504.8977,283.6499 490.1257,282.8699 476.2567,280.2469 C462.3547,277.6339 449.3287,273.2529 437.2317,267.8889 C425.1237,262.5129 413.9057,256.1489 403.3877,249.2139 C383.7827,236.1739 366.5457,221.2359 350.7847,205.2829 C343.6787,198.3959 338.9257,190.5289 337.7647,182.9779 C336.5867,175.4129 339.0167,168.2249 345.9187,162.2879 C352.8307,156.3399 361.4467,153.7399 369.6827,153.9119 C377.9387,154.1119 385.8357,157.0909 391.8807,162.9489 C405.5977,176.2649 420.3127,188.3479 435.7517,198.1449 C452.2477,208.6099 469.7047,216.4019 486.7047,219.2899 C495.1957,220.7439 503.5227,220.9859 511.5757,219.9319 C519.6477,218.8129 527.9697,216.4309 536.2917,212.9019 C544.6137,209.3889 552.9117,204.8129 561.0227,199.5109 C569.1477,194.2349 577.0317,188.0769 584.7177,181.5429 C592.3977,174.9829 599.8557,167.9429 607.0817,160.5579 C614.3007,153.1579 621.2757,145.3979 628.0387,137.4039 C634.3197,129.9699 642.6747,125.3469 651.3997,123.7779 C655.7467,122.9909 660.1917,122.9889 664.4807,123.8539 C668.7527,124.7079 672.8717,126.4309 676.5437,129.1279" id="Fill-48" fill="#051026"/><path d="M608.1951,159.3706 L655.6261,205.2656 C646.7621,213.9386 637.4771,222.3476 627.6321,230.3736 C618.3131,238.8066 608.4371,246.9456 597.5831,254.4546 C586.7491,261.9636 575.0311,268.9286 562.0591,274.7476 C561.5871,274.9576 559.2981,275.9376 556.0511,277.2396 C554.3641,277.8236 552.4351,278.4906 550.3871,279.1986 C549.3611,279.5456 548.3051,279.9036 547.2331,280.2666 C546.1631,280.6286 545.0851,281.0016 543.9321,281.2886 C541.6601,281.8936 539.3871,282.4986 537.2411,283.0706 C536.1651,283.3486 535.1221,283.6176 534.1251,283.8746 C533.1081,284.1036 532.1081,284.2746 531.1911,284.4566 C527.5021,285.1476 524.8581,285.6436 524.3061,285.7466 C516.0471,287.1346 507.5491,287.6796 499.2531,287.5666 C490.9331,287.4526 482.7491,286.6186 474.8271,285.2246 C458.9601,282.4336 444.1901,277.4666 430.5771,271.3626 C419.7431,266.3676 409.5911,260.6656 400.0491,254.4806 C380.7171,241.9306 363.6901,227.6076 348.0371,212.3536 C338.2991,203.0846 329.9541,190.6226 326.7841,178.5426 C323.5751,166.4776 325.4781,154.8366 335.2051,147.5366 C345.0311,140.3716 356.4381,137.3696 368.7521,139.5646 C381.1181,141.7346 394.2701,149.1706 408.7981,162.3286 C419.0461,172.4896 429.8641,181.8106 441.0811,189.7356 C452.5971,197.7736 464.5441,204.3186 476.3921,208.5386 C488.2581,212.7766 499.8701,214.6136 511.0571,213.7226 C511.7571,213.7096 512.4761,213.5616 513.1901,213.4716 L515.3401,213.1846 L517.5011,212.9236 C518.2261,212.8196 518.9661,212.6096 519.7021,212.4636 L524.1441,211.5316 L528.6651,210.2096 C529.4221,209.9776 530.1801,209.8176 530.9421,209.5346 L533.2321,208.6926 C534.7601,208.1136 536.3011,207.6366 537.8411,206.9936 C540.9111,205.6166 544.0261,204.4346 547.1091,202.7896 C553.3221,199.8426 559.4741,196.0886 565.6101,192.2126 C568.6331,190.1216 571.7251,188.1886 574.7081,185.9246 L579.2251,182.6256 L583.6791,179.1456 C592.0241,173.0656 600.2101,166.4206 608.1951,159.3706" id="Fill-50" fill="#C0C6CE"/><path d="M534.1912,208.3345 L536.7102,214.3365 C545.6902,211.7415 554.8352,207.9405 563.8632,203.3095 C572.9102,198.6975 581.8052,193.1545 590.5122,187.1095 L583.6792,179.1455 C567.7502,191.8055 550.7712,202.2715 534.1912,208.3345" id="Fill-52" fill="#051026"/><path d="M559.9832,269.7988 L562.0592,274.7478 C575.0302,268.9268 586.7472,261.9598 597.5792,254.4488 C608.4322,246.9388 618.3072,238.7988 627.6252,230.3648 L619.4892,220.8818 C611.2792,229.9308 602.4832,238.7408 592.6642,246.9928 C582.8602,255.2468 572.1202,263.0378 559.9832,269.7988" id="Fill-54" fill="#051026"/><path d="M520.9207,264.4268 L524.3067,285.7468 C516.0467,287.1348 507.5487,287.6788 499.2527,287.5668 C490.9337,287.4528 482.7487,286.6188 474.8267,285.2238 C458.9597,282.4328 444.1907,277.4668 430.5767,271.3628 L439.4217,251.6698 C440.8837,248.4328 443.7907,246.2488 447.2277,245.1758 C450.6827,244.0938 454.6417,244.1638 458.5497,245.4968 C465.7497,248.0288 473.1877,249.9768 480.7567,251.3268 C488.3297,252.6628 496.0617,253.2758 503.7977,253.1568 C507.9777,253.0278 511.8437,254.2008 514.9477,256.1338 C518.0467,258.1388 520.3567,260.9288 520.9207,264.4268" id="Fill-56" fill="#051026"/><path d="M619.489,220.8823 C631.712,216.3093 643.769,211.0393 655.626,205.2653 C646.76,213.9363 637.471,222.3403 627.625,230.3643 L619.489,220.8823 Z" id="Fill-58" fill="#051026"/><path d="M590.5125,187.1099 C596.8625,178.1319 602.7215,168.8539 608.1955,159.3709 C600.2095,166.4209 592.0245,173.0659 583.6795,179.1459 L590.5125,187.1099 Z" id="Fill-60" fill="#051026"/><path d="M524.03,217.1646 L528.708,233.5146 C526.567,234.0606 524.437,234.6966 522.292,235.1866 L515.827,236.3846 C511.516,237.0676 507.167,237.3986 502.792,237.4756 C494.039,237.5966 485.217,236.4836 476.523,234.4516 C459.12,230.2776 442.345,222.3446 426.705,212.4196 C416.735,206.1106 407.188,198.9736 398.044,191.2956 C388.896,183.6196 380.151,175.3866 371.809,166.7526 C368.622,163.4566 368.916,158.1446 372.378,154.9736 C375.841,151.7996 381.025,151.8196 384.04,154.9376 C399.968,171.3836 417.358,186.3556 435.808,198.0556 C450.278,207.2506 465.463,214.3206 480.454,217.9056 C487.942,219.6506 495.354,220.5716 502.571,220.4706 C506.183,220.4026 509.728,220.1376 513.266,219.5726 C515.048,219.2226 516.831,218.8926 518.619,218.5816 C520.415,218.1696 522.222,217.6156 524.03,217.1646" id="Fill-62" fill="#051026"/><path d="M400.2703,274.2515 L188.4583,274.2515 L188.4583,176.6255 C188.4583,153.1565 207.4833,134.1305 230.9523,134.1305 L357.7763,134.1305 C381.2453,134.1305 400.2703,153.1565 400.2703,176.6255 L400.2703,274.2515 Z" id="Fill-64" fill="#D7DBE2"/><mask id="upperspread-arms-mask-2" fill="#fff"><use xlink:href="#upperspread-arms-path-1"/></mask><g id="Clip-67"/><polygon id="Fill-66" fill="#0A1B45" mask="url(#upperspread-arms-mask-2)" points="210.942 274.361 257.064 274.361 257.064 182.923 210.942 182.923"/><path d="M356.6316,275.2798 C356.5796,275.2798 356.5266,275.2758 356.4726,275.2668 C355.9276,275.1798 355.5566,274.6678 355.6436,274.1218 C355.7656,273.3578 367.8976,197.3678 371.6406,171.1258 C373.1186,160.7608 375.1286,146.6668 369.4906,140.1688 C367.4296,137.7928 364.5236,136.6368 360.6076,136.6368 C360.0546,136.6368 359.6076,136.1898 359.6076,135.6368 C359.6076,135.0848 360.0546,134.6368 360.6076,134.6368 C365.0746,134.6368 368.5716,136.0578 371.0016,138.8588 C377.2366,146.0458 375.1526,160.6618 373.6306,171.3348 C369.8746,197.6668 357.7396,273.6728 357.6176,274.4378 C357.5396,274.9298 357.1146,275.2798 356.6316,275.2798" id="Fill-68" fill="#0A1B45" mask="url(#upperspread-arms-mask-2)"/><path d="M320.322,275.2799 C319.893,275.2799 319.498,275.0029 319.366,274.5729 C319.136,273.8239 296.305,199.3899 285.714,171.6239 C281.06,159.4239 265.308,136.6369 248.299,136.6369 C247.746,136.6369 247.299,136.1899 247.299,135.6369 C247.299,135.0849 247.746,134.6369 248.299,134.6369 C266.281,134.6369 282.758,158.2619 287.583,170.9109 C298.198,198.7389 321.049,273.2379 321.278,273.9869 C321.44,274.5149 321.143,275.0739 320.615,275.2359 C320.517,275.2659 320.419,275.2799 320.322,275.2799" id="Fill-69" fill="#0A1B45" mask="url(#upperspread-arms-mask-2)"/><path d="M358.3406,195.8599 L313.0036,195.8599 C312.4096,195.8599 311.8726,195.5099 311.6326,194.9669 C311.5666,194.8179 304.9076,179.8489 295.8556,165.0899 C284.1026,145.9279 273.7586,135.7999 265.9436,135.7999 C265.1146,135.7999 264.4436,135.1279 264.4436,134.2999 C264.4436,133.4709 265.1146,132.7999 265.9436,132.7999 C285.9836,132.7999 310.4276,185.0379 313.9746,192.8599 L357.1256,192.8599 C357.7796,189.6989 359.5626,180.5689 360.5176,170.5369 C362.0486,154.4469 360.8106,143.3869 356.9356,138.5519 C355.4506,136.6999 353.6016,135.7999 351.2796,135.7999 C350.4516,135.7999 349.7796,135.1279 349.7796,134.2999 C349.7796,133.4709 350.4516,132.7999 351.2796,132.7999 C354.5246,132.7999 357.2156,134.1039 359.2776,136.6769 C369.6976,149.6809 360.2136,192.8549 359.8046,194.6869 C359.6516,195.3719 359.0426,195.8599 358.3406,195.8599" id="Fill-70" fill="#0A1B45" mask="url(#upperspread-arms-mask-2)"/><path d="M292.8093,275.7518 C292.1373,275.7518 291.5263,275.2978 291.3553,274.6168 L280.0013,229.4068 L255.9993,205.2488 C255.4153,204.6608 255.4193,203.7108 256.0063,203.1268 C256.5963,202.5428 257.5443,202.5468 258.1283,203.1338 L282.4203,227.5848 C282.6103,227.7758 282.7453,228.0148 282.8113,228.2768 L294.2653,273.8858 C294.4663,274.6898 293.9793,275.5048 293.1753,275.7058 C293.0533,275.7368 292.9303,275.7518 292.8093,275.7518" id="Fill-71" fill="#C0C6CE" mask="url(#upperspread-arms-mask-2)"/><path d="M372.3533,275.7518 C372.2323,275.7518 372.1093,275.7368 371.9873,275.7058 C371.1833,275.5048 370.6963,274.6898 370.8973,273.8858 L382.3523,228.2768 C382.3973,228.0968 382.4753,227.9268 382.5823,227.7758 L399.8743,203.3248 C400.3523,202.6478 401.2883,202.4888 401.9643,202.9668 C402.6403,203.4448 402.8013,204.3808 402.3233,205.0568 L385.1943,229.2788 L373.8073,274.6168 C373.6363,275.2978 373.0253,275.7518 372.3533,275.7518" id="Fill-72" fill="#C0C6CE" mask="url(#upperspread-arms-mask-2)"/><path d="M43.0808,436.5742 C48.1378,444.0412 53.4728,448.1492 58.3958,450.2762 C63.3038,452.4072 67.8128,452.5682 71.3288,452.1142 C74.8518,451.6492 76.7048,448.3722 76.8358,444.7482 C76.9358,441.1282 75.3248,437.1342 71.6648,435.1322 C68.0448,433.1182 63.3658,432.2522 58.4158,429.4062 C55.9418,427.9802 53.3318,426.0742 50.8068,423.2502 C49.5368,421.8402 48.2598,420.2082 47.0058,418.3012 C45.7748,416.3872 44.5598,414.1982 43.3678,411.6872 C38.7418,401.6002 36.1648,403.8692 35.8988,410.7872 C35.6638,417.6732 38.0218,429.1062 43.0808,436.5742" id="Fill-73" fill="#051026" mask="url(#upperspread-arms-mask-2)"/><path d="M67.6804,351.9009 C67.4814,348.9009 64.1544,347.3979 59.0534,346.8629 C53.9534,346.3349 47.0804,346.8039 39.7964,347.9099 C32.5124,349.0129 24.8164,350.7669 18.0644,352.7129 C11.3194,354.6489 5.4864,356.7879 1.9974,358.4649 C4.1224,382.9929 9.5434,402.4279 15.6434,417.8739 C21.8184,433.3109 28.7504,444.7919 35.2084,453.3569 C48.2074,470.4669 59.1274,476.0149 61.7854,477.6589 C63.1394,478.4729 64.6104,478.6689 65.9964,478.4079 C67.3804,478.1379 68.6704,477.3969 69.7024,476.3969 C71.7594,474.3879 72.7734,471.2659 71.1774,468.1009 C70.4244,466.6079 67.6664,462.8669 64.2724,457.7059 C60.8854,452.5469 56.8814,445.9569 53.5714,438.9369 C50.2374,431.9289 47.6844,424.4719 46.9464,417.8189 C46.6184,414.4839 46.6944,411.3629 47.4204,408.5919 C48.1514,405.8199 49.4604,403.4139 51.4944,401.5159 C56.4344,396.9399 60.7624,397.1349 64.5194,399.2739 C68.2754,401.4249 71.4284,405.5549 74.1244,409.1469 C77.2934,413.4499 82.1254,413.6089 85.5964,411.6959 C89.0634,409.7749 91.3464,405.8209 89.5224,401.6289 C86.5144,394.5559 81.2354,385.8709 76.6564,376.9789 C72.0554,368.1109 68.3014,359.0419 67.6804,351.9009" id="Fill-74" fill="#0A1B45" mask="url(#upperspread-arms-mask-2)"/><path d="M69.03,360.8081 C64.335,372.7741 60.244,385.3471 56.673,398.2731 C56.673,398.2731 51.645,399.9221 48.768,405.1001 C47.337,407.6551 46.87,410.9601 46.81,413.6141 C46.732,416.2731 47.001,418.2901 47.001,418.2901 C37.826,422.1011 28.684,425.9961 19.557,429.9791 C19.557,429.9791 19.27,429.3521 18.752,428.2221 C18.242,427.0871 17.489,425.4491 16.642,423.3911 C15.79,421.3361 14.77,418.8881 13.711,416.1381 C12.678,413.3771 11.548,410.3381 10.458,407.1091 C8.302,400.6421 6.22,393.4441 4.823,386.4831 C3.401,379.5341 2.682,372.8191 2.938,367.5161 C3.608,356.7561 20.2,355.7321 36.559,356.8281 C44.74,357.3741 52.863,358.4171 58.934,359.2661 C65.007,360.1191 69.03,360.8081 69.03,360.8081" id="Fill-75" fill="#D7DBE2" mask="url(#upperspread-arms-mask-2)"/><path d="M69.03,360.8081 L3.399,367.7771 C1.655,354.9351 0.503,341.8121 0.156,328.3481 C0.167,327.1221 0.152,325.9091 0.187,324.6751 L0.325,320.9621 C0.426,318.4841 0.499,316.0191 0.635,313.5331 L1.214,306.0161 C1.323,304.7601 1.389,303.5201 1.538,302.2521 L1.992,298.4461 C3.059,288.3531 5.071,277.9901 7.714,267.5991 L9.957,259.7671 C10.305,258.4681 10.779,257.1531 11.244,255.8411 L12.64,251.9111 L14.057,247.9891 C14.526,246.6841 15.154,245.3711 15.701,244.0661 C16.842,241.4531 17.971,238.8461 19.171,236.2521 C21.922,231.0561 24.426,226.0291 27.943,220.6691 C31.372,215.4991 35.095,210.5941 39.076,206.0371 C39.469,205.6111 44.05,200.0861 51.443,193.4171 C58.809,186.7231 69.026,179.2101 79.422,173.2491 C89.809,167.2221 100.284,162.5361 108.101,159.4591 C110.057,158.6761 111.849,157.9841 113.435,157.4111 C115.022,156.8251 116.406,156.3041 117.543,155.9201 C119.817,155.1321 121.116,154.6831 121.116,154.6831 C129.921,151.8291 138.692,149.4671 147.427,147.4421 C170.045,142.3351 192.372,139.5111 214.538,138.0451 C227.635,137.7251 243.009,138.2691 254.976,143.4271 C266.928,148.5441 275.445,158.2301 274.452,175.1351 C273.601,189.7811 268.742,199.0551 258.963,204.9171 C249.2,210.8201 234.468,213.2261 214.241,215.1221 C197.544,215.8721 181.02,217.5671 165.18,220.5251 C147.95,223.9091 131.479,228.8551 117.487,235.8081 C110.518,239.2881 104.184,243.2401 98.86,247.6701 C96.19,249.8811 93.717,252.1831 91.539,254.6161 C90.476,255.8451 89.4,257.0671 88.452,258.3501 C87.936,258.9731 87.488,259.6261 87.041,260.2811 L86.35,261.2551 C86.116,261.5691 85.905,262.0041 85.678,262.3711 L82.939,266.9641 C82.143,268.6261 81.327,270.2851 80.49,271.9421 C80.04,272.7441 79.729,273.6701 79.363,274.5511 L78.278,277.2191 C77.49,278.9531 76.925,280.8731 76.296,282.7541 C73.818,290.3001 71.868,298.4201 70.684,306.9741 C69.466,315.5061 68.673,324.3251 68.471,333.3541 C68.273,342.3811 68.456,351.5541 69.03,360.8081" id="Fill-76" fill="#D7DBE2" mask="url(#upperspread-arms-mask-2)"/><path d="M199.4812,211.7134 L190.7542,145.2844 C204.9992,143.7474 219.1572,142.8924 233.2872,142.5764 C242.9882,142.1304 251.8862,145.7004 258.1332,151.6904 C264.4112,157.6794 267.9912,166.0464 267.7372,175.1524 C267.4822,184.2634 263.6912,192.4014 258.0402,198.3594 C252.3622,204.3164 244.7782,208.1174 236.2952,208.5084 C223.9222,209.0754 211.5962,210.1184 199.4812,211.7134" id="Fill-77" fill="#0A1B45" mask="url(#upperspread-arms-mask-2)"/><path d="M60.7,224.7363 L39.076,206.0373 C44.996,199.1773 51.461,193.1333 58.141,187.7793 C64.829,182.4283 71.747,177.7783 78.736,173.6813 C92.733,165.4993 106.976,159.4783 121.116,154.6823 L130.27,181.7643 C131.4,185.1213 130.763,188.7343 128.934,191.8313 C128.026,193.4073 126.813,194.8513 125.35,196.0963 C123.904,197.3823 122.179,198.4003 120.27,199.2263 C113.189,202.1953 106.259,205.5253 99.665,209.4163 C96.341,211.3173 93.157,213.4363 90.009,215.5973 C86.914,217.8323 83.849,220.1143 80.987,222.6303 C79.393,223.9433 77.761,225.0543 75.976,225.7993 C74.241,226.5943 72.426,227.1013 70.602,227.3033 C67.043,227.7743 63.368,227.0253 60.7,224.7363" id="Fill-78" fill="#0A1B45" mask="url(#upperspread-arms-mask-2)"/><path d="M38.572,251.4712 L43.505,253.5862 C36.767,264.8922 31.727,277.1832 27.918,289.7302 C24.11,302.2952 21.509,315.1492 19.721,328.0402 L7.094,327.3062 C10.123,313.9862 13.995,300.7592 19.095,287.9322 C24.195,275.1252 30.555,262.6852 38.572,251.4712" id="Fill-79" fill="#0A1B45" mask="url(#upperspread-arms-mask-2)"/><path d="M14.2429,366.626 L2.9379,367.517 C1.2609,354.378 0.1999,340.953 -0.0001,327.177 L19.7219,328.041 C17.1659,340.79 15.3909,353.698 14.2429,366.626" id="Fill-80" fill="#0A1B45" mask="url(#upperspread-arms-mask-2)"/><path d="M213.5779,191.189 L210.9019,162.171 C217.8489,161.529 224.7989,161.038 231.7529,160.691 L233.2139,189.795 C226.6539,190.122 220.1039,190.585 213.5779,191.189" id="Fill-81" fill="#FFF" mask="url(#upperspread-arms-mask-2)"/><polygon id="Fill-82" fill="#CC2935" mask="url(#upperspread-arms-mask-2)" points="230.4753 189.939 228.8493 160.844 231.7523 160.691 233.2133 189.795"/><polygon id="Fill-83" fill="#CC2935" mask="url(#upperspread-arms-mask-2)" points="224.8347 190.2891 222.8647 161.2151 225.7677 161.0241 227.5697 190.1091"/><polygon id="Fill-84" fill="#CC2935" mask="url(#upperspread-arms-mask-2)" points="219.2019 190.7031 216.8829 161.6551 219.7839 161.4331 221.9319 190.4951"/><polygon id="Fill-85" fill="#CC2935" mask="url(#upperspread-arms-mask-2)" points="213.5779 191.189 210.9019 162.171 213.8029 161.91 216.3039 190.943"/><path d="M223.8503,175.752 L222.8533,161.036 C225.8293,160.835 228.8063,160.656 231.7843,160.51 L232.5233,175.241 C229.6303,175.383 226.7393,175.556 223.8503,175.752" id="Fill-86" fill="#0A1B45" mask="url(#upperspread-arms-mask-2)"/><polygon id="Fill-87" fill="#FFF" mask="url(#upperspread-arms-mask-2)" points="231.3894 163.7339 230.7134 164.1039 230.6414 164.8569 230.0754 164.3439 229.3214 164.5119 229.6434 163.8229 229.2464 163.1749 230.0164 163.2609 230.5284 162.6919 230.6784 163.4349"/><polygon id="Fill-88" fill="#FFF" mask="url(#upperspread-arms-mask-2)" points="231.5515 166.8945 230.8795 167.2645 230.8095 168.0185 230.2445 167.5035 229.4955 167.6725 229.8165 166.9835 229.4215 166.3345 230.1865 166.4215 230.6945 165.8525 230.8445 166.5955"/><polygon id="Fill-89" fill="#FFF" mask="url(#upperspread-arms-mask-2)" points="231.7126 170.0557 231.0456 170.4257 230.9756 171.1787 230.4146 170.6647 229.6706 170.8327 229.9886 170.1437 229.5966 169.4947 230.3566 169.5827 230.8616 169.0137 231.0106 169.7567"/><polygon id="Fill-90" fill="#FFF" mask="url(#upperspread-arms-mask-2)" points="231.866 173.0396 231.203 173.4086 231.134 174.1626 230.576 173.6476 229.836 173.8166 230.151 173.1266 229.762 172.4786 230.517 172.5656 231.019 171.9976 231.168 172.7396"/><polygon id="Fill-91" fill="#FFF" mask="url(#upperspread-arms-mask-2)" points="228.9343 163.8643 228.2603 164.2393 228.1923 164.9933 227.6223 164.4843 226.8703 164.6563 227.1893 163.9663 226.7883 163.3193 227.5593 163.4023 228.0683 162.8293 228.2223 163.5703"/><polygon id="Fill-92" fill="#FFF" mask="url(#upperspread-arms-mask-2)" points="229.1121 167.0244 228.4421 167.3994 228.3751 168.1524 227.8081 167.6434 227.0591 167.8154 227.3771 167.1264 226.9791 166.4784 227.7451 166.5614 228.2511 165.9884 228.4041 166.7304"/><polygon id="Fill-93" fill="#FFF" mask="url(#upperspread-arms-mask-2)" points="229.2888 170.1846 228.6238 170.5586 228.5578 171.3126 227.9938 170.8036 227.2508 170.9746 227.5648 170.2856 227.1698 169.6376 227.9308 169.7216 228.4328 169.1486 228.5848 169.8906"/><polygon id="Fill-94" fill="#FFF" mask="url(#upperspread-arms-mask-2)" points="229.4558 173.1675 228.7948 173.5415 228.7288 174.2955 228.1688 173.7855 227.4308 173.9575 227.7428 173.2685 227.3498 172.6195 228.1048 172.7035 228.6038 172.1315 228.7568 172.8735"/><polygon id="Fill-95" fill="#FFF" mask="url(#upperspread-arms-mask-2)" points="226.4802 164.0078 225.8082 164.3828 225.7442 165.1368 225.1712 164.6318 224.4182 164.8098 224.7352 164.1178 224.3322 163.4728 225.1022 163.5498 225.6082 162.9738 225.7662 163.7148"/><polygon id="Fill-96" fill="#FFF" mask="url(#upperspread-arms-mask-2)" points="226.6726 167.167 226.0046 167.542 225.9416 168.296 225.3716 167.791 224.6246 167.969 224.9386 167.276 224.5376 166.631 225.3036 166.709 225.8066 166.132 225.9636 166.873"/><polygon id="Fill-97" fill="#FFF" mask="url(#upperspread-arms-mask-2)" points="226.865 170.3262 226.202 170.7012 226.139 171.4552 225.573 170.9492 224.831 171.1272 225.141 170.4352 224.743 169.7902 225.505 169.8682 226.004 169.2912 226.16 170.0322"/><polygon id="Fill-98" fill="#FFF" mask="url(#upperspread-arms-mask-2)" points="227.0466 173.3086 226.3876 173.6826 226.3246 174.4366 225.7626 173.9316 225.0246 174.1086 225.3336 173.4166 224.9376 172.7716 225.6936 172.8496 226.1906 172.2736 226.3466 173.0146"/><path d="M330.3064,192.5961 C329.8504,192.5961 329.4384,192.2821 329.3324,191.8191 C323.9664,168.3421 312.3384,154.1701 303.5294,146.4141 C293.9744,138.0041 285.5754,135.1071 285.4914,135.0781 C284.9684,134.9021 284.6864,134.3351 284.8634,133.8121 C285.0384,133.2891 285.6044,133.0071 286.1284,133.1831 C286.4744,133.2991 320.7544,145.3131 331.2824,191.3731 C331.4054,191.9111 331.0684,192.4481 330.5304,192.5711 C330.4544,192.5881 330.3804,192.5961 330.3064,192.5961" id="Fill-99" fill="#C0C6CE" mask="url(#upperspread-arms-mask-2)"/><path d="M347.8093,192.5961 C347.3533,192.5961 346.9413,192.2821 346.8353,191.8191 C336.3493,145.9381 342.1753,134.1441 342.4283,133.6641 C342.6873,133.1761 343.2913,132.9881 343.7803,133.2461 C344.2663,133.5031 344.4543,134.1031 344.2013,134.5911 C344.1193,134.7581 338.5633,146.6511 348.7853,191.3731 C348.9083,191.9111 348.5713,192.4481 348.0333,192.5711 C347.9573,192.5881 347.8833,192.5961 347.8093,192.5961" id="Fill-100" fill="#C0C6CE" mask="url(#upperspread-arms-mask-2)"/></g></g></g><g id="Helmet" transform="translate(257.000000, 126.901000)"><path d="M75.863,121.1372 L70.876,121.1372 C47.643,121.1372 28.81,102.3042 28.81,79.0722 L28.81,59.3402 C28.81,41.5552 43.228,27.1372 61.013,27.1372 L66.607,27.1372 C84.392,27.1372 98.81,41.5552 98.81,59.3402 L98.81,98.1892 C98.81,110.8632 88.536,121.1372 75.863,121.1372" id="Fill-102" fill="#B18058" blush:skin="500"/><path d="M40.8103,85.6372 C40.8103,92.5412 35.2133,98.1372 28.3103,98.1372 C21.4073,98.1372 15.8103,92.5412 15.8103,85.6372 C15.8103,78.7332 21.4073,73.1372 28.3103,73.1372 C35.2133,73.1372 40.8103,78.7332 40.8103,85.6372" id="Fill-104" fill="#B18058" blush:skin="500"/><path d="M25.8777,81.8058 C25.8777,81.8058 31.4197,81.8058 31.4197,87.3478" id="Stroke-106" stroke="#000" stroke-width="3"/><path d="M27.8103,73.1372 L26.2743,73.1372 C20.4203,67.4452 18.1703,55.8452 17.4933,44.5862 C16.5653,29.1572 43.3523,16.1372 58.8093,16.1372 L76.7943,16.1372 L93.8103,42.1372 L54.5063,42.1372 C54.5063,59.1372 39.8103,73.1372 27.8103,73.1372" id="Fill-108" fill="#000"/><path d="M48.9714,41.4551 L73.2014,48.7521 C82.9484,51.6871 93.2294,46.1651 96.1634,36.4181 L98.4514,28.8191 C99.5944,25.0271 97.4454,21.0261 93.6534,19.8841 L73.0144,13.6691 C60.1774,9.8041 46.6374,17.0761 42.7724,29.9131 L42.7724,29.9131 C41.2964,34.8121 44.0724,39.9801 48.9714,41.4551" id="Fill-110" fill="#000"/><path d="M77.907,152.1372 L61.039,152.1372 C47.819,152.1372 33.952,144.9442 28.981,134.1312 C28.981,134.1312 28.81,125.8842 28.81,121.5372 L28.81,114.5162 C28.81,112.4972 30.535,110.8602 32.662,110.8602 L90.428,110.8602 C92.555,110.8602 94.28,112.4972 94.28,114.5162 L94.28,136.5912 C94.28,145.1772 86.95,152.1372 77.907,152.1372" id="Fill-112" fill="#000"/><path d="M103.865,125.6885 C100.341,134.2515 91.522,139.8435 81.768,139.8435 L74.149,139.8435 C51.385,139.8435 37.997,130.4385 24.281,119.4965 C24.281,119.4965 15.704,111.2465 9.657,95.5605 C2.089,75.9265 -2.783,47.0295 3.576,35.4005 C10.035,23.5895 27.199,0.0995 52.116,0.0995 C88.102,0.0995 114.658,19.5225 114.658,53.4285 L109.447,96.8325 C109.447,103.9185 106.748,118.6855 103.865,125.6885" id="Fill-114" fill="#D7DBE2"/><path d="M18.905,59.4417 C18.905,59.4417 29.97,17.4997 74.736,17.4997 C98.646,17.4997 111.898,36.2137 113.97,59.1567 L109.447,96.8317 C109.447,96.8317 97.494,143.3227 37.989,103.1337 C36.173,101.9077 35.048,99.9557 34.41,97.9387 L18.905,59.4417 Z" id="Fill-116" fill="#0A1B45"/><line x1="44.803" y1="46.514" x2="54.386" y2="74.137" id="Stroke-118" stroke="#FFF" stroke-width="7" stroke-linecap="round" stroke-linejoin="round" stroke-dasharray="12"/></g></g></g></g><g id="Space/Space Stuff" transform="translate(530.000000, 673.000000) scale(1.4545454545454546 1.4507042253521127)" blush:width="208" blush:height="206" blush:component="Space/Space Stuff"><g id="Space/Space Stuff/Comet" stroke="none" stroke-width="1" fill="none" fill-rule="evenodd"><g id="Group-27" transform="translate(71.000000, 71.000000) rotate(-315.000000) translate(-71.000000, -71.000000) translate(25.000000, -7.000000)"><path d="M32.1464466,131.154491 C32.1464466,123.5234 38.1910716,117.336309 45.6464466,117.336309 C53.1018216,117.336309 59.1464466,123.5234 59.1464466,131.154491 C59.1464466,138.785582 45.6464466,155.336309 45.6464466,155.336309 C45.6464466,155.336309 32.1464466,138.785582 32.1464466,131.154491 Z" id="Path" fill="#CC471D" fill-rule="nonzero"/><path d="M38.6464466,132.514989 C38.6464466,128.761389 41.7824466,125.714989 45.6464466,125.714989 C49.5104466,125.714989 52.6464466,128.761389 52.6464466,132.514989 C52.6464466,136.268589 45.6464466,142.714989 45.6464466,142.714989 C45.6464466,142.714989 38.6464466,136.268589 38.6464466,132.514989 Z" id="Path" fill="#E4D125" fill-rule="nonzero"/><path d="M30.9230769,131.479185 C25.7188552,131.479185 21.5,129.720734 21.5,124.064169 L21.5,39.9538316 C21.5,37.7215286 28.2879178,26.5876263 41.8637533,6.55212454 L41.8637555,6.55212607 C43.4127599,4.26607308 46.5216881,3.6685771 48.8077411,5.21758146 C49.332115,5.5728914 49.7842014,6.02460144 50.139948,6.54867914 C63.6477939,26.4481257 70.4329185,37.4754068 70.4953219,39.6305225 L70.5,39.9538316 L70.5,124.064169 C70.5,129.62486 66.4229448,131.323202 61.3406796,131.475017 L61.0769231,131.479185 L30.9230769,131.479185 Z" id="Path" fill="#C383F5"/><path d="M70.8535534,120.729708 L70.8535534,123.577569 C70.8535534,128.941122 66.7764982,130.579255 61.694233,130.725688 L61.4304765,130.729708 L31.2766303,130.729708 C26.0724086,130.729708 21.8535534,129.033597 21.8535534,123.577569 L21.8535534,120.729708 L70.8535534,120.729708 Z" id="Combined-Shape" fill="#8F3ED8"/><path d="M0.851767722,112.070346 C6.07565839,98.4601063 13.547994,87.1596034 21.8517677,76.7132034 L21.8517677,115.454851 L0.851767722,121.713203 L0.851767722,112.070346 Z" id="Rectangle" fill="#8134C8"/><path d="M70.1482323,112.070346 C75.3721229,98.4601063 82.8444586,87.1596034 91.1482323,76.7132034 L91.1482323,115.454851 L70.1482323,121.713203 L70.1482323,112.070346 Z" id="Rectangle" fill="#8134C8" transform="translate(80.648232, 99.213203) scale(-1, 1) translate(-80.648232, -99.213203)"/><circle id="Oval" fill="#7B34BB" cx="46" cy="53.958" r="13"/><circle id="Oval" fill="#551D89" cx="46" cy="54.665" r="9.5"/></g></g></g></g></svg>