<svg viewBox="31.731 110.985 766.827 919.59" xmlns="http://www.w3.org/2000/svg" xmlns:blush="http://design.blush" overflow="visible" width="833.879" height="1000">
    <g stroke-width="2" fill="none" fill-rule="evenodd" blush:has-customizable-skin="true">
        <path d="M585.094 193.599c74.844 19.42 134.783 94.024 147.743 174.292 12.96 80.268-20.898 166.362-66.257 230.932-45.36 64.571-102.221 107.942-159.893 155.196-57.833 47.255-116.638 98.717-187.108 115.062-70.631 16.345-153.25-2.266-184.354-58.26-30.941-55.993-10.692-149.369-20.736-222.678-10.043-73.472-50.705-126.876-47.303-175.263 3.24-48.226 50.381-91.273 101.735-118.299 51.353-27.025 106.919-38.03 179.494-61.334 72.575-23.303 161.998-59.068 236.68-39.648z" fill="#E6D3FF" stroke-width="1" opacity=".288" blush:width="799" blush:height="768" blush:component="Blob"/>
        <path d="M336.403 133.358c2.588-.963 5.246-1.351 7.855-1.181 1.304.083 2.596.307 3.858.663 1.252.36 2.466.857 3.635 1.48 4.682 2.472 8.493 7.073 10.058 12.97 3.432 12.908 5.792 26.25 6.497 40.046.353 7.167.317 14.44-.408 21.835-.708 7.384-2 14.877-4.236 22.374-.517 1.872-1.195 3.744-1.823 5.611l-1.072 2.794-.55 1.394-.606 1.388c-1.574 3.705-3.5 7.355-5.668 10.906-4.35 7.097-10.003 13.761-16.73 19.224-3.33 2.773-6.975 5.143-10.707 7.261l-2.835 1.515c-.956.472-1.924.91-2.888 1.358-.484.22-.966.449-1.452.658l-1.467.586c-.98.382-1.96.787-2.944 1.136a90.46 90.46 0 01-23.692 4.867c-7.779.56-15.338.258-22.628-.586-7.295-.85-14.331-2.24-21.158-3.971-3.17-.769-5.95-2.204-8.321-3.935-2.328-1.804-4.235-3.929-5.573-6.306-1.335-2.387-2.146-4.958-2.375-7.579-.23-2.616.136-5.32 1.088-7.91.957-2.602 2.41-4.845 4.192-6.765a21.553 21.553 0 016.14-4.597c2.264-1.138 4.694-1.93 7.163-2.201 2.473-.358 4.99-.164 7.47.43 10.741 2.74 21.438 4.139 31.017 3.44.609-.017 1.189-.097 1.774-.161l1.754-.186 1.7-.276c.568-.087 1.138-.168 1.676-.303l1.642-.347c.545-.118 1.056-.287 1.587-.421 1.077-.248 2.054-.64 3.076-.95 3.957-1.45 7.464-3.365 10.508-5.864 3.053-2.484 5.697-5.54 7.937-9.185 1.108-1.83 2.158-3.759 3.038-5.865l.347-.776.312-.808.627-1.62c.361-1.128.784-2.214 1.094-3.387.708-2.284 1.232-4.71 1.716-7.163.203-1.248.45-2.477.598-3.756.081-.637.182-1.265.252-1.907l.196-1.935c.517-5.167.548-10.549.282-15.982-.526-10.479-2.381-21.205-5.196-31.764-1.274-4.805-.494-9.763 1.82-14.147a21.929 21.929 0 012.051-3.152 21.677 21.677 0 012.592-2.81 20.974 20.974 0 016.777-4.14" fill="#8C6345" blush:skin="600"/>
        <path d="M345.461 116.877c1.38-.597 2.9-.54 4.228.06 1.316.603 2.449 1.747 3.074 3.269 5.356 13.3 9.562 27.134 12.357 41.46a6.185 6.185 0 01-.806 4.495c-.78 1.242-2.018 2.118-3.509 2.36-2.971.463-5.806-1.684-6.395-4.782-2.645-13.558-6.647-26.747-11.763-39.45a5.87 5.87 0 01-.061-4.343c.504-1.338 1.491-2.47 2.875-3.069" fill="#8C6345" blush:skin="600"/>
        <path d="M333.769 114.499a5.269 5.269 0 014.189-.125 5.582 5.582 0 013.102 3.022 233.106 233.106 0 016.715 17.16c1.046 3-.52 6.195-3.395 7.095-2.875.9-5.924-.691-6.912-3.52a222.473 222.473 0 00-6.4-16.353 5.68 5.68 0 01-.121-4.185 5.488 5.488 0 012.822-3.094" fill="#8C6345" blush:skin="600"/>
        <path d="M324.486 117.526a5.347 5.347 0 017.206 2.648 223.85 223.85 0 016.528 16.407 5.36 5.36 0 01-3.44 6.88c-2.855.911-5.917-.543-6.847-3.249a212.737 212.737 0 00-6.209-15.602c-1.17-2.619.04-5.778 2.762-7.084M318.223 141.886c1.416-.514 2.89-.453 4.135.078a4.84 4.84 0 012.671 2.878 191.43 191.43 0 014.513 15.72c.34 1.36-.647 3.312-1.684 4.876a22.775 22.775 0 01-2.22 2.769c-.315-1.596-1.76-1.847-3.288-2.402-1.535-.558-3.078-1.413-3.795-4.228a184.454 184.454 0 00-3.873-13.279c-.432-1.258-.238-2.596.405-3.757.627-1.157 1.721-2.14 3.136-2.655" fill="#8C6345" blush:skin="600"/>
        <path d="M317.621 125.814c2.735-1.24 5.93-.097 7.055 2.586a207.77 207.77 0 019.33 27.512c.706 2.809-1.126 5.626-4.079 6.29-2.923.661-5.82-.922-6.477-3.539a196.797 196.797 0 00-8.835-26.043c-1.058-2.524.253-5.558 3.006-6.806" fill="#8C6345" blush:skin="600"/>
        <path d="M369.43 165.03c1.18 6.858 2.047 13.83 2.451 20.945.305.403.602.87.896 1.49.295.617.583 1.333.866 2.143.534 1.629 1.048 3.636 1.458 6.007l.167 1c.728 4.597 1.134 10.44.781 17.358-.402 7.422-1.603 16.106-4.641 25.619-1.53 4.748-3.504 9.689-6.087 14.671a84.766 84.766 0 01-9.698 14.756 81.563 81.563 0 01-13.584 13.155 81.61 81.61 0 01-16.463 9.744c-5.76 2.559-11.65 4.387-17.405 5.614-5.764 1.231-11.356 1.787-16.71 1.998-5.374.233-10.42-.076-15.242-.52l-3.038-.359a80.617 80.617 0 01-2.969-.407l-4.297-.727c-1.086-.209-2.146-.442-3.2-.664a136.566 136.566 0 01-21.712-6.6c-4.271-1.193-8.028-3.185-11.126-5.666a30.528 30.528 0 01-4.142-4.066 28.347 28.347 0 01-3.063-4.65 26.119 26.119 0 01-1.129-2.46 25.494 25.494 0 01-.828-2.557 24.344 24.344 0 01-.803-5.229c-.153-3.514 10.237-29.863 11.858-30.008 8.96-1.42 35.863 4.665 42.38 4.978l.21.009c6.14.24 11.917-.064 16.772-.953.592-.13 1.224-.198 1.786-.347.565-.143 1.135-.27 1.701-.392a32.96 32.96 0 011.597-.455c.527-.149 1.001-.347 1.51-.495a32.814 32.814 0 005.245-2.344c3.11-1.757 5.733-3.925 8.214-6.924 2.43-3.01 4.661-6.745 6.405-10.83 1.79-4.045 3.146-8.332 4.225-12.28 2.16-7.912 3.31-14.466 4.69-16.981-.294-5.226-.95-10.53-1.863-15.838l44.789-7.735z" fill="#CC2935"/>
        <path d="M371.868 185.74l-46.28 2.746c-.304-5.135-.944-10.347-1.843-15.565l45.684-7.89c1.17 6.781 2.022 13.68 2.44 20.71" fill="#B52935"/>
        <path d="M267.637 321.64l-128.381 20.334-10.173-64.232c-2.23-14.08 7.35-27.298 21.397-29.523l77.51-12.276c14.048-2.225 27.243 7.386 29.473 21.466l10.174 64.232z" fill="#D7DBE2"/>
        <path d="M212.435 238.407c1.573 9.932-1.22 23.29-17.082 25.802-18.855 2.987-28.339-6.532-30.205-18.313l47.287-7.49z" fill="#B18058" blush:skin="500"/>
        <path d="M236.847 364.9c15.538-2.098 28.516-5.384 41.805-12.312 1.226-.64 2.197-1.642 1.862-2.988l-5.319-21.351c-14.314 2.911-28.922 8.101-44.372 13.1a3276.27 3276.27 0 012.463 21.253c.194 1.722 1.847 2.53 3.561 2.298M133.12 351.46l1.396 19.903c.164 2.34 1.901 4.282 4.212 4.657 15.484 2.516 36.956 1.665 50.946.445 2.216-.193 3.897-2.06 3.882-4.29-.04-6.32-.449-13.281-1.14-20.645-14.88 1.766-42.12 3.43-59.296-.07" fill="#CC2935"/>
        <path d="M142.193 250.64c-9.97 4.816-16.057 15.757-14.232 27.28l5.159 73.54c17.177 3.5 44.417 1.836 59.297.07-2.725-29.03-9.62-87.177-28.403-93.427 0 0-14.66-11.208-21.821-7.462M230.823 341.349c16.66-1.756 30.236-5.136 44.372-13.1l-17.648-70.853c-2.033-12.836-13.18-21.953-25.777-21.78-.612 6.472-6.09 9.34-13.79 14.555 4.61 26.576 9.63 64.204 12.843 91.178" fill="#FA3239"/>
        <path d="M154.72 222.674c-24.065 6.887-23.094 28.113-12.432 28.566 8.424.36 15.179 9.134 22.922 11.69 1.728.57 3.409-.988 3-2.764l-.347-1.5c-1.274-5.5-1.571-12.745 3.998-13.584a2523.291 2523.291 0 0034.501-5.486c5.198-.87 10.237 3.193 11.19 8.389.156.853.313 1.716.469 2.588.314 1.758 2.393 2.539 3.78 1.42 5.882-4.739 9.54-10.23 10.063-15.776.114-1.202.091-2.406-.099-3.605-2.204-13.917-52.586-16.936-77.044-9.938" fill="#CC2935"/>
        <g stroke-width="1" blush:width="77" blush:height="127" blush:component="Head">
            <g fill="#B18058" blush:skin="500">
                <path d="M169.526 218.206l26.948-4.268 4.861 30.695c1.31 8.266-3.662 15.923-11.103 17.101-7.44 1.179-14.535-4.567-15.844-12.833l-4.862-30.695z"/>
                <path d="M200.716 232.767l-2.987.473c-13.912 2.203-26.963-7.206-29.15-21.017l-1.858-11.73c-1.675-10.574 5.601-20.512 16.252-22.2l3.35-.53c10.65-1.687 20.642 5.517 22.316 16.09l3.658 23.095c1.194 7.535-3.991 14.617-11.581 15.819"/>
                <path d="M176.383 214.987c.65 4.104-2.174 7.962-6.309 8.617-4.134.655-8.012-2.142-8.662-6.246-.65-4.103 2.174-7.961 6.308-8.616 4.135-.655 8.013 2.141 8.663 6.245"/>
            </g>
            <path d="M166.938 213.234a4.804 4.804 0 012.141.18c1.387.434 2.385 1.472 2.707 3.156l.032.182-1.796.285c-.173-1.091-.692-1.65-1.493-1.901a3.207 3.207 0 00-.931-.138 2.984 2.984 0 00-.342.015l-.035.004-.283-1.783z" fill="#000"/>
            <path d="M185.784 236.553c-5.876-1.073-9.435-5.57-11.586-12.037a25.526 25.526 0 0023.219 8.771l.312-.047 1.758-.279c-4.355 3.268-8.922 4.465-13.703 3.592z" fill="#000" opacity=".12"/>
            <path d="M163.406 179.564c-.312-1.97 1.044-3.821 3.028-4.136l33.571-5.317c1.97-.312 3.822 1.01 4.152 2.962l2.41 14.273c-.001.002 0 .005.002.007l-33.404 5.291-2.59 15.646-2.555.404-4.614-29.13z" fill="#000"/>
        </g>
        <g fill="#000">
            <path d="M188.831 205.023a1.77 1.77 0 10-3.497.554 1.77 1.77 0 003.497-.554M203.986 202.623a1.77 1.77 0 10-3.497.553 1.77 1.77 0 003.497-.553M195.957 202.339l1.669-.59 4.636 13.097-5.755.912-.277-1.75 3.653-.578zM191.433 216.314c.339 2.142 2.834 3.777 5.188 3.483l.141-.02.277 1.749c-3.263.516-6.732-1.662-7.328-4.778l-.027-.157 1.749-.277zM189.088 197.215l.277 1.748c-1.88.298-3.516 1.074-4.9 2.157-.414.325-.78.658-1.095.983l-.153.162c-.177.192-.3.34-.365.426l-.025.033-1.433-1.04c.352-.485 1.013-1.2 1.98-1.958 1.537-1.203 3.35-2.084 5.429-2.463l.285-.048zM197.249 195.922c2.2-.348 4.293-.077 6.21.623 1.082.395 1.896.838 2.393 1.182l.095.068-1.04 1.432-.129-.087a7.106 7.106 0 00-.291-.176l-.094-.053c-.447-.25-.963-.492-1.541-.703-1.568-.572-3.266-.81-5.045-.578l-.281.04-.277-1.748z"/>
        </g>
        <g blush:width="170" blush:height="170" blush:component="Small Elements">
            <g transform="matrix(.62963 0 0 .62963 59.778 715.148)" stroke-width="1">
                <ellipse fill="#B7CFF6" cx="10.789" cy="11" rx="10.789" ry="11"/>
                <ellipse fill="#D7E6FF" cx="48.368" cy="11" rx="10.789" ry="11"/>
                <ellipse fill="#D7E6FF" cx="85.947" cy="11" rx="10.789" ry="11"/>
                <ellipse fill="#B7CFF6" cx="85.947" cy="49" rx="10.789" ry="11"/>
                <ellipse fill="#D7E6FF" cx="10.789" cy="49" rx="10.789" ry="11"/>
                <ellipse fill="#D7E6FF" cx="48.368" cy="49" rx="10.789" ry="11"/>
                <ellipse fill="#B7CFF6" cx="48.368" cy="87" rx="10.789" ry="11"/>
                <ellipse fill="#D7E6FF" cx="10.789" cy="87" rx="10.789" ry="11"/>
                <ellipse fill="#D7E6FF" cx="85.947" cy="87" rx="10.789" ry="11"/>
            </g>
        </g>
        <g blush:width="144" blush:height="144" blush:component="Small Elements">
            <circle fill="#FFD799" cx="135" cy="135" r="116" stroke-width="1" transform="matrix(.53333 0 0 .53333 547 246)"/>
        </g>
        <g>
            <path fill="#BE6FFB" d="M408.483 183.917L742.27 393.024l-326.444 153.34L82.039 385.686z"/>
            <path fill="#E6D3FF" d="M144 306h538v413H144z"/>
            <path d="M144 306h538v313c0 55.228-44.772 100-100 100H144V306z" fill="#FFF"/>
            <g fill="#CCA4FF">
                <path d="M190.391 353.734h446.602v6.584H190.391zM190.391 499.79h446.602v6.584H190.391zM190.391 390.248h446.602v6.584H190.391zM190.391 536.304h446.602v6.584H190.391zM190.391 426.762h446.602v6.584H190.391zM190.391 572.818h446.602v6.584H190.391zM190.391 463.276h446.602v6.584H190.391zM190.391 609.332h446.602v6.584H190.391zM427.385 662.607h209.608v6.584H427.385z"/>
            </g>
            <path d="M743 386v360H82V386h.259l-.22.136 333.786 160.478 326.444-153.149L730.337 386H743z" fill="#E6D3FF"/>
            <path fill="#F4ECFF" d="M82 746l334-199.386L82 386z"/>
        </g>
        <g blush:width="524" blush:height="596" blush:component="Master/Character/Standing">
            <g stroke-width="1" blush:has-customizable-skin="true">
                <g blush:width="693" blush:height="596" blush:component="Legs">
                    <path d="M566.73 984.534c3.03-38.898 10.009-117.856 12.944-155.267.54-6.733-4.532-12.633-11.33-13.178l-30.263-2.428c-6.798-.543-12.747 4.473-13.287 11.205-3.043 36.925-10.071 116.873-13.209 155.26-.197 2.465 54.947 6.875 55.145 4.408z" fill="#8C6345" blush:skin="600"/>
                    <path d="M600.8 613.11c2.077.167 3.578 2.568 3.355 5.363-5.206 66.92-22.941 296.981-27.832 359.92l-74.147-5.944c5.002-60.205 24.786-298.959 30.146-363.441-.093-1.912 22.733-.544 68.478 4.102z" fill="#051026"/>
                    <path fill="#FFF" d="M510.015 999.635l55.146 4.408 1.569-19.509-55.145-4.408z"/>
                    <path d="M541.345 992.955c-1.723 11.131 22.065 13.039 22.133 1.777l2.644.213-2.005 25.022-80.058-5.599.705-8.899c.516-6.457 22.343-6.3 26.093-14.933 11.79.927 21.953 1.733 30.488 2.419zM676.18 613.27c-2.674 38.226-37.078 66.96-76.845 64.18-39.767-2.781-69.837-36.024-67.164-74.25" fill="#0A1B45"/>
                    <g>
                        <path d="M720.107 1006.838c2.258-10.453 3.247-16.746 2.968-18.878-4.035-33.929-6.54-52.286-11.243-86.02l-9.948-69.75c-.98-6.796-7.249-11.521-13.997-10.558l-30.046 4.289c-6.75.964-11.423 7.241-10.446 14.022 6.666 46.37 13.318 92.788 19.45 139.082 1.267 9.55 2.782 21.463 3.887 30.968" fill="#B18058" blush:skin="500"/>
                        <path d="M676.175 613.27c1.385 2.517 2.132 4.81 2.243 6.877 17.77 118.138 36.719 242.259 52.758 360.78l-73.854 9.39c-15.311-118.233-33.453-241.653-50.501-359.593-.718-2.83-1.015-8.43 2.52-8.76l66.834-8.694z" fill="#0A1B45"/>
                        <path d="M670.755 1015.6l54.916-5.701c-.648-6.252-1.813-15.625-2.596-21.94l-54.788 6.817c.739 5.98 1.86 14.927 2.468 20.824" fill="#FFF"/>
                        <path d="M696.362 1000.494l3.664-.438c.553 11.21 24.178 8.549 21.99-2.63l2.628-.315c2.444 9.901 3.214 21.315 2.31 34.242l-79.883-5.586c-.074-2.022-.133-3.233-.178-3.634 2.399-7.623 21.496-9.683 22.984-18.47l26.485-3.169z" fill="#0A1B45"/>
                        <path d="M640.413 617.328l1.375-.203c17.884 120.802 36.826 246.73 52.924 367.885l-1.378.174c-16.101-121.167-35.035-247.038-52.92-367.856" fill="#FFF"/>
                    </g>
                </g>
                <g blush:width="863" blush:height="528" blush:component="Body">
                    <path d="M349.205 514.915c-2.678 1.682-4.838 3.884-6.367 6.554-.76 1.331-1.38 2.79-1.802 4.323a21.46 21.46 0 00-.7 4.825c-.075 1.7.097 3.41.44 5.167.172.877.389 1.763.65 2.655.273.88.609 1.745.98 2.62.375.87.793 1.742 1.255 2.608.466.86 1.006 1.68 1.573 2.507a37.18 37.18 0 001.835 2.43c.67.77 1.387 1.517 2.14 2.247 2.023 2.01 4.165 3.847 6.287 5.717 2.169 1.792 4.336 3.594 6.586 5.248 1.113.849 2.233 1.69 3.38 2.472 1.141.793 2.276 1.603 3.429 2.374 2.322 1.506 4.643 3.021 7.024 4.394 2.355 1.438 4.777 2.705 7.183 4.016 2.434 1.228 4.862 2.482 7.337 3.588 2.455 1.171 4.958 2.183 7.449 3.24 2.514.966 5.018 1.98 7.561 2.835 20.285 7.1 41.411 10.526 62.654 10.528 5.314-.04 10.635-.249 15.956-.71 5.322-.496 10.642-1.155 15.947-2.117 5.304-.98 10.598-2.133 15.853-3.63 5.252-1.504 10.478-3.215 15.633-5.289 5.15-2.082 10.243-4.431 15.224-7.128a138.284 138.284 0 0014.517-9.17c9.331-6.848 17.994-15.13 25.082-24.812.65-.892 1.273-1.786 1.823-2.713a39.683 39.683 0 001.463-2.837c.913-1.882 1.522-3.852 1.973-5.768.477-1.902.646-3.832.673-5.664a24.804 24.804 0 00-.105-2.69 25.161 25.161 0 00-.446-2.584c-.389-1.671-.908-3.218-1.644-4.652a18.857 18.857 0 00-2.653-3.887c-2.044-2.303-4.619-3.994-7.594-5.063-2.976-1.07-6.065-1.44-9.04-1.355a28.935 28.935 0 00-4.355.462c-1.415.254-2.84.577-4.158 1-.664.21-1.308.442-1.932.695-.643.243-1.282.5-1.89.78-1.223.558-2.32 1.219-3.433 1.902-1.087.698-2.04 1.504-3.001 2.341-.466.427-.902.881-1.309 1.365-.425.47-.85.952-1.229 1.475-4.136 5.674-9.335 10.667-15.226 15.011a92.622 92.622 0 01-9.411 5.94c-3.31 1.789-6.775 3.384-10.333 4.831-14.307 5.707-30.362 8.438-46.46 8.474-16.113.011-32.352-2.656-47.387-7.934-15.02-5.272-28.85-13.237-39.625-23.641-3.954-3.802-8.965-5.836-14.6-6.486a28.573 28.573 0 00-4.304-.17c-1.453.043-2.901.175-4.368.444-2.925.533-5.856 1.551-8.535 3.232" fill="#8C6345" blush:skin="600"/>
                    <path d="M327.141 508.766c-1.58.689-2.63 2.147-3.018 3.999-.195.925-.224 1.946-.076 3.003.159 1.05.536 2.114 1.076 3.157 2.344 4.551 5.059 8.886 7.94 13.073 1.48 2.062 2.95 4.137 4.55 6.09 1.546 2.008 3.205 3.896 4.863 5.789.815.964 1.701 1.841 2.555 2.76.869.898 1.708 1.837 2.61 2.693 1.787 1.734 3.564 3.487 5.433 5.105 3.679 3.33 7.556 6.35 11.501 9.231 1.836 1.275 3.884 1.892 5.718 1.724 1.834-.159 3.41-1.001 4.34-2.455.928-1.452 1.051-3.23.54-4.906a8.602 8.602 0 00-3.299-4.499c-3.604-2.635-7.145-5.387-10.483-8.414-1.703-1.469-3.309-3.06-4.93-4.631-.821-.775-1.574-1.626-2.362-2.438-.77-.831-1.578-1.622-2.31-2.494-1.494-1.71-2.997-3.412-4.386-5.221-1.445-1.759-2.76-3.628-4.095-5.48-2.586-3.765-5.027-7.65-7.123-11.731-.485-.935-1.12-1.734-1.803-2.42a8.212 8.212 0 00-2.243-1.644c-1.615-.796-3.417-.98-4.998-.291" fill="#8C6345" blush:skin="600"/>
                    <path d="M334.12 496.017c-1.634.55-2.843 1.831-3.451 3.512-.644 1.69-.535 3.727.261 5.706 3.175 7.664 7.297 14.928 12.113 21.622a8.827 8.827 0 002.147 2.123 7.693 7.693 0 002.553 1.07c1.736.369 3.453.017 4.782-1.082 1.33-1.098 2.036-2.717 2.142-4.402a7.105 7.105 0 00-.306-2.54 7.62 7.62 0 00-1.168-2.45c-4.283-5.953-7.934-12.38-10.741-19.168-.7-1.75-2.03-3.06-3.476-3.88-1.478-.804-3.221-1.062-4.856-.511" fill="#8C6345" blush:skin="600"/>
                    <path d="M344.163 491.096c-1.643.525-2.887 1.699-3.55 3.232a6.593 6.593 0 00-.02 5.188c2.78 6.906 6.31 13.523 10.572 19.621 1.13 1.545 2.676 2.569 4.343 2.835 1.662.277 3.34-.12 4.686-1.198 1.346-1.08 2.12-2.617 2.318-4.182.187-1.565-.094-3.233-1.089-4.581-3.737-5.345-6.806-11.115-9.235-17.14-.66-1.534-1.78-2.725-3.222-3.415-1.436-.687-3.16-.885-4.803-.36M369.562 504.206c-1.436.946-2.423 2.323-2.78 3.806-.326 1.457-.071 3.053.887 4.323 3.77 4.9 8.085 9.436 12.833 13.564.59.551 1.566.793 2.607.907 1.058.097 2.188.06 3.28-.11 2.17-.32 3.953-.925 3.953-.925-1.468-1.127-1.035-2.715-.808-4.546.115-.917.169-1.885-.107-2.867-.135-.495-.367-.98-.69-1.487a6.934 6.934 0 00-1.327-1.547c-3.646-3.281-6.935-6.816-9.815-10.572-.815-1.082-2.07-1.672-3.546-1.759-1.436-.105-3.043.26-4.487 1.213" fill="#8C6345" blush:skin="600"/>
                    <path d="M356.459 492.477c-1.607.626-2.816 1.797-3.45 3.243-.666 1.455-.635 3.13.079 4.674 4.882 10.288 11.841 19.577 20.243 27.45 1.252 1.177 2.911 1.671 4.465 1.559 1.576-.129 3.107-.924 4.203-2.245a6.76 6.76 0 001.562-4.447c-.008-1.54-.586-2.944-1.681-3.973-7.369-6.911-13.331-14.908-17.512-23.71-.606-1.318-1.822-2.21-3.202-2.697-1.408-.47-3.1-.48-4.707.146" fill="#8C6345" blush:skin="600"/>
                    <path d="M529.442 606.178l155.42 10.868 5.18-74.102a29.339 29.339 0 00-3.874-16.795c-4.74-8.194-13.334-13.964-23.49-14.674l-89.654-6.269c-16.248-1.136-30.341 11.111-31.477 27.354l-12.105 73.618z" fill="#0A1B45"/>
                    <path stroke="#FFF" stroke-width="3" stroke-linecap="round" d="M363.142 14.556h-189.5M374.142 44.556h-211.5M377.5 74.5l-214.858.056M380.5 104.5l-217.858.056M383.5 134.5l-220.858.056" transform="matrix(-.69235 -.04841 -.0484 .69214 803.714 520.642)"/>
                    <path d="M735.328 756.208c-8.819 6.239-16.176 4.6-20.576 2.483-2.205-1.067-2.95-3.395-2.497-5.504.453-2.114 2.1-4.032 4.76-4.35 2.65-.325 5.807.246 9.45-.249 3.65-.491 7.863-2.018 12.508-6.654 2.336-2.308 3.786-3.024 4.582-2.632.784.383.905 1.873.419 3.848-.936 3.965-4.254 9.93-8.646 13.058" fill="#8C6345" blush:skin="600"/>
                    <path d="M760.65 735.993c5.676-2.011 10.806-6.423 13.65-12.752.884-1.885 1.712-3.815 2.542-5.744l1.424-3.312 1.396-3.463 1.387-3.468 1.314-3.527 1.302-3.536 1.222-3.6c3.231-9.612 5.962-19.627 7.802-30.207 1.823-10.57 2.776-21.748 1.99-33.512-.039-1.446-.25-2.952-.412-4.437l-.538-4.464c-.073-.737-.246-1.5-.381-2.253l-.437-2.26c-.3-1.507-.593-3.011-.922-4.516a102.505 102.505 0 00-6-17.542 109.542 109.542 0 00-8.665-15.787c-3.248-4.916-6.79-9.487-10.517-13.74-7.462-8.519-15.649-15.714-24.082-22.067-8.447-6.347-17.185-11.795-26.062-16.665-8.887-4.851-17.919-9.11-27.103-12.89-7.617-3.143-20.863-6.172-27.216-3.888-6.37 2.276-11.17 6.918-12.862 13.012-.798 3.188-.853 6.41-.283 9.525.526 2.874 1.583 5.658 3.076 8.239 3.126 5.382 13.435 12.81 19.843 15.453 15.48 6.388 30.318 14.26 43.102 23.831 12.744 9.544 23.352 20.98 28.928 33.614a56.696 56.696 0 013.312 9.643l.488 2.525c.15.85.377 1.666.478 2.54l.302 2.629c.096.879.251 1.737.254 2.656.481 7.175-.085 14.808-1.429 22.545-1.343 7.744-3.45 15.596-6.08 23.403l-.988 2.928-1.08 2.921-1.084 2.92-1.167 2.909-1.169 2.909-1.213 2.815c-.706 1.641-1.406 3.282-2.172 4.909-2.424 5.407-2.58 11.343-.719 16.825 1.824 5.449 5.643 10.431 11.205 13.453 5.552 3.016 11.839 3.424 17.564 1.426z" fill="#B18058" blush:skin="500"/>
                    <path d="M733.417 702.51c1.409-3.248 9.84-.256 18.905 4.465 4.529 2.366 9.204 5.189 13.233 7.881 4.03 2.69 7.417 5.253 9.377 7.005l-1.983 4.325c-3.013 6.394-6.145 11.96-9.355 16.738a103.217 103.217 0 01-9.531 12.31c-6.28 6.895-12.225 11.366-17.376 14.32-5.157 2.952-9.528 4.386-12.843 5.135-3.31.75-5.567.816-6.546.983-.987.167-1.959-.05-2.815-.518-.853-.472-1.58-1.2-2.106-2.02-1.047-1.642-1.272-3.687.201-5.16 1.384-1.366 9.222-6.232 15.596-12.812 6.396-6.526 11.257-14.677 7.141-20.88-2.472-3.738-5.33-4.636-8.107-4.284-2.766.366-5.522 1.968-7.813 3.408-2.756 1.715-5.89.71-7.858-1.184-1.965-1.9-2.797-4.67-.97-6.653 1.567-1.664 3.517-3.44 5.708-5.275 2.134-1.854 4.523-3.768 6.749-5.757 4.537-3.947 8.632-8.166 10.393-12.028M584.093 505.98c-.801 11.46 3.721 26.382 22.069 27.664 21.809 1.526 31.676-10.248 32.627-23.84l-54.696-3.824z" fill="#B18058" blush:skin="500"/>
                </g>
                <g transform="matrix(-.69235 -.04841 -.0484 .69214 660.705 386.838)" blush:width="127" blush:height="211" blush:component="Head">
                    <path d="M19.894 117.943c15.175-9.21 13.066-45.75 44.003-45.94 30.937-.19 24.873 23.632 39.848 51.884C118.72 152.138 118.548 186 80.349 186H35.48c-42.34 0-40.991-52.638-15.587-68.057z" fill="#000"/>
                    <g fill="#B18058" blush:skin="500">
                        <path d="M35 134h45v51.633c0 13.905-10.074 25.177-22.5 25.177S35 199.538 35 185.633V134z"/>
                        <path d="M82.053 166h-4.987C53.834 166 35 147.167 35 123.935v-19.732C35 86.418 49.418 72 67.204 72h5.593C90.583 72 105 86.418 105 104.203v38.85C105 155.725 94.727 166 82.053 166"/>
                        <path d="M47 130.5c0 6.903-5.596 12.5-12.5 12.5S22 137.403 22 130.5 27.596 118 34.5 118 47 123.597 47 130.5"/>
                    </g>
                    <path d="M32.067 125.168c.905 0 2.157.21 3.442.852 2.146 1.073 3.504 3.035 3.595 5.882l.005.309h-3c0-1.836-.701-2.888-1.942-3.508-.46-.23-.97-.383-1.48-.468a4.887 4.887 0 00-.562-.065l-.058-.001v-3z" fill="#000"/>
                    <path d="M56.75 168.332c-9.294-3.288-13.931-11.593-15.768-22.764 7.271 12.102 20.459 20.245 35.562 20.429l.522.003H80c-7.937 4.23-15.687 5.007-23.25 2.332z" fill="#000" opacity=".12"/>
                    <path d="M98.963 86.175C93.18 77.623 83.385 72 72.275 72h-5.59c-17.776 0-32.186 14.395-32.186 32.151 0 0-.484 10.437-.499 13.775 0 .166 5.496 0 5.496 0l7.496-28.336H101c-.386-.8-1.065-1.938-2.037-3.415z" fill="#000"/>
                    <circle fill="#000" cx="55" cy="53" r="25"/>
                    <path d="M72.809 72c16.78 0 30.576 12.718 32.19 28.999H35C36.615 84.719 50.41 72 67.19 72h5.619z" fill="#000"/>
                </g>
                <g fill="#000" blush:width="61" blush:height="61" blush:component="Expression">
                    <path d="M599.643 462.134l-2.015-.52-4.09 15.814 6.837.478.145-2.076-4.339-.304zM606.376 478.038c-.177 2.543-2.933 4.714-5.72 4.61l-.168-.008-.145 2.076c3.875.271 7.717-2.636 8.094-6.346l.016-.186-2.077-.146zM606.034 453.96l-.146 2.076c2.751.192 5.208 1.105 7.34 2.491.745.485 1.395.994 1.945 1.493l.198.184c.182.172.314.308.396.398l.036.04 1.571-1.365c-.548-.63-1.56-1.55-3.011-2.494-2.315-1.506-4.977-2.521-7.955-2.794l-.374-.03zM597.667 453.613c-2.764-.193-5.33.37-7.63 1.445-1.304.61-2.267 1.25-2.842 1.728l-.104.088 1.366 1.571c.094-.081.3-.242.61-.453.532-.363 1.152-.721 1.851-1.048 1.903-.89 4.007-1.374 6.264-1.274l.34.02.145-2.077zM613.795 466.276c-1.423-4.428-8.892-5.003-10.256-.699l-.048.162 2.008.55c.631-2.304 5.3-2.02 6.265.487l.048.137 1.983-.637zM596.486 465.066c-1.423-4.428-8.892-5.004-10.256-.7l-.048.162 2.009.55c.63-2.304 5.299-2.018 6.264.488l.048.136 1.983-.636z"/>
                </g>
                <g fill="none" blush:width="76" blush:height="48" blush:component="Accessories">
                    <path d="M593.25 464.03c-4.618-.322-7.496 3.756-9.517 5.532-.16.124-.317.25-.472.38a3.259 3.259 0 01-.25.168l.005.043c-2.905 2.54-4.829 6.117-5.113 10.181-.588 8.41 6.065 15.726 14.86 16.341 8.794.615 16.4-5.704 16.988-14.114.393-5.618-2.446-10.747-6.995-13.718l.006-.025c-3.643-2.026-4.315-4.424-9.513-4.787z" fill="#D8D8D8"/>
                    <path d="M607.917 478.944c-.588 8.41-8.194 14.729-16.989 14.114-5.163-.361-9.588-3.032-12.243-6.878 1.991 5.713 7.42 10.018 14.078 10.483 8.795.615 16.4-5.703 16.989-14.113.243-3.472-.749-6.758-2.616-9.463.64 1.834.924 3.813.78 5.857z" fill="#000" opacity=".12"/>
                    <path stroke="#22252B" stroke-width="2" d="M0 0l34.913 14.229M33.673 28.173H0" transform="matrix(-.69235 -.04841 -.0484 .69214 631.502 466.173)"/>
                </g>
            </g>
        </g>
        <g>
            <path d="M153.231 409.767c-2.655.793-5.306 1.01-7.827 1.067-1.268.031-2.485.01-3.635-.031-1.192-.013-2.267-.078-3.31-.11-2.06-.091-3.834-.106-5.242-.275-1.424-.168-2.533-.51-3.603-1.378-2.336-1.907-6.066-3.933-10.704-5.76-4.627-1.852-10.03-3.559-15.878-5.429-6.654-2.147-13.937-4.46-21.744-8.074-3.892-1.803-7.945-4.018-11.97-6.806a59.507 59.507 0 01-11.553-10.452c-3.525-4.174-6.448-9.053-8.525-14.066-2.103-5.027-3.3-10.132-3.958-14.996l-.217-1.817a26.963 26.963 0 01-.173-1.856c-.07-1.277-.19-2.53-.183-3.829a59.383 59.383 0 01.384-7.816 57.809 57.809 0 013.968-15.317c1.993-4.852 4.59-9.304 7.5-13.25 2.918-3.94 6.13-7.398 9.456-10.47 6.671-6.135 13.747-10.785 20.834-14.69 7.102-3.889 14.263-7.02 21.43-9.703 7.167-2.678 14.348-4.909 21.54-6.833 6.65-1.777 13.205-.92 18.206 1.767 5.02 2.691 8.48 7.187 9.436 12.635.956 5.455-.667 10.816-3.816 15.15-3.165 4.345-7.86 7.677-13.498 9.185-6.12 1.636-12.112 3.508-17.855 5.653-5.739 2.145-11.228 4.579-16.217 7.315-4.981 2.728-9.459 5.79-12.938 9.007-1.74 1.603-3.224 3.236-4.414 4.84-1.181 1.608-2.058 3.177-2.687 4.71a17.534 17.534 0 00-1.213 4.662c-.098.807-.13 1.646-.122 2.52-.022.428.06.896.065 1.344 0 .217.032.466.068.72l.089.756c.27 1.97.686 3.647 1.266 4.99.584 1.355 1.237 2.473 2.162 3.579a19.475 19.475 0 003.786 3.355c1.649 1.134 3.644 2.285 6.011 3.374 4.71 2.203 10.573 4.17 17.04 6.23 5.694 1.834 11.88 3.738 18.523 6.38 3.32 1.328 6.762 2.85 10.3 4.755 3.53 1.904 7.164 4.187 10.71 7.05 3.236 2.603 5.842 6.043 7.38 9.642 1.546 3.605 2.056 7.279 1.603 10.439-.206 1.576-.68 3.043-1.264 4.335a13.987 13.987 0 01-2.338 3.43c-1.847 1.967-4.238 3.28-6.873 4.068" fill="#B18058" blush:skin="500"/>
            <path d="M140.37 421.461c-1.511.034-2.854-.396-3.896-.95-.513-.286-.932-.619-1.225-.99-.325-.343-.525-.718-.566-1.135-.24-1.764-.622-3.203-1.128-4.345-.51-1.154-1.075-2.094-1.907-3.068-.856-.96-1.974-1.984-3.52-3.04-1.557-1.051-3.487-2.121-5.715-3.154-2.024-.934-3.063-3.95-1.979-6.77.542-1.401 1.565-2.488 2.747-3.06 1.195-.582 2.57-.656 3.79-.099 2.638 1.222 5.098 2.562 7.29 4.044 2.184 1.49 4.06 3.136 5.63 4.923a22.877 22.877 0 013.7 5.944c.942 2.168 1.553 4.58 1.902 7.16a3.587 3.587 0 01-.231 1.723 4.268 4.268 0 01-1.085 1.462c-.921.823-2.307 1.328-3.807 1.355" fill="#B18058" blush:skin="500"/>
            <path d="M149.847 427.4a6.011 6.011 0 01-3.727-1.73c-.46-.463-.855-.978-1.106-1.539-.257-.558-.37-1.165-.393-1.773.031-4.828-.779-9.185-2.441-12.78-.428-.922-.33-2 .12-3.129.486-1.138 1.285-2.301 2.526-3.174 1.222-.862 2.69-1.227 4.014-.92 1.35.278 2.58 1.214 3.229 2.614 2.518 5.444 3.493 11.475 3.461 17.393.022.764-.172 1.487-.47 2.133a4.945 4.945 0 01-1.241 1.666c-1.066.912-2.472 1.372-3.972 1.239" fill="#B18058" blush:skin="500"/>
            <path d="M159.4 429.535c-1.497-.16-2.8-.942-3.703-2.02-.457-.54-.786-1.155-1.037-1.822a5.421 5.421 0 01-.35-2.13c.102-5.792-.603-11.668-2.854-16.994-.31-.671-.43-1.39-.486-2.089a6.146 6.146 0 01.207-2.108c.327-1.356 1.117-2.675 2.381-3.495 1.263-.819 2.799-.937 4.314-.34.728.31 1.44.798 2.084 1.437.643.638 1.146 1.453 1.557 2.362 1.5 3.567 2.47 7.253 3.03 10.86.562 3.612.731 7.154.674 10.601a7.115 7.115 0 01-.52 2.456c-.307.742-.78 1.371-1.311 1.889-1.075 1.03-2.488 1.552-3.985 1.393M171.5 401.299c-1.423.502-3.026.063-4.471-.923a10.2 10.2 0 01-2.12-1.88c-.65-.753-1.299-1.604-1.815-2.578-2.09-3.766-4.775-7.207-7.713-10.142-2.942-2.944-6.126-5.39-9.316-7.438-.822-.547-1.544-1.348-2.202-2.346-.65-.955-1.232-2.06-1.728-3.096a43.706 43.706 0 01-1.624-3.87c1.031.479 1.9.568 2.716.402.818-.162 1.608-.515 2.533-.78.928-.257 1.96-.504 3.332-.269a9.95 9.95 0 012.291.669c.865.389 1.813.885 2.882 1.633 3.363 2.341 6.765 5.149 9.932 8.495a57.557 57.557 0 018.404 11.385c.644 1.203 1.14 2.428 1.38 3.602.238 1.176.293 2.29.179 3.269-.29 1.963-1.244 3.365-2.66 3.867" fill="#B18058" blush:skin="500"/>
            <path d="M169.433 424.638h-.001c-1.518-.056-2.813-.823-3.817-2.009-.995-1.186-1.606-2.747-1.746-4.535-.22-2.994-.618-6.044-1.42-9.104-.78-3.054-1.89-6.105-3.374-9.01a40.568 40.568 0 00-5.446-8.09c-2.112-2.447-4.468-4.599-6.918-6.455a8.339 8.339 0 01-1.838-1.86 7.258 7.258 0 01-1.11-2.13c-.483-1.472-.446-3.022.318-4.328.765-1.294 2.135-2.087 3.806-2.2.836-.047 1.743.069 2.663.349.926.32 1.865.798 2.75 1.461 2.973 2.252 5.91 4.921 8.572 8.008a51.6 51.6 0 016.91 10.261c1.884 3.685 3.276 7.53 4.24 11.307.987 3.795 1.47 7.478 1.73 11.038.057 1.05-.006 2.09-.28 2.975-.263.892-.654 1.69-1.144 2.347-.97 1.321-2.403 2.015-3.895 1.975" fill="#B18058" blush:skin="500"/>
            <path d="M135.743 364.911l-17.311 42.11c-4.356-1.807-9.668-3.516-15.527-5.384a5.885 5.885 0 01-.698.217c-.251.063-.514.121-.854.15-.65.07-1.39.1-2.232.085-1.654-.018-3.712-.22-6.122-.604a76.447 76.447 0 01-8.52-1.936 80.983 80.983 0 01-11.174-4.1c-4.181-1.91-8.874-4.424-13.805-8.203-2.454-1.843-4.95-4.075-7.363-6.57-2.422-2.51-4.717-5.396-6.818-8.503a64.776 64.776 0 01-5.393-10.012c-1.457-3.479-2.683-7.093-3.493-10.62-.465-1.8-.752-3.519-1.071-5.292-.16-.888-.247-1.725-.365-2.595-.103-.877-.229-1.7-.297-2.63-.127-1.855-.297-3.68-.278-5.61-.005-.954-.004-1.91.01-2.871.047-.974.104-1.949.17-2.926l.107-1.467.177-1.478c.124-.987.253-1.974.401-2.96.375-1.971.718-3.958 1.264-5.904.984-3.926 2.404-7.728 4.056-11.34.423-.896.856-1.788 1.296-2.675.456-.865.93-1.713 1.406-2.564.472-.862.973-1.678 1.485-2.481.513-.801 1.02-1.631 1.555-2.396 2.128-3.117 4.424-5.945 6.794-8.568a91.441 91.441 0 0114.801-12.905c5.01-3.525 10-6.403 14.867-8.834 9.749-4.873 19.032-8.09 27.563-10.499a180.742 180.742 0 0123.097-4.88c9.069-2.234 17.92-.861 24.558 2.959 6.657 3.813 11.135 10.047 11.916 17.386.802 7.336-1.536 14.315-5.82 19.917-4.302 5.6-10.515 9.828-17.874 11.642-6.948 2.614-14.067 5.414-20.853 8.472-3.382 1.534-6.687 3.124-9.798 4.776-3.095 1.659-6.034 3.362-8.62 5.092-2.576 1.725-4.865 3.458-6.622 5.077a28.81 28.81 0 00-3.92 4.236c-.394.576-.731 1.08-.986 1.521-.218.449-.478.829-.607 1.224-.023.049-.049.097-.076.144-.02.05-.028.102-.046.153-.032.1-.073.2-.124.3-.026.107-.048.217-.086.324-.043.107-.086.216-.096.341-.021.12-.052.242-.09.362-.034.124-.03.27-.058.404-.072.26-.065.58-.102.894-.006.081-.026.15-.027.243l.008.304c.003.203 0 .407-.008.611-.003.199.02.353.02.533.012.164-.013.372.01.504.035.279.01.615.048.828.012.118.006.252.012.365.017.097.025.196.028.3-.007.115.006.199.018.28.01.082.005.177.006.264.042.132.002.326.043.451-.002.312.092.578.167.935.24.667.71 1.586 1.705 2.636.969 1.048 2.323 2.2 3.867 3.32 1.545 1.123 3.266 2.22 4.963 3.256 1.69 1.039 3.385 2.018 4.926 2.934l2.195 1.324c.679.424 1.334.833 1.917 1.22.578.387 1.114.759 1.581 1.107.468.35.75.639 1.044.933 5.815 1.87 12.17 3.842 19.053 6.673" fill="#FA3239"/>
            <path d="M103.096 401.697l14.063-44.267c5.762 1.853 12.072 3.817 18.93 6.638l-17.657 42.952c-4.307-1.787-9.554-3.48-15.336-5.323" fill="#B52935"/>
        </g>
    </g>
</svg>

