<svg viewBox="273.75 186.121 1642.5 919.655" xmlns="http://www.w3.org/2000/svg" xmlns:blush="http://design.blush" overflow="visible" width="1000" height="559.912">
  <g fill="none" fill-rule="evenodd">
    <g opacity=".4" blush:width="1992" blush:height="1120" blush:component="Background">
      <path d="M1235 400.87c53.328 15.644 97.283 51.607 145.808 77.45 94.825 50.21 179.032 9.004 267.18-31.6-35 105.39-71.64 210.088-103.838 316.38-1.967 15.619-28.848 7.536-40.128 9.089-51.454-1.776-102.546-12.675-150.218-32.164-45.43-17.403-88.084-42.979-136.303-52.08-11.26-4.445-33.42 1.356-39.36-9.838-10.224-60.536-52.28-123.05-120.308-119.055-76.344 4.574-105.582 95.836-118.465 159.41-3.702 9.953 2.184 27.156-9.486 31.595-9.79 4.58-21.336-13.919-33.607-16.202-9.557-.637-.157-40.382-2.556-49.42 1.139-49.978-31.48-93.547-76.2-113.448l-1.316-.663c-4.773-2.443-4.9-3.15-4.26-9.154 1.944-18.202-1.003-35.722-7.103-52.829l-.102-.297c-.88-2.454-2.705-5.582.743-6.792 46.5-18.902 87.38-49.156 134.33-67.117 92.357-37.206 197.296-64.717 295.189-33.266zm-75.854 242.547c3.942 12.147 7.715 24.49 10.554 36.95.144 6.382-10.762 2.124-14.914 3.293-44.075 1.06-87.785 10.473-128.657 27.063-8.351 1.006-88.293 41.733-81.11 28.421 8.092-60.398 32.868-152.228 99.33-169.694 51.143-10.632 100.023 25.765 114.797 73.967zm285.718-26.244c4.18 2.974 6.261.075 8.074-3.402-1.205-10.242-13.19-1.218-8.074 3.402zm34.691-14.321c3.823-.018 4.387-1.006 6.583-3.216-3.216-6.336-14.48-1.387-6.583 3.216zM1360.6 587.379c.274 7.722 20.715-1.57 6.227-3.178-2.429-.157-5.506.818-6.227 3.178zm141.141-11.49c-5.497.496-2.806 4.588.51 7.26 4.104-2.789 5.638-6.912-.51-7.26zm-60.216 1.854c1.628 4.203 4.318 1.6 8.3.267-3.078-3.409-7.549-4.836-8.3-.267zm-39.425-3.908l.258.31c2.604 3.047 6.013 4.397 7-.212.18-5.654-4.364-2.69-7.258-.098zm66.402-11.466c-.179 5.146 9.54 3.249 9.332-.44-.78-3.642-9.365-3.515-9.332.44zm45.675-14.48c-5.21.007-7.122 4.82-2.912 7.138 6.702 1.147 7.954-6.186 2.912-7.138zm-79.914-1.355c1.108 5.276 5.215 3.82 8.3-.038l-.4-.43c-3.248-3.402-7.517-5.64-7.9.468zm-98.399-7.978c-5.912.579-5.287 5.212-.907 8.296l.372-.168c4.828-2.258 6.9-6.153.535-8.128zm139.933-2.075c-7.83 1.923.901 11.948 5.17 8.687 3.322-3.98-2.284-6.702-5.17-8.687zm-113.636 2.075c-3.069 2.394-1.356 7.665 2.896 7.234 5.233-1.576 2.497-7.273-2.896-7.234zm41.573-2.038c-3.807 2.564-.263 7.864 3.513 7.159 4.221-2.483 1.647-7.68-3.513-7.159zm141.393-4.184c-3.978 2.107-.86 4.273 1.011 7.259 3.145-3.031 3.156-7.332-1.01-7.259zm-38.224-3.156c3.692-1.726 4.954-6.653-1.162-7.211-5.841-.209-5.26 7.925 1.162 7.21zm-78.88-14.467l-.184.018c-5.6.408-2.133 8.835 2.07 8.241 4.17-1.056 2.065-8.526-1.886-8.26zm28.427-1.09c5.945.667 6.333-6.139 1.277-6.111-5.34-.691-4.238 4.271-1.277 6.11zm27.664-1.75c2.868 3.378 4.919 1.45 8.249-1.349-3.63-2.851-8.877-2.988-8.249 1.35zm-117.208-3.961c-.797 5.03 4.51 6.18 7.164 2.77.365-5.438-5.216-7.275-7.164-2.77zm-32.243.446c.818 5.49 5.55 3.01 9.337-.204l-.79-.41c-3.856-2.046-7.326-4.382-8.547.614zm196.09-3.145c-.147 3.651 4.346 4.326 6.222 1.616-.229-5.492-5.363-6.032-6.221-1.616zm-127.775-6.063c-3.662 3.24-4.128 5.232-.209 7.24 5.454.37 3.692-4.494.209-7.24zm-37.19-14.931c.283 4.115 5.252 4.563 7.262 1.672-.16-4.965-6.171-5.944-7.262-1.672zm-37.843-18.155c-2.787 2.18-1.758 6.453 2.029 6.103 4.578-.316 2.659-7.096-2.029-6.103z" fill="#F55B80"/>
      <path d="M1699.863 424.481c-20.536 63.596-44.74 124.213-67.25 186.899-17.585 47.74-33.748 95.956-47.97 144.797-3.302 14.158-19.66 9.825-30.379 13.48-3.406.578-4.418-.366-3.455-3.841 19.465-67.04 41.987-133.124 64.52-199.18 13.251-38.878 26.301-77.825 39.21-116.819 4.582-13.365 32.39-19.286 45.324-25.336zm51.591-14.53c-6.302 22.828-12.147 45.798-19.146 68.41-26.557 85.815-54.223 171.282-82.217 256.635-7.385 16.07-42.665 21.197-60.203 27.56 30.835-113.458 79.516-220.658 114.628-332.684l1.233-3.956c2.933-9.91 16.357-9.167 24.194-13.914 4.972-.54 24.354-12.203 21.511-2.051zm39.474-9.61c-5.602 20.096-10.783 40.324-17.078 60.202-25.715 79.482-44.935 160.668-64.57 241.782-1.809 10.085-43.636 31.037-52.992 34.305 34.556-106.772 71.557-212.906 100.304-321.443l1.385-5.253c1.335-5.206 3.565-7.921 9.296-8.51 5.15.987 26.344-10.787 23.655-1.082zm86.796-2.736c10.408 5.869 31.353 6.035 29.526 21.871-.499 63.724-8.59 126.91-9.845 190.581-2.61 8.474 4.234 43.955-9.587 39.428l-3.443-.533c-18.753-2.88-39.077-5.476-57.545-.223l-.85.248c-39.713 11.543-73.888 32.554-109.517 53.43 21.733-102.258 52.58-201.995 81.35-302.391 1.24-4.532 3.135-6.396 8.01-7.292 23.96-3.897 48.981-3.796 71.901 4.881z" fill="#EBBF5E"/>
      <path d="M814.175 580.306c45.815 20.013 72.486 66.494 70.06 116.188-2.44 6.876 2.798 36.974-8.6 32.129-42.733-11.338-79.132 25.1-97.37 60.119-8.583 17.609-41.153 8.362-57.949 11.082-2.842-.471-3.589-1.825-2.466-4.516l7.287-13.679c20.387-38.31 40.514-76.768 57.216-116.913 10.785-25.804 20.095-52.083 25.064-79.73l.37-2.084c.834-4.397 2.045-4.797 6.388-2.596zM640.612 495c30.022 56.311 102.138 53.667 154.614 76.385 25.576 4.66-76.521 226.007-95.185 226.43-19.35-2.813-38.798-5.02-57.785-9.91-11.333-.428-4.19-23.362-6.068-32.467.317-46.131-5.734-100.013-43.554-132.087l-.898-.794c-3.968-3.542-3.744-4.01-1.07-9.433 19.924-37.97 35.17-78.175 49.946-118.124zm225.434 239.832c24.774.298 9.76 19.057 8.92 34.727-26.327 14.57-59.87 19.467-90.178 25.145 14.265-30.395 44.168-63.517 81.258-59.872zM586.355 629.324c19.722 16.735 30.673 39.197 35.771 64.146l.161.797c4.063 20.007 5.57 40.238 5.344 61.182-1.77 5.923 5.236 33.08-6.47 26.953-23.742-8.13-46.197-19.691-68.655-30.848-6.292-5.703-32.417-7.613-24.615-18.83 16.11-30.433 32.295-60.822 48.438-91.235 3.05-3.295 4.394-15.408 10.026-12.165zm326.684 125.54c3.727 5.157-19.822 9.443-23.87 12.385-3.08 1.146-3.905.344-3.72-2.978l.259-1.844c4.134-29.33 4.705-20.337 27.331-7.562zM486.9 580.038l.86.245c15.542 4.501 104.528 33.48 84.545 49.808-10.003 18.954-20.073 37.87-30.161 56.777l-23.202 43.453c-2.003 3.693-2.432 3.746-6.506 2.37l-.743-.252c-17.575-5.977-35.185-11.852-52.741-17.887l-8.774-3.031c-11.847-4.117-9.34-3.678-6.163-12.757 14.797-39.186 26.392-80.719 42.886-118.726zm-134.01-54.163c31.817 30.078 76.761 35.73 116.771 48.982 21.229-5.49-33.041 111.337-35.391 125.846l-.347.925c-1.56 4.1-2.032 4.042-7.172 2.67-38.072-11.241-86.055-9.307-115.614 19.792-30.651 26.77-19.927-56.182-25.345-71.05l.44-.035c.655-15.798-6.435-33.602.535-48.26 16.895-27.47 37.09-52.644 58.572-76.631l1.703-1.9c2.602-2.877 3.288-2.81 5.847-.34zm138.166-99.318c49.462 8.497 90.274 37.181 134.198 59.227l2.3 1.152c4.14 2.098 4.27 2.574 2.917 7.54l-.076.276c-10.696 39.161-28.881 75.51-46.058 112.079l-.208.499c-1.42 3.347-3.546 6.965-7.213 3.358-23.857-16.185-50.13-27.089-77.333-36.001l-1.384-.452c-10.944-3.555-10.174-2.406-7.133-13.718 8.471-42.197 28.261-95.904-.01-133.96zM339.714 439c-9.266 23.402-12.974 51.043 2.103 72.884l.605.946c2.166 3.429 1.935 3.815-1.152 7.234l-4.63 5.283c-18.503 21.179-36.684 42.99-51.062 67.134l-1.455-.857c-.696-37.66-1.608-75.277-1.472-112.977 1.391-24.456 38.074-33.08 57.063-39.647zm157.65 35.043c-.158 11.823-9.489 99.225-21.557 93.258-38.139-13.388-81.427-17.862-113.25-44.537l-1.47-1.28c-5.314-4.676-4.902-5.205.743-10.956l1.84-1.747c31.556-30.056 135.975-132.376 133.693-34.738zM655.1 500.185c41.199 16.038 87.356 20.668 130.178 8.543 4.12-1.074 8.453-4.135 9.974 1.716 3.756 6.867 15.427 56.785 1.71 52.771C752.068 541.836 684 545.104 655.1 500.185zm-183.638-77.337c-47.392 14.303-83.266 50.445-117.942 83.948l-.345.301c-2.345 2.007-3.29 1.909-5.04-.8l-.126-.198c-13.423-20.445-8.9-46.817 1.67-67.461 26.669-19.536 88.43-18.502 121.784-15.79z" fill="#60D6E1"/>
      <path d="M1495.449 320.581c.167-10.033-14.113-6.279-13.438 2.088.653 9.5 14.136 8.125 13.438-2.088m8.474-87.96c12.676.007 9.036-14.961-.486-15.547-8.256.786-10.339 15.952.486 15.548m4.042 60.244c-.879 12.097 13.032 9.65 14.485.255-.31-9.362-14.356-13.391-14.485-.255m-43.056-6.31c-6.116.261-10.07 3.413-10.932 8.713-.274 21.107 30.95-6.643 10.932-8.713m-33.759-28.495c.296 10.828 11.013 6.545 15.226 1.179 6.892-10.152-14.344-20.621-15.226-1.179m109.975-.584c-.984-9.985-17.243-11.742-18.675-.651.095 12.117 16.554 11.636 18.675.651m-54.744-9.259c-13.695-.036-12.31 17.745 1.612 16.497 11.85.594 8.343-17.405-1.612-16.497m-31.198-27.037c12.063-12.757 32.828-38.695 51.513-25.217 26.646 20.096 41.782 50.65 64.824 74.183 4.794 4.756 3.501 16.459-4.327 16.327-5.807.158-9.757 4.278-6.034 9.527 1.69 2.625 1.482 4.057-.844 5.756-3.228 2.283-5.393 6.697-10.097 4.73-9.027-3.066-15.733 3.022-13.512 12.27-2.537 11.09-16.227 17.707-22.977 26.984-12.903 14.786-27.405 32.117-44.294 10.477-3.487-4.008-3.406-4.077-.775-9.009 5.396-8.249-4.496-14.746-10.9-9.53-5.28 5.68-15.057-11.425-20.34-14.16-6.083-3.945.025-7.837.85-13.113 2.182-5.623-5.222-10.597-9.894-7.147-3.702 1.906-4.768 9.269-9.191 4.014-4.446-6.267-30.922-19.701-24.34-26.575 19.616-20.555 39.288-41.369 60.788-59.968-8.36 7.198 7.421 17.689 11.418 7.885 2.263-6.678-5.94-11.999-11.868-7.434" fill="#52DC82"/>
      <path d="M1242.452 878.954c12.655 34.441 14.957 71.777 17.51 108.096l-.037.437c-.324 3.366-1.203 3.709-4.766 2.905-9.79-1.279-19.596 2.871-29.213 4.46-36.63-9.007-69.758-28.716-106.046-41.907 39.05-24.097 79.962-44.618 114-75.863l1.43-1.252c4.34-3.742 4.59-3.105 7.122 3.124zm-17.518-40.695c2.544 9.202 11.652 17.92 8.397 27.046-21.661 20.686-46.664 37.705-72.404 52.99-17.81 7.829-35.59 26.538-54.722 27.816-5.36-4.136-40.773-14.239-35.588-20.244 14.978-10.556 54.856 22.324 48.041-29.84-2.48-13.041 8.654-7.043 14.748-2.752 21.653 11.092 44.107 1.43 37.42-25.308.048-6.242 5.817-.806 8.1 1.074 14.815 11.355 35.523-3.674 40.076-19.316l.278-.983c1.004-3.63 1.919-7.518 5.654-10.483zm-23.196-37.213l1.599-.12.302.425c5.132 7.1 19.312 21.788 15.085 29.728-9.433 10.587-8.222 28.223-24.024 32.877-12.368 6.393-35.054-31.862-32.478 15.502-5.865 35.679-61.726-36.5-51.42 28.99-2.846 25.356-36.265-5.457-47.746 13.05-3.03 3.381-5.752 3.626-9.389 1.331-4.42-2.888-11.894-3.405-11.952-9.948-2.86-15.065 3.553-22.59 18.207-15.146 63.83 18.142 7.242-55.942 46.866-45.683 11.335 9.952 43.92 22.11 44.438-2.342-.537-9.567-4.864-19.424-2.353-28.942 6.063-19.64 42.931 57.134 52.865-19.722zm-28.47-32.019l2.313 1.496c8.52 5.553 19.485 13.353 20.057 23.162-6.064 8.85-.103 36.932-16.984 31.597-6.223-3.267-10.801-8.884-15.713-13.736-13.13-11.402-26.904 5.46-22.914 19.234l.409 1.712c4.283 18.24 4.432 29.534-18.299 18.41-12.75-11.542-33.974-14.807-38.805 5.961-5.634 11.55 11.997 36.66-9.294 34.796l-4.127-1.246c-16.3-4.862-37.35-9.827-36.95 15.428 2.963 13.985-19.767-5.683-25.85-6.26-7.135-4.546-29.034-2.277-17.993-15.161 50.125-44.354 111.723-74.07 167.814-110.173 4.97-2.064 10.871-6.575 16.337-5.22z" fill="#67C3CC"/>
      <path d="M727.606 331.717c1.49 8.27-11.379 4.9-16.373 6.69l-.027-.264c-14.448 2.43-9.473-21.11-13.395-30.217-1.886-8.513 12.133-7.748 17.57-10.792 8.609-3.037 8.928 28.11 12.225 34.583zm-40.844-24.42c5.052 6.449 3.832 16.002 6.482 23.7.784 2.417-.357 3.948-2.963 2.956l-.73-.355c-7.983-3.914-18.383-10.183-19.926-18.745 5.569-2.583 11.22-4.99 17.137-7.557zm61.84-14.685c1.42 10.502 2.676 21.026 3.995 31.542l.015.508c.105 4.01-.373 4.62-4.354 6.114l-.328.093c-4.535 1.337-11.33 5.406-12.238-1.82-.004-7.16-12.996-36.554-3.391-36.903 4.86-.68 15.584-7.843 16.302.466zm38.114-6.255c-1.899 13.954-7.908 26.908-20.695 36.105l-.35.248c-2.827 1.975-3.455 1.596-3.966-2.112.781-8.46-9.864-34.812 1.085-36.405 7.438.011 25.9-12.35 23.926 2.164zm-99.624 4.43c1.932 11.64-13.064 10.873-20.594 15.731-8.248 4.193-8.623-9.698-11.398-14.59-.028-7.89 20.425-8.478 26.765-12.422 6.072-1.737 3.94 7.797 5.227 11.28zm30.258-5.756c-.633 6.678-11.892 5.64-16.742 8.649-7.143 1.516-3.756-10.145-5.035-14.355-.395-6.911 10.556-5.775 15.159-8.124 7.157-1.845 5.009 9.511 6.618 13.83zm29.665-12.602l-.034.002c3.027 9.934-9.756 8.876-16.22 11.582-5.836 3.777-8.553-16.539-3.48-16.748l.515-.101c8.508-1.77 21.555-9.052 19.22 5.265zm-63.184-20.453c5.797 24.38-7.715 18.424-26.644 26.283-.606-7.326 22.687-35.12 26.644-26.283zm96.027 7.199l.685 1.025c5.23 7.915 4.49 8.941-5.397 11.43-8.233 1.27-22.3 9.598-20.243-4.963l-.035-1.395c-.093-5.353.55-5.744 6.514-7.137 6.264-.501 14.623-6.398 18.476 1.04zm-66.733-2.13c1.075 7.636-9.698 6.231-14.518 8.726-7.822.887-4.593-12.041-6.157-16.968 1.376-5.499 9.576-5.936 13.878-8.807 7.29-1.475 4.612 12.74 6.797 17.05zm30.728-10.943c3.245 10.689-11.07 8.125-17.661 11.346-8.42 1.2-5.222-13.162-7.708-18.394-1.086-6.167 7.26-3.636 10.97-4.117l.002.023.91-.089c8.98-.803 14.31 1.019 13.487 11.231zm9.124-5.176c5.666.459 10.293 3.404 15.21 5.755l-.588 1.455-1.69.427c-8.676 2.236-14.853 4.223-12.932-7.637z" fill="#EBBF5E"/>
    </g>
    <g blush:has-customizable-skin="true" blush:width="755" blush:height="859" blush:component="Master/Character/Standing">
      <g blush:width="693" blush:height="596" blush:component="Legs">
        <path d="M1407.007 1015.602a417.477 417.477 0 0016.993-8.868L1379.377 926a324.215 324.215 0 01-18.793 9.578 273.776 273.776 0 01-9.424 4.21 215.113 215.113 0 01-4.572 1.88l-2.144.836-.96.361-.393.145-.091.033.029-.012.061-.019 1.066 3.076 9.135 26.386c.27.025.814-.048 1.315-.113l1.556-.22 3.22-.528c.14 6.111.154 12.252-.022 18.388l13.906 40.164 11.715 33.835 2.85-1.023 2.029-.76 3.716-1.441a323.169 323.169 0 006.928-2.834c4.726-1.999 5.158-9.352 4.998-17.789-.159-8.452-.898-17.974 1.505-24.55" fill="#0A1B45"/>
        <path d="M1310.03 570.64c9.524 4.724 19.154 9.576 28.358 14.357 4.583 2.38 9.15 4.796 13.044 6.968l2.648 1.508 1.904 1.17c1.968 1.228 3.936 2.455 5.894 3.733 15.714 10.143 30.808 21.576 44.516 33.761 27.52 24.337 49.301 52.32 61.038 80.528a156.199 156.199 0 016.943 21.198c.384 1.773.784 3.54 1.203 5.3.33 1.772.58 3.549.903 5.313.372 1.758.51 3.544.709 5.316.167 1.777.509 3.533.525 5.323.086 1.783.193 3.56.32 5.334l.002 5.366c-.004.901.04 1.77.01 2.696l-.13 2.823c-.04 1.89-.218 3.74-.364 5.593-.634 7.402-1.758 14.595-3.514 21.563a138.505 138.505 0 01-6.82 20.368c-2.813 6.617-6.238 13.059-10.13 19.379-3.922 6.308-8.433 12.456-13.4 18.455-5.04 5.967-10.497 11.806-16.505 17.388-10 9.311-21.29 18.001-33.433 25.938-12.135 7.92-25.2 15.117-38.48 21.226l17.155 34.987a306.707 306.707 0 0018.128 2.992 331.447 331.447 0 01-8.78 16.077l35.157 71.7c19.134-9.86 37.381-20.973 54.962-33.576 17.547-12.616 34.381-26.712 50.029-42.643 9.418-9.482 18.348-19.704 26.736-30.52 8.338-10.876 16.11-22.39 23.025-34.574 6.888-12.197 13.008-24.986 18.034-38.275a270.098 270.098 0 0011.864-40.939c2.878-13.916 4.522-28.012 5.146-41.994.142-3.496.287-6.991.262-10.466l.011-5.218c-.018-1.749-.116-3.547-.177-5.319-.154-3.555-.272-7.11-.502-10.657l-1.04-10.636c-.29-3.549-.945-7.054-1.46-10.575-.547-3.515-1.069-7.036-1.858-10.498-.739-3.472-1.443-6.955-2.256-10.402l-2.74-10.246a283.543 283.543 0 00-14.617-39.241c-5.855-12.493-12.49-24.41-19.73-35.719-7.217-11.34-15.159-21.918-23.456-31.994a381.517 381.517 0 00-26.122-28.506 437.421 437.421 0 00-28.13-25.312c-19.32-15.918-35.521-27.289-56.822-39.56-.504-.291-74.01 0-74.01 0-30.154 46.634-44.838 70.138-44.05 70.51z" fill="#CC2935"/>
        <path d="M1186.115 1091.951l-65.77-6.81c-1.78-.183-3.273-1.381-4.227-3.235-.943-1.819-1.403-4.429-.93-6.821l1.006-5.483c.352-1.813.775-3.468 1.169-5.21.773-3.51 1.694-6.718 2.603-9.98.444-1.66.941-3.191 1.43-4.752l1.477-4.67c1.04-2.974 2.057-6.038 3.14-8.925 4.292-11.618 8.987-22.455 13.534-32.534l6.465-14.32 1.41-3.211 1.399-3.461 2.802-6.922 5.621-13.835c1.791-4.67 3.429-9.446 5.156-14.161l4.249-11.764c.736-1.943 1.365-3.95 2.005-5.953l1.927-6 3.861-12 1.934-6c.634-2.005 1.18-4.057 1.773-6.082l7.009-24.382 6.337-24.691 1.586-6.172 1.427-6.237 2.853-12.473 2.858-12.474 2.573-12.572 2.56-12.577c.85-4.193 1.742-8.376 2.46-12.608l4.562-25.325c5.672-33.876 10.493-67.973 14.268-102.233 3.65-34.274 6.504-68.655 8.382-103.078l78.976 4.2c-1.957 35.916-4.93 71.758-8.743 107.525-3.94 35.759-8.974 71.416-14.934 106.974l-4.796 26.633c-.759 4.444-1.696 8.866-2.593 13.293l-2.702 13.28-2.722 13.277-3.027 13.238-3.032 13.238-1.517 6.617-1.69 6.595-6.775 26.372-7.54 26.256c-.643 2.185-1.232 4.38-1.918 6.558l-2.097 6.527-4.2 13.056-2.101 6.526c-.698 2.176-1.385 4.354-2.195 6.51l-4.673 12.965c-1.905 5.208-3.71 10.434-5.7 15.623l-6.286 15.503-3.147 7.75-1.576 3.874-1.745 3.978-6.653 14.742c-4.268 9.447-8.144 18.497-11.412 27.339-.835 2.213-1.531 4.369-2.31 6.55l-1.004 3.201c-.336 1.064-.695 2.141-.956 3.165-.568 2.074-1.19 4.17-1.6 6.133-.216.987-.502 2.014-.676 2.965l-.511 2.828c-.288 1.304-1.048 2.191-2.33 2.855-1.262.643-2.943.988-4.724.805" fill="#EDB98A" blush:skin="500"/>
        <path d="M1205.151 1068.705c.406-1.14.769-2.257 1.205-3.415l1.315-3.48-59.151-22.565-26.854-10.245c-3.405 8.9-6.663 18.302-9.385 28.794l-1.91 8.118c-.577 2.828-1.094 5.763-1.607 8.646-.459 3.023-.824 6.202-1.186 9.302-.183 2.2-.32 6.246-.413 12.14H1138.289l.747-5.896c.318-1.441.595-2.91 1.024-4.248a141.957 141.957 0 008.22 4.813c1.851.998 4.694 2.775 8.526 5.331h42.429l30.557-.025c1.348-.024.089-6.472-.616-6.775-.71-.336-5.532-2.573-7.307-3.39-7.221-3.253-15.269-5.623-18.908-10.431.715-2.206 1.35-4.38 2.19-6.674z" fill="#0A1B45"/>
        <path d="M1218.872 500s-4.247 58.153-8.264 97.365c-4.045 39.216-9.31 78.273-15.871 116.947-6.515 38.684-14.587 76.92-24.14 114.358-9.586 37.402-20.768 74.046-34.124 108.757l-4.505 11.693c-1.589 3.816-3.263 7.55-4.883 11.329l-4.878 11.305-.608 1.414-.303.706-.295.63-1.173 2.494-2.726 5.716c-3.89 8.123-8.301 17.347-12.611 27.287-4.32 9.989-8.623 20.744-12.491 33.004l37.179 11.126c5.366-5.03 10.748-9.624 16.235-13.767a294.88 294.88 0 004.028 19.832l76.193 22.804c1.557-5.893 3.86-12.695 6.642-19.923 2.792-7.272 6.039-14.916 9.714-23.482l2.879-6.759 1.546-3.709c.27-.63.503-1.222.72-1.796l.672-1.75 5.372-13.995c1.77-4.666 3.6-9.328 5.309-13.997l4.756-14.023c14.16-41.575 25.062-83.277 34.078-125.03 8.958-41.756 16.082-83.563 21.501-125.428 5.463-41.862 9.477-83.77 12.184-125.73 2.677-41.962 4.132-63.868 3.981-105.977.031-1.287-116.117-1.401-116.117-1.401z" fill="#FA3239"/>
        <path d="M1220 500c0 55.228 46.562 100 104 100s104-44.772 104-100" fill="#FA3239"/>
      </g>
      <g blush:width="863" blush:height="528" blush:component="Body">
        <path d="M1566.209 268.814c1.087 35.4-2.919 74.575-25.634 102.8-13.896 17.013-35.212 23.197-56.876 20.957-32.765.472-69.697-37.638-94.169.916-23.511 46.93 56.442 60.697 88.48 64.84 19.608 1.868 41.757-.243 60.883-7.369 36.313-12.778 63.836-44.608 77.44-79.547 7.996-19.9 12.661-41.679 14.724-62.766 3.56-37.27.018-74.634-8.249-110.895-1.583-8.499-13.67-10.34-16.964-2.165-.344-11.345-13.358-18.057-18.638-6.04-6.52-9.07-20.17-.315-15.559 9.542-6.041-4.71-16.333 1.686-14.217 9.024 1.25 5.14 2.505 10.781 3.489 15.996-14.193 3.662-3.507 22.057-4.545 32.103.106 8.524 8.418 6.63 9.835 12.604" fill="#D29863" blush:skin="600"/>
        <path d="M1566.209 268.814c1.087 35.4-2.919 74.575-25.634 102.8-13.896 17.013-35.212 23.197-56.876 20.957-32.765.472-69.697-37.638-94.169.916-23.511 46.93 56.442 60.697 88.48 64.84 19.608 1.868 41.757-.243 60.883-7.369 36.313-12.778 63.836-44.608 77.44-79.547 7.996-19.9 12.661-41.679 14.724-62.766 3.56-37.27.018-74.634-8.249-110.895-1.583-8.499-13.67-10.34-16.964-2.165-.344-11.345-13.358-18.057-18.638-6.04-6.52-9.07-20.17-.315-15.559 9.542-6.041-4.71-16.333 1.686-14.217 9.024 1.25 5.14 2.505 10.781 3.489 15.996-14.193 3.662-3.507 22.057-4.545 32.103.106 8.524 8.418 6.63 9.835 12.604" fill="#D29863" blush:skin="600"/>
        <path d="M1638.401 274.927c.153 11.458-.24 23.047-1.415 34.709 4.988 15.24 2.736 28.274-.538 46.933-9.476 50.625-50.488 101.838-103.506 113.729-35.045 8.95-70.993 3.911-103.904-8.954-34.948-13.984-100.038-19.6-99.285-62.395 5.27-43.95 57.197-55.883 115.143-31.696 19.83 5.65 36.894 11.101 57.37 7.862 34.421-3.27 48.385-49.72 60.088-72.899.87-8.593 1.172-17.374 1.054-26.247l74.993-1.043z" fill="#2DB386"/>
        <path d="M1635.535 309.084l-74.643-7.31c.83-8.426 1.133-17.066 1.014-25.784l74.993-1.043c.154 11.279-.236 22.658-1.364 34.137" fill="#25996F"/>
        <g>
          <path d="M1460.107 547.299c-72.568 5.08-276.666-18.16-274.356-31.094 4.582-25.653 12.513-65.739 23.795-120.257 0-22.615 20.158-40.949 45.023-40.949h139.327c24.865 0 45.021 18.334 45.021 40.949 9.954 52.287 17.186 91.06 21.697 116.317 1.61 9.018 1.441 20.696-.507 35.034z" fill="#34D1A1"/>
          <path d="M1182 550.19c100.65 35.654 209.777 1.927 284.463 0l-4.79-38.889c-73.162 2.617-177.854 34.562-275.998.816L1182 550.19z" fill="#2DB386"/>
        </g>
        <g>
          <path d="M1212.642 547.111c-20.16-14.121-44.012-22.762-64.213-35.728-18.36-10.584-23.482-27.938-13.785-45.18 14.284-20.232 43.991-27.751 68.303-32.878 18.101-4.643 41.7-1.143 55.833-15.333 21.735-24.5 2.715-59.068-30.687-54.779-54.108 5.826-116.712 18.614-149.239 67.726-24.035 37.35-18.829 91.508 15.08 121.377 25.332 24.793 62.734 33.526 88.595 54.962 6.758 5.497 7.318 12.235 8.501 20.581 2.728 4.409 11.045 6.191 15.088 2.756-3.18 9.953 6.344 18.483 14.865 11.705 2.008 12.498 18.494 9.713 18.232-2.524 2.244 5.208 8.877 7.261 13.067 2.979 7.178-9.647 3.765-23.082 2.534-35.21 19.121-9.837-13.504-50.293-24.46-57.62-5.89-4.798-11.959.645-17.714-2.834" fill="#EDB98A" blush:skin="500"/>
          <path d="M1166.85 603.204c-6.612-4.05-14.983-8.276-23.964-12.778-14.407.107-33.495-9.195-47.575-18.393-38.63-23.794-57.084-75.634-44.298-119.505 20.714-78.18 145.563-97.528 186.079-97.528h20.917c23.991 3.544 36.531 63.241 1.399 81.321-17.131 5.57-36.12 6.73-53.587 12.056-18.824 5.691-52.25 13.194-60.104 32.402-.694 2.803-.847 5.705-1.125 8.56 1.643 10.374 14.605 17.957 21.824 24.702 12.932 13.047 23.49 15.163 39.517 25.15l-39.083 64.013z" fill="#34D1A1"/>
          <path d="M1143.903 589.257l33.673-67.016c8.913 4.497 18.69 9.315 29.14 15.669l-39.084 64.012c-6.635-4.061-14.78-8.177-23.729-12.665" fill="#2DB386"/>
        </g>
      </g>
      <g blush:width="127" blush:height="211" blush:component="Head">
        <path d="M1313.5 358.538h-33c-13.531 0-24.5-10.97-24.5-24.5 0-13.531 10.969-24.5 24.5-24.5h33c13.531 0 24.5 10.969 24.5 24.5 0 13.53-10.969 24.5-24.5 24.5" fill="#000"/>
        <path d="M1329.2 311.538h-9.2v-75h9.2c28.055 0 50.8 12.744 50.8 40.8v13.399c0 20.8-22.745 20.8-50.8 20.8" fill="#000"/>
        <path d="M1323.8 341.538h19.2v-105h-19.2c-28.055 0-50.8 22.744-50.8 50.8v3.399c0 28.057 22.745 50.8 50.8 50.8" fill="#000"/>
        <path d="M1300 309.538h45v51.633c0 13.905-10.073 25.177-22.5 25.177-12.426 0-22.5-11.272-22.5-25.177v-51.633z" fill="#EDB98A" blush:skin="500"/>
        <path d="M1347.053 341.538h-4.988c-23.232 0-42.065-18.833-42.065-42.065V279.74c0-17.785 14.417-32.203 32.203-32.203h5.593c17.786 0 32.204 14.418 32.204 32.203v38.849c0 12.674-10.274 22.948-22.948 22.948" fill="#EDB98A" blush:skin="500"/>
        <path d="M1321.75 344.332c-9.294-3.288-13.931-11.593-15.768-22.764 7.271 12.102 20.459 20.245 35.562 20.429l.521.003H1345c-7.937 4.23-15.687 5.007-23.25 2.332z" fill="#000" opacity=".12"/>
        <path d="M1312 306.038c0 6.903-5.596 12.5-12.5 12.5s-12.5-5.597-12.5-12.5 5.596-12.5 12.5-12.5 12.5 5.597 12.5 12.5" fill="#EDB98A" blush:skin="500"/>
        <path d="M1297.067 300.706c.905 0 2.157.21 3.442.852 2.146 1.073 3.504 3.035 3.595 5.882l.005.308h-3c0-1.835-.701-2.887-1.942-3.507-.46-.23-.97-.383-1.48-.468a4.887 4.887 0 00-.562-.065l-.058-.002v-3z" fill="#000" fill-rule="nonzero"/>
        <path d="M1300 293.538h-1.536c-5.854-5.692-8.103-17.292-8.781-28.551-.929-15.43 25.859-28.45 41.316-28.45h17.985l17.016 26h-39.303c0 17-14.697 31-26.697 31" fill="#000"/>
        <path d="M1374.736 262.538H1321V236.17a7.172 7.172 0 017.172-7.172h31.554c13.406 0 24.274 10.869 24.274 24.275a9.264 9.264 0 01-9.264 9.264" fill="#000"/>
      </g>
      <g fill="none" blush:width="61" blush:height="61" blush:component="Expression">
        <path stroke="#000" stroke-width="3" d="M1346.446 290.11l3.958 21.376h-8.07"/>
        <path stroke="#000" stroke-width="3" d="M1346.446 290.11l3.958 21.376h-8.07M1320.56 285.067s6.068-6.066 15.775-6.066M1362.207 284.656s-5.312-5.312-13.813-5.312M1325.334 294.986c2-5 11-5 12 0M1350.334 294.986c2-5 11-5 12 0"/>
        <path stroke="#000" stroke-width="3" d="M1346.446 290.11l3.958 21.376h-8.07"/>
        <path d="M1353.334 327.986h-12.83c-4.512 0-8.17-3.605-8.17-8.053v-.947h21c-1.451 1.854-1.451 5.807 0 9z" fill="#000"/>
        <path fill="#000" fill-rule="nonzero" d="M1345.198 290.397l2.95-.547 4.287 23.15h-9.874v-3l6.267-.001z"/>
      </g>
      <g fill="none" blush:width="76" blush:height="48" blush:component="Accessories">
        <path d="M1354.198 293.767c6.67 0 10.395 6.152 13.121 8.91.218.192.431.39.64.593.116.098.23.187.344.266l-.011.061c3.92 3.946 6.325 9.28 6.325 15.153 0 12.15-10.298 22-23 22-12.703 0-23-9.85-23-22 0-8.117 4.595-15.207 11.433-19.02l-.006-.038c5.44-2.546 6.647-5.925 14.154-5.925z" fill="#D8D8D8"/>
        <path d="M1331.617 313.733c0 12.15 10.297 22 23 22 7.457 0 14.086-3.395 18.288-8.657-3.436 8.013-11.673 13.657-21.288 13.657-12.703 0-23-9.85-23-22 0-5.016 1.755-9.64 4.71-13.342a21.113 21.113 0 00-1.71 8.342z" fill="#000" opacity=".12"/>
        <path stroke="#22252B" stroke-width="2" d="M1299 293l34.913 14.229M1332.673 321.173H1299"/>
      </g>
      <path d="M1350 295c0 9.389-7.611 17-17 17-9.28 0-16.825-7.437-16.997-16.677L1316 295h-25v-2h25.116c.99-8.446 8.172-15 16.884-15s15.894 6.554 16.884 15h2.232c.99-8.446 8.172-15 16.884-15 9.389 0 17 7.611 17 17s-7.611 17-17 17c-9.28 0-16.825-7.437-16.997-16.677L1352 295h-2zm-17-15c-8.284 0-15 6.716-15 15 0 8.284 6.716 15 15 15 8.284 0 15-6.716 15-15 0-8.284-6.716-15-15-15zm36 0c-8.284 0-15 6.716-15 15 0 8.284 6.716 15 15 15 8.284 0 15-6.716 15-15 0-8.284-6.716-15-15-15z" fill="#000" blush:width="95" blush:height="32" blush:component="Glasses"/>
    </g>
    <g blush:has-customizable-skin="true" blush:width="755" blush:height="859" blush:component="Master/Character/Standing">
      <g blush:width="693" blush:height="596" blush:component="Legs">
        <path d="M893 848c-2.872-14.121-7.535-24.271-6.862-23.986.846-3.857 7.03-3.23 10.575-5.044 23.567-7.714 46.752-16.885 69.985-26.217 48.248-20.433 98.235-39.752 143.644-65.606 2.706-2.807-.822-12.678-1.05-16.584-8.32-43.16-18.337-85.801-28.623-128.843l76.807-18.48c10.487 43.86 20.886 88.177 29.439 132.642 3.606 22.43 10 46.067 3.554 68.169-.08-.014.144.116-.182-.016-13.202 25.339-82.748 52.659-110.418 66.26-48.661 21.72-97.498 42.374-147.8 60.145-7.784 1.456-29.175 13.926-32.534 2.935.04-.93-2.604-26.05-6.535-45.375z" fill="#8C6345" blush:skin="600"/>
        <path d="M1049.194 502.106c-3.256.794-5.67 2.325-5.4 3.403 11.218 47.014 22.192 94.9 31.971 142.118l47.737-10.418 7.274-17.952 13.418 13.437 48.5-10.584c-11.274-48.781-22.994-73.687-35.694-122.03l-107.806 2.027z" fill="#CC2935"/>
        <path d="M932.203 898.013c38.345-13.33 74.556-28.253 111.57-43.997l-36.312-84.75C966.87 786.15 925.753 804.215 884 816.4c2.96 15.366 6.22 31.278 6.346 46.96.275-5.318-.645-10.588-1.08-15.866.039.071.067.155.116.22.616.173 1.657.285 2.333.305-2.484 27.405-1.001 68.364-1.37 95.901 7.837-.015 15.707-1.207 23.326-3 2.694-.785 6.137-1.194 8.599-2.54 9.532-9.225 3.902-29.878 9.933-40.367L893 847" fill="#0A1B45"/>
        <g>
          <path d="M1080 1090c-14.523.602-25.948 2.562-25.92 1.052-1.768-1.322-1.46-5.462-1.744-7.38l-.566-5.01c-23.455-168.724-61.229-334.626-85.67-503.804l78.23-11.007c24.318 167.081 61.502 332.658 85.28 500.134.33 2.892 1.005 8.851 1.327 11.755.778 5.121 1.5 13.282-5.435 13.901-1.495-.3-25.897-.453-45.502.359z" fill="#B18058" blush:skin="500"/>
          <path d="M941.233 500.08c.056 7.237.71 23.334 1.228 30.52 3.937 45.015 11.179 90.54 18.05 134.888l48.174-8.16 8.16-17.69 12.722 14.155 48.944-8.29c-6.926-38.726-13.832-76.962-18.717-115.794-.553-4.617-1.981-26.152-2.09-28.18-.02-.527-38.843-1.01-116.471-1.448z" fill="#FA3239"/>
          <path d="M1134.876 1049.065c-5.01-36.08-11.185-71.155-17.38-106.91l-90.817 15.927c6.756 38.915 13.57 77.657 18.611 116.628.753 6.525 1.706 14.859 1.943 21.371h31.17l1.112-5.974c5.767 1.472 11.62 3.795 17.432 5.974h78.286c-.131-5.696-.367-12.114-.913-17.798-1.91-11.131-30.36-11.213-38.018-18.671-.464-3.526-.94-7.042-1.426-10.547z" fill="#0A1B45"/>
        </g>
        <path d="M949 500c0 55.228 46.562 100 104 100s104-44.772 104-100" fill="#FA3239"/>
      </g>
      <g blush:width="863" blush:height="528" blush:component="Body">
        <path d="M1428.856 391.462c3.68 2.687 6.564 6.07 8.493 10.063a27.067 27.067 0 012.155 6.396c.433 2.23.609 4.576.522 7.008-.064 2.453-.482 4.894-1.152 7.384a42.659 42.659 0 01-1.202 3.753c-.48 1.237-1.05 2.447-1.672 3.667a49.435 49.435 0 01-2.065 3.625c-.757 1.19-1.615 2.313-2.513 3.446a53.582 53.582 0 01-2.881 3.308 53.066 53.066 0 01-3.302 3.016c-3.11 2.688-6.374 5.113-9.612 7.588-3.297 2.36-6.593 4.732-9.994 6.884-1.685 1.108-3.378 2.204-5.105 3.214-1.721 1.025-3.434 2.076-5.168 3.068-3.49 1.932-6.978 3.877-10.538 5.612-3.53 1.831-7.138 3.41-10.728 5.052-3.623 1.52-7.239 3.08-10.907 4.421-3.646 1.437-7.345 2.64-11.031 3.91-3.712 1.135-7.413 2.342-11.154 3.315-29.87 8.17-60.578 10.971-91.111 8.838-7.636-.59-15.262-1.427-22.864-2.626-7.599-1.248-15.18-2.73-22.709-4.647-7.525-1.94-15.018-4.132-22.42-6.812-7.398-2.69-14.738-5.676-21.939-9.176-7.194-3.512-14.277-7.4-21.165-11.78a199.248 199.248 0 01-19.944-14.644c-12.724-10.783-24.343-23.563-33.557-38.195-.846-1.348-1.65-2.696-2.348-4.083a57.204 57.204 0 01-1.818-4.226c-1.123-2.798-1.8-5.692-2.256-8.492-.495-2.783-.544-5.574-.398-8.21a35.76 35.76 0 01.422-3.859c.242-1.263.543-2.488.9-3.669.727-2.364 1.63-4.536 2.83-6.524a27.177 27.177 0 014.205-5.322c3.17-3.105 7.04-5.278 11.423-6.516 4.385-1.239 8.863-1.46 13.13-1.039a41.68 41.68 0 016.213 1.102c2.008.508 4.023 1.116 5.876 1.857.933.368 1.836.766 2.707 1.192.9.415 1.793.847 2.637 1.312 1.703.925 3.214 1.986 4.744 3.08 1.493 1.113 2.782 2.367 4.08 3.668.625.66 1.207 1.357 1.743 2.093.564.72 1.126 1.454 1.618 2.245 5.374 8.573 12.345 16.275 20.376 23.113a133.456 133.456 0 0012.93 9.486c4.578 2.905 9.397 5.547 14.367 7.985 19.99 9.644 42.791 15.185 65.926 16.855 23.158 1.636 46.768-.566 68.908-6.644 22.118-6.069 42.798-16.13 59.33-30.006 6.065-5.068 13.473-7.489 21.638-7.857 2.02-.094 4.1-.032 6.203.19a41.54 41.54 0 016.234 1.075c4.15 1.061 8.261 2.82 11.942 5.506" fill="#8C6345" blush:skin="600"/>
        <path d="M1461.187 384.84c2.203 1.148 3.566 3.35 3.937 6.052.186 1.35.125 2.82-.193 4.326-.334 1.493-.983 2.985-1.864 4.43-3.827 6.308-8.164 12.267-12.727 17.998-2.335 2.815-4.655 5.651-7.151 8.298-2.425 2.732-5 5.28-7.573 7.834-1.267 1.305-2.63 2.477-3.95 3.711-1.338 1.204-2.64 2.471-4.021 3.61-2.742 2.314-5.473 4.656-8.322 6.794-5.622 4.417-11.5 8.37-17.46 12.116-2.766 1.648-5.771 2.33-8.39 1.904-2.621-.413-4.802-1.783-5.991-3.966-1.19-2.182-1.187-4.75-.283-7.108a12.398 12.398 0 015.193-6.137c5.445-3.427 10.81-7.027 15.913-11.044 2.595-1.94 5.064-4.067 7.552-6.163 1.258-1.03 2.426-2.179 3.64-3.267 1.19-1.118 2.43-2.174 3.57-3.354 2.32-2.308 4.65-4.604 6.829-7.066 2.255-2.383 4.333-4.938 6.437-7.467 4.095-5.152 7.994-10.494 11.417-16.15.79-1.295 1.784-2.38 2.835-3.297a11.832 11.832 0 013.389-2.139c2.4-.982 5.01-1.066 7.213.084" fill="#8C6345" blush:skin="600"/>
        <path d="M1452.437 365.807c2.294.956 3.903 2.919 4.608 5.397.754 2.495.393 5.412-.95 8.178-5.333 10.7-11.989 20.729-19.583 29.869-.98 1.174-2.102 2.134-3.299 2.836-1.227.674-2.514 1.106-3.778 1.283-2.531.355-4.964-.323-6.764-2.037-1.8-1.713-2.654-4.112-2.636-6.545.01-1.218.24-2.447.696-3.621a10.983 10.983 0 011.925-3.404c6.754-8.13 12.647-17.004 17.365-26.48 1.182-2.446 3.224-4.196 5.386-5.23 2.205-1.006 4.736-1.202 7.03-.246" fill="#8C6345" blush:skin="600"/>
        <path d="M1438.497 357.722c2.31.92 3.98 2.733 4.777 5.004.8 2.262.768 5-.492 7.462-4.69 9.649-10.429 18.808-17.168 27.147-1.78 2.108-4.104 3.424-6.527 3.64-2.417.23-4.79-.51-6.615-2.194-1.826-1.688-2.784-3.976-2.912-6.246-.11-2.27.46-4.64 2.026-6.477 5.91-7.31 10.9-15.297 14.996-23.715 1.102-2.14 2.834-3.738 4.975-4.586 2.133-.843 4.631-.954 6.94-.035M1400.672 374.018c1.969 1.505 3.249 3.583 3.614 5.752.322 2.128-.205 4.397-1.71 6.126-5.912 6.666-12.57 12.754-19.81 18.212-.902.733-2.33.983-3.837 1.042-1.53.033-3.15-.135-4.702-.488-3.088-.678-5.59-1.727-5.59-1.727 2.224-1.473 1.76-3.8 1.618-6.455-.073-1.33-.053-2.728.442-4.112.244-.698.627-1.371 1.14-2.07.506-.705 1.175-1.404 2.064-2.09 5.57-4.35 10.654-9.102 15.17-14.212 1.28-1.474 3.143-2.196 5.274-2.173 2.075-.006 4.347.68 6.327 2.195" fill="#8C6345" blush:skin="600"/>
        <path d="M1420.685 358.472c2.246 1.062 3.866 2.867 4.633 5.01.81 2.158.598 4.564-.583 6.71-8.052 14.303-18.988 26.958-31.855 37.432-1.92 1.568-4.353 2.11-6.575 1.793-2.252-.343-4.373-1.64-5.815-3.65a9.746 9.746 0 01-1.8-6.55c.168-2.213 1.14-4.174 2.817-5.544 11.286-9.196 20.66-20.094 27.553-32.33 1.004-1.833 2.842-2.993 4.874-3.555 2.07-.533 4.504-.378 6.75.684" fill="#8C6345" blush:skin="600"/>
        <path d="M1160.623 504.556H936.142V397.494c0-8.8 2.675-16.976 7.257-23.758C951.035 362.432 963.968 355 978.636 355h129.493c23.469 0 42.494 19.026 42.494 42.494l10 107.062z" fill="#0A1B45"/>
        <path stroke="#FFF" stroke-width="3" stroke-linecap="round" d="M1138.142 368.556h-189.5M1149.142 398.556h-211.5M1152.5 428.5l-214.858.056M1155.5 458.5l-217.858.056M1158.5 488.5l-220.858.056"/>
        <path d="M849.617 699.564c12.05 9.857 22.79 8.24 29.326 5.639 3.276-1.313 4.58-4.585 4.142-7.663-.439-3.084-2.613-6.008-6.405-6.732-3.777-.734-8.37-.231-13.559-1.308-5.196-1.074-11.097-3.692-17.308-10.825-3.125-3.553-5.138-4.728-6.322-4.245-1.164.472-1.488 2.602-.988 5.49.947 5.796 5.116 14.705 11.114 19.644" fill="#8C6345" blush:skin="600"/>
        <path d="M815.254 667.954c-7.956-3.463-14.887-10.322-18.34-19.707-1.08-2.799-2.076-5.657-3.074-8.514l-1.714-4.906-1.66-5.119-1.644-5.125-1.534-5.204-1.516-5.214-1.394-5.299c-3.68-14.145-6.598-28.818-8.18-44.215-1.557-15.38-1.803-31.547.508-48.382.202-2.075.657-4.219 1.04-6.338l1.222-6.364c.179-1.053.503-2.132.774-3.2l.855-3.208c.582-2.136 1.155-4.269 1.779-6.399a147.762 147.762 0 0110.387-24.618 157.887 157.887 0 0114.04-21.827c5.163-6.742 10.714-12.958 16.499-18.698 11.58-11.497 24.07-21.019 36.83-29.305 12.78-8.276 25.887-15.23 39.136-21.34 13.26-6.082 26.67-11.297 40.25-15.809 11.266-3.753 30.608-6.775 39.51-2.852 8.926 3.912 15.36 11.069 17.179 20 .827 4.665.581 9.302-.55 13.723-1.045 4.08-2.844 7.976-5.25 11.537-5.034 7.424-20.598 17.068-30.074 20.223-22.891 7.628-45.01 17.453-64.346 29.93-19.277 12.44-35.673 27.815-44.958 45.42a81.728 81.728 0 00-5.73 13.531l-.955 3.582c-.3 1.207-.71 2.357-.942 3.604l-.698 3.75c-.227 1.253-.536 2.472-.633 3.792-1.412 10.268-1.366 21.3-.212 32.56 1.153 11.268 3.392 22.77 6.386 34.257l1.127 4.31 1.258 4.308 1.265 4.308 1.385 4.3 1.388 4.3 1.46 4.17c.85 2.43 1.692 4.858 2.629 7.274 2.94 8.018 2.569 16.57-.658 24.264-3.17 7.65-9.16 14.43-17.457 18.215-8.283 3.778-17.36 3.733-25.388.285z" fill="#B18058" blush:skin="500"/>
        <path d="M857.76 622.55c-1.697-4.81-14.117-1.357-27.62 4.52-6.747 2.947-13.75 6.535-19.812 10.001-6.064 3.463-11.19 6.807-14.182 9.129l2.416 6.417c3.687 9.496 7.63 17.813 11.764 25.006 4.089 7.227 8.317 13.374 12.462 18.657 8.334 10.545 16.428 17.571 23.535 22.336 7.116 4.763 13.254 7.263 17.944 8.674 4.682 1.41 7.919 1.733 9.31 2.071 1.4.34 2.82.125 4.098-.461 1.273-.593 2.392-1.567 3.23-2.692 1.67-2.257 2.198-5.174.229-7.439-1.852-2.104-12.628-9.889-21.128-19.99-8.537-10.026-14.706-22.233-8.166-30.738 3.929-5.126 8.127-6.13 12.083-5.344 3.939.804 7.739 3.384 10.887 5.685 3.79 2.743 8.396 1.613 11.414-.913 3.015-2.533 4.49-6.432 2.064-9.467-2.086-2.55-4.711-5.3-7.675-8.159-2.881-2.88-6.122-5.871-9.122-8.955-6.124-6.131-11.587-12.609-13.73-18.338M1092.142 355c0 16.556-8 37.556-34.5 37.556-31.5 0-44.5-17.919-44.5-37.556h79z" fill="#B18058" blush:skin="500"/>
      </g>
      <g blush:width="127" blush:height="211" blush:component="Head">
        <path d="M1016.763 357H992v-14.404c0-8.614 6.982-15.596 15.596-15.596h17.386a4.018 4.018 0 014.018 4.018v13.746c0 6.757-5.479 12.236-12.237 12.236M996.916 383c9.435 0 17.084-7.648 17.084-17.083V357h-29.32a4.68 4.68 0 00-4.68 4.68v4.403c0 9.343 7.573 16.917 16.916 16.917" fill="#000"/>
        <path d="M1025 337c-15.464 0-28-12.536-28-28v-24h28v52z" fill="#000"/>
        <path d="M1047.8 342h14.2V237h-14.2c-28.055 0-50.8 22.744-50.8 50.8v3.399c0 28.057 22.745 50.8 50.8 50.8" fill="#000"/>
        <path d="M1063.2 330h-9.2v-93h9.2c28.055 0 50.8 15.803 50.8 50.593v16.614C1114 330 1091.255 330 1063.2 330" fill="#000"/>
        <path d="M1029 310h45v51.633c0 13.905-10.073 25.177-22.5 25.177s-22.5-11.272-22.5-25.177V310z" fill="#B18058" blush:skin="500"/>
        <path d="M1076.053 342h-4.988c-23.232 0-42.065-18.833-42.065-42.065v-19.732c0-17.785 14.417-32.203 32.203-32.203h5.593c17.786 0 32.204 14.418 32.204 32.203v38.849c0 12.674-10.274 22.948-22.948 22.948" fill="#B18058" blush:skin="500"/>
        <path d="M1050.75 344.332c-9.294-3.288-13.931-11.593-15.768-22.764 7.271 12.102 20.459 20.245 35.562 20.429l.521.003H1074c-7.937 4.23-15.687 5.007-23.25 2.332z" fill="#000" opacity=".12"/>
        <path d="M1041 306.5c0 6.903-5.596 12.5-12.5 12.5s-12.5-5.597-12.5-12.5 5.596-12.5 12.5-12.5 12.5 5.597 12.5 12.5" fill="#B18058" blush:skin="500"/>
        <path d="M1026.067 301.168c.905 0 2.157.21 3.442.852 2.146 1.073 3.504 3.035 3.595 5.882l.005.308h-3c0-1.835-.701-2.887-1.942-3.507-.46-.23-.97-.383-1.48-.468a4.887 4.887 0 00-.562-.065l-.058-.002v-3z" fill="#000" fill-rule="nonzero"/>
        <path d="M1028 294h-1.536c-5.854-5.692-8.103-17.292-8.781-28.551-.929-15.43 25.859-28.45 41.316-28.45a36.251 36.251 0 0129.798 15.606L1096 263h-41.303c0 17-14.697 31-26.697 31" fill="#000"/>
      </g>
      <g transform="translate(1041 271)" fill="#000" blush:width="61" blush:height="61" blush:component="Expression">
        <defs>
          <filter id="a">
            <feColorMatrix in="SourceGraphic" values="0 0 0 0 0.000000 0 0 0 0 0.000000 0 0 0 0 0.000000 0 0 0 1.000000 0"/>
          </filter>
        </defs>
        <g fill="none">
          <g filter="url(#a)">
            <g fill="#000">
              <path d="M46.686 22.063a3 3 0 10-6 0 3 3 0 006 0"/>
              <path d="M22.047 41.649c0 3.674 3.742 7.072 7.76 7.204l.241.004v3c-5.597 0-10.826-4.566-10.996-9.939l-.005-.27h3zM11.576 12.211c3.686-1.143 7.778-1.395 11.992-.211l.469.137-.877 2.869c-3.745-1.145-7.407-.95-10.695.07-.589.183-1.11.378-1.56.57l-.227.1-.27.13L9 13.227c.506-.269 1.383-.646 2.576-1.016zM36.433 4.61c4.296-1.07 8.418-.683 12.112.61 1.118.392 1.984.789 2.56 1.104l.286.163-1.545 2.572-.163-.091c-.098-.053-.23-.12-.395-.2-.499-.243-1.08-.487-1.734-.716-3.047-1.067-6.427-1.417-9.937-.638l-.459.108-.725-2.911zM11.293 24.506c2.49-6.225 13.284-6.3 14.812.025l.052.238-2.942.588c-.675-3.376-7.414-3.435-9.053.072l-.083.19-2.786-1.113z" fill-rule="nonzero"/>
            </g>
          </g>
          <path fill="#000" fill-rule="nonzero" d="M33.198 19.397l2.95-.547L40.435 42h-9.874v-3l6.267-.001z"/>
        </g>
      </g>
      <g fill="none" blush:width="76" blush:height="48" blush:component="Accessories">
        <path d="M1083.198 293.767c6.67 0 10.395 6.152 13.121 8.91.218.192.431.39.64.593.116.098.23.187.344.266l-.011.061c3.92 3.946 6.325 9.28 6.325 15.153 0 12.15-10.298 22-23 22-12.703 0-23-9.85-23-22 0-8.117 4.595-15.207 11.433-19.02l-.006-.038c5.44-2.546 6.647-5.925 14.154-5.925z" fill="#D8D8D8"/>
        <path d="M1060.617 313.733c0 12.15 10.297 22 23 22 7.457 0 14.086-3.395 18.288-8.657-3.436 8.013-11.673 13.657-21.288 13.657-12.703 0-23-9.85-23-22 0-5.016 1.755-9.64 4.71-13.342a21.113 21.113 0 00-1.71 8.342z" fill="#000" opacity=".12"/>
        <path stroke="#22252B" stroke-width="2" d="M1028 293l34.913 14.229M1061.673 321.173H1028"/>
      </g>
    </g>
    <g blush:has-customizable-skin="true" blush:width="755" blush:height="859" blush:component="Master/Character/Standing">
      <g blush:width="693" blush:height="596" blush:component="Legs">
        <path d="M575.378 765.442l.685-66.484c.053-3.579 3.036-6.445 6.586-6.405 21.224.25 42.174.28 63.15-.023 20.948-.303 41.819-.924 62.477-2.004 18.115-.953 36.085-2.258 53.606-4.129 17.473-1.866 34.679-4.328 49.988-7.766l.319-.062.238-.039c.078-.009.157-.01.238-.002.162.016.33.063.508.143.352.156.737.437 1.157.822.673.765 1.462 1.903 2.426 3.322 1.886 2.834 4.47 6.74 6.61 11.266l18.808 40.265c2.118 4.477 2.058 9.167-.335 13.231-1.195 1.988-2.96 3.822-5.147 5.345a20.645 20.645 0 01-3.474 1.928 21.903 21.903 0 01-2.952 1.047c-.356.1-.567.15-.863.217-20.102 4.488-39.63 7.172-59.063 9.272-19.42 2.072-38.69 3.458-57.904 4.472-43.766 2.268-87.34 2.639-130.671 2.131a6.45 6.45 0 01-6.387-6.547" fill="#964C1C" blush:skin="600"/>
        <path d="M755.178 551.213a849.752 849.752 0 0121.619 37.651c6.876 12.725 13.365 25.523 19.188 38.162 5.792 12.6 10.965 25.165 14.715 36.64l.615 1.917c-.024.025-.026.042-.008.056.04.026.017.067.028.098l.008.2a1.335 1.335 0 01-.045.364c-.038.252-.355.338-.565.36l-.164.011-.078.001h-.038l-.122.003a1.772 1.772 0 00-.598.143l-2.153.465-2.28.49-2.353.461c-1.553.316-3.157.611-4.777.898a209.25 209.25 0 01-4.894.85c-13.215 2.19-27.33 3.862-41.71 5.178-14.403 1.304-29.1 2.282-43.939 3.004-26.189 1.293-52.784 1.84-79.484 1.93l.646 107.271c28.024-.258 56.121-.989 84.43-2.548 16.045-.892 32.163-2.068 48.423-3.653 16.27-1.608 32.67-3.625 49.48-6.529 2.099-.36 4.205-.732 6.33-1.143 2.115-.393 4.238-.8 6.385-1.25 2.133-.426 4.28-.879 6.45-1.373l3.324-.743 4.49-1.082c1.515-.384 2.932-.722 4.52-1.175l4.683-1.3 2.341-.652 2.308-.728 4.608-1.473c1.551-.463 3.025-1.07 4.541-1.599 1.5-.557 3.023-1.077 4.504-1.663l4.39-1.847 2.19-.928 2.122-1.02c11.411-5.34 21.681-12.134 29.883-20.933 4.097-4.389 7.701-9.365 10.37-14.846 2.656-5.478 4.29-11.213 5.352-17.154 2.013-11.895 1.653-24.422-.278-36.992a179.55 179.55 0 00-3.91-18.826c-.38-1.566-.819-3.12-1.266-4.676-.446-1.553-.864-3.113-1.337-4.66l-1.44-4.635-1.107-3.355c-5.723-17.013-12.395-32.612-19.467-47.768-7.096-15.119-14.637-29.704-22.497-44.018C860.731 524.471 854 512 845 500c0 0-91.45 48.57-89.822 51.213z" fill="#3E36B9"/>
        <path d="M606.577 772.177l.14-43.73c-.24.018-.476.047-.72.046-6.318-.022-11.383-7.227-11.308-16.063.076-8.837 5.195-15.958 11.42-15.937.24.001.474.033.71.054l.012-3.81-17.506-.115-18.325-.177v115.3l10.798.108c9.339.093 12.002-31.349 24.779-35.676M628.703 787.467l-.643-107.509a2011.63 2011.63 0 0032.943-.462l2.411 107.485c-11.59.26-23.158.416-34.71.486" fill="#D7DBE2"/>
        <path d="M694.618 1062.492l-51.678-45.082c-2.779-2.426-3.411-6.427-1.373-9.07 6.145-7.973 12.249-16.373 18.14-24.882a672.326 672.326 0 0017.118-25.994c10.989-17.587 21.162-35.614 30.093-53.913a461.104 461.104 0 0012.377-27.451 371.842 371.842 0 0010.18-27.617c2.989-9.198 5.533-18.376 7.518-27.442 2.005-9.066 3.505-18.03 4.327-26.745.09-.96.307-1.885.636-2.77.318-.882.71-1.715 1.227-2.511 1.021-1.592 2.458-3.016 4.11-4.2 3.352-2.372 7.937-3.92 12.89-3.81l44.305 1.032c4.996.11 9.418 2.379 12.535 6.178 1.58 1.9 2.743 4.152 3.488 6.643.368 1.246.65 2.557.775 3.897a22.6 22.6 0 01-.02 4.11c-1.212 12.667-3.307 25.049-5.98 37.155-2.66 12.115-5.953 23.934-9.704 35.483a457.95 457.95 0 01-12.488 33.907 546.947 546.947 0 01-14.644 32.494c-10.426 21.351-22.012 41.845-34.411 61.691-12.447 19.85-25.612 38.979-39.964 57.638-2.405 3.119-6.68 3.69-9.457 1.259" fill="#AE5D29" blush:skin="500"/>
        <path d="M636.389 500v6.343c0 2.115-.077 4.357.076 6.074.959 15.927 4.16 30.641 8.131 43.53 3.994 12.934 8.714 24.212 13.437 34.444 4.741 10.228 9.526 19.445 14.135 28.133l13.3 24.69c8.406 15.659 15.927 30.314 22.187 44.772 6.33 14.448 11.391 28.696 15.358 43.108.903 3.617 1.934 7.208 2.69 10.848.398 1.815.848 3.621 1.218 5.444l1.055 5.475.268 1.367.136.684c.048.239.089.454.108.613l.324 2.119c.257 1.393.402 2.85.579 4.3.35 2.896.563 5.889.7 8.943.534 12.218-.597 25.633-3.28 39.628-2.665 13.996-6.81 28.53-12.081 43.146-5.273 14.624-11.662 29.342-18.87 43.93-11.222 22.71-24.414 45.141-38.857 66.758L746.175 1029c16.773-25.435 32.213-51.938 45.869-79.955 8.758-18.005 16.763-36.641 23.646-56.09 6.87-19.448 12.635-39.722 16.557-60.989 3.91-21.24 5.943-43.563 4.81-66.571-.29-5.747-.754-11.527-1.48-17.324-.363-2.9-.72-5.797-1.23-8.702l-.721-4.352c-.248-1.402-.513-2.626-.77-3.948l-1.561-7.79c-.546-2.59-1.179-5.156-1.769-7.736-1.14-5.172-2.577-10.247-3.917-15.353-5.694-20.297-12.923-40-21.216-58.628-8.238-18.682-17.482-36.284-26.54-52.93-9.024-16.575-17.919-32.26-24.669-46.6-3.365-7.152-6.144-13.933-8.076-20.092-1.944-6.175-108.72-21.94-108.72-21.94z" fill="#694FD9"/>
        <path d="M719.62 1039.88c-4.455-3.445-20.513-15.872-35.486-27.459-.124.212-.24.429-.384.63-3.756 5.27-12.603 4.83-19.648-.88-7.053-5.718-9.834-14.278-6.296-19.242.136-.192.294-.361.445-.537L655.16 990a597.9 597.9 0 01-10.051 13.707 507.366 507.366 0 01-5.08 6.615l-2.509 3.172-2.15 2.654L723.161 1096l2.635-3.217 2.207-2.757 4.2-5.358c3.287-4.257-.965-12.04-5.481-20.44-4.514-8.411-9.295-17.409-7.104-24.348M746.153 1029l-89.784-64.83c5.951-8.93 11.7-17.998 17.168-27.17l92.832 60.005c-6.485 10.874-13.236 21.521-20.216 31.995" fill="#D7DBE2"/>
        <path d="M736 598.72c-48.899 0-89.518-35.453-97.556-82.056-.95-5.506-1.444-10.887-1.444-16.664l208-.28c0 54.675-44.324 99-99 99h-10z" fill="#694FD9"/>
      </g>
      <g blush:width="863" blush:height="528" blush:component="Body">
        <path d="M825.721 374.52l.5-.052c13.177-1.255 26.458 4.798 32.903 16.685 33.996 62.411 68.98 92.93 120.485 87.093l2.126-.26c18.506-2.435 39.135-9.488 62.588-21.363 3.993-2.609 8.16-4.788 12.381-6.404l.059-.022c21.937-12.153 48.205-25.03 71.072-28.084 17.908-1.647 31.721-1.776 34.326 5.771.914 2.672.397 5.715-2.308 7.274-1.788 1.046-8.632 3.146-16.673 6.1l.256.087c7.918 2.75 13.11 8.154 9.596 14.84-1.703 2.36-3.62 3.43-5.757 3.703l-.323.035c-6.912.625-16.095-6.659-27.801-5.729l-.551.05-.554.062c-.299.037-.6.079-.901.127v.001l-.205.174c-4.492 3.861-7.304 8.44-6.867 14.018.516 6.467 3.452 9.609 7.382 10.959 7.27 2.825 19.932-3.718 22.849 6.45 3.422 10.026-8.622 11.581-16.197 13.697-12.057 3.114-29.625 5.296-39.232 10.321l-.035.005-.207.128c-12.27 7.53-27.556 12.992-39.128 17.999-19.57 7.615-40.397 13.593-61.541 15.964l-1.154.125c-16.925 1.792-34.04 1.252-50.868-2.626-27.959-6.38-53.524-22.333-73.957-41.79-23.561-22.327-42.226-49.775-57.135-77.715-9.101-16.912-2.55-37.768 15.017-45.096a35.852 35.852 0 019.854-2.527z" fill="#AE5D29" blush:skin="500"/>
        <path d="M825.721 374.52l.5-.052c13.177-1.255 26.458 4.798 32.903 16.685 33.996 62.411 68.98 92.93 120.485 87.093l2.126-.26c18.506-2.435 39.135-9.488 62.588-21.363 3.993-2.609 8.16-4.788 12.381-6.404l.059-.022c21.937-12.153 48.205-25.03 71.072-28.084 17.908-1.647 31.721-1.776 34.326 5.771.914 2.672.397 5.715-2.308 7.274-1.788 1.046-8.632 3.146-16.673 6.1l.256.087c7.918 2.75 13.11 8.154 9.596 14.84-1.703 2.36-3.62 3.43-5.757 3.703l-.323.035c-6.912.625-16.095-6.659-27.801-5.729l-.551.05-.554.062c-.299.037-.6.079-.901.127v.001l-.205.174c-4.492 3.861-7.304 8.44-6.867 14.018.516 6.467 3.452 9.609 7.382 10.959 7.27 2.825 19.932-3.718 22.849 6.45 3.422 10.026-8.622 11.581-16.197 13.697-12.057 3.114-29.625 5.296-39.232 10.321l-.035.005-.207.128c-12.27 7.53-27.556 12.992-39.128 17.999-19.57 7.615-40.397 13.593-61.541 15.964l-1.154.125c-16.925 1.792-34.04 1.252-50.868-2.626-27.959-6.38-53.524-22.333-73.957-41.79-23.561-22.327-42.226-49.775-57.135-77.715-9.101-16.912-2.55-37.768 15.017-45.096a35.852 35.852 0 019.854-2.527z" fill="#964C1C" blush:skin="600"/>
        <path d="M893.813 426.593s-15.954-28.6-28.697-45.592c-10.337-13.784-32.006-28.097-57.465-25.422 0 0-21.258 3.468-28.572 26.337-11.633 32.86 27.727 72.358 45.757 99.326l68.977-54.649z" fill="#051026"/>
        <path fill="#AE5D29" blush:skin="500" d="M652 456h180v48H652z"/>
        <path d="M674 355h136c22.091 0 40 17.909 40 40v77H634v-77c0-22.091 17.909-40 40-40z" fill="#0A1B45"/>
        <path d="M696 355c0 18.225 20.595 33 46 33s46-14.775 46-33" fill="#AE5D29" blush:skin="500"/>
        <g>
          <path d="M466.08 657.31c.418 10.758 7.231 21.232 16.444 24.833 6.824 2.953 12.758-5.977 8.721-11.634-7.04-7.635-15.194-18.387-12.982-30.449.822-21.413-14.905 7.91-12.183 17.25" fill="#AE5D29" blush:skin="500"/>
          <path d="M466.08 657.31c.418 10.758 7.231 21.232 16.444 24.833 6.824 2.953 12.758-5.977 8.721-11.634-7.04-7.635-15.194-18.387-12.982-30.449.822-21.413-14.905 7.91-12.183 17.25" fill="#964C1C" blush:skin="600"/>
          <path d="M482.46 628.718c-17.55-6.208-25.172-27.696-17.457-44.21 25.095-55.793 57.988-107.973 96.316-154.98 9.363-11.517 19.506-23.292 29.418-34.297 5.901-5.771 15.27-18.466 23.421-21.043 12.154-5.418 26.77-2.818 36.07 6.847 9.158 9.264 12.068 23.533 7.5 35.58-2.202 7.496-13.028 17.127-18.115 22.969-9.104 10.137-18.458 20.94-27.06 31.552-35.029 42.967-64.67 90.06-87.295 140.305-6.797 15.993-26.735 23.555-42.799 17.277" fill="#AE5D29" blush:skin="500"/>
          <path d="M560.379 422.813s15.085-20.62 22.378-28.932C613.88 351.605 661.768 355 673.524 355c11.755 0 5.164 45.635-3.214 58.657-8.594 10.896-19.251 20.232-28.331 30.74-6.698 7.497-16.63 18.925-22.88 26.665l-58.72-48.25z" fill="#0A1B45"/>
          <path d="M465.9 582.584c-12.322 26.74-20.855 56.566-15.823 85.56 3.418 16.789 9.905 24.352 11.303 26.805 2.814 4.857 12.344 4.129 12.938-1.803-.083-6.766-1.695-20.684-.426-28.984 1.047-10.466 3.985-25.458 16.188-27.225 11.86-1.587 14.738 7.838 15.813 16.58.75 8.289 15.28 10.746 16.886 2.354 1.674-14.969-1.988-32.616 3.693-47.02.763-13.136-51.466-24.953-60.571-26.267z" fill="#AE5D29" blush:skin="500"/>
        </g>
      </g>
      <g blush:width="127" blush:height="211" blush:component="Head">
        <path d="M668.5 410h8c22.92 0 41.5-18.58 41.5-41.5V319h-50.226C645.255 319 627 337.255 627 359.774v8.726c0 22.92 18.58 41.5 41.5 41.5" fill="#000"/>
        <path d="M734 308.5c0-23.472-19.028-42.5-42.5-42.5S649 285.028 649 308.5s19.028 42.5 42.5 42.5 42.5-19.028 42.5-42.5" fill="#000"/>
        <path d="M810 277.5c0-23.472-19.028-42.5-42.5-42.5S725 254.028 725 277.5s19.028 42.5 42.5 42.5 42.5-19.028 42.5-42.5" fill="#000"/>
        <path d="M805 331c0-16.568-13.431-30-30-30-16.569 0-30 13.432-30 30 0 16.568 13.431 30 30 30 16.569 0 30-13.432 30-30" fill="#000"/>
        <path d="M735.801 347H755V235h-19.199C707.744 235 685 257.744 685 285.801v10.398C685 324.256 707.744 347 735.801 347" fill="#000"/>
        <g fill="#AE5D29" blush:skin="500">
          <path d="M718 310h45v51.633c0 13.905-10.074 25.177-22.5 25.177S718 375.538 718 361.633V310z"/>
          <path d="M765.053 342h-4.987C736.834 342 718 323.167 718 299.935v-19.732C718 262.418 732.418 248 750.204 248h5.593C773.582 248 788 262.418 788 280.203v38.849C788 331.726 777.726 342 765.053 342"/>
          <path d="M730 306.5c0 6.903-5.596 12.5-12.5 12.5s-12.5-5.597-12.5-12.5 5.596-12.5 12.5-12.5 12.5 5.597 12.5 12.5"/>
        </g>
        <path d="M715.067 301.168c.905 0 2.157.21 3.442.852 2.146 1.073 3.504 3.035 3.595 5.882l.005.309h-3c0-1.836-.701-2.888-1.942-3.508-.46-.23-.97-.383-1.48-.468a4.887 4.887 0 00-.562-.065l-.058-.001v-3z" fill="#000"/>
        <path d="M739.75 344.332c-9.294-3.288-13.931-11.593-15.768-22.764 7.271 12.102 20.459 20.245 35.562 20.429l.522.003H763c-7.937 4.23-15.687 5.007-23.25 2.332z" fill="#000" opacity=".12"/>
        <path d="M717.34 294c-9 0-14.639-21.382-15.316-32.048-.93-14.618 25.857-26.952 41.313-26.952h25.989L785 266.263h-41.97C736.257 283.39 726.339 294 717.34 294" fill="#000"/>
      </g>
      <g fill="none" blush:width="61" blush:height="61" blush:component="Expression">
        <path fill="#000" fill-rule="nonzero" d="M763.198 290.397l2.95-.547 4.287 23.15h-9.874v-3l6.267-.001z"/>
        <path d="M772.074 319.5h-14.052a8.948 8.948 0 00-8.948 8.948v1.052h23v-10z" fill="#FFF"/>
        <path d="M772.074 319.5h-14.052a8.948 8.948 0 00-8.948 8.948v1.052h23v-10zM764.686 290.123l3.958 21.376h-8.07M741.074 282.117c3.819-1.58 11.513 1.856 13 5M781.074 282.117c-4.28-2.15-11.447 1.76-13 5M743.574 295c2-5 11-5 12 0M768.574 295c2-5 11-5 12 0" stroke="#000" stroke-width="3"/>
      </g>
      <g fill="none" blush:width="76" blush:height="48" blush:component="Accessories">
        <path d="M772.198 293.767c6.67 0 10.395 6.152 13.121 8.91.218.192.431.39.64.593.116.098.23.187.344.266l-.011.061c3.92 3.946 6.325 9.28 6.325 15.153 0 12.15-10.298 22-23 22-12.703 0-23-9.85-23-22 0-8.117 4.595-15.207 11.433-19.02l-.006-.038c5.44-2.546 6.647-5.925 14.154-5.925z" fill="#D8D8D8"/>
        <path d="M749.617 313.733c0 12.15 10.297 22 23 22 7.457 0 14.086-3.395 18.288-8.657-3.436 8.013-11.673 13.657-21.288 13.657-12.703 0-23-9.85-23-22 0-5.016 1.755-9.64 4.71-13.342a21.113 21.113 0 00-1.71 8.342z" fill="#000" opacity=".12"/>
        <path stroke="#22252B" stroke-width="2" d="M717 293l34.913 14.229M750.673 321.173H717"/>
      </g>
      <path d="M768 295c0 9.389-7.611 17-17 17-9.28 0-16.825-7.437-16.997-16.677L734 295h-25v-2h25.116c.99-8.446 8.172-15 16.884-15s15.894 6.554 16.884 15h2.232c.99-8.446 8.172-15 16.884-15 9.389 0 17 7.611 17 17s-7.611 17-17 17c-9.28 0-16.825-7.437-16.997-16.677L770 295h-2zm-17-15c-8.284 0-15 6.716-15 15 0 8.284 6.716 15 15 15 8.284 0 15-6.716 15-15 0-8.284-6.716-15-15-15zm36 0c-8.284 0-15 6.716-15 15 0 8.284 6.716 15 15 15 8.284 0 15-6.716 15-15 0-8.284-6.716-15-15-15z" fill="#000" blush:width="95" blush:height="32" blush:component="Glasses"/>
    </g>
  </g>
</svg>
