<svg viewBox="175.2 361.293 1861.5 777.328" xmlns="http://www.w3.org/2000/svg" xmlns:blush="http://design.blush" overflow="visible" width="1000" height="417.581">
  <g fill="none" fill-rule="evenodd">
    <g blush:width="464" blush:height="648" blush:component="Plants/Big Plant">
      <path d="M376.58 544.126s-16.82-56.33-79-59.086c-25.54-1.13-17.743 21.988-48.003 41.414-29.526 18.956-72.53 11.178-70.508 48.548 1.314 24.292 8.878 35.136 8.878 35.136 77.806-7.792 129.45 16.824 161.218 66.054-4.208-59.58 4.538-104.062 27.416-132.066" fill="#870CF7"/>
      <path d="M400.92 1130.626h-51.66c-9.757 0-17.903-7.444-18.783-17.162l-7.958-87.984h105.144l-7.958 87.984c-.88 9.718-9.026 17.162-18.784 17.162" fill="#000"/>
      <path d="M365.681 1025.655c-14.61-117.832-2.254-215.732 36.722-290.978 38.34-74.016 103.494-128.192 193.652-161.022l.978 2.692c-89.46 32.574-154.088 86.288-192.088 159.646-38.706 74.724-50.96 172.062-36.424 289.31l-2.84.352z" fill="#000"/>
      <path d="M382.14 1025.655l-2.84-.352c23.642-191.678 7.162-313.478-50.384-372.36-32.774-33.532-80.148-47.446-140.828-41.382l-.284-2.848c61.58-6.162 109.748 8.044 143.158 42.23 31.176 31.898 50.1 80.274 57.852 147.896 6.906 60.23 4.722 134.424-6.674 226.816M401.39 739.839c-11.055-51.278-5.323-101.362 33.993-149.06 0 0 13.946 5.7 42.392-9.664 21.72-11.734 44.512-26.964 80.184-22.17C590.903 563.373 596.545 575 596.545 575c-91.218 33.214-156.752 87.76-195.158 164.836" fill="#000"/>
      <path d="M187.487 611.78c77.808-7.79 129.624 19.166 161.676 67.006 0 0-8.196-64.144-36.474-76.25-16.274-6.966-45.33 3.236-84.536-.776C188.947 597.746 179.07 575 179.07 575c1.314 24.294 8.418 36.78 8.418 36.78" fill="#BE6FFB"/>
      <path d="M365.367 1023.03c-3.8-82.692 10.876-173.984 148.536-224.132l.98 2.686C378.965 851.1 364.475 941.246 368.227 1022.898l-2.86.132z" fill="#000"/>
      <path d="M514.392 803.645c-63.904 23.28-100.692 52.924-122.09 90.54l-1.208-2.376c-.032-46.72 7.368-91.34 30.592-135.824 0 0 55.932-33.008 115.072-14.214 0 0-8.748 8.208-10.142 16.57-1.394 8.36 3.144 32.3-12.224 45.304" fill="#BE6FFB"/>
      <path d="M382.45 1023.12l-2.846-.312c.19-1.738 18.478-174.094-31.076-198.65-23.044-11.422-42.016-9.728-62.102-7.922-23.842 2.134-50.872 4.556-89.422-14.716l1.28-2.558c37.824 18.908 63.274 16.628 87.886 14.422 20.498-1.838 39.862-3.57 63.63 8.206 21.67 10.74 33.736 48.006 35.862 110.764 1.572 46.426-3.164 90.328-3.212 90.766" fill="#000"/>
      <path d="M197.086 802.083c70.542 35.268 101.214-2.504 152.242 22.786 10.066 4.99 17.238 13.802 22.528 27.94l-.002.002c-9.144-65.978-28.702-128.212-84.53-177.412 0 0-62.784 2.608-81.878 46.914-19.092 44.306-8.36 79.77-8.36 79.77" fill="#BE6FFB"/>
    </g>
    <g blush:width="240" blush:height="342" blush:component="Plants/Small">
      <path d="M1914.04 883h-52.08c-9.838 0-18.05-4.531-18.937-10.446L1835 819h106l-8.023 53.554c-.887 5.915-9.1 10.446-18.937 10.446" fill="#000"/>
      <path d="M1885.28 841c.102-.59 10.563-59.011 46.974-61.643 19.135-1.423 24.413 28.675 24.465 28.98l2.281-.384c-.055-.326-1.399-8.115-5.305-15.852-5.294-10.485-12.765-15.678-21.61-15.05-15.876 1.148-29.408 12.553-39.133 32.98-7.273 15.276-9.928 30.426-9.952 30.578l2.28.391z" fill="#000"/>
      <path d="M2027.77 865s.568-11.963-6.385-19.281c-6.952-7.318-19.439-6.757-23.979-10.413-4.541-3.66-6.527-9.572-11.352-11.963-4.824-2.394-10.784 2.391-21-2.676s-12.061-39.546-14.33-44.191c-2.271-4.644-19.724-18.86-19.724-18.86s5.534 2.753 12.486 2.573c6.953-.18 22.987-11.86 27.244-11.159 4.257.706 16.464 10.415 18.59 13.653 2.126 3.238 3.972 11.962 13.478 20.548 9.506 8.585 15.04 13.511 17.028 18.718 1.984 5.208 6.384 11.12 5.959 15.2-.427 4.083-.604 17.789.209 20.664.81 2.876 5.063 19.868 1.777 27.187" fill="#BE6FFB"/>
      <path d="M1957 807s-.499-1.926-1.463-5.36c-2.4-8.559-8.524-23.857-23.155-22.819-15.698 1.113-26.269 10.5-33.738 22.739 0 0 5.09-10.013 4.275-15.405-.814-5.394-6.82-11.684-5.803-17.277 1.017-5.593 9.469-5.89 15.069-8.687 5.6-2.797 8.246-7.191 14.458-7.191 6.21 0 19.651 17.176 23.723 20.872C1954.438 777.566 1957 807 1957 807" fill="#870CF7"/>
      <path d="M1881.2 845c-.08-.46-8.34-46.103-37.084-48.158-15.108-1.112-19.274 22.402-19.315 22.64l-1.801-.3c.043-.255 1.104-6.34 4.188-12.384 4.18-8.192 10.078-12.25 17.06-11.758 12.534.897 23.217 9.807 30.895 25.766 5.742 11.934 7.838 23.77 7.857 23.889l-1.8.305z" fill="#000"/>
      <path d="M1767.978 865s-.451-9.488 5.083-15.292c5.533-5.804 15.472-5.359 19.085-8.258 3.615-2.903 5.195-7.592 9.035-9.489 3.84-1.898 8.584 1.897 16.715-2.121 8.13-4.02 9.6-31.365 11.406-35.05 1.807-3.682 15.698-14.957 15.698-14.957s-4.404 2.184-9.938 2.041c-5.534-.142-18.296-9.407-21.684-8.85-3.388.56-13.104 8.26-14.795 10.828-1.693 2.568-3.162 9.487-10.728 16.296-7.566 6.81-11.97 10.717-13.553 14.846-1.58 4.13-5.081 8.82-4.743 12.055.34 3.238.48 14.109-.166 16.389-.646 2.281-4.03 15.757-1.415 21.562" fill="#870CF7"/>
      <path d="M1825 819s.4-1.498 1.17-4.17c1.92-6.656 6.82-18.554 18.524-17.747 12.559.866 21.015 8.167 26.991 17.686 0 0-4.072-7.788-3.42-11.982.651-4.195 5.457-9.087 4.642-13.437-.814-4.35-7.575-4.582-12.055-6.757-4.48-2.175-6.597-5.593-11.566-5.593-4.97 0-15.721 13.36-18.979 16.234C1827.05 796.107 1825 819 1825 819" fill="#BE6FFB"/>
      <path d="M1872.152 727.001c15.697 36.657 17.995 76.297 16.433 114.223l-.076 1.776-2.785-.133c1.705-38.436-.46-78.738-16.724-115.867l3.152.001z" fill="#000"/>
      <path d="M1780.04 701.454c54.4 19.425 85.716 44.16 103.932 75.546l1.028-1.983c.027-38.982-6.272-76.213-26.042-113.33 0 0-47.614-27.541-97.958-11.86 0 0 7.447 6.85 8.634 13.826 1.186 6.976-2.677 26.951 10.406 37.801" fill="#BE6FFB"/>
    </g>
    <path fill="#EECFA2" d="M1777 883h230v40h-230z"/>
    <path fill="#DDBA86" d="M1960 923h31.113L2007 1131h-22.062zM1824 923h-31.113L1777 1131h22.062z"/>
    <g transform="translate(413 489)">
      <rect fill="#95E4D3" x="46" y="376.5" width="1272" height="265" rx="70"/>
      <path d="M169 332.5h1027v125c0 11.046-8.954 20-20 20H189c-11.046 0-20-8.954-20-20v-125z" fill="#53D7BC"/>
      <rect fill="#53D7BC" x="123" y=".5" width="1120" height="421" rx="70"/>
      <rect fill="#95E4D3" x="177" y="316.5" width="1010" height="153" rx="12"/>
      <rect fill="#95E4D3" y="220.5" width="168" height="421" rx="40"/>
      <rect fill="#95E4D3" x="1196" y="220.5" width="168" height="421" rx="40"/>
    </g>
    <g blush:width="755" blush:height="859" blush:component="Master/Character/Sitting">
      <g blush:has-customizable-skin="true">
        <g blush:width="525" blush:height="423" blush:component="Legs Sitting">
          <path d="M805.512 1005.679l-19.755-62.715c-1.066-3.401-2.022-6.111.778-7.104a369.486 369.486 0 0025.499-10.232c22.428-10.313 93.883-44.955 75.81-77.148-4.667-9.12-10.252-16.732-17.697-22.326-28.951-20.571-74.437-17.465-108.534-22.6l9.226-78.405c52.2 5.573 110.312 5.609 152.323 44.355 36.252 32.772 57.145 89.436 32.593 135.859-24.648 47.016-69.784 72.223-114.276 92.983a441.773 441.773 0 01-30.654 12.295c-3.467 1.23-4.247-1.568-5.313-4.962" fill="#964C1C" blush:skin="600"/>
          <path d="M745.225 707.242c.055 3.218-63.455 90.153-55.543 91.67 4.065 2.622 15.804.78 63.882 6.821 48.078 6.043 30.644 17.631 69.57 24.267l6.886-48.45c-3.173-4.23-6.58-8.349-10.072-12.49 4.26-2.89 8.611-5.783 13.057-8.511L840 711.326c-22.054-3.566-53.646-4.928-94.775-4.084z" fill="#CC2935"/>
          <path d="M832.768 1010.02c37.72-15.867 76.109-36.539 105.232-67.49L875.242 878c-26.8 26.892-63.185 42.615-98.242 54.868l8.242 29.985c1.552.004 4.341-.377 5.944-.525-.252 6.117-.648 12.264-1.04 18.362 5.136 18.685 15.6 56.762 20.7 75.31a349.308 349.308 0 0013.545-4.564c9.467-5.74 3-32.013 8.377-41.416" fill="#0A1B45"/>
          <path d="M694.76 806h-9.52c-52.047 0-94.24-44.324-94.24-99h198c0 54.676-42.193 99-94.24 99" fill="#FA3239"/>
          <path d="M726.258 1024.31l-13.113-64.652c-.705-3.507-1.376-6.31 1.534-6.984 26.11-6.205 52.734-14.998 76.713-27.176 18.667-10.389 41.714-22.637 47.28-43.756 1.366-12.848-6.338-27.134-13.789-37.13-30.409-34.22-77.783-33.064-119.883-44.544L721.817 723c48.402 10.866 103.374 17.181 143.234 52.48 66.944 62.204 66.986 151.757-10.799 203.301-28.324 19.55-59.535 32.398-91.628 42.475a465.026 465.026 0 01-31.617 8.602c-3.557.824-4.043-2.051-4.75-5.548" fill="#AE5D29" blush:skin="500"/>
          <path d="M689.832 707c-.332 3.365-57.764 99.001-30.483 99.14 27.282.137 61.044-.26 115.157 11.86l6.684-31.023c-3.088-4.682-6.393-9.33-9.847-13.941 4.976-2.287 10.017-4.484 15.174-6.549L799 718.462c-21.813-6.494-58.202-10.315-109.168-11.462z" fill="#FA3239"/>
          <path d="M752.665 1031.077c39.145-11.145 78.78-26.568 112.335-51.452L813.507 905C781.57 927.813 742.835 939.966 705 948.305l5.163 30.61c1.569.17 4.394.112 6.027.146-.894 6.027-1.93 12.068-2.957 18.063 3.218 19.073 9.772 57.943 12.966 76.876 1.852-.36 5.599-1.104 7.425-1.506 17.893.608 10.776-25.467 19.041-41.417" fill="#0A1B45"/>
          <path d="M647 806c-30.928 0-56-25.072-56-56v-43h199c0 54.676-42.406 99-94.716 99H647z" fill="#FA3239"/>
        </g>
        <g blush:width="863" blush:height="528" blush:component="Body">
          <g fill="#964C1C" blush:skin="600">
            <path d="M1065.378 622.641c14.315-4.128 23.925.563 29.347 5.153 2.71 2.28 2.804 5.865 1.207 8.752-1.594 2.88-4.877 5.03-8.774 4.384-3.907-.66-7.974-2.75-13.23-3.805-5.248-1.048-11.604-.987-20.169 2.439-4.27 1.73-6.591 1.692-7.393.726-.813-.987-.116-2.905 1.509-5.188 3.288-4.533 10.327-10.416 17.503-12.46M1023.124 633.16c-8.048-1.686-16.295-.438-23.28 3.914-2.096 1.362-4.218 2.632-6.337 3.907l-3.638 2.197-3.762 2.145-3.76 2.143-3.78 2.021-3.777 2.016-3.79 1.885c-10.095 5.015-20.249 9.273-30.183 12.43-9.923 3.162-19.625 5.192-28.524 5.809-1.146.164-2.196.1-3.28.129l-3.231.08c-.552.046-1.043-.037-1.559-.064l-1.533-.1-3.065-.154a67.429 67.429 0 01-11.841-2.34c-15.855-4.495-32.452-15.803-47.446-31.024-15.035-15.215-28.595-33.965-40.245-53.976-4.824-8.282-13.456-15.976-21.616-19.106-8.151-3.109-20.7-5.037-30.617-2.93-9.919 2.11-15.27 11.491-17.413 20.747-2.155 9.236 6.821 24.562 12.594 34.471 6.949 11.949 14.522 23.583 22.838 34.846 8.34 11.248 17.409 22.139 27.55 32.377 10.147 10.218 21.305 19.857 33.925 28.176 12.579 8.31 26.642 15.357 41.999 19.794A133.343 133.343 0 00893 737.185c1.998.155 3.993.262 5.991.384 1.99.088 4.009.28 5.977.262l5.897-.1c1.961-.054 3.949-.036 5.856-.253 15.51-1.08 30.196-4.355 44.073-8.755 13.886-4.422 27.005-9.992 39.562-16.222l4.703-2.347 4.611-2.457 4.602-2.467 4.516-2.566 4.509-2.577 4.305-2.594c2.508-1.51 5.018-3.02 7.46-4.601 8.218-5.131 13.316-13.182 14.934-21.577 1.593-8.463-.302-17.297-5.695-24.632-5.402-7.349-13.181-11.886-21.177-13.524z"/>
            <path d="M1032.378 694.596c-5.042 3.067-12.342-7.572-18.97-20.721-3.323-6.57-6.511-13.753-9.175-20.167-2.66-6.416-4.794-12.06-5.918-15.661l4.8-3.052c7.118-4.632 13.784-8.62 19.987-12.167 6.225-3.496 12.008-6.481 17.423-8.941 10.804-4.957 20.078-7.91 27.873-9.556 15.563-3.324 25.255-1.355 28.057-1.24 1.386.045 2.693.606 3.792 1.471a8.54 8.54 0 012.582 3.312c1.125 2.576.85 5.62-1.708 7.338-2.424 1.65-15.023 6.142-26.525 12.153-11.498 6.092-21.979 13.799-20.353 24.378.992 6.398 4.136 9.329 8.133 10.414 4.004 1.107 8.773.305 12.88-.544 4.881-1.034 8.679 1.802 10.26 5.45 1.586 3.647.897 8.11-3.144 10.088-3.369 1.69-7.514 3.162-11.905 4.607a401.33 401.33 0 01-13.84 4.032c-9.317 2.658-18.427 5.134-24.249 8.806"/>
          </g>
          <path d="M802.266 708.784h-224.48V601.72c0-8.8 2.674-16.976 7.256-23.757 7.636-11.304 20.57-18.737 35.237-18.737h129.493c23.47 0 42.494 19.027 42.494 42.495l10 107.062z" fill="#0A1B45"/>
          <path stroke="#FFF" stroke-width="3" stroke-linecap="round" d="M779.785 572.784h-189.5M790.785 602.784h-211.5M794.5 632.5l-215.215.284M797.5 662.5l-218.215.284M800.5 692.5l-221.215.284"/>
          <path d="M733.785 559.228c0 16.556-8 37.556-34.5 37.556-31.5 0-44.5-17.92-44.5-37.556h79zM326.656 408.755c-5.246 6.9-7.76 16.16-6.235 25.82 2.366 14.82 5.259 29.64 9.03 44.474 3.375 13.328 7.392 26.67 12.363 39.984 4.981 13.31 10.903 26.611 18.375 39.7 7.48 13.063 16.541 25.985 28.086 37.833 2.96 2.928 5.79 5.903 9.125 8.614l4.868 4.114c1.63 1.362 3.415 2.614 5.127 3.91 6.975 5.054 14.39 9.362 21.962 12.991 15.178 7.258 30.936 11.69 46.267 14.116 15.364 2.438 30.4 3.04 44.978 2.482 14.585-.574 48.333-4.505 83.198-14.19 34.866-9.684 36.034-31.914 34.226-45.704-1.808-13.79-12.124-23.672-19.89-23.672-36.223.002-68.245 18.578-100.04 17.613-31.796-.965-43.34-2.01-60.23-10.17-4.225-2.026-8.205-4.336-11.867-6.998-.89-.704-1.829-1.313-2.698-2.072l-2.626-2.252c-1.812-1.385-3.428-3.202-5.135-4.846-6.7-6.85-12.743-15.23-18.044-24.508-5.308-9.285-9.892-19.45-13.86-30.07-3.97-10.627-7.33-21.719-10.198-33.053-3.21-12.607-5.744-25.553-7.83-38.617-1.34-8.498-6.02-15.736-12.586-20.803-6.592-5.04-15.133-7.904-24.217-7.037-9.059.865-16.934 5.42-22.15 12.341z" fill="#AE5D29" blush:skin="500"/>
          <path d="M323.346 378.747c-4.965.284-8.734 4.87-8.313 10.192 1.824 23.108 4.92 45.967 9.586 68.926 1.113 5.281 5.988 8.664 10.827 7.554 4.85-1.11 7.875-6.103 6.809-11.157-4.5-22.129-7.512-44.342-9.277-66.725-.405-5.12-4.671-9.068-9.632-8.79M381.943 396.067c-4.945.49-8.575 4.77-8 9.547a518.012 518.012 0 004.038 27.639c.428 2.35 3.108 4.802 5.774 6.585 2.645 1.796 5.167 2.973 5.167 2.973-1.078-5.544 8.067-5.381 6.308-15.383a533.685 533.685 0 01-3.413-23.935c-.552-4.588-4.927-7.917-9.874-7.426" fill="#AE5D29" blush:skin="500"/>
          <path d="M370.998 371.103c-4.967.22-8.812 4.339-8.471 9.214 1.14 16.283 2.986 32.575 5.613 48.687.753 4.828 5.478 7.98 10.344 7.086 4.91-.905 8.143-5.34 7.423-9.968-2.534-15.534-4.323-31.335-5.422-47.032-.326-4.665-4.522-8.211-9.487-7.987M338.782 367.43c-4.968.129-8.868 4.602-8.574 9.81a553.096 553.096 0 002.542 30.077c.575 5.145 5.105 8.787 10.044 8.14 4.92-.642 8.4-5.175 7.845-10.132a534.124 534.124 0 01-2.459-29.086c-.28-4.975-4.427-8.925-9.398-8.808" fill="#AE5D29" blush:skin="500"/>
          <path d="M354.725 365.002c-4.977.022-8.912 4.285-8.647 9.324.505 9.778 1.314 19.504 2.352 29.212.56 5.003 5.034 8.548 9.98 7.92 4.917-.626 8.455-5.034 7.917-9.848-1.004-9.39-1.789-18.826-2.273-28.2-.253-4.806-4.364-8.508-9.329-8.408" fill="#AE5D29" blush:skin="500"/>
        </g>
        <g blush:width="127" blush:height="211" blush:component="Head">
          <path d="M766 505.5v-17.133c0-3.791-2.462-6.863-5.5-6.863s-5.5-3.073-5.5-6.863v-8.184c0-14.06-17.16-25.457-28.285-25.457H715v112h42.072c12.11 0 21.928-12.838 21.928-28.676V518.5c0-3.59-2.225-6.5-4.971-6.5h-3.058c-2.746 0-4.971-2.91-4.971-6.5M693.801 553H713V441h-19.199C665.744 441 643 463.744 643 491.801v10.398C643 530.256 665.744 553 693.801 553" fill="#000"/>
          <g fill="#AE5D29" blush:skin="500">
            <path d="M671 514h45v51.633c0 13.905-10.074 25.177-22.5 25.177S671 579.538 671 565.633V514z"/>
            <path d="M718.053 546h-4.987C689.834 546 671 527.167 671 503.935v-19.732C671 466.418 685.418 452 703.204 452h5.593C726.582 452 741 466.418 741 484.203v38.849C741 535.726 730.726 546 718.053 546"/>
            <path d="M683 510.5c0 6.903-5.596 12.5-12.5 12.5s-12.5-5.597-12.5-12.5 5.596-12.5 12.5-12.5 12.5 5.597 12.5 12.5"/>
          </g>
          <path d="M668.067 505.168c.905 0 2.157.21 3.442.852 2.146 1.073 3.504 3.035 3.595 5.882l.005.309h-3c0-1.836-.701-2.888-1.942-3.508-.46-.23-.97-.383-1.48-.468a4.887 4.887 0 00-.562-.065l-.058-.001v-3z" fill="#000"/>
          <path d="M692.75 548.332c-9.294-3.288-13.931-11.593-15.768-22.764 7.271 12.102 20.459 20.245 35.562 20.429l.522.003H716c-7.937 4.23-15.687 5.007-23.25 2.332z" fill="#000" opacity=".12"/>
          <path d="M670.339 498h-1.536c-5.853-5.692-8.102-17.292-8.78-28.551C659.096 454.02 685.88 441 701.334 441h17.983L740 467h-37.969c-6.775 18.085-19.694 31-31.692 31" fill="#000"/>
        </g>
        <g fill="#000" blush:width="61" blush:height="61" blush:component="Expression">
          <path d="M703.56 497a3 3 0 10-5.999 0 3 3 0 006 0M729.56 497a3 3 0 10-5.999 0 3 3 0 006 0M716.198 494.397l2.95-.547 4.287 23.15h-9.874v-3l6.267-.001zM704.922 516.586c0 3.674 3.742 7.072 7.76 7.204l.24.004v3c-5.597 0-10.826-4.566-10.996-9.939l-.004-.269h3zM706.06 484v3c-3.226 0-6.169.866-8.77 2.311-.782.434-1.481.893-2.094 1.354l-.3.231c-.347.275-.59.488-.724.616l-.05.049-2.122-2.122c.717-.717 2.012-1.739 3.832-2.75 2.892-1.607 6.157-2.6 9.738-2.683l.49-.006zM720.06 484c3.774 0 7.206 1.01 10.23 2.689 1.706.948 2.95 1.905 3.69 2.612l.141.138-2.121 2.122-.192-.179c-.111-.1-.259-.225-.44-.372l-.143-.114a17.903 17.903 0 00-2.393-1.585c-2.472-1.373-5.251-2.223-8.29-2.305l-.481-.006v-3z"/>
        </g>
      </g>
    </g>
    <g blush:width="755" blush:height="859" blush:component="Master/Character/Sitting">
      <g blush:has-customizable-skin="true">
        <g blush:width="525" blush:height="423" blush:component="Legs Sitting">
          <path d="M1383.488 1005.679l19.755-62.715c1.066-3.401 2.022-6.111-.778-7.104a369.486 369.486 0 01-25.499-10.232c-22.428-10.313-93.883-44.955-75.81-77.148 4.667-9.12 10.252-16.732 17.697-22.326 28.951-20.571 74.437-17.465 108.534-22.6l-9.226-78.405c-52.2 5.573-110.312 5.609-152.323 44.355-36.252 32.772-57.145 89.436-32.593 135.859 24.648 47.016 69.784 72.223 114.276 92.983a441.773 441.773 0 0030.654 12.295c3.467 1.23 4.247-1.568 5.313-4.962" fill="#D29863" blush:skin="600"/>
          <path d="M1443.775 707.242c-.055 3.218 63.455 90.153 55.543 91.67-4.065 2.622-15.804.78-63.882 6.821-48.078 6.043-30.644 17.631-69.57 24.267l-6.886-48.45c3.173-4.23 6.58-8.349 10.072-12.49-4.26-2.89-8.611-5.783-13.057-8.511L1349 711.326c22.054-3.566 53.646-4.928 94.775-4.084z" fill="#CC2935"/>
          <path d="M1356.232 1010.02c-37.72-15.867-76.109-36.539-105.232-67.49l62.758-64.53c26.8 26.892 63.185 42.615 98.242 54.868l-8.242 29.985c-1.552.004-4.341-.377-5.944-.525.252 6.117.648 12.264 1.04 18.362-5.136 18.685-15.6 56.762-20.7 75.31a349.308 349.308 0 01-13.545-4.564c-9.467-5.74-3-32.013-8.377-41.416" fill="#0A1B45"/>
          <path d="M1494.24 806h9.52c52.047 0 94.24-44.324 94.24-99h-198c0 54.676 42.193 99 94.24 99" fill="#FA3239"/>
          <path d="M1462.742 1024.31l13.113-64.652c.705-3.507 1.376-6.31-1.534-6.984-26.11-6.205-52.734-14.998-76.713-27.176-18.667-10.389-41.714-22.637-47.28-43.756-1.366-12.848 6.338-27.134 13.789-37.13 30.409-34.22 77.783-33.064 119.883-44.544L1467.183 723c-48.402 10.866-103.374 17.181-143.234 52.48-66.944 62.204-66.986 151.757 10.799 203.301 28.324 19.55 59.535 32.398 91.628 42.475a465.026 465.026 0 0031.617 8.602c3.557.824 4.043-2.051 4.75-5.548" fill="#EDB98A" blush:skin="500"/>
          <path d="M1499.168 707c.332 3.365 57.764 99.001 30.483 99.14-27.282.137-61.044-.26-115.157 11.86l-6.684-31.023c3.088-4.682 6.393-9.33 9.847-13.941-4.976-2.287-10.017-4.484-15.174-6.549L1390 718.462c21.813-6.494 58.202-10.315 109.168-11.462z" fill="#FA3239"/>
          <path d="M1436.335 1031.077c-39.145-11.145-78.78-26.568-112.335-51.452L1375.493 905c31.938 22.813 70.672 34.966 108.507 43.305l-5.163 30.61c-1.569.17-4.394.112-6.027.146.894 6.027 1.93 12.068 2.957 18.063-3.218 19.073-9.772 57.943-12.966 76.876-1.852-.36-5.599-1.104-7.425-1.506-17.893.608-10.776-25.467-19.041-41.417" fill="#0A1B45"/>
          <path d="M1542 806c30.928 0 56-25.072 56-56v-43h-199c0 54.676 42.406 99 94.716 99H1542z" fill="#FA3239"/>
        </g>
        <g blush:width="863" blush:height="528" blush:component="Body">
          <path d="M1251.791 472.814c-1.087 35.4 2.919 74.575 25.634 102.8 13.896 17.013 35.212 23.197 56.876 20.957 32.765.472 69.697-37.638 94.169.916 23.511 46.93-56.442 60.697-88.48 64.84-19.608 1.868-41.757-.243-60.883-7.369-36.313-12.778-63.836-44.608-77.44-79.547-7.996-19.9-12.661-41.679-14.724-62.766-3.56-37.27-.018-74.634 8.249-110.895 1.583-8.499 13.67-10.34 16.964-2.165.344-11.345 13.358-18.057 18.638-6.04 6.52-9.07 20.17-.315 15.559 9.542 6.041-4.71 16.333 1.686 14.217 9.024-1.25 5.14-2.505 10.781-3.489 15.996 14.193 3.662 3.507 22.057 4.545 32.103-.106 8.524-8.418 6.63-9.835 12.604" fill="#D29863" blush:skin="600"/>
          <path d="M1251.791 472.814c-1.087 35.4 2.919 74.575 25.634 102.8 13.896 17.013 35.212 23.197 56.876 20.957 32.765.472 69.697-37.638 94.169.916 23.511 46.93-56.442 60.697-88.48 64.84-19.608 1.868-41.757-.243-60.883-7.369-36.313-12.778-63.836-44.608-77.44-79.547-7.996-19.9-12.661-41.679-14.724-62.766-3.56-37.27-.018-74.634 8.249-110.895 1.583-8.499 13.67-10.34 16.964-2.165.344-11.345 13.358-18.057 18.638-6.04 6.52-9.07 20.17-.315 15.559 9.542 6.041-4.71 16.333 1.686 14.217 9.024-1.25 5.14-2.505 10.781-3.489 15.996 14.193 3.662 3.507 22.057 4.545 32.103-.106 8.524-8.418 6.63-9.835 12.604" fill="#D29863" blush:skin="600"/>
          <path d="M1179.599 478.927c-.153 11.458.24 23.047 1.415 34.709-4.988 15.24-2.736 28.274.538 46.933 9.476 50.625 50.488 101.838 103.506 113.729 35.045 8.95 70.993 3.911 103.904-8.954 34.948-13.985 100.038-19.6 99.285-62.395-5.27-43.95-57.197-55.883-115.143-31.696-19.83 5.65-36.894 11.101-57.37 7.862-34.421-3.27-48.385-49.72-60.088-72.899-.87-8.593-1.172-17.374-1.054-26.247l-74.993-1.043z" fill="#2DB386"/>
          <path d="M1182.465 513.084l74.643-7.31c-.83-8.426-1.133-17.066-1.014-25.784l-74.993-1.043c-.154 11.279.236 22.658 1.364 34.137" fill="#25996F"/>
          <g>
            <path d="M1357.893 751.299c72.568 5.08 276.666-18.16 274.356-31.094-4.582-25.653-12.513-65.739-23.795-120.257 0-22.615-20.158-40.949-45.023-40.949h-139.327c-24.865 0-45.021 18.334-45.021 40.949-9.954 52.287-17.186 91.06-21.697 116.317-1.61 9.018-1.441 20.696.507 35.034z" fill="#34D1A1"/>
            <path d="M1636 754.19c-100.65 35.654-209.777 1.927-284.463 0l4.79-38.889c73.162 2.617 177.854 34.562 275.998.816L1636 754.19z" fill="#2DB386"/>
          </g>
          <g>
            <path d="M1605.358 751.111c20.16-14.121 44.012-22.762 64.213-35.728 18.36-10.584 23.482-27.938 13.785-45.18-14.284-20.232-43.991-27.751-68.303-32.878-18.101-4.643-41.7-1.143-55.833-15.333-21.735-24.5-2.715-59.068 30.687-54.779 54.108 5.826 116.712 18.614 149.239 67.726 24.035 37.35 18.829 91.508-15.08 121.377-25.332 24.793-62.734 33.526-88.595 54.962-6.758 5.497-7.318 12.235-8.501 20.581-2.728 4.409-11.045 6.191-15.088 2.756 3.18 9.953-6.344 18.483-14.865 11.705-2.008 12.498-18.494 9.713-18.232-2.524-2.244 5.208-8.877 7.261-13.067 2.979-7.178-9.647-3.765-23.082-2.534-35.21-19.121-9.837 13.504-50.293 24.46-57.62 5.89-4.798 11.959.645 17.714-2.834" fill="#EDB98A" blush:skin="500"/>
            <path d="M1651.15 807.204c6.612-4.05 14.983-8.276 23.964-12.778 14.407.107 33.495-9.195 47.575-18.393 38.63-23.794 57.084-75.634 44.298-119.505-20.714-78.18-145.563-97.528-186.079-97.528h-20.917c-23.991 3.544-36.531 63.241-1.399 81.321 17.131 5.57 36.12 6.73 53.587 12.056 18.824 5.691 52.25 13.194 60.104 32.402.694 2.803.847 5.705 1.125 8.56-1.643 10.374-14.605 17.957-21.824 24.702-12.932 13.047-23.49 15.163-39.517 25.15l39.083 64.013z" fill="#34D1A1"/>
            <path d="M1674.097 793.257l-33.673-67.016c-8.913 4.497-18.69 9.315-29.14 15.669l39.084 64.012c6.635-4.061 14.78-8.177 23.729-12.665" fill="#2DB386"/>
          </g>
        </g>
        <g blush:width="127" blush:height="211" blush:component="Head">
          <path d="M1491 441c-29.823 0-54 24.177-54 54v19c0 29.823 24.177 54 54 54h27c14.912 0 27-12.088 27-27v-46c0-29.823-24.177-54-54-54z" fill="#000"/>
          <path d="M1518 514h-45v51.633c0 13.905 10.073 25.177 22.5 25.177s22.5-11.272 22.5-25.177V514z" fill="#EDB98A" blush:skin="500"/>
          <path d="M1470.947 546h4.988c23.232 0 42.065-18.833 42.065-42.065v-19.732c0-17.785-14.417-32.203-32.203-32.203h-5.593c-17.786 0-32.204 14.418-32.204 32.203v38.849c0 12.674 10.274 22.948 22.948 22.948" fill="#EDB98A" blush:skin="500"/>
          <path d="M1496.25 548.332c9.294-3.288 13.931-11.593 15.768-22.764-7.271 12.102-20.459 20.245-35.562 20.429l-.521.003H1473c7.937 4.23 15.687 5.007 23.25 2.332z" fill="#000" opacity=".12"/>
          <path d="M1506 510.5c0 6.903 5.596 12.5 12.5 12.5s12.5-5.597 12.5-12.5-5.596-12.5-12.5-12.5-12.5 5.597-12.5 12.5" fill="#EDB98A" blush:skin="500"/>
          <path d="M1520.933 505.168c-.905 0-2.157.21-3.442.852-2.146 1.073-3.504 3.035-3.595 5.882l-.005.308h3c0-1.835.701-2.887 1.942-3.507.46-.23.97-.383 1.48-.468.252-.042.449-.06.562-.065l.058-.002v-3z" fill="#000" fill-rule="nonzero"/>
          <path d="M1521.536 498c2.975-2.893 5.019-7.311 6.399-12.436 1.335-4.959-22.677-38.259-38.134-38.259-11.891 0-23.826-.474-30.598 9.3-11.202 15.763-14.936 24.323-11.204 25.68 20.403 3.215 35-1.491 47.501-9.634 2 17 15.5 25.349 24.5 25.349h1.536z" fill="#000"/>
        </g>
        <g fill="none" blush:width="61" blush:height="61" blush:component="Expression">
          <path stroke="#000" stroke-width="3" d="M1471.554 494.11l-3.958 21.376h8.07"/>
          <path stroke="#000" stroke-width="3" d="M1471.554 494.11l-3.958 21.376h8.07M1497.44 489.067s-6.068-6.066-15.775-6.066M1455.793 488.656s5.312-5.312 13.813-5.312M1492.666 498.986c-2-5-11-5-12 0M1467.666 498.986c-2-5-11-5-12 0"/>
          <path stroke="#000" stroke-width="3" d="M1471.554 494.11l-3.958 21.376h8.07"/>
          <path d="M1464.666 531.986h12.83c4.512 0 8.17-3.605 8.17-8.053v-.946h-21c1.451 1.853 1.451 5.806 0 9z" fill="#000"/>
          <path fill="#000" fill-rule="nonzero" d="M1472.802 494.397l-2.95-.547-4.287 23.15h9.874v-3l-6.267-.001z"/>
        </g>
        <g fill="none" blush:width="76" blush:height="48" blush:component="Accessories">
          <path d="M1463.802 497.767c-6.67 0-10.395 6.152-13.121 8.91-.218.192-.431.39-.64.593-.116.098-.23.187-.344.266l.011.061c-3.92 3.946-6.325 9.28-6.325 15.153 0 12.15 10.298 22 23 22 12.703 0 23-9.85 23-22 0-8.117-4.595-15.207-11.433-19.02l.006-.038c-5.44-2.546-6.647-5.925-14.154-5.925z" fill="#D8D8D8"/>
          <path d="M1486.383 517.733c0 12.15-10.297 22-23 22-7.457 0-14.086-3.395-18.288-8.657 3.436 8.013 11.673 13.657 21.288 13.657 12.703 0 23-9.85 23-22 0-5.016-1.755-9.64-4.71-13.342a21.113 21.113 0 011.71 8.342z" fill="#000" opacity=".12"/>
          <path stroke="#22252B" stroke-width="2" d="M1519 497l-34.913 14.229M1485.327 525.173H1519"/>
        </g>
        <path d="M1468 499c0 9.389 7.611 17 17 17 9.28 0 16.825-7.437 16.997-16.677L1502 499h25v-2h-25.116c-.99-8.446-8.172-15-16.884-15s-15.894 6.554-16.884 15h-2.232c-.99-8.446-8.172-15-16.884-15-9.389 0-17 7.611-17 17s7.611 17 17 17c9.28 0 16.825-7.437 16.997-16.677L1466 499h2zm17-15c8.284 0 15 6.716 15 15 0 8.284-6.716 15-15 15-8.284 0-15-6.716-15-15 0-8.284 6.716-15 15-15zm-36 0c8.284 0 15 6.716 15 15 0 8.284-6.716 15-15 15-8.284 0-15-6.716-15-15 0-8.284 6.716-15 15-15z" fill="#000" blush:width="95" blush:height="32" blush:component="Glasses"/>
      </g>
    </g>
  </g>
</svg>
