<svg viewBox="240.9 197.069 1697.25 908.707" xmlns="http://www.w3.org/2000/svg" xmlns:blush="http://design.blush" overflow="visible" width="1000" height="535.4">
  <g fill="none" fill-rule="evenodd">
    <g opacity=".4" blush:width="1992" blush:height="1120" blush:component="Background">
      <path d="M1405.462 997.096c1.051 5.718 7.596 13.62 0 16.936-19.101 11.686-42.162 13.721-64.115 14.532-13.197-3.28-90.362-1.191-88.905-13.388 3.563-52.421 43.354-92.608 86.694-117.81 17.823-8.043 61.08 82.25 66.326 99.73zm-70.773-112.294c3.881 3.686 3.851 3.988-.795 6.782-17.789 10.693-34.351 22.94-48.82 37.87-22.69 23.013-37.826 51.995-40.21 84.494-.512 3.664-1.664 4.624-4.89 4.122-12.87-3.297-111.774-13.748-103.23-28.012 13.217-108.36 99.44-200.565 197.945-105.256zm139.758-12.738c-12.138 45.04-21.69 94.329-54.825 129.37-5.797 8.036-12.313-26.643-16.272-30.798-12.007-27.227-27.792-52.138-47.015-74.865-4.648-5.493-4.638-5.55 1.898-8.57 24.58-12.388 93.908-29.071 116.214-15.137zm-93.258-581.372c-2.905 25.994 6.474 47.086 26.302 63.844 32.14 28.716 78.773 26.448 111.816.767 4.192-2.465 4.209-2.712 7.462.804 16.26 17.57 34.51 33.006 52.543 48.661 3.701 3.213 5.408 6.467 5.414 11.43 2.219 36.842-.887 73.395-5.454 109.935-2.592 39.361-8.306 78.136-20.253 115.88-14.556 43.247-38.363 82.61-51.744 126.336-10.224 28.877-20.934 57.587-28.394 87.327-1.254 11.62-16.443 4.02-23.347 5.062-37.236-.596-71.864 6.114-104.554 21.946-5.359 2.595-5.407 2.583-9.799-1.674-103.184-101.281-197.658-8.038-212.075 108.267-1.136 5.463-1.525 5.817-6.691 4.266a6446.88 6446.88 0 01-56.163-17.166c-4.48-1.39-4.713-1.642-3.668-6.406 15.737-86.17-28.14-167.571-71.612-236.548 10.508-122.291 125.817-147.659 229.365-132.363 3.804.373 5.085 3.215 6.32 6.338 26.046 63.48 53.271 132.395 107.282 177.456 109.99 73.63 165.266-65.049 20.36-143.75-37.09-21.224-76.633-36.205-118.565-44.673-4.24-.856-6.235-2.727-7.551-6.505-18.342-52.942-34.62-123.041 11.819-166.338 2.736-2.496 3.472-2.38 5.13 1.01 48.137 87.898 147.474 159.78 250.155 158.345 126.15-18.297 70.088-121.848-13.26-157.762-69.977-30.46-158-59.31-229.903-20.178-12.484 13.283-21.311-56.137-22.987-64.718.802-7.122-7.337-25.616 2.86-25.733 48.088-9.956 98.109-10.871 144.442-27.902 4.286-1.345 5.272-.633 4.75 4.042zM990.365 749.6c47.483 60.268 76.499 139.994 65.843 216.916 1.415 12.59-33.885-8.73-41.138-9.197-12.849-6.927-14.462-78.55-18.188-96.494-3.145-37.13-8.505-73.836-6.517-111.225zm-124.388-92.295c41.887 19.05 80.828 45.025 112.452 78.539 7.729 8.492 2.633 21.37 4.079 31.82.744 59.192 9.42 118.068 17.4 176.645 3.588 13.385-17.904-2.115-23.73-2.366-58.429-20.595-119.967-37.816-165.586-82.045-15.045-14.506-44.916-28.755-26.481-52.614 18.301-27.026 30.31-57.475 42.819-87.421 8.286-20.042 17.092-39.833 27.914-58.669 3.945-7.105 3.954-7.125 11.133-3.89zm367.77-53.927c69.954 15.644 141.752 44.578 185.234 103.448 39.217 49.726 1.721 114.056-60.558 83.679-67.587-37.963-96.676-119.037-124.676-187.127zm5.378-195.93c1.461 3.669 1.16 6.044-1.919 8.815-48.575 42.823-35.25 113.594-17.525 168.125.933 3.431 4.703 10.083-1.99 8.331-99.709-16.033-220.06 14.553-231.849 131.156-.185 2.194-.65 6.741-3.762 4.267-32.174-32.84-69.815-58.01-111.457-77.204-7.491-3.482-7.74-3.544-3.31-10.141 25.944-37.235 49.794-76.028 77.283-112.14 2.89-3.595 3.183-3.61 7.627-1.836 80.048 32.765 198.463-10.666 203.308-105.93 4.117-34.872-36.593-71.871-22.727-72.963 127.363-47.943 67.423-44.522 106.321 59.52zm90.291-14.569c77.89 6.173 164.177 28.854 216.59 90.118 41.043 47.166-.427 90.854-53.461 92.38-99.054-.733-194.29-70.108-240.457-155.02-8.687-16.58 65.671-28.045 77.328-27.478zm-206.479-35.95c70.084 88.117-21.76 175.934-116.167 173.819-10.727-.37-51.01-3.645-52.11-13.946 16.382-16.462 33.642-32.097 50.508-48.077 19.014-17.672 36.459-36.536 48.232-59.953 7.357-14.635 17.992-26.304 32.146-34.73 8.715-2.811 31.015-24.11 37.391-17.112zm430.23-29.276c17.567 19.254 30.224 43.817 31.255 70.391-17.57-13.975-32.57-29.986-49.316-44.87-2.853-3.266-7.343-6.01-2.477-9.606 5.373-3.183 14.979-21.874 20.539-15.915zm-91.173-59.238l.09.655c37.665-4.272 24.186 35.229 45.38 61.377 1.822 5.598 13.496 12.517 8.114 17.924-15.893 11.232-32.74 20.555-52.831 19.52-41.734-.696-82.268-38.084-73.105-81.92 1.64-7.345 11.99-4.784 17.512-7.216 18.175-4.159 36.167-9.125 54.84-10.34zm34.24 12.444c4.545.895 7.851 3.062 10.065 5.985 7.808 10.312 18.769 16.943 28.339 25.189 3.259 3.608 12.136 7.234 6.396 12.382-4.938 3.528-14.602 22.315-19.868 12.98-12.46-16.774-22.003-35.626-24.932-56.536z" fill="#F55B80"/>
      <path d="M664.348 959.087c-8.234-.28-8.732 11.335-.378 11.398 8.318.27 8.653-11.253.378-11.398m37.232 20.725c8.43.417 8.026-11.317-.149-11.393-8.13-.242-8.311 11.5.149 11.393m-9.439-12.784c-.169-9.317-12.306-6.734-11.325 2.06.432 8.896 12.027 6.278 11.325-2.06m-69.484-6.42c.184-7.69-12-9.792-12.407-.852-.865 8.565 12.187 8.698 12.407.851m106.855 10.826c.395-8.818-11.203-7.653-11.392.51-.422 9.346 11.53 9.065 11.392-.51m-78.845-8.96c.293-6.616-12.317-11.566-13.452-2.908-.758 7.24 12.605 11.803 13.452 2.907m101.601 17.61c1.247-9.66-12.75-10.085-12.363-.845-.32 10.345 12.498 12.93 12.363.845m109.626 75.19c-101.073-8.88-206.76 11.169-305.051-16.738-28.405-7.493-2.675-69.529 5.072-88.038 11.895-27.432 33.305-50.633 43.448-77.935 18.634-24.61 43.828 4.196 67.154 5.095 43.078 14.602 78.472 47.039 118.602 68.309 31.32 20.042 74.503 33.885 94.14 66.666 2.335 11.642 4.5 23.333 1.622 35.26-1.176 12.255-16.574 5.68-24.985 7.249 0 .043 0 .087-.002.132" fill="#52DC82"/>
      <path d="M1686.165 869.93c41.936 39.32 76.97 89.665 75.632 149.415-2.244 6.692 2.451 22.208-7.18 24.094-16.85 1.786-34.018-.509-50.974-.508-4.426-.15-5.926-1.645-5.189-5.291 4.006-27.212-6.473-53.907-10.66-80.554-6.753-31.048-29.606-56.374-55.06-74.28-10.965-4.334 15.27-21.705 18.567-27.571 11.106-10.258 25.42 8.912 34.864 14.694zm134.53-91.732c92.381 35.855 137.76 102.227 92.632 197.927-24.886 50.352-88.251 59.754-138.697 65.723-3.43.463-3.475.363-3.296-3.142 11.18-79.479-40.838-154.368-104.95-196.878 32.553-23.527 70.774-36.954 106.565-54.634 14.499-7.73 31.202-13.623 47.747-8.996zM1626.452 892.05c45.92 28.256 55.324 81.835 60.683 131.334-1.236 4.68 1.787 17.547-6.827 15.286-31.512-5.796-62.262-20.288-84.695-43.447-34.364-35.294-12.585-77.45 19.68-104.663 3.608-4.213 7.594-.798 11.159 1.49zM267.075 759.51c51.59-9.546 101.006-14.732 151.358-28.136 18.611-4.654 37.597-7.086 56.523-9.916 10.96.095 24.137-8.011 34.01-2.761 11.211 13.588 31.13 23.402 33.965 41.963 2.125 50.303-24.227 86.78-72.054 101.751-22.031 9.89-43.749-1.246-63.397-11.322-51.172-23.606-100.011-51.565-140.405-91.58" fill="#EBBF5E"/>
      <path d="M578.698 287.96c12.294 80.624 17.68 162.115 30.99 242.62-.4 12.99 13.938 65.317 4.643 69.753-20.67 7.75-40.31 18.734-61.98 23.388-4.155.975-5.093.363-5.98-4.13-9.606-43.28-15.228-87.22-20.076-131.254-3.959-57.105-10.445-113.938-16.723-170.803 1.851-9.94 20.294-11.93 28.056-17.7 7-1.106 42.868-25.155 41.07-11.874zm-88.186 40.392c3.501 29.984 7.732 59.891 10.178 89.988 4.684 67.952 11.364 135.862 25.482 202.567-2.283 9.7-45.71-15.999-53.388-19.198-19.445-43.731-18.302-97.715-25.673-145.526-3.138-33.011-4.905-66.2-9.127-99.101.698-11.48 37.735-23.387 47.852-31.768 3.255-1.806 4.202-.936 4.676 3.038zm184.781 16.179c7.348 69.634 17.329 138.905 28.291 208.051-16.794 14.411-38.948 22.36-58.134 33.407-11.03 7.572-7.723-10.333-9.88-16.754-14.748-96.428-23.472-193.611-37.474-290.11-.657-4.534-.789-4.687 3.802-6.484 19.781-7.675 39.63-15.171 59.343-23.021 9.637-11.254 10.488 85.673 14.052 94.91zm-256.838 19.292c11.102 74.083 9.4 149.921 27.83 222.963-17.985-8.28-34.45-18.906-51.003-29.674-16.52-25.626-9.498-62.204-15.46-92.021-3.107-81.441-25.087-61.993 38.633-101.268zm325.073-138.082c4.804 32.606 7.46 65.426 10.137 98.253 5.138 60.973 11.795 121.856 21.089 182.347.796 5.3.892 5.345-3.776 8.067-16.14 9.414-31.523 18.238-47.764 27.785-17.185-98.704-29.871-199.023-37.267-299.12 2.026-8.498 28.37-11.399 36.686-16.245 5.847-.657 19.539-10.363 20.895-1.087zM356.554 422.38c3.117 36.654 7.647 72.593 8.805 109.443-21.712-21.239-77.87-58.308-58.104-92.045 2.64-2.856 7.355-.026 9.304-3.812 10.816-10.74 23.158-19.677 35.591-28.422 5.902-1.768 2.83 11.142 4.404 14.836zm472.54-215.24c5.174 68.92 3.075 138.189 5.778 207.236l-.316.007c-3.253 55.175 15.874 53.547-37.313 84.093-7.215 1.858-4.438-12.763-6.449-17.265-6.875-51.375-12.943-102.864-17.125-154.531-3.33-35.1-4.682-70.429-10.683-105.214-.659-4.4-.336-5.402 3.886-6.366 8.993.22 65.319-20.557 62.222-7.96zm20.778 6.313c28.722 26.507 48.857 59.04 70.113 91.365 10.201 16.965-4.83 35.69-4.857 53.781-7.645 38.039-29.3 74.425-60.279 97.52-1.768-81.048.503-161.625-4.977-242.666z" fill="#60D6E1"/>
      <path d="M348.343 647.005c-12.839-1.168-10.76 16.124-.491 16.508 9.816.584 14.315-17.86.491-16.508m-52.51 19.633c13.416-.14 11.229-17.478.815-18.664-13.248-.262-13.506 18.298-.814 18.664m43.588 27.591c-.14-7.623-10.664-15.889-17.665-10.083-12.335 12.62 16.201 31.57 17.665 10.083m-16.543-82.522c-13.47-.995-13.97 21.68-1.067 21.746 12.73-.077 17.026-22.06 1.067-21.746m60.762 82.924c14.298.433 16.288-19.341 2.22-20.669-15.193-1.393-19.083 20.061-2.22 20.669m-96.098.377c.267-10.896-12.86-14.958-18.665-5.268-6.565 9.063 3.566 27.777 14.181 17.41 3.288-3.338 4.503-7.542 4.484-12.142m132.748-50.531l24.548 16.601c-8.167 7.647-4.728 22.835 7.827 19.733 4.516-.141 8.773-7.399 12.86-3.908 10.276 9.784 20.179 19.03 29.52 29.857l-44.45 6.913c7.43-23.6-23.43-22.494-17.509-1.07 1.125 2.664 1.05 3.802-1.908 4.461-18.095 4.027-36.165 8.154-54.255 12.198-4.23.946-4.324.862-4.61-3.673.23-6.988-8.699-11.682-13.634-6.233-2.528 2.78-2.934 5.955-1.55 9.535 6.5 7.81-28.661 7.455-34.657 10.063.714-7.01 2.701-14.742-6.999-13.183-10.042 1.162-11.808 2.76-13.81 13.222.602 6.186-34.337 8.103-40.594 8.534 7.277-30.786-8.856-6.735-15.595-26.338-15.397-36.206 22.395-66.49 46.8-87.557 10.534-9.374 17.577-28.036 34.032-27.109 11.3 3.03 22.464 6.58 33.659 10 5.545.939 5.26 6.844 8.246 10.567 10.925 10.797 6.338-8.755 31.466 6.305 2.75 1.267 4.055 2.073 1.564 5.205-10.472 17.125 13.538 23.554 19.049 5.877" fill="#52DC82"/>
      <path d="M1883.192 455.776c-5.446 16.694-6.372 35.292-16.071 50.317-12.588 29.36-25.128 18.805-38.916 35.914-1.771 5.14-7.964 6.596-10.533 11.46-12.275 10.96-34.172 6.562-49.69 8.017-60.94 4.688-87.38 1.765-84.83-67.323-4.611-15.115 115.998-25.645 133.906-31.817 9.237.28 67.675-15.566 66.134-6.568zm8.33-40.101c-3.76 9.531.388 25.292-9.711 29.137-31.776 4.866-63.536 9.833-95.247 15.095-33.134 5.687-66.359 11.08-98.955 19.443-10.907 4.625-5.611-17.903-7.493-24.126-3.64-10.498 34.533-11.656 42.318-14.641 56.478-7.843 112.45-18.554 169.088-24.908z" fill="#60D6E1"/>
      <path d="M1876.997 357.94c7.391 24.457 21.976 16.07 21.787 24.973-3.293 7.65-.023 22.617-9.248 25.317-32.22 5.489-64.552 10.232-96.901 14.89-34.912 4.753-69.648 10.528-104.18 17.55-7.914 3.1-7.821-2.01-7.388-8.51 14.853-118.313 22.75-25.533 74.66-32.182 24 .09 27.902-70.813 47.302-25.023 9.084 19.683 43.242 17.954 45.136-5.643-1.134-17.074 20.59-31.203 28.832-11.371zm2.936-56.924c5.31 18.762 27.362 7.382 26.058 17.945-3.612 21.991.18 82.507-24.473 31.373-14.18-21.812-38.814-5.666-40.365 13.639 1.175 18.709-23.163 22.682-31.068 7.331-4.818-17.304-25.215-30.945-33.448-7.969-8.572 15.332-12.117 34.815-35.229 28.197-17.686-3.25-23.16-28.655-42.926-26.628-3.156.258-4.14-1.19-4.216-4.06-.29-10.868-.891-21.734-.907-32.601.471-10.778 15.45-20.825 24.147-12.766 16.151 13.117 42.867 47.194 51.962 8.376 1.376-9.361 3.125-19.279 8.896-26.929 11.971-15.442 29.227-3.9 32.408 13.012 3.823 15.035 21.89 26.564 31.638 9.673 3.952-7.544 4.6-16.93 7.918-24.78 7.726-14.574 27.634-9.98 29.605 6.187zm-53.471-79.527c32.643 12.598 81.775 40.495 80.602 80.735.287 5.936-6.241 3.528-9.924 3.772-9.082-.309-10.695-9.598-13.77-16.404-9.378-21.088-41.83-10.503-43.589 10.933-5.124 33.86-20.662 17.797-26.937-4.833-7.906-16.042-26.82-17.936-38.997-6.046-14.695 7.552-6.366 53.902-27.083 42.228-15.402-12.186-30.236-37.477-51.738-22.193-5.99-41.14 2.343-97.127 55.196-93.607 3.722-.05 7.02-.943 9.764-3.788 20.587-12.55 44.666 8.213 66.476 9.203z" fill="#7DB4DB"/>
      <path d="M1069.2 228.845c-3.102-40.196 47.1-31.875 73.045-28.117 14.825-.395 23.103 12.114 25.918 25.349 1.547 9.2-.39 15.911-7.359 19.338-10.827 7.718-20.8 17.21-33.633 21.696-52.018 22.77-57.454 19.808-57.544-38.22l-.427-.046" fill="#52DC82"/>
      <path d="M374.949 936.827c1.128 29.949-34.136 43.52-59.797 41.173-15.571 2.094-28.925-16.677-30.746-30.345-5.65-26.856 22.335-74.059 53.192-53.567 23.854 11.607 36.064 11.293 37.35 42.74" fill="#7DB4DB"/>
    </g>
    <g blush:has-customizable-skin="true" blush:width="755" blush:height="859" blush:component="Master/Character/Standing">
      <g blush:width="693" blush:height="596" blush:component="Legs">
        <path d="M1157.378 765.442l.685-66.484c.053-3.579 3.036-6.445 6.586-6.405 21.224.25 42.174.28 63.15-.023 20.948-.303 41.819-.924 62.477-2.004 18.115-.953 36.085-2.258 53.606-4.129 17.473-1.866 34.679-4.328 49.988-7.766l.319-.062.238-.039c.078-.009.157-.01.238-.002.162.016.33.063.508.143.352.156.737.437 1.157.822.673.765 1.462 1.903 2.426 3.322 1.886 2.834 4.47 6.74 6.61 11.266l18.808 40.265c2.118 4.477 2.058 9.167-.335 13.231-1.195 1.988-2.96 3.822-5.147 5.345a20.645 20.645 0 01-3.474 1.928 21.903 21.903 0 01-2.952 1.047c-.356.1-.567.15-.863.217-20.102 4.488-39.63 7.172-59.063 9.272-19.42 2.072-38.69 3.458-57.904 4.472-43.766 2.268-87.34 2.639-130.671 2.131a6.45 6.45 0 01-6.387-6.547" fill="#964C1C" blush:skin="600"/>
        <path d="M1337.178 551.213a849.752 849.752 0 0121.619 37.651c6.875 12.725 13.365 25.523 19.187 38.162 5.793 12.6 10.966 25.165 14.716 36.64l.614 1.917c-.024.025-.026.042-.008.056.04.026.017.067.028.098l.008.2a1.335 1.335 0 01-.045.364c-.038.252-.355.338-.565.36l-.164.011-.078.001h-.038l-.122.003a1.772 1.772 0 00-.598.143l-2.153.465-2.28.49-2.353.461c-1.553.316-3.157.611-4.777.898a209.25 209.25 0 01-4.894.85c-13.215 2.19-27.33 3.862-41.709 5.178-14.403 1.304-29.1 2.282-43.939 3.004-26.189 1.293-52.784 1.84-79.484 1.93l.646 107.271c28.024-.258 56.121-.989 84.43-2.548 16.045-.892 32.163-2.068 48.423-3.653 16.27-1.608 32.67-3.625 49.48-6.529 2.098-.36 4.204-.732 6.33-1.143 2.115-.393 4.238-.8 6.384-1.25 2.133-.426 4.28-.879 6.45-1.373l3.325-.743 4.49-1.082c1.515-.384 2.931-.722 4.52-1.175l4.683-1.3 2.341-.652 2.308-.728 4.608-1.473c1.551-.463 3.025-1.07 4.541-1.599 1.5-.557 3.023-1.077 4.504-1.663l4.39-1.847 2.19-.928 2.122-1.02c11.411-5.34 21.681-12.134 29.883-20.933 4.097-4.389 7.701-9.365 10.37-14.846 2.656-5.478 4.29-11.213 5.352-17.154 2.013-11.895 1.653-24.422-.278-36.992a179.55 179.55 0 00-3.91-18.826c-.38-1.566-.819-3.12-1.266-4.676-.446-1.553-.864-3.113-1.337-4.66l-1.44-4.635-1.107-3.355c-5.723-17.013-12.395-32.612-19.467-47.768-7.096-15.119-14.638-29.704-22.497-44.018C1442.731 524.471 1436 512 1427 500c0 0-91.45 48.57-89.823 51.213z" fill="#3E36B9"/>
        <path d="M1188.577 772.177l.14-43.73c-.24.018-.476.047-.72.046-6.318-.022-11.383-7.227-11.308-16.063.076-8.837 5.195-15.958 11.42-15.937.24.001.474.033.71.054l.012-3.81-17.506-.115-18.325-.177v115.3l10.798.108c9.339.093 12.002-31.349 24.779-35.676M1210.703 787.467l-.643-107.509a2011.63 2011.63 0 0032.943-.462l2.411 107.485c-11.59.26-23.158.416-34.71.486" fill="#D7DBE2"/>
        <path d="M1276.618 1062.492l-51.678-45.082c-2.779-2.426-3.411-6.427-1.373-9.07 6.145-7.973 12.249-16.373 18.14-24.882a672.326 672.326 0 0017.118-25.994c10.989-17.587 21.162-35.614 30.093-53.913a461.104 461.104 0 0012.377-27.451 371.842 371.842 0 0010.18-27.617c2.989-9.198 5.533-18.376 7.518-27.442 2.005-9.066 3.505-18.03 4.327-26.745.09-.96.307-1.885.636-2.77.318-.882.71-1.715 1.227-2.511 1.021-1.592 2.458-3.016 4.11-4.2 3.352-2.372 7.937-3.92 12.89-3.81l44.305 1.032c4.996.11 9.418 2.379 12.535 6.178 1.58 1.9 2.743 4.152 3.488 6.643.368 1.246.65 2.557.775 3.897a22.6 22.6 0 01-.02 4.11c-1.212 12.667-3.307 25.049-5.98 37.155-2.66 12.115-5.953 23.934-9.704 35.483a457.95 457.95 0 01-12.488 33.907 546.947 546.947 0 01-14.644 32.494c-10.426 21.351-22.012 41.845-34.411 61.691-12.447 19.85-25.612 38.979-39.964 57.638-2.405 3.119-6.68 3.69-9.457 1.259" fill="#AE5D29" blush:skin="500"/>
        <path d="M1218.389 500v6.343c0 2.115-.077 4.357.076 6.074.959 15.927 4.16 30.641 8.131 43.53 3.994 12.934 8.714 24.212 13.437 34.444 4.741 10.228 9.526 19.445 14.135 28.133l13.3 24.69c8.406 15.659 15.927 30.314 22.187 44.772 6.33 14.448 11.391 28.696 15.358 43.108.903 3.617 1.934 7.208 2.69 10.848.398 1.815.848 3.621 1.218 5.444l1.055 5.475.268 1.367.136.684c.048.239.089.454.108.613l.324 2.119c.257 1.393.402 2.85.579 4.3.35 2.896.563 5.889.7 8.943.534 12.218-.597 25.633-3.28 39.628-2.665 13.996-6.81 28.53-12.081 43.146-5.273 14.624-11.662 29.342-18.87 43.93-11.222 22.71-24.414 45.141-38.857 66.758l89.172 64.651c16.773-25.435 32.213-51.938 45.869-79.955 8.758-18.005 16.763-36.641 23.646-56.09 6.87-19.448 12.635-39.722 16.557-60.989 3.91-21.24 5.943-43.563 4.81-66.571-.29-5.747-.754-11.527-1.48-17.324-.363-2.9-.72-5.797-1.23-8.702l-.721-4.352c-.248-1.402-.513-2.626-.77-3.948l-1.561-7.79c-.546-2.59-1.179-5.156-1.769-7.736-1.14-5.172-2.577-10.247-3.917-15.353-5.694-20.297-12.923-40-21.216-58.628-8.238-18.682-17.482-36.284-26.54-52.93-9.024-16.575-17.919-32.26-24.669-46.6-3.365-7.152-6.144-13.933-8.076-20.092-1.944-6.175-108.72-21.94-108.72-21.94z" fill="#694FD9"/>
        <path d="M1301.62 1039.88c-4.455-3.445-20.513-15.872-35.486-27.459-.124.212-.24.429-.384.63-3.756 5.27-12.603 4.83-19.648-.88-7.053-5.718-9.834-14.278-6.296-19.242.136-.192.294-.361.445-.537L1237.16 990a597.9 597.9 0 01-10.051 13.707 507.366 507.366 0 01-5.08 6.615l-2.509 3.172-2.15 2.654 87.792 79.852 2.635-3.217 2.207-2.757 4.2-5.358c3.287-4.257-.965-12.04-5.481-20.44-4.514-8.411-9.295-17.409-7.104-24.348M1328.153 1029l-89.784-64.83c5.951-8.93 11.7-17.998 17.168-27.17l92.832 60.005c-6.485 10.874-13.236 21.521-20.216 31.995" fill="#D7DBE2"/>
        <path d="M1318 598.72c-48.899 0-89.518-35.453-97.556-82.056-.95-5.506-1.444-10.887-1.444-16.664l208-.28c0 54.675-44.324 99-99 99h-10z" fill="#694FD9"/>
      </g>
      <g blush:width="863" blush:height="528" blush:component="Body">
        <path d="M1748.872 353.67a9 9 0 019.125 8.874l24.997-.349a9 9 0 019.125 8.873 9 9 0 01-8.873 9.125l-19.434.272c2.149 1.344 3.519 3.512 3.532 6.951a9.005 9.005 0 01-5.845 8.558l-.235.085c2.587 1.293 4.289 3.548 4.304 7.383a9.003 9.003 0 01-5.846 8.558l-.063.022a9 9 0 01-4.741 16.572l-52.995.739a8.982 8.982 0 01-3.042-.482l-.064-.023c-56.783-.735-181.052-3.232-218.75-3.324l-1.424-.002h-1.336a372.1 372.1 0 00-4.403.027 79.256 79.256 0 00-5.513-.21l-.98-.002-.998.005c-10.05.094-22.45 1.313-34.64 1.433l-1.218.008h-1.216c-24.302-.071-47.086-5.128-47.886-32.948.112-30.175 26.528-34.324 52.95-34.365h1.22c9.346.029 18.643.53 26.725.53l1.047-.002c3.467-.02 6.695-.14 9.588-.444 29.09-.421 199 3.276 244.021 3.498l-.003.098a9 9 0 018.874-9.125l23.997-.335z" fill="#AE5D29" blush:skin="500"/>
        <path d="M1748.872 353.67a9 9 0 019.125 8.874l24.997-.349a9 9 0 019.125 8.873 9 9 0 01-8.873 9.125l-19.434.272c2.149 1.344 3.519 3.512 3.532 6.951a9.005 9.005 0 01-5.845 8.558l-.235.085c2.587 1.293 4.289 3.548 4.304 7.383a9.003 9.003 0 01-5.846 8.558l-.063.022a9 9 0 01-4.741 16.572l-52.995.739a8.982 8.982 0 01-3.042-.482l-.064-.023c-61.208-.793-200.835-3.632-225.913-3.3-28.718-2.21-91.117 14.654-92.451-31.713.173-46.422 62.603-31.246 91.53-34.281 29.09-.421 199 3.276 244.021 3.498l-.003.098a9 9 0 018.874-9.125l23.997-.335z" fill="#964C1C" blush:skin="600"/>
        <path d="M1470.058 443.57c-37.423-1.053-105.582 14.551-107.603-42.506 0-30.666 5.7-46.064 25.728-46.064 17.266 0 42.228.315 80.647.578l1.228 87.991z" fill="#051026"/>
        <path fill="#AE5D29" blush:skin="500" d="M1234 456h180v48h-180z"/>
        <path d="M1256 355h136c22.091 0 40 17.909 40 40v77h-216v-77c0-22.091 17.909-40 40-40z" fill="#0A1B45"/>
        <path d="M1278 355c0 18.225 20.595 33 46 33s46-14.775 46-33" fill="#AE5D29" blush:skin="500"/>
        <g>
          <path d="M1159.583 721.975c-13.585-.894-24.827-10.155-28.74-22.8-3.824-15.809 2.026-34.26 3.083-50.32 12.19-86.79 33.694-172.175 65.381-253.945 5.222-12.954 17.05-21.168 30.47-21.207 22.282-.374 39.75 24.297 31.015 45.195-28.298 73.19-48.203 149.811-59.757 227.438-1.652 10.21-3.32 24.31-4.608 34.572.798 21.464-13.155 42.92-36.844 41.067" fill="#AE5D29" blush:skin="500"/>
          <path d="M1134.525 739.806c-9.416-.5-9.052-11.075-8.007-18.14.655-8.133 1.131-17.076 1.98-25.13.633-5.734 1.841-19.5 2.594-25.038.45-6.944 1.663-17.61 11.112-16.343 11.153 1.66 7.053 14.87 6.266 22.508-.262 2.581-1.752 17.59-2.048 20.514-.825 7.904-1.309 16.708-1.945 24.677-.122 7.037-.493 17.348-9.952 16.952" fill="#AE5D29" blush:skin="500"/>
          <path d="M1149.99 751.65c-12.05-.38-7.773-16.702-7.854-24.233 1.003-7.456-1.275-24.164 10.73-23.081 11.915.98 7.386 16.598 7.236 24.183-.78 7.538 1.831 23.601-10.113 23.131" fill="#AE5D29" blush:skin="500"/>
          <path d="M1165.887 754.191c-12.01-.34-7.811-16.308-7.895-23.796 1.08-8.187-1.583-23.207 10.668-22.71 12.135 1.531 7.315 15.489 7.3 23.773-.746 7.517 1.835 23.184-10.073 22.733M1192.72 721.332c-12.074-1.246-7.485-15.403-7.07-23.48 1.403-12.433-.67-17.765 11.739-24.632.424 6.689 8.788 6.093 7.27 15.383-.415 4.11-1.452 14.619-1.856 18.59.17 6.597-1.66 14.743-10.082 14.139" fill="#AE5D29" blush:skin="500"/>
          <path d="M1182.244 746.94c-15.21-2.173-5.925-23.453-6.973-33.76 2.366-9.681-2.719-33.076 12.091-32.324 14.916 3.171 4.608 23.314 5.858 33.735-2.608 9.847 3.742 32.056-10.976 32.349" fill="#AE5D29" blush:skin="500"/>
          <path d="M1169.413 445.963a1022.038 1022.038 0 0122.36-61.863c8.699-22.723 33.959-29.1 63.427-29.1 29.468 0 26.609 49.631 12.89 75.71-5.114 13.39-8.5 25.62-12.89 39.29l-85.787-24.037z" fill="#0A1B45"/>
        </g>
      </g>
      <g blush:width="127" blush:height="211" blush:component="Head">
        <path d="M1395 301.5v-17.133c0-3.791-2.462-6.863-5.5-6.863s-5.5-3.073-5.5-6.863v-8.184c0-14.06-17.16-25.457-28.285-25.457H1344v112h42.072c12.11 0 21.928-12.838 21.928-28.676V314.5c0-3.59-2.225-6.5-4.971-6.5h-3.058c-2.746 0-4.971-2.91-4.971-6.5M1322.801 349H1342V237h-19.199c-28.057 0-50.801 22.744-50.801 50.801v10.398c0 28.057 22.744 50.801 50.801 50.801" fill="#000"/>
        <g fill="#AE5D29" blush:skin="500">
          <path d="M1300 310h45v51.633c0 13.905-10.074 25.177-22.5 25.177s-22.5-11.272-22.5-25.177V310z"/>
          <path d="M1347.053 342h-4.988c-23.232 0-42.065-18.833-42.065-42.065v-19.732c0-17.785 14.417-32.203 32.203-32.203h5.593c17.786 0 32.204 14.418 32.204 32.203v38.849c0 12.674-10.274 22.948-22.948 22.948"/>
          <path d="M1312 306.5c0 6.903-5.596 12.5-12.5 12.5s-12.5-5.597-12.5-12.5 5.596-12.5 12.5-12.5 12.5 5.597 12.5 12.5"/>
        </g>
        <path d="M1297.067 301.168c.905 0 2.157.21 3.442.852 2.146 1.073 3.504 3.035 3.595 5.882l.005.309h-3c0-1.836-.701-2.888-1.942-3.508-.46-.23-.97-.383-1.48-.468a4.887 4.887 0 00-.562-.065l-.058-.001v-3z" fill="#000"/>
        <path d="M1321.75 344.332c-9.294-3.288-13.931-11.593-15.768-22.764 7.271 12.102 20.459 20.245 35.562 20.429l.521.003H1345c-7.937 4.23-15.687 5.007-23.25 2.332z" fill="#000" opacity=".12"/>
        <path d="M1299.339 294h-1.536c-5.853-5.692-8.102-17.292-8.78-28.551-.928-15.429 25.856-28.449 41.31-28.449h17.983L1369 263h-37.969c-6.775 18.085-19.694 31-31.692 31" fill="#000"/>
      </g>
      <g fill="#000" blush:width="61" blush:height="61" blush:component="Expression">
        <path d="M1345.198 290.397l2.95-.547 4.287 23.15h-9.874v-3l6.267-.001zM1333.922 312.586c0 3.674 3.742 7.072 7.76 7.204l.24.004v3c-5.597 0-10.826-4.566-10.996-9.939l-.004-.269h3zM1336.835 278v3c-3.974 0-7.597 1.066-10.799 2.845a22.042 22.042 0 00-2.946 1.951l-.304.245c-.279.229-.482.41-.608.531l-.057.055-2.12-2.121c.85-.85 2.398-2.072 4.578-3.284 3.478-1.932 7.407-3.123 11.715-3.216l.54-.005zM1348.895 278.344c3.993 0 7.624 1.068 10.822 2.845 1.813 1.007 3.132 2.023 3.911 2.77l.14.137-2.121 2.121a10.535 10.535 0 00-.832-.713 19.113 19.113 0 00-2.555-1.692c-2.645-1.47-5.621-2.378-8.874-2.461l-.49-.007v-3zM1324.442 294.93c2.49-6.225 13.283-6.3 14.81.025l.053.237-2.941.589c-.676-3.376-7.415-3.435-9.054.071l-.083.192-2.785-1.115zM1349.442 294.93c2.49-6.225 13.283-6.3 14.81.025l.053.237-2.941.589c-.676-3.376-7.415-3.435-9.054.071l-.083.192-2.785-1.115z"/>
      </g>
    </g>
    <g blush:has-customizable-skin="true" blush:width="755" blush:height="859" blush:component="Master/Character/Standing">
      <g blush:width="693" blush:height="596" blush:component="Legs">
        <path d="M1136.007 1015.602a417.477 417.477 0 0016.993-8.868L1108.377 926a324.215 324.215 0 01-18.793 9.578 273.776 273.776 0 01-9.424 4.21 215.113 215.113 0 01-4.572 1.88l-2.144.836-.96.361-.393.145-.091.033.029-.012.061-.019 1.066 3.076 9.135 26.386c.27.025.814-.048 1.315-.113l1.556-.22 3.22-.528c.14 6.111.154 12.252-.022 18.388l13.906 40.164 11.715 33.835 2.85-1.023 2.029-.76 3.716-1.441a323.169 323.169 0 006.928-2.834c4.726-1.999 5.158-9.352 4.998-17.789-.159-8.452-.898-17.974 1.505-24.55" fill="#0A1B45"/>
        <path d="M1039.03 570.64c9.524 4.724 19.154 9.576 28.358 14.357 4.583 2.38 9.15 4.796 13.044 6.968l2.648 1.508 1.904 1.17c1.968 1.228 3.936 2.455 5.894 3.733 15.714 10.143 30.808 21.576 44.516 33.761 27.52 24.337 49.301 52.32 61.038 80.528a156.199 156.199 0 016.943 21.198c.384 1.773.784 3.54 1.203 5.3.33 1.772.58 3.549.903 5.313.372 1.758.51 3.544.709 5.316.167 1.777.509 3.533.525 5.323.086 1.783.193 3.56.32 5.334l.002 5.366c-.004.901.04 1.77.01 2.696l-.13 2.823c-.04 1.89-.218 3.74-.364 5.593-.634 7.402-1.758 14.595-3.514 21.563a138.505 138.505 0 01-6.82 20.368c-2.813 6.617-6.238 13.059-10.13 19.379-3.922 6.308-8.433 12.456-13.4 18.455-5.04 5.967-10.497 11.806-16.505 17.388-10 9.311-21.29 18.001-33.433 25.938-12.135 7.92-25.2 15.117-38.48 21.226l17.155 34.987a306.707 306.707 0 0018.128 2.992 331.447 331.447 0 01-8.78 16.077l35.157 71.7c19.134-9.86 37.381-20.973 54.962-33.576 17.547-12.616 34.381-26.712 50.029-42.643 9.418-9.482 18.348-19.704 26.736-30.52 8.338-10.876 16.11-22.39 23.025-34.574 6.888-12.197 13.008-24.986 18.034-38.275a270.098 270.098 0 0011.864-40.939c2.878-13.916 4.522-28.012 5.146-41.994.142-3.496.287-6.991.262-10.466l.011-5.218c-.018-1.749-.116-3.547-.177-5.319-.154-3.555-.272-7.11-.502-10.657l-1.04-10.636c-.29-3.549-.945-7.054-1.46-10.575-.547-3.515-1.069-7.036-1.858-10.498-.739-3.472-1.443-6.955-2.256-10.402l-2.74-10.246a283.543 283.543 0 00-14.617-39.241c-5.855-12.493-12.49-24.41-19.73-35.719-7.217-11.34-15.159-21.918-23.456-31.994a381.517 381.517 0 00-26.122-28.506 437.421 437.421 0 00-28.13-25.312c-19.32-15.918-35.521-27.289-56.822-39.56-.504-.291-74.01 0-74.01 0-30.154 46.634-44.838 70.138-44.05 70.51z" fill="#CC2935"/>
        <path d="M915.115 1091.951l-65.77-6.81c-1.78-.183-3.273-1.381-4.227-3.235-.943-1.819-1.403-4.429-.93-6.821l1.006-5.483c.352-1.813.775-3.468 1.169-5.21.773-3.51 1.694-6.718 2.603-9.98.444-1.66.941-3.191 1.43-4.752l1.477-4.67c1.04-2.974 2.057-6.038 3.14-8.925 4.292-11.618 8.987-22.455 13.534-32.534l6.465-14.32 1.41-3.211 1.399-3.461 2.802-6.922 5.621-13.835c1.791-4.67 3.429-9.446 5.156-14.161l4.249-11.764c.736-1.943 1.365-3.95 2.005-5.953l1.927-6 3.861-12 1.934-6c.634-2.005 1.18-4.057 1.773-6.082l7.009-24.382 6.337-24.691 1.586-6.172 1.427-6.237 2.853-12.473 2.858-12.474 2.573-12.572 2.56-12.577c.85-4.193 1.742-8.376 2.46-12.608l4.562-25.325c5.672-33.876 10.493-67.973 14.268-102.233 3.65-34.274 6.504-68.655 8.382-103.078l78.976 4.2c-1.957 35.916-4.93 71.758-8.743 107.525-3.94 35.759-8.974 71.416-14.934 106.974l-4.796 26.633c-.759 4.444-1.696 8.866-2.593 13.293l-2.702 13.28-2.722 13.277-3.027 13.238-3.032 13.238-1.517 6.617-1.69 6.595-6.775 26.372-7.54 26.256c-.643 2.185-1.232 4.38-1.918 6.558l-2.097 6.527-4.2 13.056-2.101 6.526c-.698 2.176-1.385 4.354-2.195 6.51l-4.673 12.965c-1.905 5.208-3.71 10.434-5.7 15.623l-6.286 15.503-3.147 7.75-1.576 3.874-1.745 3.978-6.653 14.742c-4.268 9.447-8.144 18.497-11.412 27.339-.835 2.213-1.531 4.369-2.31 6.55l-1.004 3.201c-.336 1.064-.695 2.141-.956 3.165-.568 2.074-1.19 4.17-1.6 6.133-.216.987-.502 2.014-.676 2.965l-.511 2.828c-.288 1.304-1.048 2.191-2.33 2.855-1.262.643-2.943.988-4.724.805" fill="#EDB98A" blush:skin="500"/>
        <path d="M934.151 1068.705c.406-1.14.769-2.257 1.205-3.415l1.315-3.48-59.151-22.565L850.666 1029c-3.405 8.9-6.663 18.302-9.385 28.794l-1.91 8.118c-.577 2.828-1.094 5.763-1.607 8.646-.459 3.023-.824 6.202-1.186 9.302-.183 2.2-.32 6.246-.413 12.14H867.289l.747-5.896c.318-1.441.595-2.91 1.024-4.248a141.957 141.957 0 008.22 4.813c1.851.998 4.694 2.775 8.526 5.331h42.429l30.557-.025c1.348-.024.089-6.472-.616-6.775-.71-.336-5.532-2.573-7.307-3.39-7.221-3.253-15.269-5.623-18.908-10.431.715-2.206 1.35-4.38 2.19-6.674z" fill="#0A1B45"/>
        <path d="M947.872 500s-4.247 58.153-8.264 97.365c-4.045 39.216-9.31 78.273-15.871 116.947-6.515 38.684-14.587 76.92-24.14 114.358-9.586 37.402-20.768 74.046-34.124 108.757l-4.505 11.693c-1.589 3.816-3.263 7.55-4.883 11.329l-4.878 11.305-.608 1.414-.303.706-.295.63-1.173 2.494-2.726 5.716c-3.89 8.123-8.301 17.347-12.611 27.287-4.32 9.989-8.623 20.744-12.491 33.004l37.179 11.126c5.366-5.03 10.748-9.624 16.235-13.767a294.88 294.88 0 004.028 19.832L954.635 1083c1.557-5.893 3.86-12.695 6.642-19.923 2.792-7.272 6.039-14.916 9.714-23.482l2.879-6.759 1.546-3.709c.27-.63.503-1.222.72-1.796l.672-1.75 5.372-13.995c1.77-4.666 3.6-9.328 5.309-13.997l4.756-14.023c14.16-41.575 25.062-83.277 34.078-125.03 8.958-41.756 16.082-83.563 21.501-125.428 5.463-41.862 9.477-83.77 12.184-125.73 2.677-41.962 4.132-63.868 3.981-105.977.031-1.287-116.117-1.401-116.117-1.401z" fill="#FA3239"/>
        <path d="M949 500c0 55.228 46.562 100 104 100s104-44.772 104-100" fill="#FA3239"/>
      </g>
      <g blush:width="863" blush:height="528" blush:component="Body">
        <g fill="#EDB98A" blush:skin="500">
          <path d="M1122.948 576.602c1.767 50.68 70.762 30.253 96.38 8.687 20.793-16.841 29.459-45.157 25.45-71.13-8.095-50.49-42.344-92.381-74.925-129.211-19.758-22.738-57.173-7.404-57.064 21.696-.194 8.294 2.539 16.465 8.316 22.799 15.502 17.039 29.396 34.155 41.198 53.1 4.204 6.893 8.205 14.094 11.293 21.333 26.817 61.112-44.597 14.072-50.648 72.726"/>
          <path d="M1101.738 599.22c-.476 5.217 3.729 9.413 8.948 9.772 25.299 1.666 51.89 1.278 76.875-6.631 14.76-4.834 9.057-21.746-5.549-17.123-11.743 3.74-23.654 5.432-35.682 6.159-11.659.66-23.118.442-34.402-.362-5.023-.375-9.68 3.13-10.19 8.185"/>
          <path d="M1092.091 582.084c-.61 4.907 3.037 9.476 8.227 9.965 10.756-.158 28.107 5.141 37.28-.95 5.821-5.35 1.014-15.575-6.647-15.325-10.626 1.94-37.107-8.111-38.86 6.31"/>
          <path d="M1092.076 565.974a8.853 8.853 0 007.833 9.959c10.277-.632 37.294 8.684 37.852-7.207-.122-4.778-3.792-8.89-8.563-8.96-9.032-.128-18.206-.763-27.411-1.734-4.718-.52-9.07 3.005-9.711 7.942M1126.802 543.704c.547 15.624 23.588 7.083 32.731 6.994 3.918-1.18 5.793-7.35 6.46-10.763-4.359.23-5.802-8.452-11.685-6.625-8.17 2.948-26.782-3.46-27.506 10.394"/>
          <path d="M1101.583 550.978c-.345 15.23 21.682 9.19 31.343 10.809 8.775-1.15 22.06 2.07 28.046-4.886 2.305-3.647.833-9.86-2.305-12.52-6.085-4.261-17.443.633-25.763-.597-9.7 1.928-28.691-7.244-31.321 7.194"/>
        </g>
        <path d="M1217 425.32c-20.052-25.442-58.053-70.768-93.49-70.32-10.28.13-17.053 4.23-27.179 13.636-16.04 17.16-3.696 46.434 12.092 63.455 13.341 14.222 25.741 28.973 36.298 43.909L1217 425.32z" fill="#051026"/>
        <path fill="#EDB98A" blush:skin="500" d="M963 456h180v48H963z"/>
        <path d="M985 355h136c22.091 0 40 17.909 40 40v77H945v-77c0-22.091 17.909-40 40-40z" fill="#0A1B45"/>
        <path d="M1007 355c0 18.225 20.595 33 46 33s46-14.775 46-33M1099 576.837c-.531 46.652-57.018 32.152-87.569 26.645-32.104-7.043-65.9-21.722-87.96-48.271-27.778-31.818-29.311-79.555-12.917-116.84 7.616-18.519 18.707-36.295 30.7-51.884 11.89-15.605 33.633-18.235 47.566-4.91 12.384 11.886 14.785 31.816 4.657 45.22-5.265 6.858-10.036 13.859-14.103 20.894-30.413 50.918-7.54 79.252 46.335 91.257 29.297 8.371 68.005-4.783 73.291 37.89" fill="#EDB98A" blush:skin="500"/>
        <path d="M1119.96 598.926c.485 4.85-3.446 9.21-8.82 9.582-20.963.093-59.45 5.295-78.054-4.29-5.508-6.078.75-15.273 8.777-14.119 22.796 2.511 45.51 2.402 67.944.807 5.132-.355 9.668 3.17 10.152 8.02" fill="#EDB98A" blush:skin="500"/>
        <path d="M1129.96 582.04c1.27 15.495-28.205 9.957-38.46 11.957-5.232.118-9.487-3.845-9.5-8.855-.011-4.963 3.996-9.085 8.951-9.195 9.68-.28 19.347-.954 28.985-1.905 4.941-.468 9.42 3.028 10.024 7.997" fill="#EDB98A" blush:skin="500"/>
        <path d="M1129.962 566.023c1.211 15.477-26.759 9.889-36.838 11.97-4.998.196-9.087-3.834-9.124-8.786-.106-14.585 26.103-8.135 36.25-11.157 4.745-.517 9.092 3.033 9.712 7.973M1095 544.204c-.146 15.587-25.027 7.62-34.966 8.716-4.414-.66-8.017-6.524-10.034-9.874 6.064-.572 5.383-9.086 13.768-7.94 9.708 2.453 29.668-5.537 31.232 9.098" fill="#EDB98A" blush:skin="500"/>
        <path d="M1120.945 551.252c.54 4.99-2.935 9.395-7.763 9.85-12.94-.086-44.98 5.378-54.152-1.854-4.715-5.328-.699-15.55 6.73-15.132 15.036.708 30.432.203 45.882-1.081 4.595-.434 8.762 3.252 9.303 8.217" fill="#EDB98A" blush:skin="500"/>
        <path d="M898 439.336c8.935-24.003 23.558-46.547 39.39-66.05C946.21 362.39 961.924 355 980.603 355c18.679 0 24.116 12.075 30.465 28.269 15.729 37.921-20.125 54.502-30.465 86.731L898 439.336z" fill="#0A1B45"/>
      </g>
      <g blush:width="127" blush:height="211" blush:component="Head">
        <path d="M1042.5 358.538h-33c-13.531 0-24.5-10.97-24.5-24.5 0-13.531 10.969-24.5 24.5-24.5h33c13.531 0 24.5 10.969 24.5 24.5 0 13.53-10.969 24.5-24.5 24.5" fill="#000"/>
        <path d="M1058.2 311.538h-9.2v-75h9.2c28.055 0 50.8 12.744 50.8 40.8v13.399c0 20.8-22.745 20.8-50.8 20.8" fill="#000"/>
        <path d="M1052.8 341.538h19.2v-105h-19.2c-28.055 0-50.8 22.744-50.8 50.8v3.399c0 28.057 22.745 50.8 50.8 50.8" fill="#000"/>
        <path d="M1029 309.538h45v51.633c0 13.905-10.073 25.177-22.5 25.177-12.426 0-22.5-11.272-22.5-25.177v-51.633z" fill="#EDB98A" blush:skin="500"/>
        <path d="M1076.053 341.538h-4.988c-23.232 0-42.065-18.833-42.065-42.065V279.74c0-17.785 14.417-32.203 32.203-32.203h5.593c17.786 0 32.204 14.418 32.204 32.203v38.849c0 12.674-10.274 22.948-22.948 22.948" fill="#EDB98A" blush:skin="500"/>
        <path d="M1050.75 344.332c-9.294-3.288-13.931-11.593-15.768-22.764 7.271 12.102 20.459 20.245 35.562 20.429l.521.003H1074c-7.937 4.23-15.687 5.007-23.25 2.332z" fill="#000" opacity=".12"/>
        <path d="M1041 306.038c0 6.903-5.596 12.5-12.5 12.5s-12.5-5.597-12.5-12.5 5.596-12.5 12.5-12.5 12.5 5.597 12.5 12.5" fill="#EDB98A" blush:skin="500"/>
        <path d="M1026.067 300.706c.905 0 2.157.21 3.442.852 2.146 1.073 3.504 3.035 3.595 5.882l.005.308h-3c0-1.835-.701-2.887-1.942-3.507-.46-.23-.97-.383-1.48-.468a4.887 4.887 0 00-.562-.065l-.058-.002v-3z" fill="#000" fill-rule="nonzero"/>
        <path d="M1029 293.538h-1.536c-5.854-5.692-8.103-17.292-8.781-28.551-.929-15.43 25.859-28.45 41.316-28.45h17.985l17.016 26h-39.303c0 17-14.697 31-26.697 31" fill="#000"/>
        <path d="M1103.736 262.538H1050V236.17a7.172 7.172 0 017.172-7.172h31.554c13.406 0 24.274 10.869 24.274 24.275a9.264 9.264 0 01-9.264 9.264" fill="#000"/>
      </g>
      <g fill="none" blush:width="61" blush:height="61" blush:component="Expression">
        <path fill="#000" fill-rule="nonzero" d="M1074.198 290.397l2.95-.547 4.287 23.15h-9.874v-3l6.267-.001z"/>
        <g stroke="#000" stroke-width="3">
          <path d="M1062.195 312.572c0 4.75 4.75 8.708 9.501 8.708M1075.446 290.11l3.958 21.376h-8.07"/>
          <path d="M1075.446 290.11l3.958 21.376h-8.07"/>
          <path d="M1075.446 290.11l3.958 21.376h-8.07M1049.56 285.067s6.068-6.066 15.775-6.066M1091.207 284.656s-5.312-5.312-13.813-5.312M1054.334 291.236c2 5 11 5 12 0M1079.334 291.236c2 5 11 5 12 0"/>
        </g>
      </g>
      <path d="M1063.545 282c5.744.025 11.476 1.352 13.54 3.974 1.009 1.28 1.592 3.04 1.822 5.026h3.207c.23-1.985.813-3.745 1.821-5.026 2.018-2.563 7.538-3.888 13.15-3.97l.391-.004h.42l2.919.038c10.267.17 14.165.693 15.079 2.656 1.01 2.17 1.578 5.155.676 6.704l-.135.21c-.174.272-.616 1.095-1.103 2.07l-.105.21-.43.887a49.901 49.901 0 00-1.585 3.657l-.068.255c-.89 3.277-2.658 6.51-4.445 8.65-3.35 4.009-17.586 4.271-21.666.12-2.63-2.674-4.525-7.715-4.945-12.457h-3.154c-.42 4.742-2.317 9.783-4.946 12.458-4.08 4.15-18.316 3.888-21.665-.121-1.788-2.14-3.555-5.373-4.446-8.65l-.067-.255a48.842 48.842 0 00-1.478-3.432H1020v-4h24.263c-.62-1.623-.066-4.31.864-6.306.97-2.082 5.295-2.545 17.017-2.683l.98-.01h.421zm-10.69 6.578c-1.722 2.361-2.057 5.326-1.45 8.275l.228.613-.08.032c.642 2.538 1.96 5.03 3.674 7.081 1.858 2.224 13.56 2.44 16.076-.12 3.203-3.258 5.077-12.5 2.927-15.651l-.123-.169-.126-.146c-2.966-3.168-18.79-3.12-21.127.085zm55.312 0c-2.3-3.156-17.684-3.25-20.983-.227l-.144.142-.125.146-.124.169c-2.15 3.151-.276 12.393 2.927 15.65 2.517 2.561 14.218 2.345 16.076.121 1.613-1.93 2.876-4.251 3.553-6.633l.12-.448-.08-.032.228-.613c.609-2.949.273-5.914-1.448-8.275z" fill="#000" blush:width="95" blush:height="32" blush:component="Glasses"/>
    </g>
    <g blush:has-customizable-skin="true" blush:width="755" blush:height="859" blush:component="Master/Character/Standing">
      <g blush:width="693" blush:height="596" blush:component="Legs">
        <path d="M828.547 1086.219l-66.039 1.016a6.477 6.477 0 01-6.575-6.377l-1.959-127.509-5.878-382.714 78.991-1.214 5.878 382.714 1.96 127.51a6.477 6.477 0 01-6.378 6.574" fill="#543629" blush:skin="600"/>
        <path d="M841.192 1046l-29.777.457-62.415.959.752 48.994h31.167l1.265-7.498 17.276 7.498h78.277l-.178-13.576c-.125-8.136-26.29-10.527-36.101-19.528l-.266-17.306z" fill="#0A1B45"/>
        <path fill="#CC2935" d="M729.173 510.654L726.6 953.77l-.613 110.022 38.856-.596 10.731-16.215 10.446 15.89 79.63-1.224-3.99-109.95-16.18-442.828z"/>
        <path d="M602.34 1090.02l-65.34-9.631c-1.77-.26-3.24-1.362-4.18-2.965-.47-.791-.806-1.744-.983-2.7a7.36 7.36 0 01-.03-2.758l1.5-8.413 1.534-8.106c1.018-5.427 2.085-10.657 3.126-15.996a4698.694 4698.694 0 016.425-31.571c4.341-20.957 8.74-41.84 13.194-62.681 13.635-63.866 27.564-127.54 41.571-191.202l42.336-190.86 77.102 17.214-42.286 190.634c-13.985 63.556-27.89 127.134-41.46 190.69a9996.857 9996.857 0 00-13.09 62.193 4550.436 4550.436 0 00-6.312 31.005c-.999 5.127-2.058 10.317-3.008 15.393l-1.447 7.637-1.327 7.442a5.847 5.847 0 01-.918 2.263c-.43.613-.978 1.096-1.634 1.499-1.306.794-3.003 1.173-4.773.913" fill="#694D3D" blush:skin="500"/>
        <path d="M623.215 1052.756a3542921711.654 3542921711.654 0 01-90.407-18.114c-1.621 8.172-3.243 16.296-4.811 24.702-.795 4.082-5.653 33.871-5.746 36.656H553.421c.335-1.976 1.742-6.807 2.168-8.726l.16-.71.158-.465.314-.928.63-1.857c8.239 7.62 13.277 11.849 15.114 12.686h79l.794-1.77c.629-3.51-5.415-6.926-12.546-10.947-7.105-4.081-15.365-8.556-19.288-13.833l3.29-16.694z" fill="#0A1B45"/>
        <path d="M728.479 500c0 .114-90.852-1.016-91.105.114-18.036 73.305-35.942 145.572-53.742 218.929-17.786 73.367-35.485 146.73-52.821 220.446l-12.56 53.94-6.178 27.187a2788.923 2788.923 0 00-6.073 27.618l38.162 7.336c4.626-4.685 9.277-9.261 13.908-13.861l6.89 17.859 78.209 15.034c2.975-17.434 6.275-35.35 9.58-53.193l10.166-53.747c14.15-73.764 28.764-147.662 43.458-221.521a70856.262 70856.262 0 0144.498-221.56c.252-1.122-2.196-1.623-5.467-2.358-11.284-14.891-16.925-22.299-16.925-22.223z" fill="#FA3239"/>
        <path d="M638 500c0 55.228 46.562 100 104 100s104-44.772 104-100" fill="#FA3239"/>
      </g>
      <g blush:width="863" blush:height="528" blush:component="Body">
        <g fill="#543629" blush:skin="600">
          <path d="M1112.378 418.641c14.315-4.128 23.925.563 29.347 5.153 2.71 2.28 2.804 5.865 1.207 8.752-1.594 2.88-4.877 5.03-8.774 4.384-3.907-.66-7.974-2.75-13.23-3.805-5.248-1.048-11.604-.987-20.169 2.439-4.27 1.73-6.591 1.692-7.393.726-.813-.987-.116-2.905 1.509-5.188 3.288-4.533 10.327-10.416 17.503-12.46M1070.124 429.16c-8.048-1.686-16.295-.438-23.28 3.914-2.096 1.362-4.218 2.632-6.337 3.907l-3.638 2.197-3.762 2.145-3.76 2.143-3.78 2.021-3.777 2.016-3.79 1.885c-10.095 5.015-20.249 9.273-30.183 12.43-9.923 3.162-19.625 5.192-28.524 5.809-1.146.164-2.196.1-3.28.129l-3.231.08c-.552.046-1.043-.037-1.559-.064l-1.533-.1-3.065-.154a67.429 67.429 0 01-11.841-2.34c-15.855-4.495-32.452-15.803-47.446-31.024-15.035-15.215-28.595-33.965-40.245-53.976-4.824-8.282-13.456-15.976-21.616-19.106-8.151-3.109-20.7-5.037-30.617-2.93-9.919 2.11-15.27 11.491-17.413 20.747-2.155 9.236 6.821 24.562 12.594 34.471 6.949 11.949 14.522 23.583 22.838 34.846 8.34 11.248 17.409 22.139 27.55 32.377 10.147 10.218 21.305 19.857 33.925 28.176 12.579 8.31 26.642 15.357 41.999 19.794A133.343 133.343 0 00940 533.185c1.998.155 3.993.262 5.991.384 1.99.088 4.009.28 5.977.262l5.897-.1c1.961-.054 3.949-.036 5.856-.253 15.51-1.08 30.196-4.355 44.073-8.755 13.886-4.422 27.005-9.992 39.562-16.222l4.703-2.347 4.611-2.457 4.602-2.467 4.516-2.566 4.509-2.577 4.305-2.594c2.508-1.51 5.018-3.02 7.46-4.601 8.218-5.131 13.316-13.182 14.934-21.577 1.593-8.463-.302-17.297-5.695-24.632-5.402-7.349-13.181-11.886-21.177-13.524z"/>
          <path d="M1079.378 490.596c-5.042 3.067-12.342-7.572-18.97-20.721-3.323-6.57-6.511-13.753-9.175-20.167-2.66-6.416-4.794-12.06-5.918-15.661l4.8-3.052c7.118-4.632 13.784-8.62 19.987-12.167 6.225-3.496 12.008-6.481 17.423-8.941 10.804-4.957 20.078-7.91 27.873-9.556 15.563-3.324 25.255-1.355 28.057-1.24 1.386.045 2.693.606 3.792 1.471a8.54 8.54 0 012.582 3.312c1.125 2.576.85 5.62-1.708 7.338-2.424 1.65-15.023 6.142-26.525 12.153-11.498 6.092-21.979 13.799-20.353 24.378.992 6.398 4.136 9.329 8.133 10.414 4.004 1.107 8.773.305 12.88-.544 4.881-1.034 8.679 1.802 10.26 5.45 1.586 3.647.897 8.11-3.144 10.088-3.369 1.69-7.514 3.162-11.905 4.607a401.33 401.33 0 01-13.84 4.032c-9.317 2.658-18.427 5.134-24.249 8.806"/>
        </g>
        <path d="M849.667 504.556H625.186V397.494c0-8.8 2.675-16.976 7.257-23.758C640.079 362.432 653.012 355 667.68 355h129.493c23.469 0 42.494 19.026 42.494 42.494l10 107.062z" fill="#0A1B45"/>
        <path stroke="#FFF" stroke-width="3" stroke-linecap="round" d="M827.185 368.556h-189.5M838.185 398.556h-211.5M841.5 428.5l-214.815.056M844.5 458.5l-217.815.056M847.5 488.5l-220.815.056"/>
        <path d="M487.62 667.738c1.08 2.831 2.425 5.173 4.053 7.157 3.193 3.95 6.953 6.311 10.186 7.751 3.235 1.436 6.461.072 8.308-2.415.894-1.254 1.587-2.752 1.718-4.36.14-1.606-.23-3.308-1.289-4.915-2.114-3.217-5.639-6.137-8.533-10.61a28.103 28.103 0 01-3.604-8.128c-.415-1.624-.81-3.434-.916-5.378-.122-1.95-.098-4.085.104-6.433.81-9.395-2.51-9.068-5.995-4.33-1.717 2.371-3.569 5.801-4.76 9.662-1.138 3.881-1.785 8.131-1.454 11.996.331 3.866 1.105 7.174 2.181 10.003z" fill="#543629" blush:skin="600"/>
        <path d="M490.796 621.915a31.949 31.949 0 01-4.124-5c-1.199-1.8-2.144-3.697-2.934-5.704-1.562-4.006-2.345-8.397-2.263-12.917.041-2.258.3-4.548.782-6.836.505-2.275 1.133-4.594 2.201-6.777l4.061-8.692c2.318-4.896 4.547-9.84 6.947-14.692l7.46-14.42 3.738-7.204 3.99-7.056 8.012-14.092a70.669 70.669 0 012.071-3.48l2.127-3.44 4.258-6.881c2.868-4.566 5.6-9.23 8.665-13.655l8.994-13.417 2.251-3.353 2.348-3.276 4.714-6.536c12.424-17.563 25.938-34.2 39.66-50.597l10.56-12.036 5.287-6.01 5.436-5.85 10.88-11.698 11.153-11.383c6.33-6.578 14.927-9.587 23.287-9.407 8.387.193 16.632 3.693 22.886 10.32 6.255 6.629 9.384 15.082 9.5 23.283.126 8.228-2.877 16.1-8.733 22.199l-10.363 10.57-10.06 10.826-5.035 5.41-4.87 5.542-9.734 11.089c-12.593 15.075-25 30.314-36.292 46.305l-4.3 5.953-2.14 2.98-2.04 3.048-8.166 12.18c-2.796 4.016-5.246 8.239-7.845 12.37l-3.855 6.227-1.928 3.11a60.249 60.249 0 00-1.874 3.144l-7.223 12.719-3.607 6.362-3.355 6.489-6.723 12.975c-2.156 4.363-4.145 8.805-6.23 13.203l-3.657 7.804c-.967 1.958-1.917 3.862-3.138 5.576a30.56 30.56 0 01-4.062 4.728c-3.004 2.852-6.566 5.099-10.46 6.667-1.938.787-3.999 1.39-6.04 1.837a33.734 33.734 0 01-6.262.775 33.272 33.272 0 01-12.889-2.18c-4.257-1.627-7.985-4.056-11.066-7.102z" fill="#694D3D" blush:skin="500"/>
        <path d="M523.043 592.919c-13.782-5.194-30.108-9.234-37.683-10.17-.946 2.019-1.905 4.03-2.737 6.102a294.491 294.491 0 00-5.21 13.28 256.132 256.132 0 00-2.19 6.26l-.996 3.035-.817 3.017c-2.1 7.96-3.563 15.23-4.515 21.83-.265 1.64-.384 3.278-.505 4.865a149.72 149.72 0 00-.27 4.639 129.46 129.46 0 00-.085 8.543c.064 2.687.216 5.217.44 7.596.23 2.38.482 4.597.942 6.714 3.401 16.847 9.881 24.434 11.278 26.895 2.81 4.873 12.342 4.134 12.943-1.823.144-1.413-.247-5.382-.57-10.674a200.77 200.77 0 01-.363-8.765c.013-3.123.222-6.385.54-9.658.33-3.27.821-6.537 1.538-9.623.358-1.543.773-3.04 1.251-4.47.48-1.428 1-2.797 1.693-4.038 2.677-5.003 6.445-8.547 11.748-9.217 6.398-.805 10.064 1.477 12.286 4.86 2.22 3.39 2.987 7.902 3.512 11.759.594 4.604 4.692 7.129 8.587 7.504 3.883.364 7.821-1.284 8.303-5.163.421-3.27.502-7.122.462-11.27l-.124-6.401.098-6.514c.098-4.355.284-8.69.748-12.658.231-1.984.532-3.877.926-5.631a26.465 26.465 0 011.66-4.73c2.221-4.742-9.105-10.906-22.89-16.094zM781.185 355c0 16.556-8 37.556-34.5 37.556-31.5 0-44.5-17.919-44.5-37.556h79z" fill="#694D3D" blush:skin="500"/>
      </g>
      <g blush:width="127" blush:height="211" blush:component="Head">
        <path d="M695 291h103v73.774C798 378.705 774.944 390 746.5 390S695 378.705 695 364.774V291z" fill="#D7DBE2"/>
        <path d="M711 293h-16v-43a8 8 0 0116 0v43zM798 285h-16v-35a8 8 0 0116 0v35z" fill="#D7DBE2"/>
        <path d="M764.234 377.701h-7.338c-34.185 0-61.896-26.927-61.896-60.145v-28.213c0-25.43 21.214-46.044 47.384-46.044h8.23c26.17 0 47.386 20.615 47.386 46.044v55.548c0 18.12-15.117 32.81-33.766 32.81" fill="#D7DBE2"/>
        <path d="M761.132 345h-7.793C730.999 345 723 330.425 723 312.447v-19.894c0-17.978 7.998-32.553 30.339-32.553 18.59 0 33.661 12.128 33.661 27.089v37.094C787 335.68 775.418 345 761.132 345" fill="#694D3D" blush:skin="500"/>
        <path d="M753.339 260c12.17 0 22.832 5.198 28.745 12.985-12.307.748-28.416-5.964-34.037-7.985 0 16.096-13.118 20.538-24.655 20.965C725.235 271.145 733.803 260 753.34 260z" fill="#000"/>
      </g>
      <g fill="none" blush:width="61" blush:height="61" blush:component="Expression">
        <path fill="#000" fill-rule="nonzero" d="M763.198 290.397l2.95-.547 4.287 23.15h-9.874v-3l6.267-.001z"/>
        <g stroke="#000" stroke-width="3">
          <path d="M751.195 312.572c0 4.75 4.75 8.708 9.501 8.708M764.446 290.11l3.958 21.376h-8.07"/>
          <path d="M764.446 290.11l3.958 21.376h-8.07"/>
          <path d="M764.446 290.11l3.958 21.376h-8.07M738.56 285.067S744.629 279 754.336 279M780.207 284.656s-5.312-5.312-13.813-5.312M743.334 291.236c2 5 11 5 12 0M768.334 291.236c2 5 11 5 12 0"/>
        </g>
      </g>
    </g>
  </g>
</svg>
