<svg viewBox="175.2 262.759 1839.6 875.862" xmlns="http://www.w3.org/2000/svg" xmlns:blush="http://design.blush" overflow="visible" width="1000" height="476.115">
  <g fill="none" fill-rule="evenodd">
    <g opacity=".754" blush:width="1690" blush:height="950" blush:component="Background">
      <path d="M524.788 491.515c-.574 22.164 28.869 10.82 16.75-5.155-8.042-9.442-14.356-5.328-16.75 5.155m61.498 84.863c2.156 23.936 6.676 54.896-11.502 73.551-8.779 8.003-21.751 5.622-32.504 3.885-29.586-5.347-35.508-35.866-40.058-60.863-1.611-4.602-4.768 2.248-6.085 3.879-13.609 20.276-29.145 40.082-51.003 51.932-39.808 20.966-64.007-16.195-56.047-53.416 2.856-20.188 19.828-33.58 33.594-47.017 6.736-4.855 1.694-6.107-3.806-5.232-37.159 6.405-55.116-3.895-51.799-43.805 3.808-25.78 32.668-36.913 54.485-44.302 6.741-1.956 6.736-1.872 3.94-8.373-4.695-10.924-8.959-21.96-11.444-33.68-5.16-24.497 7.898-58.437 35.535-59.505 34.688-2.387 53.212 30.919 68.208 56.334.05-49.746 52.137-79.737 98.41-75.822 24.75.304 37.424 24.892 37.645 47.151.606 18.016-13.89 31.631-21.01 46.915 34.666 2.978 79.838 11.444 92.71 48.653 2.525 6.415.692 12.006-3.957 16.827-11.698 14.558-45.759 14.682-40.894 20.696 7.08 22.904 12.715 46.112 15.578 69.943 2.104 14.496-5.616 24-17.041 31.143-35.612 21.493-71.795-13.449-92.955-38.894" fill="#F55B80"/>
      <path d="M933.542 436.958c.817-43.33 80.278-35.248 84.166-60.04 3.898-18.105 8.604-36.886 24.52-48.299 35.717-31.037 74.867-23.898 109.203 4.938 28.52 24.821 46.912-81.722 125.816-27.42 31.503 16.127 40.725 79.458 65.162 78.691 25.923-7.261 50.3 7.275 66.411 27.083 6.1 12.807 62.63 56.283 30.938 61.54-36.886.262-73.625-4.016-110.061-7.912-54.034.19-108.431 1.26-162.608.744-72.8-4.161-145.625 3.531-218.107-.981-4.255-.356-11.01-.781-10.55-6.493-.985-7.414-3.948-14.344-4.89-21.851" fill="#7DB4DB"/>
      <path d="M1438.177 874.546c39.01-2.965 40.138-53.97 1.214-61.02-42.483-10.447-47.425 64.117-1.214 61.02m3.627-222.36c9.36-10.414 29.853-47.115 44.247-28.305 19.89 33.674 32.917 70.158 53.55 103.65-25.66-10.809-52.71 7.077-53.648 34.461-1.391 41.522 63.707 40.784 73.068 4.58 2.66-8 22.293 34.908 24.501 39.373 1.006 2.469 2.101 4.721-.632 6.596-26.129 15.717-24.815 55.425 7.951 63.014 4.61 1.69 11.772-1.38 13.906 4.4 7.948 17.753 15.268 35.757 21.737 54.105 12.316 29.967-25.45 22.325-43.347 22.944-3-.016-3.366-.614-3.265-3.6.454-13.693-5.022-24.38-16.206-32.274-7.65-7.954-16.02-15.681-27.464-9.502-15.352 8.353-25.587 25.631-24.6 43.217.186 2.971-1.69 3.437-4.184 3.282-39.1.475-78.282 2.233-117.303-1.079-8.798.442 11.479-25.082-9.538-42.065-22.31-35.004-72.582 6.753-51.859 38.36-131.382-22.79-103.478 8.301-63.854-76.198 4.749-9.753 36.119 22.265 60.663-11.792 16.716-24.47-20.517-35.115-17.242-49.764 9.608-11.219 18.9-22.718 28.372-34.053 3.19-5.52 6.724 2.876 10.302 4.166 35.94 27.086 84.753-48.141 38.879-63.754 1.536-4.23 32.938-42.962 39.56-48.658-1.31 25.128 33.181 43.883 49.24 21.091 21.983-23.745-9.787-50.617-32.834-42.195" fill="#EBBF5E"/>
      <path d="M1785.434 333.884c-2.344 23.91-2.325 48.63-14.459 70.162-15.79 33.219-34.062 68.827-67.135 87.89-81.914 50.315-165.99 6.45-179.471-86.703-2.821-16.259-4.398-32.73-6.935-49.045-2.641-10.688 2.869-21.762-1.194-31.857-1.744-2.564-.829-4.583 2.14-6.87 39.61-22.432 81.527 15.202 98.385 49.604 9.797 14.679 13.377-73.03 20.96-78.562 8.054-13.313 26.823-5.652 37.763-.065 16.523 9.702 15.893 31.773 17.37 48.602 1.574 6.433-.265 32.863 10.654 18.591 17.954-22.666 14.773-54.225 30.884-77.646 22.907-27.526 53.588 35.615 51.038 55.899" fill="#60D6E1"/>
      <path d="M1751.608 737.49c.552 49.773 8.264 98.786 14.711 148.024 1.786 15.896 3.043 31.853 4.547 47.782.394 4.176.122 4.647-4.276 4.611-14.52.17-27.93-6.196-41.964-7.494-8.197-.889-14.094-4.689-17.64-12.314-13.769-24.651-26.285-48.686-4.263-73.132 46.4-64.716-42.21-85.789-4.221-146.057 42.86-45.854 17.79-59.834 12.469-111.375 3.451-52.015 84.095-65.799 91.271-7.267 8.157 31.303-32.511 84.866-15.97 103.34 30.514 30.49 22.606 70.205 24.27 109.199 6.206 35.695 24.942 61.224 7.22 99.332-5.24 11.454-6.218 27.007-20.214 31.183-7.263-.381-19.812 19.227-20.846 4.873-2.94-47.62-12.032-94.47-16.482-141.925-2.11-25.521-1.36-51.087-2.165-76.609-9.098-15.283-5.31 23.679-5.983 27.796-.154.01-.308.023-.464.033" fill="#52DC82"/>
      <path d="M589.273 962.132c5.237 9.778-44.737 7.462-52.04 9.766l-.04-.469c-5.798.901-13.047-2.481-17.278 2.915-4.92 5.102-10.273-5.179-8.82-9.697.476-2.013.786-4.199.533-6.227-1.793-14.306-5.58-28.174-9.366-42.052-.308-8.215-9.842-23.61-2.368-29.138 20.498-12.11 40.532-24.972 60.7-37.613 11.308-12.995 24.154 100.504 28.679 112.515zm51.701-247.74c14.656 14.674 26.525 31.327 35.54 49.948 6.881 18.259 22.434 46.986 18.385 65.648-22.406 36.636-40.167 78.905-35.866 122.602.495 7.416.448 7.9-6.962 8.87-8.387-.927-56.436 9.118-55.22.66-7.348-38.843-15.47-77.56-23.726-116.215-.836-9.38 13.408-12.363 18.367-19.197 15.656-11.812 33.886-40.47.864-40.998-8.238-2.042-28.92 7.762-25.744-6.797 1.803-23.56 9.856-44.786 24.126-63.687 5.865-7.794 17.07-3.086 25.44-4.35v-.124c8.191 1.056 18.398-2.88 24.796 3.64zm58.733 123.797c3.008 18.542 19.401 113.02 5.043 120.156-10.966.438-21.93.845-32.894 1.22-5.02.171-4.873.105-5.536-4.832-4.194-40.581 10.146-84.167 33.387-116.544zm140.457-8.216c2.678 4.842 2.662 4.925-1.184 8.742-29.601 29.246-43.731 68.579-45.555 109.492-.407 5.184-.762 5.543-6.133 5.87a1022.648 1022.648 0 01-66.296 3.26c-8.542 1.229-2.43-14.113-3.674-18.884-.27-36.432-5.256-71.449-11.568-107.02 4.191-20.099 27.305-39.416 44.233-50.637 37.228-20.705 73.177 19.43 90.177 49.177zm20.562 80.375c-1.157 10.525-2.196 21.063-3.52 31.566-.149 9.18-12.93 5.932-19.275 7.733-10.553.981-21.143 1.629-31.692 2.618-5.015.818-5.58.445-5.474-4.79.276-13.564 2.77-26.789 6.502-39.794 6.557-22.842 17.357-43.35 33.813-60.716 11.36-17.556 20.453 55.955 19.646 63.383zm67.238-59.651c12.996 26.669 26.215 53.232 39.396 79.81 2.426 4.892 2.067 5.731-3.359 6.233-31.855 2.438-63.494 6.91-95.326 9.554-3.521.144-4.324-.785-3.876-4.51 5.737-33.03 2.833-66.247-9.646-97.384-3.091-8.046-3.145-8.001 3.834-12.926 14.306-10.093 30.41-15.429 47.592-17.887 8.003-2.706 16.124 30.553 21.385 37.11zm-2.916-38.277c61.874-1.586 102.176 55.455 120.135 108.419.97 3.668 3.337 7.592-2.295 7.345-11.807-1.044-65.218 12.077-67.201 2.287-19.683-36.78-36.485-75.029-54.66-112.574-2.549-4.685-.92-5.89 4.02-5.477zm84.153-130.798c4.432 6.747 39.953 33.981 32.575 39.21-17.5 23.411-14.766 53.842-5.752 80.067 13.225 32.676 18.335 70.899 42.4 97.855 15.085 18.078 57.51 23.447 59.222-7.422-3.927-63.464-37.654-124.92-80.535-171.03.465-14.698 43.426-6.66 53.443-2.71 12.948 3.815 9.723 1.43 15.266 12.973 9.803 23.975 23.569 46.271 34.913 69.172 2.106 21.61 6.071 43.157 5.25 64.913l.814.044c-.806 9.477-1.654 18.95-2.379 28.434l.072.77c.728 7.899 1.334 16.48-8.123 18.877-31.918 8.701-65.432 9.092-98.05 13.818-3.825.887-4.21-2.645-5.106-5.336-9.225-29.072-24.075-55.003-44.117-77.965-14.83-16.993-32.838-29.11-55.048-34.42-10.04-5.04-37.614.366-40.75-8.12-14.73-34.74-28.854-70.089-35.108-107.487-.5-2.845.107-3.689 2.858-4.004 34.878-3.884 69.87-6.61 104.89-8.79 7.53.855 17.298-4.555 23.265 1.15zm43.815 45.348c41.391 43.503 68.996 100.703 77.513 160.085.801 28.808-37.576 20.514-49.225 3.93-12.948-14.618-17.297-34.241-24.294-51.99-10.942-35.306-33.705-76.425-10.743-111.543 2.84-4.17 3.278-4.14 6.749-.482zM563.628 834.647c.489 3.348-1.067 4.982-3.491 6.53-21.55 13.784-42.45 27.567-64.84 40.115-5.495-80.254-26.896-64.755 29.41-79.54 46.447-10.68 31.05-7.161 38.921 32.895zm24.53-42.186c17.293.364 20.23 5.707 8.35 19.17-3.356 3.2-25.933 28.322-26.58 17.297-1.572-32.205-14.428-35.377 18.23-36.467zm282.675-97.03c2.592 11.202 4.831 22.507 7.97 33.556 6.844 24.083 16.043 47.34 25.903 70.337 2.94 6.857 2.919 6.753-4.297 7.958-16.785 2.801-32.292 8.807-46.214 18.68-4.375 4.05-6.55 3.563-8.867-1.949-42.425-68.652-94.196-76.946-141.779-7.613-13.173-38.04-25.987-76.949-56.066-106.096 72.75-5.617 144.877-12.477 217.48-19.234 4.795-.541 4.723-.598 5.87 4.361zm-292.655 15.065c1.667.43 3.336.857 5.004 1.286-46.959 74.33 5.664 73.529-60.868 83.238-6.85-.467-39.895 15.46-37.788 4.596-.805-11.8-1.528-23.637-3.559-35.306-4.224-10.464-17.456-28.41.545-33.98 31.46-9.59 63.217-20.523 96.578-19.058l.088-.776zm554.144 15.136c7.897 3.444 22.86 5.184 25.302 13.953 1.69 13.97 2.799 27.749 2.611 41.917-11.526-17.468-19.532-36.612-27.913-55.87zm23.24.896c-9.703-5.792-22.954-6.418-30.405-14.645-.998-6.693-22.916-41.882-13.499-42.118 55.127-4.11 44.478-7.455 43.904 56.763zM1115.63 710.7c-84.173-23.516-42.82 31.397-98.086-32.553 25.941-3.052 52.639-4.328 78.8-7.248 6.905-1.246 16.038 32.779 19.286 39.801z" fill="#60D6E1"/>
      <path d="M1332.295 576.97c3.816 1.28 9.346 4.112 4.891 8.382-21.139 32.452-39.701 67.531-67.532 94.824-21.862-13.955-17.018-16.2-1.873-32.607 21.953-22.745 42.118-49.174 64.514-70.598zm18.384 9.047c41.545 4.973-51.186 74.194-61.957 84.05-.147-.225-.296-.449-.444-.673 21.004-25.271 37.242-53.846 55.016-81.368 2.659-4.123 2.79-3.976 7.385-2.009zm-26.205-12.642c-22.394 28.786-47.376 54.723-71.946 81.57-2.845 3.092-3.274 3.024-5.183-.697-7.502-10.555 5.391-19.756 11.39-28.23 14.716-17.743 29.316-35.614 44.106-53.28 6.066-5.457 13.549.412 21.633.637zm-27.677-4.168c-17.582 22.972-36.701 44.277-54.63 66.94-4.305 4.794-5.433-6.754-6.77-9.378-.673-2.675-.038-5.186 1.749-7.57 11.542-15.4 23.066-30.815 34.34-46.41 5.684-8.227 16.73-4.566 25.311-3.582zm-30.391-.519c-11.1 15.213-21.056 30.853-33.944 45.808-1.734-14.568-11.33-29.751-1.318-41.965 0-9.327 28.639-4.924 35.262-3.843z" fill="#F55B80"/>
    </g>
    <g blush:width="464" blush:height="648" blush:component="Plants/Big Plant">
      <path d="M376.58 544.126s-16.82-56.33-79-59.086c-25.54-1.13-17.743 21.988-48.003 41.414-29.526 18.956-72.53 11.178-70.508 48.548 1.314 24.292 8.878 35.136 8.878 35.136 77.806-7.792 129.45 16.824 161.218 66.054-4.208-59.58 4.538-104.062 27.416-132.066" fill="#870CF7"/>
      <path d="M400.92 1130.626h-51.66c-9.757 0-17.903-7.444-18.783-17.162l-7.958-87.984h105.144l-7.958 87.984c-.88 9.718-9.026 17.162-18.784 17.162" fill="#000"/>
      <path d="M365.681 1025.655c-14.61-117.832-2.254-215.732 36.722-290.978 38.34-74.016 103.494-128.192 193.652-161.022l.978 2.692c-89.46 32.574-154.088 86.288-192.088 159.646-38.706 74.724-50.96 172.062-36.424 289.31l-2.84.352z" fill="#000"/>
      <path d="M382.14 1025.655l-2.84-.352c23.642-191.678 7.162-313.478-50.384-372.36-32.774-33.532-80.148-47.446-140.828-41.382l-.284-2.848c61.58-6.162 109.748 8.044 143.158 42.23 31.176 31.898 50.1 80.274 57.852 147.896 6.906 60.23 4.722 134.424-6.674 226.816M401.39 739.839c-11.055-51.278-5.323-101.362 33.993-149.06 0 0 13.946 5.7 42.392-9.664 21.72-11.734 44.512-26.964 80.184-22.17C590.903 563.373 596.545 575 596.545 575c-91.218 33.214-156.752 87.76-195.158 164.836" fill="#000"/>
      <path d="M187.487 611.78c77.808-7.79 129.624 19.166 161.676 67.006 0 0-8.196-64.144-36.474-76.25-16.274-6.966-45.33 3.236-84.536-.776C188.947 597.746 179.07 575 179.07 575c1.314 24.294 8.418 36.78 8.418 36.78" fill="#BE6FFB"/>
      <path d="M365.367 1023.03c-3.8-82.692 10.876-173.984 148.536-224.132l.98 2.686C378.965 851.1 364.475 941.246 368.227 1022.898l-2.86.132z" fill="#000"/>
      <path d="M514.392 803.645c-63.904 23.28-100.692 52.924-122.09 90.54l-1.208-2.376c-.032-46.72 7.368-91.34 30.592-135.824 0 0 55.932-33.008 115.072-14.214 0 0-8.748 8.208-10.142 16.57-1.394 8.36 3.144 32.3-12.224 45.304" fill="#BE6FFB"/>
      <path d="M382.45 1023.12l-2.846-.312c.19-1.738 18.478-174.094-31.076-198.65-23.044-11.422-42.016-9.728-62.102-7.922-23.842 2.134-50.872 4.556-89.422-14.716l1.28-2.558c37.824 18.908 63.274 16.628 87.886 14.422 20.498-1.838 39.862-3.57 63.63 8.206 21.67 10.74 33.736 48.006 35.862 110.764 1.572 46.426-3.164 90.328-3.212 90.766" fill="#000"/>
      <path d="M197.086 802.083c70.542 35.268 101.214-2.504 152.242 22.786 10.066 4.99 17.238 13.802 22.528 27.94l-.002.002c-9.144-65.978-28.702-128.212-84.53-177.412 0 0-62.784 2.608-81.878 46.914-19.092 44.306-8.36 79.77-8.36 79.77" fill="#BE6FFB"/>
    </g>
    <g blush:width="240" blush:height="342" blush:component="Plants/Small">
      <path d="M1889.582 735.053c-19.892 0-36.016-16.126-36.016-36.016v-36.016h72.03v36.016c0 19.89-16.124 36.016-36.014 36.016" fill="#870CF7"/>
      <path fill="#000" d="M1851 883h4.77V703H1851zM1923 883h4.77V703H1923zM1887 883h4.77V703H1887z"/>
      <path d="M1920.255 655.344s-15.246.402-26.48-12.638c-11.232-13.04-8.024-35.706-8.024-35.706s23.714 6.82 30.614 19.658c6.898 12.838 3.89 28.686 3.89 28.686M1925.596 675.936s-15.188-.324-23.42 10.978c-8.232 11.304-3.83 29.622-3.83 29.622s15.288-3.028 23.124-12.686c9.92-12.226 4.126-27.914 4.126-27.914" fill="#BE6FFB"/>
      <path d="M1942.249 697.645s14.174 8.226 15.058 21.044c1.284 18.608-7.826 26.436-7.826 26.436s-12.954-3.208-15.396-16.682c-2.442-13.474 8.164-30.798 8.164-30.798" fill="#000"/>
      <path d="M1931.944 654.262c4.548-.682 8.03-3.792 10.038-3.124 2.006.668 7.138 10.26 6.246 18.96-.894 8.7-12.608 20.076-12.608 20.076s-10.474-3.734-14.712-15.272c-4.238-11.538.706-19.184 1.884-20.95 1.176-1.766 6.298.736 9.152.31" fill="#BE6FFB"/>
      <path d="M1938.736 686.852s7.54-7.416 20.848-12.886c13.306-5.472 24.544-2.512 24.544-2.512s-8.28 9.166-19.074 13.898c-10.794 4.73-25.578 4.138-25.578 4.138l-.74-2.638z" fill="#BE6FFB"/>
      <path d="M1930.695 688.69c4.03-1.15 6.614-4.678 8.036-3.894 1.422.784 5.3 7.082 5.536 16.406.236 9.324-7.554 21.716-7.554 21.716s-5.65-2.602-9.434-12.274c-3.784-9.674-3.902-18.868-2.722-20.47 1.18-1.602 2.834-.538 6.138-1.484" fill="#BE6FFB"/>
      <path d="M1923.116 653.123s-2.398-6.148-2.384-10.62c.012-4.472 7.16-14.088 8.482-15.06 1.324-.97 6.602-.088 11.826-1.346s9.934-1.994 12.73-1.772c2.796.22 5.98 2.458 5.98 2.458l-36.634 26.34z" fill="#000"/>
      <path d="M1923.896 655.346s-2.004-4.52-1.122-7.432c.882-2.912 12.882-16.942 16.412-18.792 3.528-1.854 5.468-.442 10.674-1.942 5.206-1.5 9.618-1.766 12.088 1.322 0 0-6.176.884-9.794 4.942-3.616 4.058-7.5 9.882-11.998 14.116-4.5 4.238-13.942 8.296-13.942 8.296l-2.318-.51zM1929.615 726.883s5.608 6.502 4.47 18.242c-1.138 11.74-11.536 17.876-11.536 17.876s-8.214-6.488-6.184-18.936c2.03-12.448 13.25-17.182 13.25-17.182M1942.674 741.82s10.682 7.38 12.732 19.269c2.05 11.884-6.366 25.82-6.366 25.82s-10.428-5.092-12.486-18.034c-2.836-17.824 6.12-27.054 6.12-27.054M1922.792 653.951s-12.75-4.342-23-.828c-10.254 3.514-15.47 17.486-15.47 17.486s16.188 3.834 25.182-1.024c8.994-4.854 13.288-15.634 13.288-15.634M1942.336 817.317c3.702-1.302 12.862 3.828 11.484 18.066-1.378 14.24-12.556 20.67-12.556 20.67s0-5.97-1.838-9.492c-1.836-3.522-4.984-10.258-5.708-15.924-.722-5.664.35-10.41 8.618-13.32M1934.237 801.7c2.758 2.605 3.348 14.147-2.976 20.823-6.564 6.926-21.23 7.044-21.23 7.044s-.162-13.112 5.198-20.308c5.358-7.194 16.032-10.368 19.008-7.56" fill="#BE6FFB"/>
    </g>
    <path fill="#EECFA2" d="M1777 883h230v40h-230z"/>
    <path fill="#DDBA86" d="M1960 923h31.113L2007 1131h-22.062zM1824 923h-31.113L1777 1131h22.062z"/>
    <g transform="translate(413 489)">
      <rect fill="#95E4D3" x="46" y="376.5" width="1272" height="265" rx="70"/>
      <path d="M169 332.5h1027v125c0 11.046-8.954 20-20 20H189c-11.046 0-20-8.954-20-20v-125z" fill="#53D7BC"/>
      <rect fill="#53D7BC" x="123" y=".5" width="1120" height="421" rx="70"/>
      <rect fill="#95E4D3" x="177" y="316.5" width="1010" height="153" rx="12"/>
      <rect fill="#95E4D3" y="220.5" width="168" height="421" rx="40"/>
      <rect fill="#95E4D3" x="1196" y="220.5" width="168" height="421" rx="40"/>
    </g>
    <g blush:width="755" blush:height="859" blush:component="Master/Character/Sitting">
      <g blush:has-customizable-skin="true">
        <g blush:width="525" blush:height="423" blush:component="Legs Sitting">
          <path d="M798.346 1010.68c-31.123-106.017-28.584-47.107 53.48-106.912 17.23-13.153 41.661-32.722 29.617-57.763-5.223-10.587-11.687-19.44-20.597-25.585-30.866-20.269-69.743-16.543-104.846-21.986L764.912 720c61.554 5.908 128.836 8.122 168.955 68.33 18.044 26.24 28.948 60.15 22.036 92.848-10.365 50.124-52.133 83.548-91.439 106.223-18.851 10.767-38.085 19.6-58.12 27.189-3.368 1.268-6.984-.508-7.998-3.91" fill="#543629" blush:skin="600"/>
          <path d="M825.053 1013.85a420.663 420.663 0 0015.947-7.252L807.095 922c-11.729 5.603-23.86 10.687-36.095 14.81l7.929 30c1.56-.035 4.265-.41 5.87-.577a539.042 539.042 0 01-1.153 18.423c4.942 18.692 15.009 56.788 19.914 75.344 2.061-.653 5.076-1.696 7.134-2.418 17.866-1.522 8.17-31.377 14.359-43.733" fill="#0A1B45"/>
          <path d="M741.415 706.375c0 .176-60.277 86.46-52.767 87.409 17.786 12.336 172.944-3.13 172.944 41.526 0 44.656-48.363 59.788-75.118 70.8l13.03 36.136a340.104 340.104 0 0016.544 4.463 385.45 385.45 0 01-9.441 15.232L833.312 1036c76.98-32.708 172.172-106.324 144.925-209.512-10.823-40.064-36.693-75.19-69.94-96.126-31.75-20.218-69.574-21.284-105.63-23.505-19.47-1.452-61.252-.658-61.252-.482z" fill="#CC2935"/>
          <path d="M691.091 806h-9.182C631.7 806 591 761.676 591 707h191c0 54.676-40.701 99-90.909 99" fill="#FA3239"/>
          <path d="M721.467 1027.978l-12.484-64.621c-.671-3.5 1.062-6.857 3.919-7.564 39.938-10.917 86.445-25.79 114.154-58.608 10.953-12.818 8.359-29.348 1.204-43.506-24.427-48.815-81.23-46.94-126.26-59.692L718.216 717c47.237 10.886 101.115 17.633 140.03 53.452 46.406 41.597 68.108 119.895 26.958 174.105-31.519 42.493-79.55 63.9-125.952 79.598a443.667 443.667 0 01-30.272 8.66c-3.455.855-6.843-1.335-7.513-4.837" fill="#694D3D" blush:skin="500"/>
          <path d="M748.385 1035.003a459.596 459.596 0 0016.615-5.157L740.052 942c-12.462 4.114-25.254 7.693-38.052 10.367l4.981 30.594c1.583.143 4.328.093 5.966.115a553.946 553.946 0 01-3.003 18.086c3.105 19.063 9.428 57.914 12.51 76.838 1.82-.367 5.505-1.124 7.299-1.533 17.4.602 10.56-25.459 18.632-41.464" fill="#0A1B45"/>
          <path d="M683.625 707.482c-.183 2.792-60.247 72.142-53.022 73.894 10.131 8.662 42.61 24.993 54.779 24.993 57.292 0 123.84 9.54 123.84 53.078 0 21.607-57.492 55.287-89.416 64.603l9.217 37.545a376.81 376.81 0 0016.058 6.456 418.644 418.644 0 01-11.035 14.005l18.89 76.944c87.322-25.32 200.424-93.793 175.577-210.362-11.02-51.348-45.323-96.621-89.194-118.697-43.066-23.57-70.884-20.995-94.238-22.941 0-.026-20.486.135-61.456.482z" fill="#FA3239"/>
          <path d="M647 806c-30.928 0-56-25.072-56-56v-43h191c0 54.676-40.701 99-90.909 99H647z" fill="#FA3239"/>
        </g>
        <g blush:width="863" blush:height="528" blush:component="Body">
          <path fill="#694D3D" blush:skin="500" d="M605 660h180v48H605z"/>
          <path d="M627 559h136c22.091 0 40 17.909 40 40v77H587v-77c0-22.091 17.909-40 40-40z" fill="#0A1B45"/>
          <path d="M869.535 786.352c2.894 35.369-27.315 38.46-54.946 39.026-20.373 1.02-40.718.868-61.158-1.067-38.121-3.761-77.52-14.23-107.91-38.838-23.43-19.017-39.725-45.93-49.382-73.762-10.917-31.144-15.006-64.611-15.495-96.772-.367-19.231 14.94-34.926 33.964-33.43 17.316 1.383 31.667 15.346 32.03 32.522.26 17.917 1.875 35.662 5.343 52.357 6.866 33.16 21.25 64.796 52.788 78.683 27.737 12.65 59.416 14.99 89.762 14.929 29.898.845 65.387-14.101 75.004 26.352" fill="#694D3D" blush:skin="500"/>
          <path d="M892.88 806.568c.977 4.877-2.472 9.672-7.682 10.598-22.624 4.011-45.33 6.802-68.475 8.09-5.325.291-9.798-3.596-9.958-8.55-.164-4.982 3.852-9.142 8.955-9.422 22.32-1.238 44.394-3.949 66.312-7.838 5.015-.892 9.87 2.252 10.849 7.123" fill="#694D3D" blush:skin="500"/>
          <path d="M900.78 788.559c1.128 4.84-2.154 9.726-7.221 10.742-10.452.303-37.252 12.667-39.825-2.591-1.929-14.45 26.455-11.158 36.271-15.056 4.84-.97 9.641 2.064 10.775 6.905" fill="#694D3D" blush:skin="500"/>
          <path d="M899.056 772.533c3.35 15.065-25.729 12.582-35.304 15.722a8.886 8.886 0 01-10.112-7.662c-2.092-14.346 25.451-11.16 35.085-15.01 4.667-.954 9.227 2.108 10.331 6.95M861.532 754.197c1.86 15.225-24.933 10.657-34.697 13.214-3.225.863-10.895-6.57-11.932-8.168 5.588-.347 3.123-9.169 13.167-10.002 10.115.974 30.376-9.472 33.462 4.956" fill="#694D3D" blush:skin="500"/>
          <path d="M888.235 758.537c1.037 4.861-1.94 9.61-6.703 10.501-15.908 2.967-32.023 5.295-48.139 6.814-4.823.498-9.037-3.28-9.408-8.215-.37-4.978 3.066-9.223 7.692-9.703 15.545-1.463 31.18-3.723 46.52-6.584 4.557-.853 9.005 2.326 10.038 7.187" fill="#694D3D" blush:skin="500"/>
          <path d="M575.885 678.562c-3.641-32.28-17.19-80.88 8.135-104.86C600.977 556.632 627.303 559 639.741 559c12.438 0 17.91 37.963 17.868 48.694-.081 18.576 1.33 36.98 4.65 54.038l-86.376 16.83z" fill="#0A1B45"/>
          <path d="M649 559c0 18.225 20.595 33 46 33s46-14.775 46-33" fill="#694D3D" blush:skin="500"/>
        </g>
        <g transform="translate(636 380)" blush:width="127" blush:height="211" blush:component="Head">
          <circle fill="#000" cx="29" cy="70" r="25"/>
          <g fill="#694D3D" blush:skin="500">
            <path d="M35 134h45v51.633c0 13.905-10.074 25.177-22.5 25.177S35 199.538 35 185.633V134z"/>
            <path d="M82.053 166h-4.987C53.834 166 35 147.167 35 123.935v-19.732C35 86.418 49.418 72 67.204 72h5.593C90.583 72 105 86.418 105 104.203v38.85C105 155.725 94.727 166 82.053 166"/>
            <path d="M47 130.5c0 6.903-5.596 12.5-12.5 12.5S22 137.403 22 130.5 27.596 118 34.5 118 47 123.597 47 130.5"/>
          </g>
          <path d="M32.067 125.168c.905 0 2.157.21 3.442.852 2.146 1.073 3.504 3.035 3.595 5.882l.005.309h-3c0-1.836-.701-2.888-1.942-3.508-.46-.23-.97-.383-1.48-.468a4.887 4.887 0 00-.562-.065l-.058-.001v-3z" fill="#000"/>
          <path d="M56.75 168.332c-9.294-3.288-13.931-11.593-15.768-22.764 7.271 12.102 20.459 20.245 35.562 20.429l.522.003H80c-7.937 4.23-15.687 5.007-23.25 2.332z" fill="#000" opacity=".12"/>
          <path d="M72.809 72c16.78 0 30.576 12.718 32.19 28.999l-61.026-.001-4.477 16.928-1.884.047c-1.509.03-3.405.052-3.596-.032l-.016-.015.013-.99c.08-4.042.486-12.785.486-12.785 0-17.579 14.123-31.863 31.653-32.147l.532-.004h6.125z" fill="#000"/>
        </g>
        <g fill="none" blush:width="61" blush:height="61" blush:component="Expression">
          <path fill="#000" fill-rule="nonzero" d="M716.198 494.397l2.95-.547 4.287 23.15h-9.874v-3l6.267-.001z"/>
          <g stroke="#000" stroke-width="3">
            <path d="M704.195 516.572c0 4.75 4.75 8.708 9.501 8.708M717.446 494.11l3.958 21.376h-8.07"/>
            <path d="M717.446 494.11l3.958 21.376h-8.07"/>
            <path d="M717.446 494.11l3.958 21.376h-8.07M691.56 489.067S697.629 483 707.336 483M733.207 488.656s-5.312-5.312-13.813-5.312M696.334 495.236c2 5 11 5 12 0M721.334 495.236c2 5 11 5 12 0"/>
          </g>
        </g>
        <path d="M705.545 486c5.744.025 11.476 1.352 13.54 3.974 1.009 1.28 1.592 3.04 1.822 5.026h3.207c.23-1.985.813-3.745 1.821-5.026 2.018-2.563 7.538-3.888 13.15-3.97l.391-.004h.42l2.919.038c10.267.17 14.165.693 15.079 2.656 1.01 2.17 1.578 5.155.676 6.704l-.135.21c-.174.272-.616 1.095-1.103 2.07l-.105.21-.43.887a49.901 49.901 0 00-1.585 3.657l-.068.255c-.89 3.277-2.658 6.51-4.445 8.65-3.35 4.009-17.586 4.271-21.666.12-2.63-2.674-4.525-7.715-4.945-12.457h-3.154c-.42 4.742-2.317 9.783-4.946 12.458-4.08 4.15-18.316 3.888-21.665-.121-1.788-2.14-3.555-5.373-4.446-8.65l-.067-.255a48.842 48.842 0 00-1.478-3.432H662v-4h24.263c-.62-1.623-.066-4.31.864-6.306.97-2.082 5.295-2.545 17.017-2.683l.98-.01h.421zm-10.69 6.578c-1.722 2.361-2.057 5.326-1.45 8.275l.228.613-.08.032c.642 2.538 1.96 5.03 3.674 7.081 1.858 2.224 13.56 2.44 16.076-.12 3.203-3.258 5.077-12.5 2.927-15.651l-.123-.169-.126-.146c-2.966-3.168-18.79-3.12-21.127.085zm55.312 0c-2.3-3.156-17.684-3.25-20.983-.227l-.144.142-.125.146-.124.169c-2.15 3.151-.276 12.393 2.927 15.65 2.517 2.561 14.218 2.345 16.076.121 1.613-1.93 2.876-4.251 3.553-6.633l.12-.448-.08-.032.228-.613c.609-2.949.273-5.914-1.448-8.275z" fill="#000" blush:width="95" blush:height="32" blush:component="Glasses"/>
      </g>
    </g>
    <g blush:width="755" blush:height="859" blush:component="Master/Character/Sitting">
      <g blush:has-customizable-skin="true">
        <g blush:width="525" blush:height="423" blush:component="Legs Sitting">
          <path d="M1091.022 1017.911c3.253 1.107 5.843 2.109 6.81-.936 5.985-18.669 13.114-37.524 20.851-55.585 27.642-61.115 62.507-128.154 123.52-156.742 51.86-22.828 108.457-19.889 163.797-25.516L1399.217 706c-76.34 5.812-161.802.293-226.74 49.3-57.042 43.536-93.958 108.128-122.62 173.638-8.799 20.57-16.675 41.384-23.589 62.93-1.141 3.593 1.533 4.406 4.778 5.513l59.976 20.53z" fill="#543629" blush:skin="600"/>
          <path d="M1399.273 706.707s96.988 61.988 89.101 63.792c-47.628 32.683-107.088 28.89-160.947 34.65l-4.248-48.658c4.349-4.097 8.831-8.125 13.392-12.128-5.02-3.04-10.087-6.047-15.233-8.963v-29.23c20.642 1 77.935.537 77.935.537z" fill="#CC2935"/>
          <path d="M1026.85 969.67c13.823-38.602 30.466-75.868 50.893-111.275l75.312 47.817c-21.696 37.8-39.385 79.45-52.21 121.711l-28.583-8.737c.026-1.687.383-4.643.535-6.379-5.845.314-11.713.753-17.54 1.18-17.81-5.445-54.108-16.539-71.789-21.945.528-1.829 1.607-5.52 2.166-7.322 1.243-18.314 25.327-8.132 41.215-15.05" fill="#0A1B45"/>
          <path d="M1265.845 1121.876l44.483.124c3.42.007 6.19.117 6.203-3.383 1.549-84.34 1.311-181.6 19.66-262.813 11.247-49.778 107.048-45.363 156.809-59.54L1473.025 720c-60.383 15.42-126.866 24.018-177.378 67.402-16.233 12.78-28.112 27.686-33.147 48.679-12.871 49.436-14.95 100.633-18.093 151.26-2.166 43.754-3.181 87.269-3.407 130.941-.013 3.625 2.762 3.533 6.181 3.542l18.664.052z" fill="#694D3D" blush:skin="500"/>
          <path d="M1502.057 707l74.125 53.258c6.075 5.635-22.772 45.341-50.033 45.341-58.298 0-96.685 3.717-115.911 9.401l-3.963-27.926a428.313 428.313 0 0111.567-14.282 498.397 498.397 0 00-16.733-6.134L1389 718.81c23.403-7.184 61.088-11.12 113.057-11.81z" fill="#FA3239"/>
          <path d="M1234.375 1097.608c.46-39.46 1.549-79.014 3.67-118.608l87.955 5.213c-2.556 48.06-3.65 97.002-3.703 145.257-.938.004-28.046.121-29.78.13l-1.313-6.839-16.406 6.915c-18.557.079-56.376.245-74.798.324l.014-12.21c.042-8.387 25.023-11.045 34.361-20.182" fill="#0A1B45"/>
          <path d="M1493.716 806h9.568c52.31 0 94.716-44.324 94.716-99h-199c0 54.676 42.406 99 94.716 99" fill="#FA3239"/>
          <path d="M1542 806c30.928 0 56-25.072 56-56v-43h-199c0 54.676 42.406 99 94.716 99H1542z" fill="#FA3239"/>
        </g>
        <g blush:width="863" blush:height="528" blush:component="Body">
          <path d="M1385.893 707.868h214.481V600.806c0-23.468-19.025-42.494-42.494-42.494h-129.493c-23.469 0-42.494 19.026-42.494 42.494v107.062z" fill="#D7DBE2"/>
          <path d="M1454.375 558.313c0 16.556 8 37.556 34.5 37.556 31.5 0 44.5-17.92 44.5-37.556h-79z" fill="#694D3D" blush:skin="500"/>
          <path d="M1447.24 770.279c-25.865.59-47.865-1.41-71.311-9.254-2.164-.725-4.004-2.103-3.805-4.378l3.156-36.087c24.081 1.047 49.229 5.724 75.698 9.873a5381.14 5381.14 0 001.473 35.193c.128 2.85-2.358 4.588-5.211 4.653M1612.823 721.711l2.862 32.723c.337 3.846-1.993 7.452-5.661 8.657-24.587 8.078-59.801 12.224-82.917 13.844-3.661.256-6.882-2.346-7.434-5.975-1.567-10.287-2.697-21.712-3.472-33.863 24.707-.962 69.531-5.27 96.622-15.386" fill="#CC2935"/>
          <path d="M1572.012 560.115c17.492 5.263 30.236 21.485 30.236 40.691l10.576 120.905c-27.091 10.115-71.916 14.424-96.623 15.385-3.052-47.905-6.826-144.228 22.174-159.228 0 0 21-22 33.637-17.752M1450.978 730.433c-27.604 1.436-50.604-.564-75.698-9.873l10.474-119.753c0-21.395 15.814-39.09 36.39-42.051 2.666 10.365 12.335 13.616 26.23 20.113-.653 44.4.88 106.877 2.604 151.564" fill="#FA3239"/>
          <path d="M1319.057 787.208c-1.45 8.994.942 17.744 6.268 24.54 5.297 6.815 13.545 11.564 23.183 12.538 21.124 2.125 42.547 3.043 64.352 2.327 12.227-.452 24.583-1.459 37.072-3.27 12.487-1.84 25.11-4.385 37.812-8.365 12.68-3.967 25.456-9.233 37.786-16.535l2.311-1.352c.77-.449 1.541-.894 2.29-1.428l4.516-3.086c1.496-1.049 3.008-2.05 4.477-3.154 1.454-1.137 2.92-2.264 4.35-3.428a139.965 139.965 0 0015.801-15.223c9.638-10.846 17.35-22.808 23.46-35.017 6.118-12.229 10.692-24.728 14.211-37.193 3.512-12.474 5.973-24.935 7.698-37.314 1.72-12.382 2.71-24.688 3.117-36.92.385-11.309-3.482-21.507-9.717-28.452-6.243-6.985-14.8-10.713-23.882-10.09-9.099.623-17.027 5.258-22.754 11.818-5.733 6.598-9.29 15.136-9.61 24.5-.688 20.314-3.25 40.318-8.375 58.545-5.1 18.21-12.94 34.477-23.482 46.281a73.909 73.909 0 01-8.384 8.085l-2.252 1.773c-.77.575-1.617 1.095-2.414 1.655l-2.409 1.677c-.382.297-.832.541-1.278.79l-1.324.755c-6.954 4.13-14.997 7.556-23.697 10.278-8.693 2.745-18.11 4.67-27.784 6.092-9.693 1.405-19.704 2.243-29.873 2.62-18.176.594-36.808-.158-55.478-2.045-8.494-.86-16.625 1.86-23.143 6.934-6.497 5.103-11.398 12.665-12.848 21.664" fill="#694D3D" blush:skin="500"/>
          <path d="M1295.712 807.425c-.976 4.877 2.473 9.671 7.683 10.598 22.624 4.011 45.33 6.802 68.475 8.09 5.325.292 9.798-3.596 9.958-8.55.164-4.982-3.852-9.142-8.955-9.42-22.321-1.24-44.394-3.952-66.312-7.84-5.015-.892-9.87 2.253-10.85 7.122" fill="#694D3D" blush:skin="500"/>
          <path d="M1287.812 789.415c-1.128 4.84 2.154 9.725 7.221 10.742a560.32 560.32 0 0029.486 5.08c2.536.356 4.973-.32 6.842-1.703a8.832 8.832 0 003.497-5.969 8.985 8.985 0 00-1.808-6.646 9.012 9.012 0 00-5.94-3.494 542.172 542.172 0 01-28.523-4.914c-4.84-.97-9.64 2.063-10.775 6.904" fill="#694D3D" blush:skin="500"/>
          <path d="M1289.536 773.39c-1.275 4.81 1.802 9.678 6.693 10.679 9.49 1.952 19.035 3.606 28.61 5.042a8.884 8.884 0 0010.113-7.661c.64-4.924-2.702-9.45-7.458-10.143-9.267-1.39-18.528-2.994-27.627-4.866-4.667-.955-9.227 2.107-10.331 6.949M1327.06 755.054c-.772 4.904 2.422 9.5 7.152 10.142a529.716 529.716 0 0027.545 3.07c2.364.179 5.391-1.803 7.777-3.914 2.39-2.108 4.155-4.252 4.155-4.252-5.588-.347-3.123-9.169-13.167-10.001a522 522 0 01-23.845-2.734c-4.546-.616-8.844 2.774-9.617 7.689" fill="#694D3D" blush:skin="500"/>
          <path d="M1300.357 759.394c-1.037 4.86 1.94 9.609 6.703 10.5 15.908 2.968 32.023 5.296 48.14 6.815 4.822.498 9.036-3.28 9.407-8.215.371-4.978-3.066-9.223-7.692-9.703-15.545-1.463-31.18-3.723-46.519-6.584-4.558-.853-9.006 2.326-10.039 7.187" fill="#694D3D" blush:skin="500"/>
          <path d="M1378.03 832.417c10.962.462 22.005.628 33.2.244.329.225.697.446 1.1.662.402.216.828.427 1.39.63 1.077.416 2.335.746 3.74 1.086a71.58 71.58 0 004.686.918c1.712.283 3.572.55 5.599.708 4.047.339 8.63.663 13.814.575l3.964-.045a69.985 69.985 0 004.168-.155 437.87 437.87 0 008.91-.63c12.4-1.244 26.81-3.716 42.7-8.88 7.929-2.538 16.242-5.94 24.704-10.124 1.055-.482 2.116-1.063 3.178-1.662l3.19-1.787c2.129-1.22 4.266-2.395 6.394-3.715a430.213 430.213 0 006.368-4.285l3.177-2.2c1.059-.74 2.092-1.585 3.137-2.383 4.193-3.217 8.147-6.745 11.995-10.392 3.759-3.707 7.429-7.542 10.765-11.568 6.78-8.012 12.564-16.58 17.487-25.278 4.95-8.705 8.913-17.554 12.247-26.302 3.305-8.753 5.864-17.41 7.919-25.844 4.047-16.871 5.99-32.836 6.747-47.344.762-14.517.338-27.606-.65-38.861.19-15.42-5.467-29.153-14.216-38.264-8.744-9.151-22.06-18.765-40.3-17.95-18.238.815-18.843 2.215-26.11 11.026-7.254 8.843-7.22 32.059-7.368 44.144-1.574 11.745-3.45 23.817-5.903 35.56-2.433 11.746-5.48 23.155-9.212 33.38-1.844 5.134-3.913 9.902-6.063 14.336a108.352 108.352 0 01-6.88 11.993c-2.418 3.548-4.901 6.699-7.47 9.489-1.312 1.349-2.593 2.699-3.955 3.893l-1.006.92-1.123.86a66.582 66.582 0 00-2.181 1.789c-.334.32-.754.59-1.175.863l-1.233.837c-.817.563-1.62 1.14-2.42 1.727-1.831 1.02-3.54 2.139-5.358 3.188l-2.857 1.477-1.406.754c-.463.257-.925.514-1.442.725-2.016.92-3.994 1.825-5.931 2.71-7.99 3.483-16.346 6.13-23.851 8.424-7.507 2.332-14.376 4.057-19.816 5.725-2.738.804-5.162 1.512-7.164 2.255-1.005.359-1.9.746-2.712 1.066-.81.332-1.354.659-1.893.985-9.1.32-18.363.182-27.668-.211l-3.216 74.93z" fill="#FA3239"/>
          <path d="M1410.864 832.667l-2.295-76.465c-8.962.308-18.087.174-27.259-.218l-3.279 76.43c10.84.462 21.764.623 32.833.253M1544.375 517.868c41 5 44.897 39.764 27.637 43.247-13.637 2.753-22.381 18.761-34.341 24.91-2.668 1.372-5.81-.729-5.601-3.722l.177-2.527c.657-9.27-.73-21.129-10.023-21.058-16.663.124-41.614.105-57.645-.036-8.696-.077-15.86 7.828-16.07 16.522a933.777 933.777 0 00-.097 4.33c-.058 2.938-3.245 4.744-5.796 3.283-10.81-6.19-18.186-14.178-20.472-23.06a23.535 23.535 0 01-.77-5.889c0-23.196 81.333-41.08 123-36" fill="#CC2935"/>
        </g>
        <g blush:width="127" blush:height="211" blush:component="Head">
          <path d="M1491 441c-29.823 0-54 24.177-54 54v19c0 29.823 24.177 54 54 54h27c14.912 0 27-12.088 27-27v-46c0-29.823-24.177-54-54-54z" fill="#000"/>
          <path d="M1518 514h-45v51.633c0 13.905 10.073 25.177 22.5 25.177s22.5-11.272 22.5-25.177V514z" fill="#694D3D" blush:skin="500"/>
          <path d="M1470.947 546h4.988c23.232 0 42.065-18.833 42.065-42.065v-19.732c0-17.785-14.417-32.203-32.203-32.203h-5.593c-17.786 0-32.204 14.418-32.204 32.203v38.849c0 12.674 10.274 22.948 22.948 22.948" fill="#694D3D" blush:skin="500"/>
          <path d="M1496.25 548.332c9.294-3.288 13.931-11.593 15.768-22.764-7.271 12.102-20.459 20.245-35.562 20.429l-.521.003H1473c7.937 4.23 15.687 5.007 23.25 2.332z" fill="#000" opacity=".12"/>
          <path d="M1506 510.5c0 6.903 5.596 12.5 12.5 12.5s12.5-5.597 12.5-12.5-5.596-12.5-12.5-12.5-12.5 5.597-12.5 12.5" fill="#694D3D" blush:skin="500"/>
          <path d="M1520.933 505.168c-.905 0-2.157.21-3.442.852-2.146 1.073-3.504 3.035-3.595 5.882l-.005.308h3c0-1.835.701-2.887 1.942-3.507.46-.23.97-.383 1.48-.468.252-.042.449-.06.562-.065l.058-.002v-3z" fill="#000" fill-rule="nonzero"/>
          <path d="M1521.536 498c2.975-2.893 5.019-7.311 6.399-12.436 1.335-4.959-22.677-38.259-38.134-38.259-11.891 0-23.826-.474-30.598 9.3-11.202 15.763-14.936 24.323-11.204 25.68 20.403 3.215 35-1.491 47.501-9.634 2 17 15.5 25.349 24.5 25.349h1.536z" fill="#000"/>
        </g>
        <g fill="#000" blush:width="61" blush:height="61" blush:component="Expression">
          <path d="M1485.44 497a3 3 0 115.999 0 3 3 0 01-6 0M1459.44 497a3 3 0 115.999 0 3 3 0 01-6 0M1472.802 494.397l-2.95-.547-4.287 23.15h9.874v-3l-6.267-.001zM1484.078 516.586c0 3.674-3.742 7.072-7.76 7.204l-.24.004v3c5.597 0 10.826-4.566 10.996-9.939l.004-.269h-3zM1482.94 484v3c3.226 0 6.169.866 8.77 2.311.782.434 1.481.893 2.094 1.354l.3.231c.347.275.59.488.724.616l.05.049 2.122-2.122c-.717-.717-2.012-1.739-3.832-2.75-2.892-1.607-6.157-2.6-9.738-2.683l-.49-.006zM1468.94 484c-3.774 0-7.206 1.01-10.23 2.689-1.706.948-2.95 1.905-3.69 2.612l-.141.138 2.121 2.122.192-.179c.111-.1.259-.225.44-.372l.143-.114a17.903 17.903 0 012.393-1.585c2.472-1.373 5.251-2.223 8.29-2.305l.481-.006v-3z"/>
        </g>
        <path d="M1468 499c0 9.389 7.611 17 17 17 9.28 0 16.825-7.437 16.997-16.677L1502 499h25v-2h-25.116c-.99-8.446-8.172-15-16.884-15s-15.894 6.554-16.884 15h-2.232c-.99-8.446-8.172-15-16.884-15-9.389 0-17 7.611-17 17s7.611 17 17 17c9.28 0 16.825-7.437 16.997-16.677L1466 499h2zm17-15c8.284 0 15 6.716 15 15 0 8.284-6.716 15-15 15-8.284 0-15-6.716-15-15 0-8.284 6.716-15 15-15zm-36 0c8.284 0 15 6.716 15 15 0 8.284-6.716 15-15 15-8.284 0-15-6.716-15-15 0-8.284 6.716-15 15-15z" fill="#000" blush:width="95" blush:height="32" blush:component="Glasses"/>
      </g>
    </g>
  </g>
</svg>
