<svg viewBox="-7.309 -73.015 769.618 932.015" xmlns="http://www.w3.org/2000/svg" xmlns:blush="http://design.blush" overflow="visible" width="825.758" height="1000">
  <g fill="none" fill-rule="evenodd" blush:has-customizable-skin="true">
    <g blush:width="693" blush:height="596" blush:component="Legs">
      <path d="M122.155 828.64l63.178 19.903c3.422 1.077 7.039-.87 8.08-4.348l4.639-15.504c1.54-5.17 3.085-10.338 4.718-15.489l9.65-30.932 9.986-30.854 2.497-7.713 2.576-7.694 5.155-15.385c22.299-66.576 46.445-132.643 71.686-198.29 3.118-8.222 6.348-16.4 9.552-24.587l9.637-24.556c6.552-16.318 12.992-32.684 19.687-48.944 13.202-32.6 26.858-65.006 40.65-97.338l-72.227-33.07c-13.996 32.807-27.847 65.676-41.24 98.749-6.791 16.495-13.328 33.102-19.976 49.658l-9.781 24.923c-3.252 8.311-6.53 16.61-9.696 24.959-25.63 66.658-50.171 133.803-72.921 201.715l-5.258 15.696-2.627 7.849-2.553 7.88-10.202 31.524-9.877 31.66c-1.67 5.266-3.256 10.569-4.835 15.873l-4.76 15.903c-1.067 3.57.84 7.337 4.262 8.413" fill="#DCB284" blush:skin="600"/>
      <path d="M116.46 799.202c1.7-5.815 3.5-11.59 5.294-17.362l87.834 29.162c-1.223 3.982-2.49 7.954-3.68 11.941l-3.557 11.965-7.118 23.932-3.115-.98-26.72-8.402.74-7.322-18.492 1.742-40.67-12.788-34.264-10.773 3.513-11.818c2.464-8.29 28.27-3.108 40.235-9.297" fill="#0A1B45"/>
      <path d="M422.114 268.808c3.047 1.444 5.113 3.533 4.614 4.668-15.7 37.364-30.951 74.956-45.864 112.676-14.937 37.713-29.387 75.626-43.47 113.649-3.492 9.516-7.075 18.999-10.492 28.539l-10.326 28.59-10.124 28.65-5.036 14.33-4.932 14.36c-3.264 9.579-6.63 19.128-9.808 28.728l-9.612 28.774c-3.18 9.595-6.247 19.22-9.377 28.825l-4.661 14.415-4.53 14.443c-11.172 35.369-21.616 70.868-31.66 106.385l-37.083-12.002-2.888-9.534-2.791-9.539-7.306 6.243-7.225 6.29-76-24.598c11.98-36.6 24.33-72.985 37.352-109.018l5.25-14.74 5.373-14.676c3.602-9.775 7.146-19.575 10.796-29.322l11.014-29.208c3.647-9.746 7.472-19.407 11.198-29.111l5.625-14.54 5.725-14.492 11.495-28.953 11.688-28.855c3.87-9.629 7.904-19.18 11.847-28.773 15.886-38.319 32.12-76.455 48.839-114.358 16.695-37.915 16.76-36.111 34.255-73.649.34-.773 39.711 1.16 118.114 5.803z" fill="#CC2935"/>
      <path d="M596.492 461.815c-3.134-3.737-1.466-12.151 5.005-25.242-2.31-2.735-6.094-3.334-8.563-1.336-14.773 11.941-30.664 23.145-46.625 32.568-7.99 4.732-16.037 8.974-23.991 12.644-7.941 3.626-15.815 6.672-23.23 8.766-4.561 1.302-8.945 2.259-12.985 2.832-2.03.306-3.947.472-5.773.58-.225.014-.474.044-.68.047l-.593.003-1.186.03c-.433.037-.675-.025-1.018-.023-.32-.01-.64-.013-.961-.008-5.108-.247-10.193-1.73-14.468-4.575-2.142-1.407-4.035-3.17-5.714-5.099a24.084 24.084 0 00-1.217-1.486 19.398 19.398 0 00-1.123-1.557c-.406-.627-.831-1.345-1.276-1.994-.213-.271-.47-.797-.72-1.26l-.758-1.4c-4.2-7.464-6.817-14.693-8.133-22.051l-.292-1.377-.134-1.408c-.092-.937-.2-1.873-.323-2.809-.026-.235-.071-.465-.087-.704l-.01-.723-.037-1.446c-.016-.968-.11-1.918-.106-2.9.153-3.967.326-8.009 1.13-12.349 1.4-8.607 4.147-18.003 8.197-28.032 3.999-10.029 9.039-20.545 14.742-31.742l8.932-17.434c1.525-2.959 3.106-6.152 4.665-9.265.779-1.544 1.575-3.24 2.36-4.853.787-1.657 1.573-3.208 2.359-4.964l-71.615-33.349c-.58 1.309-1.29 2.703-1.928 4.053-.67 1.37-1.287 2.702-1.995 4.103-1.4 2.791-2.756 5.541-4.237 8.413l-8.966 17.501c-6.098 11.994-12.282 24.699-17.738 38.375-5.472 13.637-10.133 28.498-12.748 44.491-1.398 7.947-1.987 16.279-2.159 24.647-.008 2.098.104 4.221.166 6.332l.12 3.169.067 1.584c.036.528.104 1.058.156 1.588l.695 6.349.38 3.171.58 3.147c2.932 16.835 9.049 32.954 17.06 47.135l1.492 2.68c.502.894.964 1.764 1.602 2.73 1.205 1.888 2.382 3.756 3.65 5.637a366.287 366.287 0 004.145 5.68 282.736 282.736 0 004.475 5.421c6.179 7.039 13.21 13.343 21.022 18.499 7.797 5.172 16.332 9.207 25.255 12.022 8.923 2.82 18.225 4.435 27.586 4.923 2.324.074 4.728.181 6.988.164l3.356-.066a57.34 57.34 0 003.29-.133 142.412 142.412 0 0012.603-1.248c8.216-1.168 16.052-2.938 23.574-5.08 12.23-3.479 23.613-7.963 34.502-12.932 10.858-5.005 21.226-10.511 31.193-16.406a441.36 441.36 0 0028.929-18.673 491.37 491.37 0 0027.299-20.566c3.004-2.433 3.568-6.701 1.262-9.431-25.334-9.4-41.15-17.855-47.448-25.363z" fill="#FFDBB4" blush:skin="500"/>
      <path d="M624.55 514.373a489.137 489.137 0 01-15.299 10.967l-52.273-75.953a409.254 409.254 0 0017.545-12.787 387.31 387.31 0 008.463-6.702 295.34 295.34 0 004.057-3.36l1.922-1.636 1.474-1.283 2.175 2.421 18.661 20.763c-.197.326-.523.767-.844 1.197l-.985 1.306-2.055 2.641a500.175 500.175 0 0016.278 8.647l28.402 31.603 23.93 26.623-3.36 2.946-2.786 2.375a453.339 453.339 0 01-5.389 4.478c-3.749 3.06-10.338-.054-17.66-4.156-7.329-4.098-15.387-9.18-22.256-10.09" fill="#0A1B45"/>
      <path d="M506.746 263c3.351-.079 6.064 2.263 6.024 4.188.04 7.972-.72 15.2-1.785 21.963l-.895 4.874-.472 2.433-.243 1.216c-.083.401-.179.746-.268 1.122a448.38 448.38 0 01-2.252 8.837c-3.222 11.166-6.922 20.615-10.566 29.27l-2.742 6.325-2.714 5.965-.68 1.491-.663 1.41-1.328 2.82-2.624 5.529-9.754 20.35-2.21 4.727c-.742 1.581-1.38 3.051-2.076 4.58-1.423 3.081-2.577 5.918-3.851 8.848l-1.684 4.203-.841 2.091-.727 2.008-1.457 3.991-1.24 3.81c-.46 1.293-.758 2.479-1.093 3.678l-.51 1.795c-.173.597-.363 1.203-.464 1.754l-.776 3.364-.204.836-.124.784-.264 1.563c-.474 2.141-.53 3.986-.82 5.898-.083.924-.052 1.766-.12 2.644l-.09 1.302c0 .415.045.803.055 1.204.037.793.03 1.59.03 2.371a27.281 27.281 0 01.258 2.184c.042.359.02.736.093 1.08.083.34.158.68.226 1.02.153.673.196 1.365.35 2.031.218.65.402 1.301.555 1.957.095.325.103.661.246.982.136.324.265.647.385.971.25.648.43 1.302.652 1.965a28.588 28.588 0 011.334 3.014c.15.343.396.691.58 1.04a36.767 36.767 0 011.11 2.116c.092.179.16.357.267.539l.374.551.724 1.11c.467.728.935 1.533 1.347 2.223.295.275.565.663.763.909.175.03.224.148.346.208.262.1.44.261.703.317.468.165.908.303 1.383.252.199.057.462-.08.643-.048a.402.402 0 01.16-.06.18.18 0 01.07.006.448.448 0 01.082-.049.232.232 0 01.14-.025c.052-.035.102-.071.147-.081.085.028.187-.132.266-.104.042-.014.087-.079.127-.09.06-.029.013.002.252-.061a4.235 4.235 0 01.529-.082l.132-.009.219-.04.445-.075c.304-.053.572-.061.907-.128.34-.07.679-.134 1.018-.189 2.753-.475 6.404-1.445 10.43-2.791 1.2-.357 2.514-.873 3.785-1.297 1.33-.529 2.627-.971 4.01-1.562 2.713-1.073 5.566-2.367 8.458-3.721 2.897-1.359 5.876-2.9 8.876-4.483 3.014-1.638 6.057-3.335 9.126-5.16 12.272-7.281 24.849-16.034 36.91-25.541l23.275 31.119a402.929 402.929 0 01-5.701 17.646 395.708 395.708 0 0018.386-.685l47.7 63.776c-16.924 12.162-34.572 23.446-53.75 33.717a406.018 406.018 0 01-14.711 7.461c-5.047 2.39-10.156 4.728-15.461 6.933-5.31 2.203-10.711 4.33-16.366 6.28-2.777 1.003-5.705 1.912-8.571 2.843-2.962.876-5.858 1.779-8.92 2.569-10.02 2.634-20.603 4.807-32.13 5.916l-4.334.383c-1.45.118-2.964.175-4.442.253l-2.231.103-1.117.046-1.192.015-4.771.026c-1.537.016-3.312-.071-4.998-.137-1.701-.081-3.402-.145-5.098-.279-3.387-.319-6.781-.585-10.133-1.137-26.924-3.748-52.364-16.078-71.625-34.923-4.87-4.645-9.303-9.733-13.446-15.028-2.061-2.654-3.972-5.429-5.893-8.183-1.758-2.678-3.36-5.305-4.991-7.987-1.36-2.447-2.617-4.83-3.904-7.259l-1.901-3.634-.941-1.82c-.302-.621-.58-1.275-.868-1.912a576.196 576.196 0 01-3.368-7.709c-.542-1.297-1.118-2.559-1.617-3.889l-1.43-4.044c-.941-2.7-1.86-5.406-2.753-8.116-.795-2.769-1.506-5.584-2.224-8.383l-1.047-4.205c-.348-1.401-.556-2.847-.83-4.271a479.07 479.07 0 01-1.464-8.583c-.398-2.867-.624-5.751-.904-8.628l-.373-4.317c-.106-1.435-.102-2.858-.148-4.289a510.12 510.12 0 01-.126-8.564c.099-2.81.25-5.608.408-8.406.087-1.397.154-2.805.272-4.187l.47-4.082c.337-2.708.63-5.464 1.056-8.12.945-5.233 1.845-10.564 3.144-15.506l.924-3.766.467-1.88.527-1.807 2.144-7.208c.35-1.22.752-2.356 1.147-3.504l1.19-3.444c.797-2.295 1.588-4.612 2.46-6.768l2.577-6.574c.885-2.135 1.795-4.208 2.696-6.311l1.358-3.142 1.395-3.016 2.804-6.01a602.302 602.302 0 0111.425-22.299l10.933-20.083c3.407-6.307 6.7-12.411 9.334-17.867 2.669-5.477 4.864-10.522 6.314-14.56 1.41-3.972 3.57-9.858 3.746-10.687.008-.043 36.217-.043 108.628 0z" fill="#FA3239"/>
      <path d="M512 263c0 55.228-46.562 100-104 100s-104-44.772-104-100" fill="#FA3239"/>
    </g>
    <g blush:width="863" blush:height="528" blush:component="Body">
      <path d="M36.233 248.865c-15.018-1.145-23.49 5.414-27.852 11.023-2.18 2.791-1.502 6.331.695 8.842 2.193 2.508 5.893 3.95 9.6 2.523 3.711-1.444 7.275-4.322 12.235-6.427 4.955-2.097 11.24-3.329 20.436-1.709 4.59.831 6.876.322 7.46-.79.592-1.133-.512-2.876-2.608-4.787-4.226-3.78-12.443-8.126-19.966-8.675m25.992 19.317c3.756-8.31 10.47-14.345 18.03-17.574 7.601-3.288 16.04-3.737 23.921-.877l2.92 1.088 2.928 1.013c1.951.669 3.9 1.373 5.852 2.017 3.91 1.234 7.813 2.548 11.718 3.626 9.547 2.758 19.098 5.106 28.497 6.692 9.393 1.583 18.644 2.507 27.49 2.576 8.843.072 17.268-.73 24.882-2.523a220.79 220.79 0 015.56-1.521l2.663-.911 2.636-1.023a76.856 76.856 0 0010.3-5.185c13.482-8.035 25.861-20.905 36.36-36.308 10.526-15.416 19.268-33.211 26.418-51.862 3.298-8.597 9.405-15.36 16.947-19.608 7.53-4.215 16.52-5.924 25.317-3.53 8.788 2.389 15.67 8.643 19.317 17.163 3.655 8.482 4.032 19.208.053 29.582-8.625 22.418-19.266 44.497-33.558 65.487-7.162 10.472-15.273 20.652-24.675 30.147-9.39 9.478-20.123 18.279-32.286 25.56a142.717 142.717 0 01-19.179 9.629l-5.06 1.962-5.149 1.76a505.68 505.68 0 01-10.359 2.858c-13.828 3.264-27.484 4.413-40.636 4.322-13.167-.105-25.88-1.446-38.19-3.523-12.312-2.09-24.173-5.016-35.769-8.367-4.767-1.33-9.4-2.871-14.072-4.357-2.32-.766-4.606-1.586-6.91-2.378l-3.45-1.2-3.408-1.265c-9.25-3.365-16.022-10.226-19.43-18.136-3.399-7.98-3.428-17.037.322-25.334" fill="#DCB284" blush:skin="600"/>
      <path d="M84.361 312.778c5.662 1.984 10.604-9.936 14.335-24.182 1.875-7.121 3.482-14.815 4.735-21.65 1.249-6.835 2.141-12.807 2.476-16.57l-5.427-2.022c-8.067-3.106-15.535-5.672-22.437-7.894-6.915-2.168-13.275-3.924-19.154-5.241-11.742-2.672-21.531-3.688-29.583-3.725-16.081-.11-25.251 3.77-28.022 4.43-2.735.643-4.805 3.166-5.283 5.979-.522 2.779.426 5.73 3.336 6.908 2.765 1.14 16.173 3.006 28.816 6.567 12.656 3.645 24.665 9.079 25.338 19.794.395 6.48-2.08 9.998-5.794 11.875-3.718 1.9-8.598 2.085-12.834 2.088-5.039-.02-8.177 3.536-8.954 7.44-.783 3.9.855 8.142 5.268 9.259 3.687.97 8.095 1.573 12.743 2.096 4.698.453 9.621.84 14.544 1.138 9.779.712 19.336 1.29 25.897 3.71" fill="#DCB284" blush:skin="600"/>
      <path d="M101.992 242.511c8.61 3.311 17.251 6.215 25.858 8.79.65-.3 1.32-.579 2.25-.762a25.434 25.434 0 013.084-.413c2.271-.177 4.944-.313 7.982-.209l4.795.131c1.678.055 3.438.151 5.272.28 3.615.056 7.586.433 11.652.491 8.181.313 17.136.432 25.69-.352 4.244-.43 8.46-.954 12.308-1.836a79.125 79.125 0 012.898-.626c.51-.07.913-.262 1.366-.393l1.336-.413c.88-.282 1.832-.472 2.682-.776.84-.327 1.703-.57 2.544-.946 3.395-1.347 6.844-2.993 10.351-5.156a84.36 84.36 0 0010.677-7.702c3.588-2.996 7.178-6.42 10.676-10.203 3.507-3.76 6.933-7.848 10.208-12.153 6.58-8.576 12.566-17.943 17.877-27.043 5.312-9.116 10.618-19.049 15.295-26.873 4.678-7.824 11.023-19.004 24.775-28.503 13.752-9.498 23.902-10.105 23.902-10.105 11.941 2.25 26.47 17.628 31.757 29.023 5.306 11.362 6.202 26.011 1.058 40.33a273.516 273.516 0 01-15.389 44.422c-6.765 15.088-15.253 30.353-26.077 44.997-10.816 14.606-24.067 28.657-40.026 40.315-7.977 5.802-16.534 11.03-25.587 15.277-2.274 1.045-4.517 2.104-6.84 3.024l-3.454 1.398-3.498 1.272a121.217 121.217 0 01-14.003 4.13 434.99 434.99 0 01-6.897 1.61 392.83 392.83 0 01-6.709 1.08c-2.212.314-4.443.71-6.59.908-2.14.17-4.264.34-6.369.506l-3.143.221c-1.046.08-2.079.137-3.079.131l-5.989.04c-.987 0-1.97-.003-2.947-.003-.98.003-1.95-.006-2.885-.075l-5.59-.334c-1.836-.127-3.669-.224-5.44-.394-1.748-.21-3.476-.42-5.183-.628l-5.039-.653c-1.659-.217-3.22-.55-4.798-.823l-4.628-.866c-1.518-.289-3.018-.568-4.437-.93a549.65 549.65 0 01-8.288-2.042c-10.495-2.906-19.077-6.017-25.583-8.957-3.243-1.486-6.063-2.793-8.283-4.109a55.908 55.908 0 01-2.972-1.836 17.569 17.569 0 01-1.996-1.557c-10.683-3.188-21.143-6.727-31.346-10.645l26.772-70.06z" fill="#CC2935"/>
      <path d="M127.567 251.22l-21.78 73.334c-10.599-3.178-20.98-6.693-31.103-10.58l27.308-71.46c8.516 3.272 17.061 6.148 25.575 8.706" fill="#B52935"/>
      <path d="M299.22 266.852h214.481V159.79c0-23.468-19.025-42.494-42.494-42.494H341.714c-23.469 0-42.494 19.026-42.494 42.494v107.062z" fill="#D7DBE2"/>
      <path d="M367.702 117.296c0 16.556 8 37.556 34.5 37.556 31.5 0 44.5-17.919 44.5-37.556h-79z" fill="#FFDBB4" blush:skin="500"/>
      <path d="M360.567 329.262c-25.865.59-47.865-1.41-71.311-9.254-2.164-.725-4.004-2.103-3.805-4.378l3.156-36.087c24.081 1.047 49.229 5.724 75.698 9.873a5381.14 5381.14 0 001.473 35.193c.128 2.85-2.358 4.588-5.211 4.653m165.583-48.567l2.862 32.723c.337 3.846-1.993 7.452-5.66 8.656-24.588 8.078-59.802 12.224-82.918 13.844-3.66.257-6.882-2.346-7.434-5.975-1.567-10.286-2.697-21.712-3.472-33.863 24.707-.962 69.531-5.27 96.622-15.385" fill="#CC2935"/>
      <path d="M485.339 119.099c17.491 5.263 30.236 21.485 30.236 40.69l10.575 120.907c-27.091 10.115-71.916 14.424-96.624 15.385-3.051-47.905-6.825-144.228 22.175-159.228 0 0 21-22 33.637-17.753M364.305 289.416c-27.604 1.436-50.604-.564-75.698-9.873l10.474-119.753c0-21.395 15.814-39.089 36.39-42.05 2.666 10.364 12.335 13.615 26.23 20.112-.653 44.401.88 106.877 2.604 151.564" fill="#FA3239"/>
      <path d="M726.203-38.951c9.057.865 16.937 5.391 22.157 12.264 5.252 6.85 7.774 16.043 6.262 25.626-3.302 20.999-7.882 41.99-14.182 62.94-3.546 11.599-7.69 23.182-12.66 34.688-4.978 11.499-10.784 22.935-17.876 34.089-7.084 11.138-15.615 22.004-25.966 31.86-.64.618-1.247 1.253-1.918 1.853l-2.058 1.775-4.144 3.52-2.083 1.746-2.193 1.66c-1.464 1.109-2.943 2.196-4.463 3.211a139.073 139.073 0 01-18.82 10.889c-12.95 6.214-26.398 10.289-39.637 12.811-13.261 2.522-26.351 3.534-39.133 3.576-12.788.031-25.284-.917-37.517-2.52-12.236-1.606-24.205-3.888-35.965-6.675-10.874-2.571-19.577-8.94-24.566-16.751-5.023-7.824-6.34-17.041-3.365-25.647 2.977-8.618 9.477-15.077 17.242-18.911a38.532 38.532 0 0125.908-2.912c19.57 4.637 39.33 7.453 58.086 7.415 18.727-.027 36.362-3.111 50.405-9.895a73.163 73.163 0 009.914-5.726c.789-.513 1.536-1.074 2.278-1.64l1.123-.84 1.08-.944 2.187-1.86 1.105-.917c.364-.319.7-.701 1.054-1.046 5.698-5.42 11.057-12.032 15.843-19.588 9.596-15.137 17.135-33.31 23-52.44 5.214-17.361 9.232-35.528 12.13-54.041 1.329-8.42 6-15.591 12.562-20.611 6.586-4.992 15.125-7.826 24.209-6.959" fill="#FFDBB4" blush:skin="500"/>
      <path d="M751.65-56.454c4.964.283 8.735 4.831 8.318 10.111-1.808 22.927-4.885 45.624-9.508 68.376-1.103 5.234-5.968 8.576-10.808 7.466-4.85-1.11-7.884-6.063-6.828-11.069 4.457-21.923 7.45-43.973 9.2-66.175.401-5.079 4.666-8.987 9.626-8.709" fill="#FFDBB4" blush:skin="500"/>
      <path d="M736.207-68.637c4.968.125 8.87 4.533 8.579 9.694a547.174 547.174 0 01-2.521 29.83c-.571 5.105-5.097 8.714-10.036 8.068-4.918-.644-8.404-5.144-7.854-10.06a528.29 528.29 0 002.438-28.839c.28-4.928 4.423-8.812 9.394-8.693" fill="#FFDBB4" blush:skin="500"/>
      <path d="M720.262-70.996c4.977-.026 8.914 4.176 8.652 9.162-.5 9.676-1.302 19.33-2.332 28.96a8.88 8.88 0 01-9.97 7.846c-4.918-.625-8.46-5-7.926-9.775.995-9.31 1.772-18.673 2.252-27.947.25-4.754 4.36-8.394 9.324-8.246m-27.195 31.673c4.945.49 8.578 4.737 8.009 9.474a513.687 513.687 0 01-4.004 27.396c-.424 2.329-3.099 4.755-5.761 6.516a41.685 41.685 0 01-5.16 2.933c1.067-5.488-8.074-5.342-6.332-15.246a527.205 527.205 0 003.382-23.72c.547-4.547 4.919-7.844 9.866-7.353" fill="#FFDBB4" blush:skin="500"/>
      <path d="M703.995-64.047c4.966.22 8.813 4.293 8.475 9.125-1.13 16.137-2.96 32.307-5.565 48.273-.746 4.789-5.465 7.902-10.331 7.009-4.91-.906-8.15-5.304-7.436-9.89 2.51-15.388 4.286-31.068 5.374-46.618.323-4.62 4.518-8.123 9.483-7.898" fill="#FFDBB4" blush:skin="500"/>
      <path d="M754.976 29.607c-2.368 10.743-5.023 21.49-8.272 32.245.134.377.254.791.359 1.237a8.214 8.214 0 01.237 1.505 36.592 36.592 0 01.089 3.865 67.885 67.885 0 01-1.06 10.284c-.336 1.984-.736 4.1-1.2 6.333-.49 2.236-1.12 4.6-1.775 7.072l-1.043 3.795c-.367 1.292-.824 2.617-1.258 3.964-.906 2.698-1.8 5.496-2.904 8.398a505.974 505.974 0 01-3.615 8.982c-1.361 3.086-2.884 6.26-4.432 9.505-.741 1.622-1.678 3.266-2.563 4.925l-2.757 5.025c-.896 1.692-1.987 3.395-3.057 5.111l-3.285 5.188c-1.063 1.745-2.394 3.482-3.64 5.237-1.281 1.746-2.571 3.508-3.871 5.282-1.33 1.767-2.866 3.512-4.324 5.277-1.498 1.757-2.956 3.531-4.551 5.28a455.165 455.165 0 01-5.068 5.197c-1.716 1.73-3.406 3.474-5.372 5.122-3.826 3.333-7.65 6.697-11.953 9.787-8.481 6.204-17.713 11.438-27.18 15.701-9.476 4.226-19.185 7.418-28.778 9.748-19.216 4.6-37.831 5.765-54.907 5.163-17.104-.624-32.783-2.993-46.786-6.073a278.641 278.641 0 01-36.82-10.78c-14.737-3.82-26.345-12.814-32.746-23.595-6.44-10.787-7.741-23.355-2.848-34.478 4.854-11.136 13.654-19.308 23.972-24.054 10.346-4.728 21.442-4.728 33.737-3.049 12.295 1.68 23.65 2.881 35.518 3.635 11.854.74 23.573.881 34.338.037 2.707-.18 5.31-.49 7.889-.78 2.534-.357 5.05-.693 7.43-1.159a101.541 101.541 0 0013.288-3.302c4.074-1.285 7.68-2.827 11-4.482.86-.384 1.607-.874 2.429-1.278l2.309-1.35 1.106-.71a8.138 8.138 0 001.105-.756 58.54 58.54 0 012.206-1.607c5.928-4.334 11.855-10.378 17.144-17.024 5.31-6.64 10.008-13.77 14.115-20.28a280.61 280.61 0 012.984-4.769 249.463 249.463 0 012.704-4.56c1.808-2.86 3.316-5.64 4.826-7.995l1.097-1.72 1.005-1.635a71.511 71.511 0 011.89-2.866 41.02 41.02 0 011.722-2.3 16.488 16.488 0 011.443-1.559c2.63-8.685 4.845-17.656 6.847-26.724l73.276 15.985z" fill="#FA3239"/>
      <path d="M457.702 76.852c41 5 44.897 39.764 27.637 43.247-13.637 2.753-22.381 18.76-34.341 24.91-2.668 1.372-5.81-.73-5.601-3.722l.177-2.527c.657-9.271-.73-21.13-10.023-21.058-16.663.124-41.614.105-57.645-.036-8.696-.077-15.86 7.828-16.07 16.522a930.66 930.66 0 00-.097 4.329c-.058 2.939-3.245 4.745-5.796 3.284-10.81-6.191-18.186-14.178-20.472-23.061a23.542 23.542 0 01-.77-5.888c0-23.196 81.333-41.081 123-36M746.803 61.5l-73.307-21.87c2.594-8.547 4.76-17.395 6.736-26.327l74.742 16.304c-2.347 10.624-4.953 21.253-8.17 31.893" fill="#CC2935"/>
    </g>
    <g blush:width="127" blush:height="211" blush:component="Head">
      <path d="M418.5 121.538h33c13.531 0 24.5-10.97 24.5-24.5 0-13.531-10.969-24.5-24.5-24.5h-33c-13.531 0-24.5 10.969-24.5 24.5 0 13.53 10.969 24.5 24.5 24.5" fill="#000"/>
      <path d="M402.8 74.538h9.2v-75h-9.2c-28.055 0-50.8 12.744-50.8 40.8v13.399c0 20.8 22.745 20.8 50.8 20.8" fill="#000"/>
      <path d="M408.2 104.538H389v-105h19.2c28.055 0 50.8 22.744 50.8 50.8v3.399c0 28.057-22.745 50.8-50.8 50.8" fill="#000"/>
      <path d="M432 72.538h-45v51.633c0 13.905 10.073 25.177 22.5 25.177 12.426 0 22.5-11.272 22.5-25.177V72.538z" fill="#FFDBB4" blush:skin="500"/>
      <path d="M384.947 104.538h4.987c23.232 0 42.065-18.833 42.065-42.065V42.74c0-17.785-14.417-32.203-32.203-32.203h-5.593C376.417 10.538 362 24.956 362 42.74v38.85c0 12.674 10.274 22.948 22.948 22.948" fill="#FFDBB4" blush:skin="500"/>
      <path d="M410.25 107.332c9.294-3.288 13.931-11.593 15.768-22.764-7.271 12.102-20.459 20.245-35.562 20.429l-.522.003H387c7.937 4.23 15.687 5.007 23.25 2.332z" fill="#000" opacity=".12"/>
      <path d="M420 69.038c0 6.903 5.596 12.5 12.5 12.5s12.5-5.598 12.5-12.5-5.596-12.5-12.5-12.5-12.5 5.597-12.5 12.5" fill="#FFDBB4" blush:skin="500"/>
      <path d="M434.933 63.706c-.905 0-2.157.21-3.442.852-2.146 1.073-3.504 3.035-3.595 5.882l-.005.308h3c0-1.835.701-2.887 1.942-3.507.46-.23.97-.383 1.48-.468a4.887 4.887 0 01.562-.065l.058-.002v-3z" fill="#000" fill-rule="nonzero"/>
      <path d="M432 56.538h1.536c5.854-5.692 8.103-17.292 8.781-28.551.929-15.43-25.859-28.45-41.316-28.45h-17.985l-17.016 26h39.303c0 17 14.697 31 26.697 31" fill="#000"/>
      <path d="M357.264 25.538H411V-.83a7.172 7.172 0 00-7.172-7.172h-31.554C358.868-8.001 348 2.868 348 16.274a9.264 9.264 0 009.264 9.264" fill="#000"/>
    </g>
    <g blush:width="61" blush:height="61" blush:component="Expression">
      <path fill="#000" fill-rule="nonzero" d="M386.802 53.397l-2.95-.547L379.565 76h9.874v-3l-6.267-.001z"/>
      <g stroke="#000" stroke-width="3">
        <path d="M398.805 75.572c0 4.75-4.75 8.708-9.501 8.708m-3.75-31.17l-3.958 21.376h8.07"/>
        <path d="M385.554 53.11l-3.958 21.376h8.07"/>
        <path d="M385.554 53.11l-3.958 21.376h8.07m21.774-26.419S405.371 42 395.664 42m-25.871 5.656s5.312-5.312 13.813-5.312m23.06 11.892c-2 5-11 5-12 0m-13 0c-2 5-11 5-12 0"/>
      </g>
    </g>
    <path d="M382 58c0 9.389 7.611 17 17 17 9.28 0 16.825-7.437 16.997-16.677L416 58h25v-2h-25.116c-.99-8.446-8.172-15-16.884-15s-15.894 6.554-16.884 15h-2.232c-.99-8.446-8.172-15-16.884-15-9.389 0-17 7.611-17 17s7.611 17 17 17c9.28 0 16.825-7.437 16.997-16.677L380 58h2zm17-15c8.284 0 15 6.716 15 15 0 8.284-6.716 15-15 15-8.284 0-15-6.716-15-15 0-8.284 6.716-15 15-15zm-36 0c8.284 0 15 6.716 15 15 0 8.284-6.716 15-15 15-8.284 0-15-6.716-15-15 0-8.284 6.716-15 15-15z" fill="#000" blush:width="95" blush:height="32" blush:component="Glasses"/>
  </g>
</svg>
