<svg viewBox="65.783 0 700.826 859" xmlns="http://www.w3.org/2000/svg" xmlns:blush="http://design.blush" overflow="visible" width="815.862" height="1000">
  <g fill="none" fill-rule="evenodd" blush:has-customizable-skin="true">
    <g blush:width="693" blush:height="596" blush:component="Legs">
      <path d="M178.705 529.593l.738-66.043c.047-3.578 2.987-6.443 6.528-6.404 20.978.232 41.776.244 62.563-.075 20.769-.318 41.47-.946 61.974-2.037 13.104-.697 26.13-1.582 38.988-2.734 12.85-1.152 25.564-2.558 37.853-4.377a258.03 258.03 0 004.586-.701c1.52-.24 3.048-.475 4.539-.738l2.25-.385 1.126-.192c.23-.037.252-.05.37-.074l.292-.062c.767-.166 1.593-.298 2.326-.418 2.61-.505 5.205-1.085 7.774-1.771 2.565-.692 5.11-1.477 7.572-2.485 2.44-1.027 4.87-2.2 6.899-3.932 1.01-.86 1.907-1.871 2.517-3.054.619-1.188.784-2.54.91-3.854.22-2.654-.037-5.322-.463-7.941-.897-5.245-2.518-10.336-4.371-15.315l-1.066-2.782-1.665-4.183a395.311 395.311 0 00-3.532-8.43 492.251 492.251 0 00-7.732-16.99c-5.413-11.356-11.282-22.734-17.44-34.033l69.364-37.81c6.745 12.377 13.238 24.95 19.39 37.857a568.142 568.142 0 018.942 19.654 474.592 474.592 0 014.227 10.086l2.039 5.123 1.065 2.764 1.282 3.404c3.352 9.13 6.393 18.385 8.726 27.704 2.384 9.314 4.033 18.673 4.75 27.915.359 4.622.424 9.209.215 13.745-.094 2.269-.3 4.523-.53 6.77l-.482 3.345-.627 3.313c-.93 4.395-2.22 8.716-4.354 12.809-2.152 4.062-4.953 7.726-8.06 10.997-6.21 6.584-13.727 11.648-21.783 16.04-8.087 4.357-16.915 7.799-26.038 10.687-9.14 2.867-18.584 5.178-28.124 7.078-2.33.476-4.601.9-6.91 1.326l-5.715.992c-3.594.609-7.17 1.174-10.732 1.693-28.487 4.155-56.38 6.336-84.182 7.848-43.444 2.28-86.622 2.688-129.58 2.218a6.47 6.47 0 01-6.419-6.548" fill="#543629" blush:skin="600"/>
      <path d="M203.501 543.49l17.59.022-.213-92.203c-7.984.02-15.978-.006-23.992-.064L172 451.011v31.169c2.583.463 4.866.952 7.219 1.434L172 500.724v78.287l10.775.106c8.266.09 11.411-26.007 20.726-35.627" fill="#0A1B45"/>
      <path d="M352.588 308.253a681.238 681.238 0 015.317 9.224 854.125 854.125 0 0115.65 28.903c6.689 12.951 12.99 25.97 18.624 38.807 2.81 6.414 5.454 12.782 7.848 19.02 1.19 3.11 2.347 6.22 3.387 9.223.11.551.134.907.184 1.352.156 1.681.147 3.187-.27 4.488a3.75 3.75 0 01-.434.918c-.201.281-.511.506-.844.672-.685.324-1.445.45-2.147.513-.708.057-1.377.046-1.992-.005-.307-.026-.601-.06-.882-.102l-.207-.033-.102-.017a3.782 3.782 0 00-.803.005l-1.418.203c-13.027 1.878-27.102 3.237-41.467 4.23-14.383.991-29.103 1.647-43.978 2.04-34.704 1.064-70.12.85-105.674-.09l-.195 38.86 15.824 11.01-15.931 10.17-.4 79.64c37.599-.593 75.336-1.924 113.549-4.705 16.39-1.258 32.884-2.813 49.587-4.813 16.713-2.013 33.61-4.457 51.14-7.904l4.132-.805 4.847-1 2.432-.53 2.549-.587 5.092-1.17c3.396-.77 6.723-1.723 10.082-2.572 3.336-.905 6.606-1.943 9.907-2.905 13.073-4.11 25.428-9.365 36.473-15.896 5.419-3.379 10.673-6.906 15.353-10.995 4.682-4.08 9.019-8.505 12.819-13.467 3.79-4.937 7.118-10.492 9.43-16.317 2.377-5.752 3.87-11.758 4.889-17.883 1.89-12.29 1.623-25.136-.253-38.156-.89-6.504-2.271-13.053-3.904-19.574-1.616-6.526-3.562-13.032-5.74-19.475a333.908 333.908 0 00-7.04-19.108 437.197 437.197 0 00-5.267-12.336c-3.586-8.076-7.317-15.894-11.15-23.56C493.934 318.21 484.097 302.462 474 289c-6-8-18-21-23-26 0 0-98.843 44.566-98.412 45.253z" fill="#CC2935"/>
      <path d="M301.341 818.494l-52.01-44.078c-2.813-2.394-3.418-6.424-1.34-9.1 6.189-7.977 12.294-16.296 18.195-24.735a674.067 674.067 0 0017.141-25.745c11.008-17.417 21.174-35.277 30.154-53.42 6.496-13.153 12.379-26.455 17.433-39.813 5.03-13.355 9.24-26.764 12.374-40.031 3.09-13.258 5.077-26.364 5.7-38.968.316-6.302.282-12.475-.143-18.457-.226-2.988-.493-5.949-.896-8.845-.15-1.469-.43-2.882-.656-4.314l-.171-1.074c-.063-.368-.1-.683-.198-1.134l-.511-2.53c-2.636-13.519-6.231-26.824-10.752-39.996-4.606-13.166-10.055-26.2-16.388-39.33-3.152-6.563-6.545-13.174-10.053-19.845a1413.818 1413.818 0 00-11.095-20.42c-3.853-6.979-7.815-14.115-11.846-21.58-4.034-7.512-8.12-15.352-12.114-23.772l72.42-36.345c3.06 6.451 6.499 13.087 10.136 19.858 3.668 6.793 7.52 13.736 11.425 20.808 3.917 7.084 7.88 14.35 11.802 21.725 3.907 7.43 7.78 14.97 11.499 22.712 7.458 15.46 14.278 31.646 20.1 48.343 5.757 16.735 10.441 34.011 13.854 51.548l.655 3.286c.217 1.1.404 2.368.605 3.544.388 2.396.817 4.793 1.09 7.19.657 4.797 1.105 9.586 1.453 14.364.667 9.555.704 19.04.24 28.385-.924 18.7-3.776 36.839-7.853 54.331-8.28 34.968-21.22 67.402-36.336 98.039-10.462 21.133-22.035 41.424-34.44 61.054-12.444 19.632-25.623 38.546-39.932 57.022-2.421 3.121-6.732 3.716-9.542 1.323" fill="#694D3D" blush:skin="500"/>
      <path d="M335.597 805.77a763.52 763.52 0 0011.042-15.557l-76.58-56.25a633.754 633.754 0 01-13.693 19.075 559.96 559.96 0 01-7.02 9.207l-3.498 4.429-1.706 2.11-1.387 1.686 2.5 2.25 21.447 19.3c.35-.232.799-.587 1.238-.938l1.334-1.07 2.697-2.22a650.28 650.28 0 018.979 17.048l32.645 29.375 27.504 24.747 2.82-3.406 2.31-2.856 4.372-5.52c5.97-7.694-13.083-27.182-15.004-41.41" fill="#0A1B45"/>
      <path d="M248.15 263.002s-6.133-.436-6.11 1.585c0 2.05.015 1.999.047 4.049.023 2.054.208 4.02.326 6.035.142 1.998.285 4.012.468 5.999l.74 5.8.399 2.898.208 1.446.252 1.387 1.049 5.542.549 2.767.62 2.641 1.293 5.257c3.604 13.81 8.205 25.853 12.865 36.647 4.682 10.81 9.471 20.45 14.08 29.465 4.616 9.008 9.072 17.391 13.281 25.447 8.46 16.104 15.81 30.875 22.02 45.408 3.051 7.24 5.843 14.405 8.337 21.53l1.773 5.34.881 2.665.795 2.669c.523 1.777 1.094 3.549 1.587 5.326l1.433 5.331c.514 1.772.889 3.561 1.32 5.34.404 1.784.893 3.55 1.24 5.34.71 3.579 1.52 7.13 2.07 10.73l.467 2.688.235 1.342c.035.212.09.477.107.642l.058.5c.133 1.348.381 2.636.474 4.017.26 2.72.457 5.498.515 8.374.306 11.461-1.003 24.177-3.84 37.558-2.829 13.382-7.155 27.382-12.633 41.514-5.475 14.139-12.109 28.417-19.57 42.58-7.671 14.574-16.189 29.055-25.399 43.25-9.184 14.196-19.066 28.156-29.332 41.532l31.678 24.571a569.735 569.735 0 0018.274-6.118 659.328 659.328 0 01-1.01 19.51l64.921 50.356c12.027-17.13 23.31-34.59 33.95-52.651 10.643-18.04 20.605-36.67 29.76-56.015 8.872-18.832 16.969-38.362 23.869-58.843 6.885-20.478 12.608-41.91 16.316-64.532 3.684-22.594 5.35-46.472 3.451-71.178-.458-6.165-1.187-12.384-2.128-18.608-.43-3.107-1.068-6.239-1.616-9.349l-.215-1.167-.22-1.041-.442-2.032-.888-4.059c-1.123-5.427-2.542-10.775-3.896-16.135-.67-2.683-1.483-5.316-2.224-7.973-.767-2.646-1.491-5.312-2.352-7.918l-2.503-7.848c-.856-2.605-1.788-5.167-2.683-7.749l-1.36-3.864-1.44-3.81c-.971-2.534-1.924-5.082-2.918-7.596-4.019-10.031-8.347-19.797-12.87-29.302-9.09-18.911-19.046-36.697-28.57-53.074-9.477-16.375-18.593-31.636-25.002-44.836-3.212-6.583-5.682-12.58-7.277-17.681-1.608-5.128-2.36-7.146-2.591-10.749-.01-.288-37.55-.605-112.619-.95z" fill="#FA3239"/>
      <path d="M243 263c0 55.228 46.562 100 104 100s104-44.772 104-100" fill="#FA3239"/>
    </g>
    <g blush:width="863" blush:height="528" blush:component="Body">
      <path d="M671.737 169.546c-37.552 25.318-86.374 32.937-130.947 26.311-25.611-3.95-49.82-12.6-70.15-27.759-9.785-6.28-15.164-16.543-24.87-22.276-16.147-8.272-41.292-5.202-49.487 12.788-14.067 35.244 40.444 67.736 66.225 81.528 69.08 32.887 152.646 31.953 221.43-1.466 15.902-7.888 30.744-17.706 44.107-29.512 9.244-7.173 57.994-58.528 23.283-54.285.873-1.562 2.043-3.735 2.785-5.334 4.649-8.164-5.123-17.088-12.63-11.833.959-10.445-15.197-12.974-17.95-3.025-1.434-5.522-9.704-8.599-14.39-5.368-3.885 3.734-5.661 9.37-9.287 13.466-10.84-7.995-16.197 7.822-24.372 12.65-6.224 5.021.14 11.302-3.747 14.115" fill="#543629" blush:skin="600"/>
      <path d="M671.737 169.546c-37.552 25.318-86.374 32.937-130.947 26.311-25.611-3.95-49.82-12.6-70.15-27.759-9.785-6.28-15.164-16.543-24.87-22.276-16.147-8.272-41.292-5.202-49.487 12.788-14.067 35.244 40.444 67.736 66.225 81.528 69.08 32.887 152.646 31.953 221.43-1.466 15.902-7.888 30.744-17.706 44.107-29.512 9.244-7.173 57.994-58.528 23.283-54.285.873-1.562 2.043-3.735 2.785-5.334 4.649-8.164-5.123-17.088-12.63-11.833.959-10.445-15.197-12.974-17.95-3.025-1.434-5.522-9.704-8.599-14.39-5.368-3.885 3.734-5.661 9.37-9.287 13.466-10.84-7.995-16.197 7.822-24.372 12.65-6.224 5.021.14 11.302-3.747 14.115" fill="#543629" blush:skin="600"/>
      <path d="M704.164 234.314c-10.555 6.5-21.51 11.988-32.712 16.6-52.652 44.1-158.72 35.296-216.889 2.326-39.417-18.96-117.303-97.013-49.349-125.56 2.813-5.511 15.027-9.68 15.027-9.68 23.604 2.005 42.328 26.104 49.008 30.558 16.513 12.586 36.62 21.5 57.078 27.056 38.241 11.482 78.313 7.577 116.637 5.921 7.643-3.149 14.967-6.835 21.79-11.032l39.41 63.811z" fill="#2DB386"/>
      <path d="M671.259 249.367l-28.609-69.329c7.49-3.096 14.639-6.71 21.314-10.814l39.411 63.811c-10.36 6.38-21.126 11.791-32.116 16.332" fill="#25996F"/>
      <g>
        <path d="M483.107 310.299c-72.568 5.08-276.666-18.16-274.356-31.094 4.582-25.653 12.513-65.739 23.795-120.257 0-22.615 20.158-40.949 45.023-40.949h139.327c24.865 0 45.021 18.334 45.021 40.949 9.954 52.287 17.186 91.06 21.697 116.317 1.61 9.018 1.441 20.696-.507 35.034z" fill="#34D1A1"/>
        <path d="M205 313.19c100.65 35.654 209.777 1.927 284.463 0l-4.79-38.889c-73.162 2.617-177.854 34.562-275.998.816L205 313.19z" fill="#2DB386"/>
      </g>
      <g>
        <path d="M174.829 406.115c-16.013-40.25-32.261-86.615-18.695-129.194 15.125-38.658 57.452-61.235 95.988-76.328 17.388-6.5 27.895-23.66 22.913-42.1-12.108-38.834-55.613-17.515-80.878-4.461-36.044 18.253-70.015 43.454-90.544 79.745-21.291 36.85-21.888 82.708-13.474 122.875 6.759 33.038 18.384 64.229 32.503 94.526a586.83 586.83 0 0020.888 40.475c4.062 7.71 15.936 5.696 16.824-2.82l2.804 4.776c4.402 7.956 16.775 4.559 16.749-4.2 8.666 6.874 19.495-5.35 12.29-13.49 7.19 2.86 15.258-6.116 11.09-12.723a484.993 484.993 0 01-8.218-14.772c12.608-7.954-4.014-23.224-6.433-33.21-4.122-9.2-11.625-3.944-13.807-9.1" fill="#694D3D" blush:skin="500"/>
        <path d="M105.173 426.029c-4.088-10.195-7.908-20.596-11.27-31.287-23.837-32.096-28.888-81.902-22.175-122.471 8.085-47.295 41.767-87.474 81.542-111.97 24.036-15.383 77.146-42.302 118.072-42.302s16.616 10.598 21.376 37.258c4.532 22.89-7.353 47.023-29.714 54.125-32.793 16.84-70.911 36.237-89.542 68.48-9.75 17.559-10.057 40.86-9.197 60.52.724 15.927 2.085 28.335 1.123 33.666 2.732 8.713 5.923 17.407 9.398 26.07l-69.613 27.91z" fill="#34D1A1"/>
        <path d="M95.464 394.686l71.46-22.767c2.686 8.555 5.842 17.12 9.256 25.64l-69.612 27.911c-4.024-10.04-7.79-20.26-11.104-30.784" fill="#2DB386"/>
      </g>
    </g>
    <g blush:width="127" blush:height="211" blush:component="Head">
      <path d="M323 116h-4.12C303.482 116 291 103.518 291 88.12V52h32v64zM364 116h33.358a3.641 3.641 0 003.642-3.642V52h-37v64z" fill="#000"/>
      <path d="M341.8 105H356V0h-14.2C313.746 0 291 22.744 291 50.8V54.2c0 28.057 22.745 50.8 50.8 50.8" fill="#000"/>
      <path d="M357.2 58H348V0h9.2C385.254 0 408 9.854 408 31.551v10.361C408 58 385.255 58 357.2 58" fill="#000"/>
      <path d="M323 73h45v51.633c0 13.905-10.073 25.177-22.5 25.177S323 138.538 323 124.633V73z" fill="#694D3D" blush:skin="500"/>
      <path d="M370.053 105h-4.987C341.834 105 323 86.167 323 62.935V43.203C323 25.418 337.418 11 355.204 11h5.593C378.583 11 393 25.418 393 43.203v38.849C393 94.726 382.727 105 370.053 105" fill="#694D3D" blush:skin="500"/>
      <path d="M344.75 107.332c-9.294-3.288-13.931-11.593-15.768-22.764 7.271 12.102 20.459 20.245 35.562 20.429l.522.003H368c-7.937 4.23-15.687 5.007-23.25 2.332z" fill="#000" opacity=".12"/>
      <path d="M335 69.5c0 6.903-5.596 12.5-12.5 12.5S310 76.403 310 69.5 315.596 57 322.5 57 335 62.597 335 69.5" fill="#694D3D" blush:skin="500"/>
      <path d="M320.067 64.168c.905 0 2.157.21 3.442.852 2.146 1.073 3.504 3.035 3.595 5.882l.005.308h-3c0-1.835-.701-2.887-1.942-3.507-.46-.23-.97-.383-1.48-.468a4.887 4.887 0 00-.562-.065l-.058-.002v-3z" fill="#000" fill-rule="nonzero"/>
      <path d="M322 57h-1.536c-5.854-5.692-8.103-17.292-8.781-28.551-.929-15.43 25.859-28.45 41.316-28.45a36.251 36.251 0 0129.798 15.606L390 26h-41.303c0 17-14.697 31-26.697 31" fill="#000"/>
    </g>
    <g fill="none" blush:width="61" blush:height="61" blush:component="Expression">
      <path fill="#000" fill-rule="nonzero" d="M368.198 53.397l2.95-.547L375.435 76h-9.874v-3l6.267-.001z"/>
      <g stroke="#000" stroke-width="3">
        <path d="M356.195 75.572c0 4.75 4.75 8.708 9.501 8.708M369.446 53.11l3.958 21.376h-8.07"/>
        <path d="M369.446 53.11l3.958 21.376h-8.07"/>
        <path d="M369.446 53.11l3.958 21.376h-8.07M343.56 48.067S349.629 42 359.336 42M385.207 47.656s-5.312-5.312-13.813-5.312M348.334 54.236c2 5 11 5 12 0M373.334 54.236c2 5 11 5 12 0"/>
      </g>
    </g>
  </g>
</svg>
