<svg viewBox="61.483 -55.835 589.038 914.835" xmlns="http://www.w3.org/2000/svg" xmlns:blush="http://design.blush" overflow="visible" width="643.873" height="1000">
  <g fill="none" fill-rule="evenodd" blush:has-customizable-skin="true">
    <g blush:width="693" blush:height="596" blush:component="Legs">
      <path d="M192.227 659.96l-14.852-64.356c-.189-.875-.337-1.708-.324-2.51a8.288 8.288 0 01.333-2.207c.1-.327.22-.629.36-.903.155-.28.372-.55.59-.779.462-.47.93-.767 1.624-.975 3.94-1.125 8.485-2.582 13.067-4.126a697.24 697.24 0 0014.067-4.932c9.507-3.449 19.131-7.106 28.761-10.86 19.27-7.529 38.58-15.45 57.77-23.59 26.511-11.279 52.936-22.989 78.5-35.226l9.508-4.616 4.7-2.327.543-.273.25-.137.506-.268c.34-.174.682-.34 1.031-.498a202.214 202.214 0 007.627-4.039c2.498-1.417 5.001-2.855 7.272-4.623.553-.455 1.115-.918 1.53-1.51.416-.604.403-1.373.448-2.077.023-1.439-.103-2.874-.254-4.303-.314-2.858-.766-5.699-1.248-8.533l-.76-4.245-1.454-7.558c-2.729-13.907-5.726-28-8.826-42.112-6.22-28.242-12.878-56.615-19.719-84.955l76.791-18.55c6.934 28.728 13.691 57.51 20.083 86.535 3.191 14.522 6.292 29.093 9.194 43.876l1.077 5.56 1.417 7.591a614.068 614.068 0 012.654 15.54c1.584 10.342 2.895 20.748 2.653 30.647-.062 4.974-.787 9.664-1.547 14.432a33.635 33.635 0 01-.896 3.51c-.159.584-.396 1.162-.615 1.742l-.082.217c-.386-.142-.138.021-.238.016l-.053.105-.215.418c-.147.275-.278.564-.44.828a46.455 46.455 0 01-4.18 5.93c-6.34 7.191-14.326 13.275-23.095 18.761-8.77 5.47-18.069 10.451-27.419 15.248l-3.474 1.774-3.287 1.638-5.108 2.53-10.202 4.953c-27.18 13.007-54.38 25.048-81.798 36.715-19.833 8.414-39.752 16.587-59.924 24.467-10.094 3.936-20.248 7.798-30.582 11.546a786.814 786.814 0 01-15.737 5.516c-5.358 1.801-10.78 3.56-16.722 5.26a8.784 8.784 0 01-3.04.31 8.535 8.535 0 01-1.442-.232 8.025 8.025 0 01-1.388-.467c-.87-.387-1.62-.92-2.2-1.576-.582-.655-1.043-1.43-1.235-2.303" fill="#D29863" blush:skin="600"/>
      <path d="M222.869 665.01a806.542 806.542 0 0017.136-6.085l-31.713-86.578c-7.261 2.655-14.518 5.23-21.338 7.45-3.38 1.1-6.715 2.133-9.472 2.896l-.983.266-.491.135-.393.096-.785.197c-.153.042-.22.053-.293.066l-.225.05-.224.052c-.026.006-.102.027-.085.021l.038-.013.02-.005c.004.011-.002-.027.01.024l.109.555.213 1.108.812 4.446c.518 2.968.988 5.948 1.409 8.936a137.426 137.426 0 012.062 14.87c.057.6.088 1.302.153 1.82l.2 1.457c.12.972.214 1.951.282 2.932a54.818 54.818 0 01-.065-.84 53.994 53.994 0 00-.386-3.34l-.061-.424-.03-.447.028.015.057.031.238.14c.042.024.077.052.128.075l.258.037c.359.043.666.117 1.08.147l1.33.056a106.563 106.563 0 01-.393 4.483c-.142 1.492-.257 2.957-.468 4.455l-.16 1.122-.125 1.097c-.094.732-.21 1.47-.35 2.211l-.41 2.191a20.435 20.435 0 01-.588 2.185v78.286c1.542-.013 3.086-.06 4.629-.14l2.312-.145 1.154-.092.924-.087c1.813-.196 3.625-.429 5.43-.696l1.099-.177.932-.162 1.862-.338 1.838-.353 1.43-.306 2.857-.636 2.406-.589 2.332-.59 2.084-.563c.717-.197 1.43-.49 1.993-.855a7.732 7.732 0 001.537-1.323c.932-1.032 1.704-2.356 2.236-3.882.559-1.527.993-3.27 1.348-5.158.353-1.887.57-3.91.795-6.01.897-8.396 1.196-17.924 4.277-24.074" fill="#0A1B45"/>
      <path d="M342.648 288.377a5761.65 5761.65 0 0110.947 49.221 5190.755 5190.755 0 0110.503 49.29c3.407 16.405 6.714 32.784 9.83 49.04a1827.314 1827.314 0 014.492 24.233l2.07 11.945.246 1.476.119.721-.006.08-.014.308-.04.598c-.058.781-.137 1.5-.258 2.16a6.193 6.193 0 01-.237.942c-.062.144-.103.307-.264.415a2.65 2.65 0 01-.511.255c-.72.275-1.43.442-2.081.577-.326.067-.641.12-.941.166-.161.026-.258.034-.525.061-.13.03-.161.036-.346.133l-2.673 1.244c-14.29 6.643-29.256 13.18-44.33 19.563a2229.771 2229.771 0 01-45.705 18.717c-16.513 6.59-33.11 13.01-49.626 19.138a1432.683 1432.683 0 01-24.632 8.903c-8.132 2.853-16.203 5.581-23.832 7.982l12.52 36.788c5.922 1.85 12.007 3.57 18.149 5.23a918.896 918.896 0 01-11.326 14.82l25.658 75.394c9.546-3.462 18.608-6.97 27.554-10.537a1563.02 1563.02 0 0026.473-10.847c17.466-7.33 34.695-14.842 51.85-22.539a2358.706 2358.706 0 0047.534-22.077c15.824-7.582 31.6-15.345 47.604-23.705l7.918-4.11 9.916-5.33c6.582-3.638 13.15-7.3 19.4-11.25 6.247-3.939 12.348-8.03 17.715-12.587 5.396-4.54 10.177-9.414 14.159-14.729l1.446-2.027c.487-.672.834-1.434 1.258-2.147a166.443 166.443 0 002.414-4.447c.2-.379.4-.757.59-1.154l.29-.587.144-.294.07-.146c-.045-.084.67.2.397.01.33-.797.677-1.596.953-2.387.305-.792.576-1.584.822-2.375l.384-1.188.272-1.22c.7-3.264 1.469-6.459 2.029-9.77l.379-2.496c.134-.828.162-1.7.248-2.55l.217-2.562.09-2.617c.389-14.003-2.045-28.886-4.651-43.474a677.726 677.726 0 00-2.084-10.957l-1.085-5.465-.81-3.837-2.871-12.968a1951.225 1951.225 0 00-5.965-25.549C490.438 392.95 460.154 296.203 451 263c0 0-108.6 24.393-108.352 25.377z" fill="#CC2935"/>
      <path d="M427.447 844.221l-65.92 4.082c-1.772.156-3.438-.336-4.694-1.234-1.254-.889-2.09-2.161-2.213-3.629l-.135-1.637a35.093 35.093 0 00-.164-1.707l-.407-3.598-.404-3.599c-.135-1.199-.258-2.385-.435-3.651l-.98-7.48-.494-3.744-.55-3.811c-1.43-10.127-3.017-20.408-4.658-30.715-3.282-20.623-6.837-41.412-10.466-62.218-11.214-64.187-23.149-128.622-34.783-193.229-5.822-32.314-11.595-64.682-17.175-97.189-5.565-32.532-10.958-65.137-15.72-98.412l78.223-11.047c4.557 31.841 9.862 63.979 15.361 96.109 5.517 32.143 11.256 64.324 17.058 96.525 11.6 64.418 23.537 128.86 34.864 193.679 3.667 21.031 7.271 42.097 10.653 63.348 1.692 10.628 3.34 21.289 4.866 32.093l.582 4.039.541 4.097 1.074 8.203c.362 2.727.647 5.6.973 8.393l.472 4.217c.165 1.383.266 2.949.4 4.414.336 4.04-2.279 7.425-5.869 7.701" fill="#EDB98A" blush:skin="500"/>
      <path d="M438.31 822l-1.176-9.076-1.262-8.928-91.261 13.294c.557 3.925 1.144 7.886 1.614 11.695l.748 5.769.366 2.868.305 2.76.616 5.517.155 1.38c.05.456.07.836.107 1.257l.203 2.474.21 2.473.108 1.237.027.308.005.215.008.418c.025 1.112.075 2.224.15 3.335h31.171l1.15-5.846a168.657 168.657 0 0117.394 5.846h78.286a485.27 485.27 0 00-.315-9.796l-.11-2.445-.15-1.883-.306-3.77c-.221-2.622-2.03-4.744-4.798-6.386-2.782-1.513-6.506-2.73-10.532-3.917-8.065-2.347-17.273-4.69-22.712-8.799" fill="#0A1B45"/>
      <path d="M242.999 262.996v1.01l.567 8.862c.02.815.027 1.744.074 2.404l.474 8.595c.086 1.412.155 2.913.26 4.252l.323 3.98.655 7.96c.104 1.351.234 2.612.362 3.884l.383 3.82.768 7.64 1.68 14.955c2.34 19.749 4.919 39.096 7.618 58.324 5.417 38.416 11.249 76.391 17.164 114.287l17.972 113.279c5.997 37.651 11.979 75.234 17.658 112.597a4659.05 4659.05 0 017.906 53.911l1.844 13.35 1.727 13.21c1.1 8.73 2.153 17.413 3 25.68l38.554-4.897c2.964-5.567 5.947-11.196 8.789-16.967 4.146 4.76 8.166 9.484 12.223 14.297l79.014-10.036c-1.44-9.89-3.002-19.389-4.597-28.837l-2.44-14.055-2.516-13.914a4788.109 4788.109 0 00-10.435-55.078c-7.336-37.765-14.892-75.26-22.438-112.698l-22.521-112.067c-7.392-37.276-14.68-74.52-21.455-111.547-3.375-18.502-6.6-36.947-9.512-55.141l-2.09-13.55c-.614-4.42-1.29-8.93-1.861-13.282l-.793-6.429-.4-3.214c-.13-1.064-.198-2.003-.302-3.01l-.59-5.946-.31-4.868c-.03-.773-116.755-.76-116.755-.76z" fill="#FA3239"/>
      <path d="M243 263c0 55.228 46.562 100 104 100s104-44.772 104-100" fill="#FA3239"/>
    </g>
    <g blush:width="863" blush:height="528" blush:component="Body">
      <path d="M623.337-18.048c4.221 1.145 8.19 3.27 11.735 6.227 6.99 5.914 12.068 15.308 13.018 26.306 1.318 14.897 1.69 30.007.954 45.287-.773 15.282-2.638 30.75-6.206 46.323-3.51 15.548-8.798 31.251-16.59 46.565-3.913 7.644-8.47 15.189-13.879 22.405-5.39 7.215-29.245 34.614-76.464 34.614-47.219 0-143.788-24.565-165.41-47.504-21.622-22.939 22.213-43.555 35.45-43.555 13.238 0 103.793 21.73 122.558 21.73 18.764 0 34.237-8.379 39.01-17.792 4.777-9.402 8.478-19.963 10.982-31.16 2.571-11.17 4.027-22.93 4.63-34.876.573-11.956.3-24.12-.785-36.301-.774-8.952 1.741-17.496 6.672-24.524a35.76 35.76 0 019.065-9.06c3.543-2.453 7.611-4.269 12.085-5.136 4.473-.866 8.93-.692 13.175.45z" fill="#D29863" blush:skin="600"/>
      <path d="M628.904-44.713c4.832-1.246 9.886 2.436 11.22 8.242 5.642 25.25 9.007 51.159 9.283 77.654.04 6.114-4.095 10.969-9.083 10.818-4.947-.157-8.878-4.927-8.916-10.644-.26-25.05-3.452-49.757-8.846-73.881-1.265-5.503 1.548-10.955 6.341-12.19" fill="#D29863" blush:skin="600"/>
      <path d="M610.179-52.684c4.747-1.386 9.963 1.92 11.36 7.467a386.34 386.34 0 016.954 32.53 10.72 10.72 0 01-1.464 7.616c-1.33 2.079-3.393 3.516-5.861 3.86-4.925.664-9.534-3.146-10.425-8.485a368.789 368.789 0 00-6.628-31.011c-1.322-5.25 1.268-10.58 6.064-11.977" fill="#D29863" blush:skin="600"/>
      <path d="M594.217-50.34c4.744-1.415 9.874 1.698 11.28 7.004a371.105 371.105 0 016.842 31.14c.481 2.693-.106 5.302-1.466 7.31-1.342 2.01-3.405 3.41-5.864 3.769-2.459.358-4.848-.377-6.714-1.823a10.06 10.06 0 01-3.687-6.158 353.88 353.88 0 00-6.51-29.63c-1.327-5.008 1.337-10.188 6.119-11.612M578.337-9.29a8.754 8.754 0 016.716 1.485c1.876 1.348 3.305 3.452 3.663 5.968a314.733 314.733 0 013.19 29.39c.194 2.527-1.987 5.677-4.122 8.114-1.063 1.225-2.2 2.271-3.023 3.014-.83.742-1.386 1.181-1.386 1.181-.037-2.938-2.323-3.858-4.645-5.343-2.316-1.49-4.613-3.516-4.974-8.748A296.259 296.259 0 00570.931.935c-.729-4.727 2.5-9.299 7.406-10.225" fill="#D29863" blush:skin="600"/>
      <path d="M581.072-37.928c2.4-.645 4.835-.22 6.841 1.02a9.296 9.296 0 014.177 5.836c4.106 17.056 6.974 34.403 8.362 51.818.243 2.596-.67 5.023-2.17 6.805a8.627 8.627 0 01-6.2 3.044c-2.48.122-4.767-.781-6.506-2.3-1.748-1.524-2.835-3.66-3.067-6.106-1.304-16.406-4.02-32.857-7.92-49.057-.558-2.42-.154-4.84 1.004-6.84 1.165-1.996 3.08-3.574 5.48-4.22" fill="#D29863" blush:skin="600"/>
      <path d="M454.557 268.175H230.076V161.113c0-8.8 2.675-16.976 7.257-23.758 7.636-11.304 20.569-18.736 35.237-18.736h129.493c23.469 0 42.494 19.026 42.494 42.494l10 107.062z" fill="#0A1B45"/>
      <path stroke="#FFF" stroke-width="3" stroke-linecap="round" d="M432.075 132.175h-189.5M443.075 162.175h-211.5M447.5 192.5l-215.925-.325M449.5 222.5l-217.925-.325M452.5 252.5l-220.925-.325"/>
      <path d="M386.075 118.62c0 16.556-8 37.556-34.5 37.556-31.5 0-44.5-17.92-44.5-37.556h79zM208.894 380.525a134.315 134.315 0 01-5.866-.744l-5.276-.699c-3.255-.434-6.021-.622-8.107-.965-2.114-.347-3.623-.902-4.935-2.359-.972-1.114-2.276-2.338-3.825-3.63a61.726 61.726 0 00-5.392-4.029 110.444 110.444 0 00-6.746-4.224 202.105 202.105 0 00-7.827-4.334c-10.188-5.426-22.206-10.969-35.222-18.271-6.536-3.722-13.337-7.849-20.307-13.075-6.928-5.164-14.064-11.477-20.563-19.332-3.26-3.895-6.283-8.285-9.012-12.885-2.718-4.645-5.015-9.611-6.932-14.691-3.694-10.2-5.56-20.823-5.821-30.617-.04-2.428-.122-4.917.005-7.251l.147-3.55c.063-1.193.203-2.461.314-3.688.125-1.237.232-2.467.392-3.709l.586-3.744c.359-2.486.97-4.996 1.54-7.488 2.389-9.995 6.623-19.785 11.99-28.493 5.362-8.769 11.95-16.269 18.85-22.656 6.928-6.411 14.229-11.597 21.543-16.016 14.676-8.822 29.402-14.581 43.842-19.026 14.46-4.409 28.722-7.444 42.839-9.678 14.119-2.219 44.717-6.751 64.168-6.751 19.45 0 21.25 15.062 20.402 34.581-.512 9.096-5.078 17.142-12 23.097-6.935 5.957-16.2 9.815-26.533 10.452-12.064.727-24.04 1.973-35.735 3.811-11.686 1.843-23.095 4.321-33.821 7.597-10.707 3.263-20.754 7.391-29.058 12.424-8.37 5-14.672 10.853-18.368 16.884-3.742 6.041-5.32 12.555-5.14 20.998.089 3.904.809 7.12 1.807 10.057.58 1.436 1.19 2.838 1.997 4.209.847 1.363 1.726 2.75 2.91 4.133 2.299 2.775 5.358 5.646 9.194 8.488 3.776 2.854 8.309 5.658 13.2 8.44 9.896 5.591 21.38 10.931 33.695 17.435a267.866 267.866 0 0110.213 5.663 175.55 175.55 0 0110.526 6.607 127.034 127.034 0 0110.678 8.021c3.546 2.966 7.079 6.245 10.439 9.998 4.392 4.833 7.54 10.815 8.953 16.769 1.425 5.966 1.188 11.775-.444 16.551-.781 2.387-1.964 4.541-3.27 6.393a22.837 22.837 0 01-4.75 4.731c-3.54 2.593-7.784 4.046-12.282 4.645-4.53.608-8.9.347-12.998-.079z" fill="#EDB98A" blush:skin="500"/>
      <path d="M197.914 395.102c-2.472-.333-4.556-1.333-6.12-2.413-.768-.551-1.37-1.149-1.755-1.768-.446-.575-.678-1.166-.639-1.779.058-2.591-.166-4.618-.584-6.16-.425-1.566-.907-2.778-1.77-4.197-.91-1.4-2.198-3.05-4.213-4.95-2.035-1.891-4.707-3.984-7.918-6.132-2.915-1.95-3.754-7.08-1.26-11.383 1.244-2.141 3.176-3.651 5.211-4.301 2.062-.661 4.268-.463 6.041.711 3.83 2.563 7.294 5.232 10.253 7.99 2.941 2.768 5.307 5.625 7.166 8.553 1.824 2.945 3.091 6.002 3.951 9.334.864 3.323 1.207 6.992 1.118 10.937a5.158 5.158 0 01-.81 2.53 6.706 6.706 0 01-2.133 1.943c-1.704 1.007-4.086 1.428-6.538 1.085" fill="#EDB98A" blush:skin="500"/>
      <path d="M211.918 406.722c-2.41-.604-4.389-2-5.65-3.675-.638-.839-1.159-1.733-1.432-2.664-.283-.928-.32-1.894-.21-2.825 1.227-7.399.988-14.002-.562-19.469-.403-1.406.108-2.948 1.186-4.536 1.143-1.594 2.785-3.202 5.032-4.303 2.214-1.087 4.661-1.378 6.685-.669a6.705 6.705 0 014.403 4.561c2.47 8.691 2.542 18.06 1.033 27.23-.15 1.186-.645 2.264-1.289 3.19-.654.926-1.456 1.697-2.426 2.267-1.958 1.147-4.359 1.495-6.77.893" fill="#EDB98A" blush:skin="500"/>
      <path d="M226.957 412.578c-2.4-.645-4.333-2.215-5.54-4.138-.613-.964-1-2.016-1.246-3.12a8.191 8.191 0 01-.05-3.4c1.587-8.964 1.895-18.063-.205-26.498-.308-1.07-.293-2.172-.175-3.235.116-1.06.451-2.123.965-3.14.934-1.987 2.6-3.848 4.87-4.856 2.271-1.006 4.767-.883 7.031.344 1.08.627 2.087 1.523 2.945 2.639.853 1.115 1.436 2.474 1.845 3.956 1.43 5.79 2.024 11.663 2.006 17.36-.016 5.706-.622 11.249-1.566 16.619a10.928 10.928 0 01-1.453 3.707c-.68 1.08-1.606 1.95-2.597 2.62-2.004 1.34-4.43 1.786-6.83 1.142M253.89 371.773c-2.447.45-4.933-.596-7.004-2.441a15.312 15.312 0 01-2.904-3.37c-.841-1.301-1.647-2.753-2.197-4.37-2.29-6.264-5.568-12.173-9.375-17.397-3.812-5.237-8.14-9.8-12.612-13.775-1.144-1.053-2.066-2.5-2.825-4.247-.764-1.68-1.378-3.588-1.877-5.37a71.412 71.412 0 01-1.133-4.644c-.255-1.208-.382-1.971-.382-1.971 1.515 1.015 2.87 1.356 4.217 1.276 1.348-.072 2.704-.46 4.249-.675 1.548-.204 3.263-.364 5.379.326 1.056.337 2.2.818 3.46 1.59a26.593 26.593 0 014.127 3.26c4.69 4.494 9.299 9.704 13.399 15.672 4.103 5.952 7.649 12.668 10.249 19.695.7 2.019 1.16 4.04 1.224 5.923.057 1.885-.161 3.63-.617 5.126-1.01 2.986-2.94 4.94-5.377 5.392" fill="#EDB98A" blush:skin="500"/>
      <path d="M244.498 407.517c-2.46-.479-4.382-2.023-5.725-4.13-1.327-2.107-1.936-4.694-1.714-7.497.874-9.337.194-19.342-2.932-28.892a62.285 62.285 0 00-6.332-13.579c-2.626-4.23-5.709-8.087-9.036-11.54-.997-1.02-1.787-2.137-2.36-3.344a11.253 11.253 0 01-1.14-3.64c-.34-2.462.158-4.942 1.741-6.868 1.58-1.908 3.98-2.873 6.666-2.688 1.34.11 2.747.496 4.13 1.147a15.404 15.404 0 013.952 2.93c4.075 4.233 7.97 9.081 11.328 14.492a80.28 80.28 0 018.156 17.486c2.008 6.134 3.221 12.403 3.788 18.487.601 6.114.443 11.964-.03 17.587-.173 1.656-.538 3.261-1.204 4.578-.652 1.331-1.489 2.48-2.45 3.382-1.91 1.818-4.416 2.542-6.838 2.09" fill="#EDB98A" blush:skin="500"/>
    </g>
    <g blush:width="127" blush:height="211" blush:component="Head">
      <path d="M345.8 104.538H365v-105h-19.2c-28.056 0-50.8 22.744-50.8 50.8v3.399c0 28.057 22.744 50.8 50.8 50.8" fill="#000"/>
      <path d="M351.2 74.538H342v-75h9.2c28.056 0 50.8 12.744 50.8 40.8v13.399c0 20.8-22.744 20.8-50.8 20.8" fill="#000"/>
      <path d="M323 72.538h45v51.633c0 13.905-10.074 25.177-22.5 25.177S323 138.076 323 124.17V72.538z" fill="#EDB98A" blush:skin="500"/>
      <path d="M370.053 104.538h-4.987c-23.232 0-42.065-18.833-42.065-42.065V42.74c0-17.785 14.417-32.203 32.203-32.203h5.593C378.583 10.538 393 24.956 393 42.74V81.59c0 12.674-10.274 22.948-22.948 22.948" fill="#EDB98A" blush:skin="500"/>
      <path d="M344.75 107.332c-9.294-3.288-13.931-11.593-15.768-22.764 7.271 12.102 20.459 20.245 35.562 20.429l.522.003H368c-7.937 4.23-15.687 5.007-23.25 2.332z" fill="#000" opacity=".12"/>
      <path d="M335 69.038c0 6.903-5.596 12.5-12.5 12.5S310 75.94 310 69.038s5.596-12.5 12.5-12.5 12.5 5.597 12.5 12.5" fill="#EDB98A" blush:skin="500"/>
      <path d="M320.067 63.706c.905 0 2.157.21 3.442.852 2.146 1.073 3.504 3.035 3.595 5.882l.005.308h-3c0-1.835-.701-2.887-1.942-3.507-.46-.23-.97-.383-1.48-.468a4.887 4.887 0 00-.562-.065l-.058-.002v-3z" fill="#000" fill-rule="nonzero"/>
      <path d="M322 56.538h-1.536c-5.854-5.692-8.103-17.292-8.781-28.551-.929-15.43 25.859-28.45 41.316-28.45h17.985l17.016 26h-39.303c0 17-14.697 31-26.697 31" fill="#000"/>
      <path d="M352.264 25.538h35.305c10.18 0 18.431-8.252 18.431-18.431V-.83a7.172 7.172 0 00-7.172-7.172h-31.554C353.868-8.001 343 2.868 343 16.274a9.264 9.264 0 009.264 9.264" fill="#000"/>
    </g>
    <g fill="#000" blush:width="61" blush:height="61" blush:component="Expression">
      <path d="M355.56 56a3 3 0 10-5.999 0 3 3 0 006 0M381.56 56a3 3 0 10-5.999 0 3 3 0 006 0M368.198 53.397l2.95-.547L375.435 76h-9.874v-3l6.267-.001zM356.922 75.586c0 3.674 3.742 7.072 7.76 7.204l.24.004v3c-5.597 0-10.826-4.566-10.996-9.939l-.004-.269h3zM358.06 43v3c-3.226 0-6.169.866-8.77 2.311-.782.434-1.481.893-2.094 1.354l-.3.231c-.347.275-.59.488-.724.616l-.05.049L344 48.439c.717-.717 2.012-1.739 3.832-2.75 2.892-1.607 6.157-2.6 9.738-2.683l.49-.006zM372.06 43c3.774 0 7.206 1.01 10.23 2.689 1.706.948 2.95 1.905 3.69 2.612l.141.138L384 50.561l-.192-.179c-.111-.1-.259-.225-.44-.372l-.143-.114a17.903 17.903 0 00-2.393-1.585c-2.472-1.373-5.251-2.223-8.29-2.305l-.481-.006v-3z"/>
    </g>
    <g fill="none" blush:width="76" blush:height="48" blush:component="Accessories">
      <path d="M377.198 56.767c6.67 0 10.395 6.152 13.121 8.91.218.192.431.39.64.593.116.098.23.187.344.266l-.011.061c3.92 3.946 6.325 9.28 6.325 15.153 0 12.15-10.298 22-23 22-12.703 0-23-9.85-23-22 0-8.117 4.595-15.207 11.433-19.02l-.006-.038c5.44-2.546 6.647-5.925 14.154-5.925z" fill="#D8D8D8"/>
      <path d="M354.617 76.733c0 12.15 10.297 22 23 22 7.457 0 14.086-3.395 18.288-8.657-3.436 8.013-11.673 13.657-21.288 13.657-12.703 0-23-9.85-23-22 0-5.016 1.755-9.64 4.71-13.342a21.113 21.113 0 00-1.71 8.342z" fill="#000" opacity=".12"/>
      <path stroke="#22252B" stroke-width="2" d="M322 56l34.913 14.229M355.673 84.173H322"/>
    </g>
  </g>
</svg>
