<svg viewBox="82.981 -51.54 571.839 910.54" xmlns="http://www.w3.org/2000/svg" xmlns:blush="http://design.blush" overflow="visible" width="628.022" height="1000">
  <g fill="none" fill-rule="evenodd" blush:has-customizable-skin="true">
    <g blush:width="693" blush:height="596" blush:component="Legs">
      <path d="M430.007 778.602A417.477 417.477 0 00447 769.734L402.377 689a324.215 324.215 0 01-18.793 9.578 273.776 273.776 0 01-9.424 4.21 215.113 215.113 0 01-4.572 1.88l-2.144.836-.96.361-.393.145-.091.033.029-.012.061-.019 1.066 3.076 9.135 26.386c.27.025.814-.048 1.315-.113l1.556-.22 3.22-.528c.14 6.111.154 12.252-.022 18.388l13.906 40.164L407.981 827l2.85-1.023 2.029-.76 3.716-1.441a323.169 323.169 0 006.928-2.834c4.726-1.999 5.158-9.352 4.998-17.789-.159-8.452-.898-17.974 1.505-24.55" fill="#0A1B45"/>
      <path d="M333.03 333.64c9.524 4.724 19.154 9.576 28.358 14.357 4.583 2.38 9.15 4.796 13.044 6.968l2.648 1.508 1.904 1.17c1.968 1.228 3.936 2.455 5.894 3.733 15.714 10.143 30.808 21.576 44.516 33.761 27.52 24.337 49.301 52.32 61.038 80.528a156.199 156.199 0 016.943 21.198c.384 1.773.784 3.54 1.203 5.3.33 1.772.58 3.549.903 5.313.372 1.758.51 3.544.709 5.316.167 1.777.509 3.533.525 5.323.086 1.783.193 3.56.32 5.334l.002 5.366c-.004.901.04 1.77.01 2.696l-.13 2.823c-.04 1.89-.218 3.74-.364 5.593-.634 7.402-1.758 14.595-3.514 21.563a138.505 138.505 0 01-6.82 20.368c-2.813 6.617-6.238 13.059-10.13 19.379-3.922 6.308-8.433 12.456-13.4 18.455-5.04 5.967-10.497 11.806-16.505 17.388-10 9.311-21.29 18.001-33.433 25.938-12.135 7.92-25.2 15.117-38.48 21.226l17.155 34.987a306.707 306.707 0 0018.128 2.992 331.447 331.447 0 01-8.78 16.077l35.157 71.7c19.134-9.86 37.381-20.973 54.962-33.576 17.547-12.616 34.381-26.712 50.029-42.643 9.418-9.482 18.348-19.704 26.736-30.52 8.338-10.876 16.11-22.39 23.025-34.574 6.888-12.197 13.008-24.986 18.034-38.275a270.098 270.098 0 0011.864-40.939c2.878-13.916 4.522-28.012 5.146-41.994.142-3.496.287-6.991.262-10.466l.011-5.218c-.018-1.749-.116-3.547-.177-5.319-.154-3.555-.272-7.11-.502-10.657l-1.04-10.636c-.29-3.549-.945-7.054-1.46-10.575-.547-3.515-1.069-7.036-1.858-10.498-.739-3.472-1.443-6.955-2.256-10.402l-2.74-10.246a283.543 283.543 0 00-14.617-39.241c-5.855-12.493-12.49-24.41-19.73-35.719-7.217-11.34-15.159-21.918-23.456-31.994a381.517 381.517 0 00-26.122-28.506 437.421 437.421 0 00-28.13-25.312c-19.32-15.918-35.521-27.289-56.822-39.56-.504-.291-74.01 0-74.01 0-30.154 46.634-44.838 70.138-44.05 70.51z" fill="#CC2935"/>
      <path d="M209.115 854.951l-65.77-6.81c-1.78-.183-3.273-1.381-4.227-3.235-.943-1.819-1.403-4.429-.93-6.821l1.006-5.483c.352-1.813.775-3.468 1.169-5.21.773-3.51 1.694-6.718 2.603-9.98.444-1.66.941-3.191 1.43-4.752l1.477-4.67c1.04-2.974 2.057-6.038 3.14-8.925 4.292-11.618 8.987-22.455 13.534-32.534l6.465-14.32 1.41-3.211 1.399-3.461 2.802-6.922 5.621-13.835c1.791-4.67 3.429-9.446 5.156-14.161l4.249-11.764c.736-1.943 1.365-3.95 2.005-5.953l1.927-6 3.861-12 1.934-6c.634-2.005 1.18-4.057 1.773-6.082l7.009-24.382 6.337-24.691 1.586-6.172 1.427-6.237 2.853-12.473 2.858-12.474 2.573-12.572 2.56-12.577c.85-4.193 1.742-8.376 2.46-12.608l4.562-25.325c5.672-33.876 10.493-67.973 14.268-102.233 3.65-34.274 6.504-68.655 8.382-103.078L337 312.2c-1.957 35.916-4.93 71.758-8.743 107.525-3.94 35.759-8.974 71.416-14.934 106.974l-4.796 26.633c-.759 4.444-1.696 8.866-2.593 13.293l-2.702 13.28-2.722 13.277-3.027 13.238-3.032 13.238-1.517 6.617-1.69 6.595-6.775 26.372-7.54 26.256c-.643 2.185-1.232 4.38-1.918 6.558l-2.097 6.527-4.2 13.056-2.101 6.526c-.698 2.176-1.385 4.354-2.195 6.51l-4.673 12.965c-1.905 5.208-3.71 10.434-5.7 15.623l-6.286 15.503-3.147 7.75-1.576 3.874-1.745 3.978-6.653 14.742c-4.268 9.447-8.144 18.497-11.412 27.339-.835 2.213-1.531 4.369-2.31 6.55l-1.004 3.201c-.336 1.064-.695 2.141-.956 3.165-.568 2.074-1.19 4.17-1.6 6.133-.216.987-.502 2.014-.676 2.965l-.511 2.828c-.288 1.304-1.048 2.191-2.33 2.855-1.262.643-2.943.988-4.724.805" fill="#694D3D" blush:skin="500"/>
      <path d="M228.151 831.705c.406-1.14.769-2.257 1.205-3.415l1.315-3.48-59.151-22.565L144.666 792c-3.405 8.9-6.663 18.302-9.385 28.794l-1.91 8.118c-.577 2.828-1.094 5.763-1.607 8.646-.459 3.023-.824 6.202-1.186 9.302-.183 2.2-.32 6.246-.413 12.14H161.289l.747-5.896c.318-1.441.595-2.91 1.024-4.248a141.957 141.957 0 008.22 4.813c1.851.998 4.694 2.775 8.526 5.331h42.429l30.557-.025c1.348-.024.089-6.472-.616-6.775-.71-.336-5.532-2.573-7.307-3.39-7.221-3.253-15.269-5.623-18.908-10.431.715-2.206 1.35-4.38 2.19-6.674z" fill="#0A1B45"/>
      <path d="M241.872 263s-4.247 58.153-8.264 97.365c-4.045 39.216-9.31 78.273-15.871 116.947-6.515 38.684-14.587 76.92-24.14 114.358-9.586 37.402-20.768 74.046-34.124 108.757l-4.505 11.693c-1.589 3.816-3.263 7.55-4.883 11.329l-4.878 11.305-.608 1.414-.303.706-.295.63-1.173 2.494-2.726 5.716c-3.89 8.123-8.301 17.347-12.611 27.287-4.32 9.989-8.623 20.744-12.491 33.004l37.179 11.126c5.366-5.03 10.748-9.624 16.235-13.767a294.88 294.88 0 004.028 19.832L248.635 846c1.557-5.893 3.86-12.695 6.642-19.923 2.792-7.272 6.039-14.916 9.714-23.482l2.879-6.759 1.546-3.709c.27-.63.503-1.222.72-1.796l.672-1.75 5.372-13.995c1.77-4.666 3.6-9.328 5.309-13.997l4.756-14.023c14.16-41.575 25.062-83.277 34.078-125.03 8.958-41.756 16.082-83.563 21.501-125.428 5.463-41.862 9.477-83.77 12.184-125.73 2.677-41.962 4.132-63.868 3.981-105.977.031-1.287-116.117-1.401-116.117-1.401z" fill="#FA3239"/>
      <path d="M243 263c0 55.228 46.562 100 104 100s104-44.772 104-100" fill="#FA3239"/>
    </g>
    <g blush:width="863" blush:height="528" blush:component="Body">
      <path d="M593.51-36.745l-.029-.112c-.178-.685-.358-1.37-.54-2.054-1.222-4.547 1.568-9.364 6.343-10.787a8.88 8.88 0 012.548-.372l.252.004a8.824 8.824 0 017.234 4.167l.001-.01c.657-3.039 2.397-5.325 5.875-6.32a10.276 10.276 0 012.567-.31l.395.014c5.172.312 8.016 5.366 9.82 11.767 1.146-2.173 3.116-3.88 5.66-4.544a6.889 6.889 0 012.126-.355l.505.021c10.82.922 14.251 31.638 15.789 54.92l.063.964c3.007 17.128 1.177 37.676.543 52.061-3.137 40.514-15.672 83.351-43.683 114.764-25.09 29.638-62.38 42.937-100.102 43.389l-1.715.011c-18.867.032-37.797-3.135-55.32-9.065-14.98-5.48-31.559-8.792-43.017-20.026-20.083-20.324-1.451-54.691 25.156-54.64l.817.012c.273.008.547.02.821.034 12.45.723 23.676 8.814 35.486 11.495 7.958 2.428 15.865 4.244 23.545 5.29 5.502.95 10.734 1.38 15.703 1.337l1.646-.032c49.105-1.47 71.967-49.662 74.866-97.764 1.148-8.286.664-17.088.207-25.72-2.11-4.544-9.253-3.6-9.258-11.427 1.147-9.99-9.324-28.294 4.85-31.826a295.336 295.336 0 00-3.406-15.915c-1.054-4.353 1.875-8.926 6.686-10.241 2.72-.746 5.483-.198 7.566 1.27z" fill="#694D3D" blush:skin="500"/>
      <path d="M627.977-40.757l.005-.013c1.147-2.167 3.114-3.87 5.654-4.532 13.079-4.236 16.862 30.393 18.483 55.556 3.007 17.126 1.177 37.671.543 52.055-3.137 40.514-15.672 83.351-43.683 114.764-38.016 44.906-104.037 52.303-157.138 34.335-14.979-5.48-31.558-8.792-43.016-20.026-20.493-20.739-.675-56.1 26.794-54.594 12.45.723 23.676 8.814 35.486 11.495 7.958 2.428 15.865 4.244 23.545 5.29 61.127 10.545 88.993-43.013 92.215-96.459 1.148-8.286.664-17.088.207-25.72-2.11-4.544-9.253-3.6-9.258-11.427 1.147-9.99-9.324-28.294 4.85-31.826a295.336 295.336 0 00-3.406-15.915c-1.054-4.353 1.875-8.926 6.686-10.241 2.72-.746 5.483-.198 7.566 1.27-.187-.723-.377-1.444-.569-2.166-1.222-4.547 1.568-9.364 6.343-10.787a8.825 8.825 0 0110.034 3.799c.654-3.044 2.394-5.334 5.876-6.33 7.098-1.725 10.66 3.94 12.783 11.472z" fill="#543629" blush:skin="600"/>
      <path d="M480.543 229.325c-25.426-3.946-49.057-12.293-71.698-22.872-24.043-11.042-29.616-37.053-19.941-60.927C394.686 131.258 415.417 118 415.417 118c44.14 1.575 78.562 24.356 78.562 24.356l-13.436 86.969z" fill="#051026"/>
      <path fill="#694D3D" blush:skin="500" d="M257 219h180v48H257z"/>
      <path d="M279 118h136c22.091 0 40 17.909 40 40v77H239v-77c0-22.091 17.909-40 40-40z" fill="#0A1B45"/>
      <path d="M301 118c0 18.225 20.595 33 46 33s46-14.775 46-33" fill="#694D3D" blush:skin="500"/>
      <g>
        <path d="M244.928 380.652h-.001c-10.976 1.296-22.578-2.04-32.785-4.096-7.001-2.408-10.422-9.313-17.433-12.781-13.686-8.759-28.97-15.176-44.496-23.71-21.573-11.309-45.671-29.501-56.106-53.797-15.047-33.739-8.795-75.645 15.825-103.111 28.827-32.11 71.76-43.675 112.247-49.612 18.655-1.61 42.382-8.621 57.05 5.732 13.337 11.547 12.365 34.815.31 46.668-5.635 6.006-13.144 9.872-21.515 10.371-18.075 1.077-35.905 3.379-52.3 7.439-20.764 5.779-47.568 13.901-52.972 36.4-4.911 21.145 11.434 32.698 29.042 41.956 15.443 8.39 32.733 15.873 48.76 26.244 13.714 9.264 30.27 21.244 34.58 38.367 4.499 15.55-3.727 32.357-20.206 33.93" fill="#694D3D" blush:skin="500"/>
        <path d="M220.948 396.355c-12.18-1.357-6.358-12.285-11.508-19.302-3.593-8.679-21.496-11.58-14.93-23.966 9.057-13.26 24.533 7.101 30.211 14.454 4.765 7.89 12.298 30.101-3.773 28.814" fill="#694D3D" blush:skin="500"/>
        <path d="M234.86 408.452c-13.147-3.39-3.113-21.695-7.896-30.952-1.285-6.01 6.972-12.433 12.72-10.028 9.627 6.174 6.58 24.298 5.74 34.25-.699 4.915-5.775 8.027-10.564 6.73" fill="#694D3D" blush:skin="500"/>
        <path d="M249.88 414.384c-4.764-1.287-7.649-6.29-6.754-11.021 1.661-9.392 2.029-19.128-.265-28.368-2.083-7.015 5.263-15.896 12.531-11.407 9.82 4.9 11.598 56.328-5.512 50.796M276.888 371.587c-13.614-.562-13.803-21.431-22.264-29.39-7.841-10.645-18.93-16.984-19.91-31.065 5.746 3.476 11.828-1.965 17.713 2.836 10.932 7.31 43.586 47.749 24.46 57.619" fill="#694D3D" blush:skin="500"/>
        <path d="M267.494 409.005c-14.71-3.091.544-32.184-17.306-57.316-3.606-7.33-11.583-11.623-13.383-19.525-1.59-7.358 6.388-12.021 12.66-8.3 6.79 4.306 11.28 11.358 16.007 18.312 8.748 10.304 24.254 67.306 2.022 66.829" fill="#694D3D" blush:skin="500"/>
        <path d="M190.563 128.209c23.552-5.518 49.75-11.209 86.833-10.209 25.696.693 31.57 19.794 29.639 45.342-1.81 22.945-19.261 42.457-42.083 43.634-18.841.824-37.455 2.937-54.191 6.883l-20.198-85.65z" fill="#0A1B45"/>
      </g>
    </g>
    <g blush:width="127" blush:height="211" blush:component="Head">
      <path d="M350 0c29.823 0 54 24.177 54 54v19c0 29.823-24.177 54-54 54h-27c-14.912 0-27-12.088-27-27V54c0-29.823 24.177-54 54-54z" fill="#000"/>
      <path d="M323 73h45v51.633c0 13.905-10.073 25.177-22.5 25.177S323 138.538 323 124.633V73z" fill="#694D3D" blush:skin="500"/>
      <path d="M370.053 105h-4.987C341.833 105 323 86.167 323 62.935V43.203C323 25.418 337.417 11 355.203 11h5.592C378.582 11 393 25.418 393 43.203v38.849C393 94.726 382.726 105 370.053 105" fill="#694D3D" blush:skin="500"/>
      <path d="M344.75 107.332c-9.294-3.288-13.931-11.593-15.768-22.764 7.271 12.102 20.459 20.245 35.562 20.429l.522.003H368c-7.937 4.23-15.687 5.007-23.25 2.332z" fill="#000" opacity=".12"/>
      <path d="M335 69.5c0 6.903-5.596 12.5-12.5 12.5S310 76.403 310 69.5 315.596 57 322.5 57 335 62.597 335 69.5" fill="#694D3D" blush:skin="500"/>
      <path d="M320.067 64.168c.905 0 2.157.21 3.442.852 2.146 1.073 3.504 3.035 3.595 5.882l.005.308h-3c0-1.835-.701-2.887-1.942-3.507-.46-.23-.97-.383-1.48-.468a4.887 4.887 0 00-.562-.065l-.058-.002v-3z" fill="#000" fill-rule="nonzero"/>
      <path d="M319.464 57c-2.975-2.893-5.019-7.311-6.399-12.436-1.335-4.959 22.677-38.259 38.134-38.259 11.891 0 23.826-.474 30.598 9.3 11.202 15.763 14.936 24.323 11.204 25.68-20.403 3.215-35-1.491-47.501-9.634C343.5 48.65 330 57 321 57h-1.536z" fill="#000"/>
    </g>
    <g fill="#000" blush:width="61" blush:height="61" blush:component="Expression">
      <path d="M355.56 56a3 3 0 10-5.999 0 3 3 0 006 0M381.56 56a3 3 0 10-5.999 0 3 3 0 006 0M368.198 53.397l2.95-.547L375.435 76h-9.874v-3l6.267-.001zM356.922 75.586c0 3.674 3.742 7.072 7.76 7.204l.24.004v3c-5.597 0-10.826-4.566-10.996-9.939l-.004-.269h3zM358.06 43v3c-3.226 0-6.169.866-8.77 2.311-.782.434-1.481.893-2.094 1.354l-.3.231c-.347.275-.59.488-.724.616l-.05.049L344 48.439c.717-.717 2.012-1.739 3.832-2.75 2.892-1.607 6.157-2.6 9.738-2.683l.49-.006zM372.06 43c3.774 0 7.206 1.01 10.23 2.689 1.706.948 2.95 1.905 3.69 2.612l.141.138L384 50.561l-.192-.179c-.111-.1-.259-.225-.44-.372l-.143-.114a17.903 17.903 0 00-2.393-1.585c-2.472-1.373-5.251-2.223-8.29-2.305l-.481-.006v-3z"/>
    </g>
    <path d="M357.545 45c5.744.025 11.476 1.352 13.54 3.974 1.009 1.28 1.592 3.04 1.822 5.026h3.207c.23-1.985.813-3.745 1.821-5.026 2.018-2.563 7.538-3.888 13.15-3.97l.391-.004h.42l2.919.038c10.267.17 14.165.693 15.079 2.656 1.01 2.17 1.578 5.155.676 6.704l-.135.21c-.174.272-.616 1.095-1.103 2.07l-.105.21-.43.887a49.901 49.901 0 00-1.585 3.657l-.068.255c-.89 3.277-2.658 6.51-4.445 8.65-3.35 4.009-17.586 4.271-21.666.12-2.63-2.674-4.525-7.715-4.945-12.457h-3.154c-.42 4.742-2.317 9.783-4.946 12.458-4.08 4.15-18.316 3.888-21.665-.121-1.788-2.14-3.555-5.373-4.446-8.65l-.067-.255A48.842 48.842 0 00340.332 58H314v-4h24.263c-.62-1.623-.066-4.31.864-6.306.97-2.082 5.295-2.545 17.017-2.683l.98-.01h.421zm-10.69 6.578c-1.722 2.361-2.057 5.326-1.45 8.275l.228.613-.08.032c.642 2.538 1.96 5.03 3.674 7.081 1.858 2.224 13.56 2.44 16.076-.12 3.203-3.258 5.077-12.5 2.927-15.651l-.123-.169-.126-.146c-2.966-3.168-18.79-3.12-21.127.085zm55.312 0c-2.3-3.156-17.684-3.25-20.983-.227l-.144.142-.125.146-.124.169c-2.15 3.151-.276 12.393 2.927 15.65 2.517 2.561 14.218 2.345 16.076.121 1.613-1.93 2.876-4.251 3.553-6.633l.12-.448-.08-.032.228-.613c.609-2.949.273-5.914-1.448-8.275z" fill="#000" blush:width="95" blush:height="32" blush:component="Glasses"/>
  </g>
</svg>
