<svg viewBox="125.97665148063788 -64.42499999999995 408.45671981776746 923.4249999999998" xmlns="http://www.w3.org/2000/svg" xmlns:xlink="http://www.w3.org/1999/xlink" xmlns:blush="http://design.blush" overflow="visible" width="442.3279852914612px" height="1000px"><g id="Master/Character/Standing" stroke="none" stroke-width="1" fill="none" fill-rule="evenodd" blush:has-customizable-skin="true" transform="scale(-1, 1) translate(-660, 0)"><g id="Legs" transform="translate(-0.000000, 263.000000) scale(1 1)" blush:width="693" blush:height="596" blush:component="Legs"><g id="Legs/Pants Stand Forward" stroke="none" stroke-width="1" fill="none" fill-rule="evenodd"><g id="Right-leg" transform="translate(345.827400, 6.000000)"><path d="M17.1726,538.794079 C16.7282355,482.562693 14.6318827,368.338742 14.1735382,314.254612 C14.073681,304.520186 21.9574059,296.547228 31.783353,296.447541 L75.5247949,295.999074 C85.3507421,295.901257 93.3962356,303.710729 93.4960928,313.444157 C94.1581459,366.840448 96.2255359,482.493338 96.8770986,538 C96.9125533,541.563807 17.2085486,542.359879 17.1726,538.794079 Z" id="SKIN-DARKER" fill="#964C1C" blush:skin="600"/><path d="M5.53383916,1.34842064 C2.5315175,1.3793098 0.132657491,4.68046396 0.1726,8.72196148 C0.92894713,105.459828 3.29783387,438.016485 4.0012064,529 L111.1726,527.907919 C110.034615,440.845333 105.594576,95.5842655 104.371667,2.33488083 C104.697376,-0.404622091 71.7514338,-0.733442155 5.53383916,1.34842064 Z" id="Fill-3" fill="#051026"/><polygon id="Fill-5" fill="#FFF" points="97.1726 566.206898 17.4675919 567 17.1726 538.794079 96.8766047 538"/><path d="M52.8126594,553.452382 C54.170628,569.630627 19.7881481,569.981578 20.82217,553.783047 C18.3990887,553.808405 17,553.82362 17,553.82362 L17.3670727,590 L133,590 L132.880651,577.134492 C132.787379,567.798783 101.399314,565.830865 96.8770986,553.040416 C79.8381941,553.187933 65.1500477,553.325255 52.8126594,553.452382 Z" id="Fill-7" fill="#0A1B45"/></g><path d="M243,0 C243,55.228475 289.562386,100 347,100 C404.437614,100 451,55.228475 451,0" id="Waist" fill="#0A1B45"/><g id="Left-Leg" transform="translate(126.999300, 0.000000)"><path d="M13.3051835,561.440501 C11.1111953,546.184832 10.3220497,537.037999 10.9377469,534 C20.1472456,485.625024 25.5921475,459.483817 35.7421653,411.454867 L57.0516115,312.169384 C59.1423194,302.49757 68.6283827,296.334735 78.231262,298.397962 L120.98594,307.584544 C130.590817,309.64976 136.676234,319.144584 134.591517,328.795516 C120.348943,394.794928 106.123343,460.863942 92.6555495,526.806677 C89.8749278,540.410057 86.5002416,557.386193 83.9572458,570.940851" id="SKIN" fill="#AE5D29" blush:skin="500"/><path d="M116.006418,0 C113.763854,3.4799207 112.459231,6.70044364 112.092549,9.66156882 C74.6759301,177.729367 34.9662125,354.281468 0.000699999971,523.074582 L105.209251,544 C139.099717,375.548093 177.579381,199.923839 213.937954,32.0675491 C215.254011,28.0708282 216.244054,20.0484537 211.194835,19.2203762 L116.006418,0 Z" id="Fill-14" fill="#0A1B45"/><path d="M83.3601048,579 L5.0007,565.282628 C6.56007619,556.358409 9.17706398,543 10.9377469,534 L89.0007,549.308775 C87.3371651,557.831154 84.8263391,570.583315 83.3601048,579" id="Fill-17" fill="#FFF"/><path d="M48.0722194,554.707883 C46.3286593,554.3746 44.5836836,554.041064 42.8507073,553.709842 C40.9286966,569.772161 7.239981,563.569099 11.507225,547.716275 C9.13297646,547.262368 7.76225565,547 7.76225565,547 C3.25455188,560.989671 1.0007,577.323004 1.0007,596 L116.379373,596 C116.688869,593.100316 116.895978,591.364496 117.0007,590.79254 C114.31929,579.591514 87.0769642,574.709272 85.8223045,561.925058 C80.9448767,560.993029 64.5719354,557.861817 48.0722194,554.707883 Z" id="Fill-19" fill="#0A1B45"/><path d="M167.0007,9.42973949 L165.045098,9 C127.197745,180.886821 87.3156843,360.037335 52.0007,532.611141 L53.9643125,533 C89.2843034,360.409244 129.149341,181.339493 167.0007,9.42973949" id="Fill-21" fill="#FFF"/></g></g></g><g id="Body" transform="translate(-33.000000, -31.000000) scale(1 1)" blush:width="863" blush:height="528" blush:component="Body"><g id="Body/Tank Top Holding Hands" stroke="none" stroke-width="1" fill="none" fill-rule="evenodd"><g id="Group-42" transform="translate(218.000000, 149.000000)"><path d="M224.8788,250.688 C230.3808,256.761 238.5858,260.56 248.0048,259.922 C254.4058,259.446 260.8848,258.817 267.6438,257.651 C274.4038,256.473 281.3718,254.891 288.6268,252.499 C295.8658,250.094 303.4468,246.874 311.0948,242.106 C318.7048,237.367 326.4038,230.921 332.7678,222.699 C339.1948,214.534 343.8018,204.62 346.2978,194.997 C348.8528,185.297 349.3018,176.033 348.8318,167.636 C348.3378,159.212 346.8878,151.571 345.0218,144.495 C343.1418,137.419 340.8278,130.884 338.2848,124.7 C333.1508,112.405 327.1518,101.415 320.7678,91.081 C314.3548,80.79 307.5598,71.112 300.4768,61.901 C286.3258,43.452 246.342644,-0.0002 218.90357,-0.0002 C191.464495,-0.0002 203.45983,5.46456418 196.927891,17.3171103 C190.395952,29.1696565 203.1538,51.509 208.3758,56.85 C222.6108,71.339 236.0988,86.398 248.0848,102.04 C254.0958,109.847 259.6588,117.818 264.6698,125.852 C269.6438,133.885 273.9958,142.02 277.2958,149.925 C280.5418,157.768 282.6258,165.501 282.9388,171.389 C283.1088,174.318 282.9038,176.728 282.4198,178.393 C282.3548,178.598 282.2988,178.805 282.2538,179.016 C282.2198,179.237 282.1028,179.38 282.0478,179.57 C281.9718,179.743 281.9478,179.952 281.8588,180.107 C281.7698,180.262 281.6928,180.421 281.6268,180.586 C281.5778,180.762 281.4818,180.906 281.3838,181.046 C281.2938,181.192 281.2158,181.344 281.1478,181.503 C281.0458,181.643 280.9298,181.776 280.8368,181.923 C280.7358,182.065 280.6808,182.233 280.5298,182.36 C279.6258,183.491 278.2878,184.772 276.1538,186.114 C274.0408,187.448 271.1768,188.765 267.8148,189.866 C264.4538,190.973 260.6238,191.878 256.5628,192.588 C252.4898,193.3 248.1058,193.723 243.6568,194.065 C237.0908,194.522 230.8768,198.147 225.9648,204.032 C221.0738,209.888 217.4938,217.938 217.0078,227.032 C216.5208,236.135 219.3558,244.579 224.8788,250.688 Z" id="SKIN-DARKER" fill="#964C1C" blush:skin="600"/><path d="M198.1767,249.6531 L198.1767,249.6531 C197.6837,254.5711 201.0067,259.0341 205.7577,259.3631 C216.0157,260.1651 226.4937,260.5941 237.3567,260.3641 C248.2337,260.0951 259.4357,259.3031 271.4247,256.9491 C272.8017,256.6741 274.0517,256.1801 275.1497,255.4731 C276.2637,254.7421 277.1997,253.8391 277.9077,252.8271 C279.3307,250.8011 279.8237,248.3681 279.1817,245.9521 C278.5257,243.5701 276.8967,241.6491 274.8667,240.4681 C273.8507,239.8781 272.7317,239.4691 271.5627,239.2811 C270.4007,239.0691 269.1967,239.0381 267.9787,239.2821 C257.3657,241.3741 247.0747,242.1221 236.9617,242.3681 C226.8537,242.5831 216.9417,242.1831 207.1607,241.4181 C204.9117,241.2581 202.8027,242.0851 201.1847,243.5511 C199.5647,245.0301 198.4227,247.1801 198.1767,249.6531" id="SKIN-DARKER" fill="#964C1C" blush:skin="600"/><path d="M190.3476,216.5828 C189.7076,221.5128 192.6796,225.9178 196.9856,226.4208 C205.3446,227.3048 213.7446,227.9628 222.1936,228.2618 C226.5626,228.4308 230.1216,224.3948 230.1206,219.4218 C230.1196,214.4538 226.8666,210.4308 222.8156,210.2718 C214.8906,209.9918 206.9106,209.3698 198.9206,208.5258 C194.8256,208.0458 190.9866,211.6538 190.3476,216.5828" id="Fill-7" fill="#964C1C" blush:skin="600"/><path d="M221.0556,194.2058 C220.8186,199.1818 223.8556,203.3078 227.8376,203.4108 C235.5076,203.5398 243.0696,203.2978 250.3106,202.5198 C252.1596,202.2888 254.1506,199.8348 255.4346,197.3148 C256.0946,196.0728 256.6186,194.8538 256.9756,193.9468 C257.3386,193.0458 257.5086,192.4268 257.5086,192.4268 C255.5256,192.7628 254.4736,190.6248 253.1206,188.5688 C252.4516,187.5508 251.6566,186.5028 250.6036,185.7738 C250.0776,185.4108 249.4886,185.1278 248.8086,184.9618 C248.1406,184.8068 247.3546,184.7408 246.4236,184.8078 C240.6506,185.3228 234.4896,185.5198 228.1226,185.4128 C224.4746,185.3158 221.3016,189.2528 221.0556,194.2058" id="SKIN-DARKER" fill="#964C1C" blush:skin="600"/><path d="M198.8603,201.4705 C198.3003,206.4305 201.2043,210.7685 205.3503,211.1665 C219.1783,212.4045 233.0133,212.8915 246.4523,211.8995 C248.4443,211.7155 250.1863,210.6145 251.2663,208.8145 C252.3633,207.0435 252.8483,204.7215 252.5423,202.2545 C251.8823,197.3215 248.6363,193.6985 245.0913,193.9495 C233.0723,194.8435 220.0993,194.4205 206.9693,193.2415 C203.0583,192.8625 199.4253,196.5535 198.8603,201.4705" id="SKIN-DARKER" fill="#964C1C" blush:skin="600"/><path d="M269.8896,149.5555 L45.4086,149.5555 L45.4086,42.4935 C45.4086,33.6935 48.0836,25.5175 52.6656,18.7355 C60.3016,7.4315 73.2346,-0.0005 87.9026,-0.0005 L217.3956,-0.0005 C240.8646,-0.0005 259.8896,19.0255 259.8896,42.4935 L269.8896,149.5555 Z" id="Fill-13" fill="#0A1B45"/><line x1="247.408" y1="13.556" x2="57.908" y2="13.556" id="Stroke-16" stroke="#FFF" stroke-width="3" stroke-linecap="round"/><line x1="258.408" y1="43.556" x2="46.908" y2="43.556" id="Stroke-18" stroke="#FFF" stroke-width="3" stroke-linecap="round"/><line x1="262.5" y1="73.5" x2="46.908" y2="73.555" id="Stroke-20" stroke="#FFF" stroke-width="3" stroke-linecap="round"/><line x1="264.5" y1="103.5" x2="46.908" y2="103.555" id="Stroke-22" stroke="#FFF" stroke-width="3" stroke-linecap="round"/><line x1="267.5" y1="133.5" x2="46.908" y2="133.555" id="Stroke-24" stroke="#FFF" stroke-width="3" stroke-linecap="round"/><path d="M204.2607,227.3211 C204.7357,236.4361 201.3537,244.8441 195.1017,251.0201 C188.8767,257.1511 179.7397,260.9221 169.5817,260.5301 C154.0057,259.9071 138.2207,258.3561 122.2147,255.2491 C116.3797,254.1631 110.4967,252.7451 104.6127,251.2061 C98.7127,249.5511 92.8097,247.7981 86.8787,245.5741 C83.9227,244.5481 80.9497,243.2741 77.9937,242.0891 C75.0287,240.7621 72.0737,239.5091 69.1177,238.0021 C66.1657,236.5951 63.2207,234.9541 60.2897,233.3411 C57.3637,231.5991 54.4437,229.8951 51.5617,227.9171 C40.0427,220.2811 28.8267,210.2661 19.7367,197.5851 C15.2097,191.2601 11.2247,184.3021 8.1657,176.9011 C5.0847,169.5141 2.8757,161.7571 1.5657,154.0031 C0.2567,146.2501 -0.2143,138.4911 0.0877,131.0261 C0.3977,123.5641 1.3807,116.3731 2.8077,109.4791 C4.2767,102.6161 6.2287,96.1061 8.4337,89.8301 L10.1917,85.2311 L11.0827,82.9381 L12.0377,80.7191 L13.9667,76.2901 L16.0187,72.0071 C21.5407,60.6191 27.9177,50.2821 34.7037,40.5991 C41.4957,30.9171 48.7217,21.8971 56.2107,13.3421 C62.6267,5.9541 71.4117,2.2491 79.9307,2.0521 C88.5287,1.9281 96.8737,5.2961 103.2007,11.8501 C109.5317,18.4071 112.7557,26.8111 113.1137,34.8701 C113.5357,43.0091 111.0917,50.7881 105.8577,56.8311 C99.6977,63.8651 93.9377,71.0851 88.7657,78.4581 C83.5937,85.8251 78.9977,93.3561 75.3557,100.9051 L73.9917,103.7311 L72.7717,106.5551 L72.1547,107.9641 L71.6187,109.3701 L70.5357,112.1731 C69.2467,115.8971 68.1457,119.5811 67.3727,123.1651 C66.6497,126.7391 66.1917,130.2121 66.0397,133.5321 C65.8987,136.8501 66.1407,139.9781 66.6337,142.9541 C67.6517,148.8991 69.8057,154.2001 73.4277,159.2041 C77.0167,164.1961 81.9907,168.9301 88.2317,173.0421 C89.7407,174.1021 91.4257,175.0501 93.0527,176.0481 C94.7787,176.9691 96.4547,177.9421 98.2817,178.7941 C100.0347,179.7121 101.9457,180.4901 103.7887,181.3391 C105.7257,182.0891 107.5907,182.9281 109.6007,183.6081 C113.5157,185.0941 117.6677,186.3081 121.8397,187.4951 C126.0747,188.5861 130.3497,189.6411 134.7647,190.4521 C146.7917,192.7981 159.3857,194.0731 172.1597,194.5811 C180.4637,194.8991 188.0327,198.5401 193.8867,204.3671 C199.7077,210.1531 203.7897,218.2371 204.2607,227.3211" id="SKIN" fill="#AE5D29" blush:skin="500"/><path d="M225.6572,249.8123 C226.1402,254.7603 222.1862,259.2083 216.7802,259.5923 C193.3092,261.2973 169.3902,261.4423 144.9302,258.6903 C142.1242,258.3753 139.7032,257.0773 138.0902,255.1863 C136.4772,253.3173 135.6882,250.9323 136.0512,248.4743 C136.8032,243.5343 141.6822,240.2493 146.9382,240.8013 C169.9972,243.4023 192.8812,243.2843 215.4522,241.6423 C220.6172,241.2763 225.1732,244.8663 225.6572,249.8123" id="SKIN" fill="#AE5D29" blush:skin="500"/><path d="M235.3857,232.6941 C235.9807,237.6081 232.2817,242.1511 227.0837,242.6451 C217.0167,243.6381 206.8887,244.3461 196.6937,244.6411 C191.4257,244.7621 187.1417,240.8111 187.126681,235.8181 C187.1167,230.8711 191.1547,226.7621 196.1477,226.6501 C205.8977,226.3681 215.6247,225.6881 225.3177,224.7311 C230.2857,224.2611 234.7837,227.7401 235.3857,232.6941" id="SKIN" fill="#AE5D29" blush:skin="500"/><path d="M235.4834,216.5808 C236.1024,221.5088 232.5444,225.9828 227.5284,226.5298 C217.7994,227.5378 208.0284,228.2218 198.2344,228.5708 C193.1784,228.7698 189.0384,224.7428 189.001121,219.7958 C188.9634,214.8028 192.8074,210.7718 197.5984,210.5828 C206.9554,210.2478 216.3254,209.5948 225.6824,208.6248 C230.4764,208.1008 234.8634,211.6448 235.4834,216.5808" id="SKIN" fill="#AE5D29" blush:skin="500"/><path d="M199.8174,194.4851 C199.9244,196.9671 199.0814,199.2511 197.6014,200.9381 C196.1234,202.6371 194.0114,203.7141 191.6544,203.7431 C182.4834,203.9261 173.3484,203.7641 164.3064,203.1851 C163.1444,203.1071 161.9004,202.4611 160.7024,201.5361 C159.5054,200.6001 158.3664,199.3521 157.3794,198.1371 C156.3934,196.9191 155.5654,195.7151 154.9844,194.8171 C154.4014,193.9231 154.0744,193.3071 154.0744,193.3071 C156.7614,193.5791 157.8814,191.3981 159.5054,189.2941 C161.1294,187.2031 163.2744,185.0781 168.0904,185.3931 C175.7244,185.8131 183.4824,185.9011 191.2964,185.7471 C193.5324,185.7201 195.5914,186.6611 197.1404,188.2191 C198.6834,189.7891 199.7104,192.0021 199.8174,194.4851" id="SKIN" fill="#AE5D29" blush:skin="500"/><path d="M225.918,201.5633 C226.456,206.5183 222.959,210.8943 218.106,211.3503 C201.893,212.6963 185.638,213.2353 169.523,212.4813 C168.322,212.4263 167.189,212.1293 166.177,211.6223 C165.167,211.0983 164.276,210.3773 163.552,209.5123 C162.101,207.7843 161.317,205.4763 161.502,202.9993 L161.502,202.9983 C161.688,200.5203 162.788,198.3373 164.381,196.8113 C165.179,196.0493 166.102,195.4513 167.105,195.0633 C168.112,194.6573 169.204,194.4483 170.337,194.5003 C185.528,195.2123 201.034,194.7043 216.574,193.4153 C221.196,192.9793 225.38,196.6353 225.918,201.5633" id="SKIN" fill="#AE5D29" blush:skin="500"/><path d="M201.4082,-0.0002 C201.4082,16.5558 193.4082,37.5558 166.9082,37.5558 C135.4082,37.5558 122.4082,19.6368 122.4082,-0.0002 L201.4082,-0.0002 Z" id="SKIN" fill="#AE5D29" blush:skin="500"/></g></g></g><g id="Head" transform="translate(288.000000, -61.000000) scale(1 1)" blush:width="127" blush:height="211" blush:component="Head"><g id="Head/Bunny Ears" stroke="none" stroke-width="1" fill="none" fill-rule="evenodd"><g id="Group-34" transform="translate(16.000000, -1.000000)"><path d="M0,106.1899 L0,106.1899 L0,23.6899 C0,9.1899 6.044,0.1899 13.5,0.1899 C20.956,0.1899 27,8.1899 27,23.6899 L27,79.1899 C27,94.1019 14.912,106.1899 0,106.1899" id="Fill-1" fill="#34D1A1"/><path d="M22,77.1899 L8,77.1899 L8,26.1899 C8,22.3239 8,9.1899 15,9.1899 C22,9.1899 22,22.3239 22,26.1899 L22,77.1899 Z" id="Fill-4" fill="#2DB386"/><path d="M52,106.1899 L52,106.1899 L52,23.6899 C52,9.1899 58.044,0.1899 65.5,0.1899 L65.5,0.1899 C72.956,0.1899 79,8.1899 79,23.6899 L79,79.1899 C79,94.1019 66.912,106.1899 52,106.1899" id="Fill-6" fill="#34D1A1"/><path d="M74,77.1899 L60,77.1899 L60,26.1899 C60,22.3239 60,9.1899 67,9.1899 C74,9.1899 74,22.3239 74,26.1899 L74,77.1899 Z" id="Fill-9" fill="#2DB386"/><path d="M80.4453,187.1899 L77.5543,187.1899 C70.0683,187.1899 64.0003,181.1219 64.0003,173.6349 L64.0003,91.3609 L94.0003,91.3609 L94.0003,173.6349 C94.0003,181.1219 87.9313,187.1899 80.4453,187.1899" id="Fill-11" fill="#2DB386"/><path d="M19,135.1899 L64,135.1899 L64,186.8239 C64,200.7279 53.927,212.0009 41.5,212.0009 C29.073,212.0009 19,200.7279 19,186.8239 L19,135.1899 Z" id="SKIN" fill="#AE5D29" blush:skin="500"/><path d="M66.0525,167.1899 L61.0655,167.1899 C37.8335,167.1899 19.0005,148.3569 19.0005,125.1249 L19.0005,105.3929 C19.0005,87.6079 33.4175,73.1899 51.2035,73.1899 L56.7965,73.1899 C74.5825,73.1899 89.0005,87.6079 89.0005,105.3929 L89.0005,144.2429 C89.0005,156.9159 78.7265,167.1899 66.0525,167.1899" id="SKIN" fill="#AE5D29" blush:skin="500"/><path d="M31,131.6899 C31,138.5929 25.404,144.1899 18.5,144.1899 C11.596,144.1899 6,138.5929 6,131.6899 C6,124.7869 11.596,119.1899 18.5,119.1899 C25.404,119.1899 31,124.7869 31,131.6899" id="Fill-19" fill="#AE5D29" blush:skin="500"/><path d="M16.0669,126.3589 C16.9717309,126.3589 18.2238875,126.567593 19.5087204,127.210009 C21.6552998,128.283299 23.0129325,130.245728 23.10401,133.092504 L23.1089,133.4009 L20.1089,133.4009 C20.1089,131.565514 19.4075866,130.513544 18.1670796,129.893291 C17.7064142,129.662958 17.1975823,129.510309 16.686239,129.425085 C16.4849519,129.391537 16.319154,129.373304 16.2027418,129.364876 L16.0669,129.3589 L16.0669,126.3589 Z" id="Stroke-21" fill="#000" fill-rule="nonzero"/><path d="M18,119.1899 L16.464,119.1899 C10.61,113.4989 8.361,101.8979 7.683,90.6389 C6.754,75.2099 33.542,62.1899 48.999,62.1899 L66.984,62.1899 L87.671,88.1899 L49.697,88.1899 C42.921,106.2759 30,119.1899 18,119.1899" id="Fill-23" fill="#000"/><path d="M14.3918,187.1899 L14.3918,187.1899 C6.5068,187.1899 0.1148,180.7979 0.1148,172.9139 L0.1148,91.3609 L28.6688,91.3609 L28.6688,172.9139 C28.6688,180.7979 22.2768,187.1899 14.3918,187.1899" id="Fill-25" fill="#34D1A1"/><path d="M94,98.8755 L94,98.6895 C94,98.7525 93.987,98.8135 93.981,98.8755 L94,98.8755 Z" id="Fill-27" fill="#34D1A1"/><path d="M47.0576,52.8911 C26.3446,52.9351 0.1156,70.6121 0.1156,92.4131 L0.1156,108.8751 C0.1156,108.8751 27.9996,108.7521 27.9996,108.6901 C27.9996,103.9951 41.6806,90.1901 60.2946,90.1901 C78.9096,90.1901 93.9996,103.9951 93.9996,108.6901 L93.9996,92.4131 C93.9996,70.6121 67.7706,52.9351 47.0576,52.8911" id="Fill-30" fill="#34D1A1"/><path d="M46.9802,52.8891 C47.0052,52.8891 47.0322,52.8911 47.0572,52.8911 C47.0832,52.8911 47.1092,52.8891 47.1352,52.8891 L46.9802,52.8891 Z" id="Fill-32" fill="#34D1A1"/></g></g></g><g id="Expression" transform="translate(335.000000, 34.000000) scale(1 1)" fill="#000" blush:width="61" blush:height="61" blush:component="Expression"><g id="Expression/Laughing" stroke="none" stroke-width="1" fill="none" fill-rule="evenodd"><g id="Group-20" transform="translate(8.500000, 6.500000)"><polyline id="Stroke-1" stroke="#000" stroke-width="3" points="25.9464 12.61 29.9044 33.986 21.8344 33.986"/><polyline id="Stroke-2" stroke="#000" stroke-width="3" points="25.9464 12.61 29.9044 33.986 21.8344 33.986"/><g id="Group-19" transform="translate(0.000000, 0.986500)"><path d="M0.0607,6.5801 C0.0607,6.5801 6.1277,0.5141 15.8347,0.5141" id="Stroke-3" stroke="#000" stroke-width="3"/><path d="M41.7074,6.1699 C41.7074,6.1699 36.3954,0.8579 27.8944,0.8579" id="Stroke-5" stroke="#000" stroke-width="3"/><path d="M4.8344,16.5 C6.8344,11.5 15.8344,11.5 16.8344,16.5" id="Stroke-7" stroke="#000" stroke-width="3"/><path d="M29.8344,16.5 C31.8344,11.5 40.8344,11.5 41.8344,16.5" id="Stroke-9" stroke="#000" stroke-width="3"/><polyline id="Stroke-11" stroke="#000" stroke-width="3" points="25.9464 11.6235 29.9044 32.9995 21.8344 32.9995"/><path d="M32.8344,49.5 L20.0034,49.5 C15.4920522,49.5 11.8344,45.8946 11.8344,41.4468 L11.8344,40.5 L32.8344,40.5 C31.3825742,42.3530787 31.3825742,46.3068471 32.8344,49.5 Z" id="Fill-15" fill="#000"/></g></g><polygon id="Stroke-5" fill="#000" fill-rule="nonzero" points="33.1977829 19.396766 36.1476171 18.850434 40.4350211 41.9996 30.5607 41.9996 30.5607 38.9996 36.828 38.999"/></g></g><g id="Accessories" transform="translate(322.000000, 56.000000) scale(1 1)" fill="#000" blush:width="76" blush:height="48" blush:component="Accessories"><g id="Accessories/None" stroke="none" stroke-width="1" fill="none" fill-rule="evenodd" fill-opacity="0"/></g><g id="Glasses" transform="translate(314.000000, 42.000000) scale(1 1)" fill="#000" blush:width="95" blush:height="32" blush:component="Glasses"><g id="Glasses/Thick" stroke="none" stroke-width="1" fill="none" fill-rule="evenodd"><path d="M43.5452664,3.00012344 C49.2894512,3.02462661 55.021427,4.35163303 57.0857956,6.97405047 C58.0938547,8.25461237 58.6772219,10.0147386 58.9068842,11.9996703 L62.1143968,11.9996703 C62.3440591,10.0147386 62.9274264,8.25461237 63.9354854,6.97405047 C65.9529365,4.41123343 71.4731799,3.0856142 77.0844275,3.00401411 L77.4760146,3.00012344 L77.8967218,3.00012344 L80.8146938,3.0378718 C91.0822714,3.2070925 94.9796428,3.73089949 95.893837,5.69362755 C96.9046181,7.86372269 97.4724619,10.8486323 96.5699433,12.3975628 L96.4345265,12.6077971 C96.2607766,12.8804731 95.8187885,13.7026763 95.3317143,14.6775352 L95.2267324,14.8886255 L94.7966033,15.7746065 C94.1772527,17.0747485 93.6217104,18.3482986 93.2115536,19.4320065 L93.1438986,19.6872046 L93.1438986,19.6872046 C92.2530855,22.9637972 90.4857872,26.1972123 88.6985341,28.3365739 C85.3492115,32.34575 71.1131799,32.6082999 67.0329763,28.4576053 C64.4038322,25.7830393 62.5077693,20.7417692 62.087653,15.9998009 L58.933628,15.9998009 C58.5135117,20.7417692 56.6174488,25.7830393 53.9883048,28.4576053 C49.9081011,32.6082999 35.6720695,32.34575 32.3227469,28.3365739 C30.5354938,26.1972123 28.7681955,22.9637972 27.8773824,19.6872046 L27.8097274,19.4320065 C27.4233065,18.4110132 26.9078403,17.2215143 26.331547,16.0000268 L0,16 L0,12 L24.2628445,12.0004643 C23.6422666,10.3774347 24.1973223,7.69055104 25.127444,5.69362755 C26.0970439,3.61194627 30.4223758,3.14888604 42.1443686,3.0107703 L43.1245592,3.00012344 L43.5452664,3.00012344 Z M32.8542992,9.57832836 C31.1333273,11.9393787 30.7976239,14.9040914 31.4059083,17.8533932 L31.6334165,18.4663592 L31.5539327,18.4983688 C32.1949786,21.035914 33.5135424,23.5284501 35.226974,25.5794466 C37.0849603,27.8034767 48.7860935,28.0192764 51.3034638,25.4584151 C54.5060095,22.2005411 56.3804317,12.9591713 54.2303847,9.80770023 L54.1067801,9.63896051 L53.9809214,9.49277664 C51.015179,6.32545056 35.1904568,6.373287 32.8542992,9.57832836 Z M88.1669819,9.57832836 C85.8662205,6.42184823 70.4825425,6.32762495 67.1839305,9.35102137 L67.0403596,9.49277664 L66.9145009,9.63896051 L66.7908963,9.80770023 C64.6408493,12.9591713 66.5152715,22.2005411 69.7178172,25.4584151 C72.2351876,28.0192764 83.9363207,27.8034767 85.794307,25.5794466 C87.4069485,23.6490969 88.669811,21.3276257 89.347247,18.9456229 L89.4673483,18.4983688 L89.3878645,18.4663592 L89.6153727,17.8533932 L89.6153727,17.8533932 C90.2236571,14.9040914 89.8879537,11.9393787 88.1669819,9.57832836 Z" id="Shape" fill="#000"/></g></g></g></svg>
