<svg viewBox="125.977 -64.425 408.457 923.425" xmlns="http://www.w3.org/2000/svg" xmlns:blush="http://design.blush" overflow="visible" width="442.328" height="1000">
  <g fill="none" fill-rule="evenodd" blush:has-customizable-skin="true">
    <g blush:width="693" blush:height="596" blush:component="Legs">
      <path d="M297 807.794c.444-56.231 2.54-170.455 3-224.54.099-9.734-7.785-17.707-17.61-17.806l-43.742-.449c-9.826-.098-17.872 7.712-17.971 17.445-.663 53.396-2.73 169.05-3.381 224.556-.036 3.564 79.668 4.36 79.704.794z" fill="#964C1C" blush:skin="600"/>
      <path d="M308.639 270.348c3.002.031 5.4 3.332 5.361 7.374-.756 96.738-3.125 429.294-3.829 520.278L203 796.908c1.138-87.063 5.578-432.324 6.8-525.573-.325-2.74 32.621-3.068 98.839-.987z" fill="#051026"/>
      <path fill="#FFF" d="M217 835.207l79.705.793.295-28.206-79.704-.794z"/>
      <path d="M261.36 822.452c-1.358 16.179 33.024 16.53 31.99.331l3.823.04-.367 36.177H181.173l.119-12.866c.093-9.335 31.481-11.303 36.004-24.094 17.038.148 31.727.285 44.064.412zM417 263c0 55.228-46.562 100-104 100s-104-44.772-104-100" fill="#0A1B45"/>
      <g>
        <path d="M519.696 824.44c2.194-15.255 2.983-24.402 2.367-27.44-9.21-48.375-14.654-74.516-24.804-122.545l-21.31-99.286c-2.09-9.671-11.577-15.834-21.18-13.771l-42.754 9.187c-9.605 2.065-15.69 11.56-13.606 21.21 14.243 66 28.468 132.069 41.936 198.012 2.78 13.603 6.155 30.58 8.698 44.134" fill="#AE5D29" blush:skin="500"/>
        <path d="M416.994 263c2.243 3.48 3.547 6.7 3.914 9.662C458.325 440.729 498.034 617.282 533 786.075L427.791 807c-33.89-168.452-72.37-344.076-108.728-511.932-1.316-3.997-2.306-12.02 2.743-12.848L416.994 263z" fill="#0A1B45"/>
        <path d="M449.64 842L528 828.283c-1.56-8.925-4.176-22.283-5.937-31.283L444 812.309c1.664 8.522 4.174 21.274 5.64 29.691" fill="#FFF"/>
        <path d="M484.928 817.708l5.222-.998c1.922 16.062 35.61 9.86 31.343-5.994l3.745-.716c4.508 13.99 6.762 30.323 6.762 49H416.621c-.31-2.9-.516-4.636-.621-5.207 2.681-11.201 29.924-16.084 31.178-28.868l37.75-7.217z" fill="#0A1B45"/>
        <path d="M366 272.43l1.956-.43C405.803 443.887 445.685 623.037 481 795.611l-1.964.389C443.716 623.41 403.851 444.34 366 272.43" fill="#FFF"/>
      </g>
    </g>
    <g blush:width="863" blush:height="528" blush:component="Body">
      <path d="M250.121 368.688c-5.502 6.073-13.707 9.872-23.126 9.234-6.4-.476-12.88-1.105-19.639-2.271-6.76-1.178-13.728-2.76-20.983-5.152-7.239-2.405-14.82-5.625-22.468-10.393-7.61-4.739-15.309-11.185-21.673-19.407-6.427-8.165-11.034-18.079-13.53-27.702-2.555-9.7-3.004-18.964-2.534-27.361.494-8.424 1.944-16.065 3.81-23.141 1.88-7.076 4.194-13.611 6.737-19.795 5.134-12.295 11.133-23.285 17.517-33.619 6.413-10.291 13.208-19.969 20.291-29.18C188.674 161.452 228.657 118 256.096 118c27.44 0 15.444 5.465 21.976 17.317 6.532 11.853-6.226 34.192-11.448 39.533-14.235 14.489-27.723 29.548-39.709 45.19-6.01 7.807-11.574 15.778-16.585 23.812-4.974 8.033-9.326 16.168-12.626 24.073-3.246 7.843-5.33 15.576-5.643 21.464-.17 2.929.035 5.339.52 7.004.064.205.12.412.165.623.034.221.151.364.206.554.076.173.1.382.19.537.088.155.165.314.231.479.05.176.145.32.243.46.09.146.168.298.236.457.102.14.218.273.311.42.101.142.156.31.307.437.904 1.131 2.242 2.412 4.376 3.754 2.113 1.334 4.977 2.651 8.34 3.752 3.36 1.107 7.19 2.012 11.251 2.722 4.073.712 8.457 1.135 12.906 1.477 6.566.457 12.78 4.082 17.692 9.967 4.891 5.856 8.471 13.906 8.957 23 .487 9.103-2.348 17.547-7.87 23.656z" fill="#964C1C" blush:skin="600"/>
      <path d="M276.823 367.653c.493 4.918-2.83 9.381-7.58 9.71-10.259.802-20.737 1.231-31.6 1.001-10.877-.269-22.079-1.06-34.068-3.415-1.377-.275-2.627-.769-3.725-1.476a10.15 10.15 0 01-2.758-2.646c-1.423-2.026-1.916-4.459-1.274-6.875.656-2.382 2.285-4.303 4.315-5.484a9.634 9.634 0 013.304-1.187c1.162-.212 2.366-.243 3.584.001 10.613 2.092 20.904 2.84 31.017 3.086 10.108.215 20.02-.185 29.801-.95 2.25-.16 4.358.667 5.976 2.133 1.62 1.48 2.762 3.63 3.008 6.102M284.652 334.583c.64 4.93-2.332 9.335-6.638 9.838-8.359.884-16.759 1.542-25.208 1.84-4.369.17-7.928-3.866-7.927-8.84.001-4.967 3.254-8.99 7.305-9.15 7.925-.28 15.905-.901 23.895-1.745 4.095-.48 7.934 3.128 8.573 8.057M253.944 312.206c.237 4.976-2.8 9.102-6.782 9.205-7.67.129-15.232-.113-22.473-.891-1.849-.231-3.84-2.685-5.124-5.205a33.356 33.356 0 01-1.54-3.368c-.364-.901-.534-1.52-.534-1.52 1.983.336 3.035-1.802 4.388-3.858.67-1.018 1.464-2.066 2.517-2.795a5.368 5.368 0 011.795-.812c.668-.155 1.454-.221 2.385-.154 5.773.515 11.934.712 18.301.605 3.648-.097 6.821 3.84 7.067 8.793" fill="#964C1C" blush:skin="600"/>
      <path d="M276.14 319.47c.56 4.96-2.344 9.298-6.49 9.697-13.828 1.238-27.663 1.725-41.102.733-1.992-.184-3.734-1.285-4.814-3.085-1.097-1.772-1.582-4.094-1.276-6.56.66-4.934 3.906-8.556 7.45-8.305 12.02.894 24.993.47 38.123-.708 3.91-.38 7.544 3.311 8.109 8.228" fill="#964C1C" blush:skin="600"/>
      <path d="M205.11 267.555h224.481V160.493c0-8.8-2.675-16.976-7.257-23.758C414.698 125.431 401.765 118 387.097 118H257.604c-23.469 0-42.494 19.026-42.494 42.494l-10 107.062z" fill="#0A1B45"/>
      <path stroke="#FFF" stroke-width="3" stroke-linecap="round" d="M227.592 131.556h189.5M216.592 161.556h211.5M212.5 191.5l215.592.055M210.5 221.5l217.592.055M207.5 251.5l220.592.055"/>
      <path d="M270.74 345.321c-.476 9.115 2.906 17.523 9.158 23.7 6.225 6.13 15.362 9.901 25.52 9.51 15.576-.624 31.361-2.175 47.367-5.282 5.835-1.086 11.718-2.504 17.602-4.043 5.9-1.655 11.803-3.408 17.734-5.632 2.956-1.026 5.93-2.3 8.885-3.485 2.965-1.327 5.92-2.58 8.876-4.087 2.952-1.407 5.897-3.048 8.828-4.66 2.926-1.743 5.846-3.447 8.728-5.425 11.52-7.636 22.735-17.65 31.825-30.332 4.527-6.325 8.512-13.283 11.571-20.684a105.303 105.303 0 006.6-22.898 111.474 111.474 0 001.478-22.977c-.31-7.462-1.293-14.653-2.72-21.547-1.469-6.863-3.42-13.373-5.626-19.649l-1.758-4.599-.89-2.293-.956-2.219-1.929-4.429-2.052-4.283c-5.522-11.388-11.899-21.725-18.685-31.408-6.792-9.682-14.018-18.702-21.507-27.257-6.416-7.388-15.2-11.093-23.72-11.29-8.598-.124-16.943 3.244-23.27 9.798-6.33 6.557-9.555 14.961-9.913 23.02-.422 8.14 2.022 15.918 7.256 21.961 6.16 7.034 11.92 14.254 17.092 21.627 5.172 7.367 9.768 14.898 13.41 22.447l1.364 2.826 1.22 2.824.617 1.41.536 1.405 1.083 2.803c1.29 3.724 2.39 7.408 3.163 10.992.723 3.574 1.181 7.047 1.333 10.367a45.505 45.505 0 01-.594 9.422c-1.018 5.945-3.172 11.246-6.794 16.25-3.589 4.992-8.563 9.726-14.804 13.838-1.509 1.06-3.194 2.008-4.82 3.006-1.727.921-3.403 1.894-5.23 2.746-1.753.918-3.664 1.696-5.507 2.545-1.937.75-3.802 1.59-5.812 2.27-3.915 1.485-8.067 2.7-12.239 3.886-4.235 1.091-8.51 2.146-12.925 2.957-12.027 2.346-24.62 3.621-37.395 4.13-8.304.317-15.873 3.958-21.727 9.785-5.82 5.786-9.903 13.87-10.374 22.954" fill="#AE5D29" blush:skin="500"/>
      <path d="M249.343 367.812c-.483 4.948 3.47 9.396 8.877 9.78 23.47 1.705 47.39 1.85 71.85-.902 2.806-.315 5.227-1.613 6.84-3.504 1.613-1.869 2.402-4.254 2.039-6.712-.752-4.94-5.631-8.225-10.887-7.673-23.06 2.601-45.943 2.483-68.514.841-5.165-.366-9.721 3.224-10.205 8.17" fill="#AE5D29" blush:skin="500"/>
      <path d="M239.614 350.694c-.595 4.914 3.104 9.457 8.302 9.951 10.067.993 20.195 1.701 30.39 1.996 5.268.121 9.552-3.83 9.567-8.823.01-4.947-4.028-9.056-9.02-9.168-9.75-.282-19.478-.962-29.17-1.919-4.969-.47-9.467 3.01-10.069 7.963" fill="#AE5D29" blush:skin="500"/>
      <path d="M239.517 334.58c-.62 4.929 2.939 9.403 7.955 9.95a434.365 434.365 0 0029.294 2.04c5.056.2 9.196-3.827 9.233-8.774.038-4.993-3.806-9.024-8.597-9.213a417.162 417.162 0 01-28.084-1.958c-4.794-.524-9.181 3.02-9.801 7.956M275.183 312.485c-.107 2.482.736 4.766 2.216 6.453 1.478 1.7 3.59 2.776 5.947 2.805 9.17.183 18.306.021 27.348-.558 1.162-.078 2.406-.724 3.604-1.649 1.197-.936 2.336-2.184 3.323-3.399a39.25 39.25 0 002.395-3.32c.583-.894.91-1.51.91-1.51-2.687.272-3.807-1.909-5.431-4.013-1.624-2.09-3.77-4.216-8.585-3.9-7.634.42-15.392.507-23.206.353-2.236-.027-4.295.914-5.844 2.472-1.543 1.57-2.57 3.783-2.677 6.266" fill="#AE5D29" blush:skin="500"/>
      <path d="M249.082 319.563c-.538 4.955 2.959 9.331 7.812 9.787 16.213 1.346 32.468 1.885 48.583 1.131a8.294 8.294 0 003.346-.859 8.58 8.58 0 002.625-2.11c1.451-1.728 2.235-4.036 2.05-6.513-.186-2.479-1.286-4.662-2.879-6.188a8.286 8.286 0 00-2.724-1.748 7.675 7.675 0 00-3.232-.563c-15.191.712-30.697.204-46.237-1.085-4.622-.436-8.806 3.22-9.344 8.148M273.592 118c0 16.556 8 37.556 34.5 37.556 31.5 0 44.5-17.92 44.5-37.556h-79z" fill="#AE5D29" blush:skin="500"/>
    </g>
    <g blush:width="127" blush:height="211" blush:component="Head">
      <path d="M356 44.19v-82.5c0-14.5-6.044-23.5-13.5-23.5s-13.5 8-13.5 23.5v55.5c0 14.912 12.088 27 27 27" fill="#34D1A1"/>
      <path d="M334 15.19h14v-51c0-3.866 0-17-7-17s-7 13.134-7 17v51z" fill="#2DB386"/>
      <path d="M304 44.19v-82.5c0-14.5-6.044-23.5-13.5-23.5s-13.5 8-13.5 23.5v55.5c0 14.912 12.088 27 27 27" fill="#34D1A1"/>
      <path d="M282 15.19h14v-51c0-3.866 0-17-7-17s-7 13.134-7 17v51zM275.555 125.19h2.89c7.487 0 13.555-6.068 13.555-13.555V29.36h-30v82.274c0 7.487 6.069 13.555 13.555 13.555" fill="#2DB386"/>
      <path d="M337 73.19h-45v51.634C292 138.728 302.073 150 314.5 150s22.5-11.273 22.5-25.177V73.19z" fill="#AE5D29" blush:skin="500"/>
      <path d="M289.947 105.19h4.987c23.232 0 42.065-18.833 42.065-42.065V43.393c0-17.785-14.417-32.203-32.203-32.203h-5.593C281.417 11.19 267 25.608 267 43.393v38.85c0 12.673 10.274 22.947 22.948 22.947" fill="#AE5D29" blush:skin="500"/>
      <path d="M325 69.69c0 6.903 5.596 12.5 12.5 12.5s12.5-5.597 12.5-12.5-5.596-12.5-12.5-12.5-12.5 5.597-12.5 12.5" fill="#AE5D29" blush:skin="500"/>
      <path d="M339.933 64.359c-.905 0-2.157.209-3.442.851-2.146 1.073-3.504 3.036-3.595 5.883l-.005.308h3c0-1.835.701-2.887 1.942-3.508.46-.23.97-.383 1.48-.468.202-.033.368-.052.484-.06l.136-.006v-3z" fill="#000" fill-rule="nonzero"/>
      <path d="M338 57.19h1.536c5.854-5.691 8.103-17.292 8.781-28.551.929-15.43-25.859-28.45-41.316-28.45h-17.985l-20.687 26h37.974c6.776 18.087 19.697 31 31.697 31" fill="#000"/>
      <path d="M341.608 125.19c7.885 0 14.277-6.392 14.277-14.276V29.36h-28.554v81.553c0 7.884 6.392 14.276 14.277 14.276M262 36.876v-.187c0 .063.013.125.019.187H262z" fill="#34D1A1"/>
      <path d="M308.942-9.109c20.713.044 46.942 17.721 46.942 39.522v16.462S328 46.752 328 46.69c0-4.695-13.68-18.5-32.295-18.5C277.09 28.19 262 41.995 262 46.69V30.413c0-21.8 26.23-39.478 46.942-39.522M309.02-9.11l-.077.001-.078-.002h.155z" fill="#34D1A1"/>
    </g>
    <g fill="none" blush:width="61" blush:height="61" blush:component="Expression">
      <path stroke="#000" stroke-width="3" d="M290.554 53.11l-3.958 21.376h8.07"/>
      <path stroke="#000" stroke-width="3" d="M290.554 53.11l-3.958 21.376h8.07M316.44 48.067S310.371 42 300.664 42M274.793 47.656s5.312-5.312 13.813-5.312M311.666 57.986c-2-5-11-5-12 0M286.666 57.986c-2-5-11-5-12 0"/>
      <path stroke="#000" stroke-width="3" d="M290.554 53.11l-3.958 21.376h8.07"/>
      <path d="M283.666 90.987h12.83c4.512 0 8.17-3.606 8.17-8.054v-.947h-21c1.451 1.854 1.451 5.807 0 9z" fill="#000"/>
      <path fill="#000" fill-rule="nonzero" d="M291.802 53.397l-2.95-.547L284.565 76h9.874v-3l-6.267-.001z"/>
    </g>
    <path d="M302.455 45c-5.744.025-11.476 1.352-13.54 3.974-1.009 1.28-1.592 3.04-1.822 5.026h-3.207c-.23-1.985-.813-3.745-1.821-5.026-2.018-2.563-7.538-3.888-13.15-3.97l-.391-.004h-.42l-2.919.038c-10.267.17-14.165.693-15.079 2.656-1.01 2.17-1.578 5.155-.676 6.704l.135.21c.174.272.616 1.095 1.103 2.07l.105.21.43.887c.62 1.3 1.175 2.573 1.585 3.657l.068.255c.89 3.277 2.658 6.51 4.445 8.65 3.35 4.009 17.586 4.271 21.666.12 2.63-2.674 4.525-7.715 4.945-12.457h3.154c.42 4.742 2.317 9.783 4.946 12.458 4.08 4.15 18.316 3.888 21.665-.121 1.788-2.14 3.555-5.373 4.446-8.65l.067-.255c.387-1.021.902-2.21 1.478-3.432H346v-4h-24.263c.62-1.623.066-4.31-.864-6.306-.97-2.082-5.295-2.545-17.017-2.683l-.98-.01h-.421zm10.69 6.578c1.722 2.361 2.057 5.326 1.45 8.275l-.228.613.08.032c-.642 2.538-1.96 5.03-3.674 7.081-1.858 2.224-13.56 2.44-16.076-.12-3.203-3.258-5.077-12.5-2.927-15.651l.123-.169.126-.146c2.966-3.168 18.79-3.12 21.127.085zm-55.312 0c2.3-3.156 17.684-3.25 20.983-.227l.144.142.125.146.124.169c2.15 3.151.276 12.393-2.927 15.65-2.517 2.561-14.218 2.345-16.076.121-1.613-1.93-2.876-4.251-3.553-6.633l-.12-.448.08-.032-.228-.613c-.609-2.949-.273-5.914 1.448-8.275z" fill="#000" blush:width="95" blush:height="32" blush:component="Glasses"/>
  </g>
</svg>
