<svg viewBox="82.98120728929382 -51.539999999999964 571.8394077448747 910.5399999999998" xmlns="http://www.w3.org/2000/svg" xmlns:xlink="http://www.w3.org/1999/xlink" xmlns:blush="http://design.blush" overflow="visible" width="628.0222810034428px" height="1000px"><g id="Master/Character/Standing" stroke="none" stroke-width="1" fill="none" fill-rule="evenodd" blush:has-customizable-skin="true"><g id="Legs" transform="translate(-0.000000, 263.000000) scale(1 1)" blush:width="693" blush:height="596" blush:component="Legs"><g id="Legs/Loose Pants Prance" stroke="none" stroke-width="1" fill="none" fill-rule="evenodd"><g id="Group-14" transform="translate(115.000000, 0.000000)"><path d="M315.006566,515.602389 C320.750501,512.774061 326.4073,509.814718 332,506.734361 L287.376586,426 C281.199978,429.405395 274.90118,432.614767 268.584353,435.578111 C265.429446,437.058282 262.265524,438.472446 259.159693,439.788599 C257.603272,440.452676 256.070888,441.075748 254.587581,441.668817 L252.444247,442.503913 L251.484754,442.864955 L251.091142,443.009972 L251,443.042976 L251.029045,443.030975 L251.09014,443.011972 L252.155798,446.088329 L261.291008,472.474388 C261.561429,472.499391 262.105275,472.426383 262.606054,472.361375 L264.162475,472.14035 L267.381482,471.613288 C267.522702,477.723997 267.535722,483.864709 267.36045,490.00142 L281.266081,530.165077 L292.981304,564 L295.830737,562.976881 L297.859893,562.216793 L301.575673,560.775626 C303.973403,559.828516 306.256955,558.890408 308.504451,557.942298 C313.229802,555.943066 313.662475,548.590213 313.502226,540.153235 C313.342978,531.701255 312.603828,522.179151 315.006566,515.602389" id="Fill-3" fill="#0A1B45"/><path d="M218.030083,70.6404317 C227.554294,75.3636856 237.183651,80.21633 246.388418,84.9967565 C250.970774,87.3769395 255.537108,89.7932314 259.43151,91.9647848 L262.080184,93.4733373 L263.983824,94.6428668 C265.951554,95.8705718 267.920284,97.0982767 269.878,98.3761331 C285.591796,108.518742 300.685732,119.952246 314.393746,132.137017 C341.913918,156.474464 363.69513,184.45691 375.432411,212.665037 C378.325423,219.729355 380.601581,226.801699 382.375041,233.863008 C382.758573,235.63636 383.159128,237.40269 383.577709,239.163003 C383.907166,240.935351 384.157513,242.711712 384.480962,244.476037 C384.853478,246.234343 384.990669,248.019731 385.189945,249.792079 C385.357177,251.569443 385.698651,253.32474 385.714673,255.115144 C385.800792,256.897522 385.907941,258.674886 386.034116,260.449241 L386.03712,265.815435 C386.033115,266.716153 386.076174,267.584775 386.047134,268.510569 L385.916953,271.334089 C385.876898,273.223792 385.698651,275.073374 385.553449,276.926968 C384.918569,284.329307 383.79501,291.522013 382.038574,298.490041 C380.295156,305.460076 378.017997,312.23452 375.218113,318.857507 C372.406213,325.475478 368.981463,331.916918 365.089064,338.23699 C361.166623,344.545027 356.656367,350.692579 351.689478,356.691683 C346.648485,362.658691 341.191917,368.498314 335.183583,374.080159 C325.184714,383.391258 313.893052,392.081484 301.75121,400.018436 C289.616378,407.937334 276.550255,415.135055 263.270835,421.244492 L280.42563,456.231076 C286.366871,457.399602 292.419266,458.394605 298.553775,459.223105 C295.801958,464.612369 292.875899,469.974551 289.774598,475.299621 L324.931362,547 C344.064902,537.140245 362.312212,526.026706 379.892597,513.423673 C397.439937,500.8076 414.274287,486.712062 429.921991,470.780985 C439.340055,461.299371 448.270442,451.07652 456.658076,440.261883 C464.995641,429.385059 472.767421,417.87031 479.683013,405.686541 C486.570567,393.489733 492.691056,380.70114 497.717027,367.412036 C502.731983,354.122931 506.722519,340.390489 509.581484,326.47349 C512.459476,312.557494 514.102755,298.460953 514.726621,284.478758 C514.868818,280.983209 515.014019,277.48766 514.988985,274.013174 L515,268.795428 C514.981975,267.046149 514.883839,265.247722 514.822754,263.476376 C514.66854,259.920646 514.551378,256.366921 514.321058,252.819215 L513.281616,242.183117 C512.990212,238.634408 512.336305,235.128828 511.821591,231.608204 C511.273832,228.092594 510.752108,224.57197 509.963013,221.109521 C509.223988,217.638044 508.520012,214.154532 507.706884,210.708131 L504.967084,200.462211 C501.027619,186.915329 496.121815,173.773669 490.349809,161.220787 C484.494687,148.728086 477.859484,136.81012 470.619441,125.501994 C463.403432,114.161771 455.461416,103.583849 447.163907,93.5084433 C438.848373,83.451092 430.114258,73.9514237 421.041674,65.0024172 C411.95507,56.0744742 402.559037,47.6530599 392.912657,39.6900289 C373.592859,23.7719911 357.390874,12.4011378 336.090241,0.129141173 C335.585899,-0.161426466 262.080184,0.129141173 262.080184,0.129141173 C231.925691,46.7642108 217.242324,70.2679743 218.030083,70.6404317 Z" id="Fill-5" fill="#CC2935"/><path d="M94.1148815,591.951371 L28.345821,585.140667 C26.5648697,584.958139 25.0722343,583.759672 24.118189,581.90631 C23.1751558,580.087047 22.7146512,577.477497 23.18817,575.084574 L24.1942724,569.601712 C24.5456574,567.789469 24.9691213,566.133678 25.3625524,564.392642 C26.1364003,560.882486 27.0574094,557.674205 27.9664053,554.411766 C28.4098912,552.751964 28.9074364,551.220534 29.3959717,549.660019 L30.8725895,544.989507 C31.9127292,542.015904 32.9298436,538.95204 34.0130304,536.064687 C38.3047326,524.447076 42.9998769,513.609723 47.5468588,503.530563 L54.0119424,489.210133 L55.4214867,485.999845 L56.8210202,482.538832 L59.6230903,475.616806 L65.2442491,461.781781 C67.0352114,457.112271 68.6730059,452.336455 70.399898,447.620812 L74.6485531,435.856778 C75.3853603,433.914158 76.0140492,431.906349 76.6537501,429.903555 L78.5808615,423.903195 L82.4420921,411.903479 L84.3762113,405.904122 C85.0099056,403.899322 85.5555034,401.847386 86.1491538,399.821525 L93.1578329,375.439987 L99.494776,350.748553 L101.080513,344.576698 L102.508078,338.339653 L105.361204,325.866568 L108.219335,313.393482 L110.792154,300.821109 L113.351959,288.243722 C114.202891,284.050591 115.093867,279.868492 115.811654,275.636248 L120.373652,250.31098 C126.045867,216.434974 130.867149,182.33833 134.642286,148.078213 C138.292285,113.804055 141.146412,79.4225871 143.02447,45 L222,49.1991484 C220.042856,85.1160587 217.069598,120.957751 213.257421,156.725229 C209.317104,192.483681 204.282588,228.14084 198.323058,263.698712 L193.526803,290.331763 C192.767972,294.775619 191.830945,299.198415 190.933962,303.625222 L188.232002,316.90464 L185.510019,330.182053 L182.482703,343.420352 L179.451381,356.657649 L177.933718,363.274793 L176.243867,369.869873 L169.469444,396.24217 L161.928182,422.49813 C161.286479,424.683452 160.696833,426.877801 160.011081,429.056103 L157.913783,435.582986 L153.714182,448.638757 L151.61288,455.164637 C150.915115,457.340933 150.228363,459.519235 149.418475,461.67447 L144.745355,474.63998 C142.840268,479.848048 141.034289,485.074167 139.044109,490.263179 L132.759223,505.76603 L129.611774,513.516453 L128.036048,517.389658 L126.291136,521.368169 L119.637846,536.109817 C115.37017,545.557149 111.493923,554.607332 108.226343,563.448911 C107.391428,565.662315 106.694665,567.81755 105.915811,569.998861 L104.911711,573.200122 C104.576344,574.264201 104.21695,575.341317 103.955664,576.365279 C103.388042,578.439279 102.765359,580.535344 102.355911,582.498022 C102.139674,583.484877 101.854361,584.511848 101.68017,585.462598 L101.16861,588.290781 C100.881295,589.594553 100.121463,590.48212 98.8390576,591.146041 C97.5766745,591.788901 95.8958328,592.133899 94.1148815,591.951371" id="Fill-7" fill="#694D3D" blush:skin="500"/><path d="M113.151006,568.705216 C113.557476,567.565859 113.920003,566.448412 114.356434,565.290131 L115.67072,561.81031 C89.3815105,551.781141 69.6646035,544.259265 56.5199989,539.24468 C50.5524158,536.968085 41.6010411,533.553191 29.6658749,529 C26.2613146,537.899737 23.0025642,547.302424 20.2811131,557.793677 L18.3716032,565.911599 C17.794356,568.740074 17.2770306,571.675115 16.7637,574.558367 C16.3052978,577.58105 15.9397745,580.760097 15.5782459,583.860464 C15.3951514,586.059504 15.2572747,590.106016 15.164616,596 L18.4133794,596 L46.289028,596 L47.036223,590.104024 C47.3538088,588.662896 47.6314468,587.194878 48.059888,585.856332 C50.7014433,587.517563 53.506785,589.177798 56.2791696,590.668723 C58.1314209,591.666657 60.973658,593.443749 64.805881,596 L107.234552,596 L137.791872,595.975101 C139.140114,595.951199 137.880757,589.503322 137.175676,589.19956 C136.465602,588.863928 131.64389,586.627042 129.869204,585.81037 C122.647621,582.556627 114.600116,580.18743 110.960862,575.379023 C111.675929,573.173011 112.310102,570.999866 113.151006,568.705216 Z" id="Fill-9" fill="#0A1B45"/><path d="M126.871982,0 C126.871982,0 122.624845,58.1531915 118.608335,97.3649054 C114.562873,136.580626 109.297381,175.638089 102.736983,214.311929 C96.2215113,252.995786 88.1495551,291.232916 78.5969915,328.669746 C69.0114812,366.071519 57.8285522,402.716062 44.4731338,437.427463 L39.9684132,449.120463 C38.3789817,452.935662 36.7046872,456.670731 35.0853041,460.44887 L30.2071868,471.75424 L29.5991694,473.167536 L29.2956598,473.873684 L29.0011357,474.504709 L27.8280314,476.99776 L25.1024358,482.714048 C21.2127214,490.837247 16.8008507,500.061235 12.4908155,510.001387 C8.17079644,519.989616 3.86774993,530.745092 -2.91038305e-11,543.005013 L37.1789209,554.131092 C42.5452492,549.100918 47.9265533,544.507455 53.4136864,540.363722 C54.522894,546.995497 55.8876885,553.698389 57.4421766,560.195946 L133.635053,583 C135.191538,577.107425 137.495814,570.305373 140.277319,563.076627 C143.068809,555.804811 146.315562,548.161392 149.990623,539.595473 L152.86997,532.836491 L154.416471,529.127464 C154.686036,528.49744 154.91866,527.905478 155.136308,527.330544 L155.808222,525.580701 L161.179543,511.585961 C162.949682,506.92038 164.780723,502.257804 166.488963,497.589218 L171.245277,483.566433 C185.405395,441.990878 196.306779,400.289118 205.323209,358.536275 C214.280734,316.780427 221.405221,274.973497 226.824464,233.108471 C232.286637,191.246451 236.30115,149.338356 239.007776,107.378176 C241.685449,65.4159926 243.140099,43.5102631 242.989342,1.40084075 C243.020292,0.113749388 126.871982,0 126.871982,0 Z" id="Fill-11" fill="#FA3239"/></g><path d="M243,0 C243,55.228475 289.562386,100 347,100 C404.437614,100 451,55.228475 451,0" id="Waist" fill="#FA3239"/></g></g><g id="Body" transform="translate(-33.000000, -31.000000) scale(1 1)" blush:width="863" blush:height="528" blush:component="Body"><g id="Body/Short Tee Wave 2" stroke="none" stroke-width="1" fill="none" fill-rule="evenodd"><g id="Right-Arm" transform="translate(417.000000, -22.000000)"><path d="M209.51019,16.2545499 L209.480977,16.1430408 C209.303308,15.4579152 209.123468,14.7733057 208.941468,14.0892288 C207.719468,9.54222878 210.509468,4.72522878 215.284468,3.30222878 C216.133039,3.04937164 216.989583,2.92923133 217.831594,2.9300037 L218.083739,2.93385099 C221.024438,3.02091671 223.758909,4.57931975 225.31775,7.10056491 L225.319402,7.09110066 C225.97573,4.05217878 227.715668,1.76567878 231.193668,0.771928782 C232.106328,0.549988782 232.960527,0.450236382 233.760723,0.460926798 L234.156342,0.4754212 C239.328336,0.787323135 242.172468,5.84077158 243.976512,12.242106 C245.122011,10.0688613 247.091847,8.36179958 249.636068,7.69772878 C250.373868,7.45876878 251.082087,7.34348878 251.762006,7.34321237 L252.266659,7.36443266 C263.0867,8.28553303 266.518209,39.0019883 268.055609,62.2831618 L268.119015,63.2481737 C271.126407,80.3759271 269.295986,100.92372 268.662368,115.309329 C265.525368,155.823329 252.990368,198.660329 224.979368,230.073329 C199.888808,259.711289 162.59927,273.010328 124.876528,273.461799 L123.1616,273.473484 C104.295016,273.50496 85.3646979,270.337769 67.8413679,264.408329 C52.8623679,258.928329 36.2833679,255.616329 24.8253679,244.382329 C4.74222786,224.058109 23.3737723,189.69092 49.9806703,189.741797 L50.7976258,189.754157 C51.070753,189.761895 51.3446779,189.773269 51.6193679,189.788329 C64.0683679,190.511329 75.2953679,198.602329 87.1053679,201.283329 C95.0633679,203.711329 102.970368,205.527329 110.650368,206.573329 C116.151798,207.522379 121.383814,207.952194 126.352697,207.909589 L127.999255,207.877954 C177.104128,206.407849 199.965568,158.215729 202.865368,110.114329 C204.012512,101.827659 203.529429,93.0263387 203.071757,84.3944131 C200.962583,79.8500739 193.818999,80.7947903 193.814368,72.9670288 C194.961368,62.9770288 184.490368,44.6730288 198.663368,41.1410288 C197.677125,35.815686 196.54029,30.5071506 195.257668,25.2258288 C194.203668,20.8728288 197.132668,16.2998288 201.943668,14.9848288 C204.664473,14.239426 207.427434,14.7868757 209.51019,16.2545499 Z" id="SKIN" fill="#694D3D" blush:skin="500"/><path d="M243.976794,12.2431083 L243.982112,12.2304239 C245.129213,10.0626251 247.096496,8.36058592 249.636068,7.69772878 C262.714936,3.4617213 266.4983,38.0910559 268.118902,63.2537185 C271.126051,80.3799136 269.295924,100.925115 268.662368,115.309329 C265.525368,155.823329 252.990368,198.660329 224.979368,230.073329 C186.963368,274.979329 120.942368,282.376329 67.8413679,264.408329 C52.8623679,258.928329 36.2833679,255.616329 24.8253679,244.382329 C4.33236786,223.643329 24.1503679,188.282329 51.6193679,189.788329 C64.0683679,190.511329 75.2953679,198.602329 87.1053679,201.283329 C95.0633679,203.711329 102.970368,205.527329 110.650368,206.573329 C171.777368,217.118329 199.643368,163.560329 202.865368,110.114329 C204.012512,101.827659 203.529429,93.0263387 203.071757,84.3944131 C200.962583,79.8500739 193.818999,80.7947903 193.814368,72.9670288 C194.961368,62.9770288 184.490368,44.6730288 198.663368,41.1410288 C197.677125,35.815686 196.54029,30.5071506 195.257668,25.2258288 C194.203668,20.8728288 197.132668,16.2998288 201.943668,14.9848288 C204.664473,14.239426 207.427434,14.7868757 209.51019,16.2545499 C209.322886,15.5324683 209.133377,14.8105525 208.941468,14.0892288 C207.719468,9.54222878 210.509468,4.72522878 215.284468,3.30222878 C219.192567,2.13769405 223.269757,3.78817268 225.31775,7.10056491 C225.97196,4.05713748 227.711898,1.76675602 231.193668,0.771928782 C238.292449,-0.954347802 241.854424,4.71162705 243.976794,12.2431083 Z" id="SKIN-DARKER" fill="#543629" blush:skin="600"/><path d="M96.5428679,282.324929 C71.1168679,278.378929 47.4858679,270.031929 24.8448679,259.452929 C0.801867862,248.410929 -4.77068404,222.39977 4.90386786,198.525929 C10.6857019,184.258127 31.4171906,171 31.4171906,171 C75.5576343,172.574517 109.978868,195.355929 109.978868,195.355929 L96.5428679,282.324929 Z" id="Fill-15" fill="#051026"/></g><g id="body" transform="translate(272.000000, 149.000000)"><rect id="SKIN" fill="#694D3D" x="18" y="101" width="180" height="48" blush:skin="500"/><path d="M40,0 L176,0 C198.09139,-4.05812251e-15 216,17.90861 216,40 L216,117 L216,117 L0,117 L0,40 C-2.705415e-15,17.90861 17.90861,4.05812251e-15 40,0 Z" fill="#0A1B45"/></g><path d="M334,149 C334,167.225397 354.594902,182 380,182 C405.405098,182 426,167.225397 426,149" id="SKIN" fill="#694D3D" blush:skin="500"/><g id="Left-Arm" transform="translate(119.000000, 148.000000)"><path d="M158.927768,263.652024 L158.926768,263.652024 C147.950768,264.948024 136.348768,261.612024 126.141768,259.556024 C119.140768,257.148024 115.719768,250.243024 108.708768,246.775024 C95.0227683,238.016024 79.7397683,231.599024 64.2127683,223.065024 C42.6397683,211.756024 18.5417683,193.564024 8.10676827,169.268024 C-6.94023173,135.529024 -0.688231726,93.6230238 23.9317683,66.1570238 C52.7587683,34.0470238 95.6917683,22.4820238 136.178768,16.5450238 C154.833768,14.9350238 178.560768,7.92402379 193.229768,22.2770238 C206.565768,33.8240238 205.593768,57.0920238 193.539768,68.9450238 C187.903768,74.9510238 180.394768,78.8170238 172.023768,79.3160238 C153.948768,80.3930238 136.118768,82.6950238 119.724768,86.7550238 C98.9597683,92.5340238 72.1557683,100.656024 66.7517683,123.155024 C61.8407683,144.300024 78.1857683,155.853024 95.7937683,165.111024 C111.236768,173.501024 128.526768,180.984024 144.554768,191.355024 C158.267768,200.619024 174.823768,212.599024 179.134768,229.722024 C183.632768,245.272024 175.406768,262.079024 158.927768,263.652024" id="SKIN" fill="#694D3D" blush:skin="500"/><path d="M134.948268,279.355124 C122.768268,277.998124 128.590268,267.070124 123.440268,260.053124 C119.847268,251.374124 101.944268,248.472124 108.510268,236.087124 C117.567268,222.827124 133.043268,243.188124 138.721268,250.541124 C143.486268,258.430124 151.019268,280.642124 134.948268,279.355124" id="SKIN" fill="#694D3D" blush:skin="500"/><path d="M148.860368,291.451824 C135.713368,288.061824 145.747368,269.756824 140.964368,260.499824 C139.679368,254.490824 147.936368,248.066824 153.684368,250.471824 C163.311368,256.645824 160.264368,274.769824 159.424368,284.722824 C158.725368,289.636824 153.649368,292.748824 148.860368,291.451824" id="SKIN" fill="#694D3D" blush:skin="500"/><path d="M163.879968,297.383524 C159.115968,296.096524 156.230968,291.093524 157.125968,286.362524 C158.786968,276.970524 159.154968,267.234524 156.860968,257.994524 C154.777968,250.979524 162.123968,242.098524 169.391968,246.587524 C179.211968,251.487524 180.989968,302.915524 163.879968,297.383524" id="SKIN" fill="#694D3D" blush:skin="500"/><path d="M190.887768,254.586624 C177.273768,254.024624 177.084768,233.155624 168.623768,225.197624 C160.782768,214.551624 149.693768,208.212624 148.713768,194.131624 C154.459768,197.607624 160.541768,192.166624 166.426768,196.967624 C177.358768,204.277624 210.012768,244.716624 190.887768,254.586624" id="SKIN" fill="#694D3D" blush:skin="500"/><path d="M181.494168,292.004624 C166.783168,288.913624 182.038168,259.820624 164.188168,234.688624 C160.582168,227.359624 152.605168,223.065624 150.805168,215.163624 C149.214168,207.805624 157.193168,203.142624 163.464168,206.863624 C170.254168,211.169624 174.745168,218.221624 179.472168,225.175624 C188.220168,235.479624 203.726168,292.481624 181.494168,292.004624" id="SKIN" fill="#694D3D" blush:skin="500"/><path d="M104.562768,11.2090238 C128.114768,5.69102379 154.312092,5.1403326e-14 191.396139,1 C217.091608,1.6928982 222.965768,20.7940238 221.034768,46.3420238 C219.224768,69.2870238 201.773768,88.7990238 178.951768,89.9760238 C160.110768,90.8000238 141.496768,92.9130238 124.760768,96.8590238 L104.562768,11.2090238 Z" id="Fill-26" fill="#0A1B45"/></g></g></g><g id="Head" transform="translate(288.000000, -61.000000) scale(1 1)" blush:width="127" blush:height="211" blush:component="Head"><g id="Head/Part" stroke="none" stroke-width="1" fill="none" fill-rule="evenodd"><path d="M62,61 C91.8233765,61 116,85.1766235 116,115 L116,134 C116,163.823376 91.8233765,188 62,188 L35,188 C20.0883118,188 8,175.911688 8,161 L8,115 C8,85.1766235 32.1766235,61 62,61 Z" id="Rectangle" fill="#000"/><g id="Group-29" transform="translate(22.000000, 67.000000)"><path d="M13,66.9999 L58,66.9999 L58,118.6329 C58,132.5379 47.927,143.8099 35.5,143.8099 C23.073,143.8099 13,132.5379 13,118.6329 L13,66.9999 Z" id="SKIN" fill="#694D3D" blush:skin="500"/><path d="M60.0525,98.9999 L55.0655,98.9999 C31.8335,98.9999 13.0005,80.1669 13.0005,56.9349 L13.0005,37.2029 C13.0005,19.4179 27.4175,4.9999 45.2035,4.9999 L50.7965,4.9999 C68.5825,4.9999 83.0005,19.4179 83.0005,37.2029 L83.0005,76.0519 C83.0005,88.7259 72.7265,98.9999 60.0525,98.9999" id="SKIN" fill="#694D3D" blush:skin="500"/><path d="M34.7507501,101.331676 C25.4557924,98.0435693 20.8185822,89.7386742 18.9822222,78.5680961 C26.2532122,90.6701724 39.4406226,98.8132264 54.5439426,98.9967331 L55.0655,98.9999 L58,98.9999 C50.0632106,103.229739 42.3134606,104.006998 34.7507501,101.331676 Z" id="SHADOW" fill="#000" opacity=".12"/><path d="M25,63.4999 C25,70.4029 19.404,75.9999 12.5,75.9999 C5.596,75.9999 0,70.4029 0,63.4999 C0,56.5969 5.596,50.9999 12.5,50.9999 C19.404,50.9999 25,56.5969 25,63.4999" id="SKIN" fill="#694D3D" blush:skin="500"/><path d="M10.0669,58.1684 C10.9717309,58.1684 12.2238875,58.3770928 13.5087204,59.0195092 C15.6552998,60.0927989 17.0129325,62.055228 17.10401,64.9020045 L17.1089,65.2104 L14.1089,65.2104 C14.1089,63.3750144 13.4075866,62.3230443 12.1670796,61.7027908 C11.7064142,61.4724581 11.1975823,61.3198085 10.686239,61.2345846 C10.4346302,61.1926498 10.2384731,61.1746448 10.1249097,61.169808 L10.0669,61.1684 L10.0669,58.1684 Z" id="Stroke-24" fill="#000" fill-rule="nonzero"/><path d="M9.464,50.9999 C6.48893665,48.1071667 4.4449646,43.6885285 3.06510218,38.5642254 C1.72982422,33.6054927 25.7422,0.305297878 41.1992,0.305297878 C53.0902,0.305297878 65.025,-0.1691 71.797,9.6049 C82.9985111,25.3680756 86.7330111,33.9280281 83.0005,35.2847576 C62.5982272,38.5 48.0005,33.7935617 35.5,25.6507418 C33.5,42.6507418 20,50.9999 11,50.9999 L9.464,50.9999 Z" id="Fill-26" fill="#000"/></g></g></g><g id="Expression" transform="translate(335.000000, 34.000000) scale(1 1)" fill="#000" blush:width="61" blush:height="61" blush:component="Expression"><g id="Expression/Happy" stroke="none" stroke-width="1" fill="none" fill-rule="evenodd"><path d="M20.5607,22 C20.5607,20.343 19.2177,19 17.5607,19 C15.9037,19 14.5607,20.343 14.5607,22 C14.5607,23.657 15.9037,25 17.5607,25 C19.2177,25 20.5607,23.657 20.5607,22" id="Fill-1" fill="#000"/><path d="M46.5607,22 C46.5607,20.343 45.2177,19 43.5607,19 C41.9037,19 40.5607,20.343 40.5607,22 C40.5607,23.657 41.9037,25 43.5607,25 C45.2177,25 46.5607,23.657 46.5607,22" id="Fill-3" fill="#000"/><polygon id="Stroke-5" fill="#000" points="33.1977829 19.396766 36.1476171 18.850434 40.4350211 41.9996 30.5607 41.9996 30.5607 38.9996 36.828 38.999"/><path d="M21.9219,41.586 C21.9219,45.2602625 25.6639817,48.6581933 29.6815435,48.7900329 L29.9229,48.794 L29.9229,51.794 C24.3252295,51.794 19.0961019,47.2280163 18.9261594,41.8552911 L18.9219,41.586 L21.9219,41.586 Z" id="Stroke-7" fill="#000"/><path d="M23.0607,9 L23.0607,12 C19.8342736,12 16.8913939,12.8655529 14.2891644,14.3112359 C13.508469,14.7449556 12.8086718,15.2043948 12.1956619,15.6654963 L11.8964164,15.8960741 C11.548672,16.1706093 11.3051282,16.3844813 11.1717567,16.5115787 L11.1213602,16.5606602 L9.00003983,14.4393398 C9.71719288,13.7221868 11.0118484,12.7000903 12.8322356,11.6887641 C15.7235813,10.0824609 18.9894549,9.08904431 22.5704367,9.00569674 L23.0607,9 Z" id="Stroke-9" fill="#000"/><path d="M37.0607,9 C40.8342736,9 44.2663939,10.0094471 47.2891644,11.6887641 C48.9957774,12.6368824 50.2403215,13.5944668 50.980139,14.3013772 L51.1213602,14.4393398 L49.0000398,16.5606602 L48.8084832,16.3819961 C48.6965748,16.2822525 48.549249,16.1566104 48.3676199,16.0099419 L48.2249836,15.8960741 C47.5437467,15.3582556 46.7430469,14.8172422 45.8322356,14.3112359 C43.3601176,12.937837 40.5805627,12.0880056 37.5425302,12.006456 L37.0607,12 L37.0607,9 Z" id="Stroke-11" fill="#000"/></g></g><g id="Accessories" transform="translate(322.000000, 56.000000) scale(1 1)" fill="#000" blush:width="76" blush:height="48" blush:component="Accessories"><g id="Accessories/None" stroke="none" stroke-width="1" fill="none" fill-rule="evenodd" fill-opacity="0"/></g><g id="Glasses" transform="translate(314.000000, 42.000000) scale(1 1)" fill="#000" blush:width="95" blush:height="32" blush:component="Glasses"><g id="Glasses/Thick" stroke="none" stroke-width="1" fill="none" fill-rule="evenodd"><path d="M43.5452664,3.00012344 C49.2894512,3.02462661 55.021427,4.35163303 57.0857956,6.97405047 C58.0938547,8.25461237 58.6772219,10.0147386 58.9068842,11.9996703 L62.1143968,11.9996703 C62.3440591,10.0147386 62.9274264,8.25461237 63.9354854,6.97405047 C65.9529365,4.41123343 71.4731799,3.0856142 77.0844275,3.00401411 L77.4760146,3.00012344 L77.8967218,3.00012344 L80.8146938,3.0378718 C91.0822714,3.2070925 94.9796428,3.73089949 95.893837,5.69362755 C96.9046181,7.86372269 97.4724619,10.8486323 96.5699433,12.3975628 L96.4345265,12.6077971 C96.2607766,12.8804731 95.8187885,13.7026763 95.3317143,14.6775352 L95.2267324,14.8886255 L94.7966033,15.7746065 C94.1772527,17.0747485 93.6217104,18.3482986 93.2115536,19.4320065 L93.1438986,19.6872046 L93.1438986,19.6872046 C92.2530855,22.9637972 90.4857872,26.1972123 88.6985341,28.3365739 C85.3492115,32.34575 71.1131799,32.6082999 67.0329763,28.4576053 C64.4038322,25.7830393 62.5077693,20.7417692 62.087653,15.9998009 L58.933628,15.9998009 C58.5135117,20.7417692 56.6174488,25.7830393 53.9883048,28.4576053 C49.9081011,32.6082999 35.6720695,32.34575 32.3227469,28.3365739 C30.5354938,26.1972123 28.7681955,22.9637972 27.8773824,19.6872046 L27.8097274,19.4320065 C27.4233065,18.4110132 26.9078403,17.2215143 26.331547,16.0000268 L0,16 L0,12 L24.2628445,12.0004643 C23.6422666,10.3774347 24.1973223,7.69055104 25.127444,5.69362755 C26.0970439,3.61194627 30.4223758,3.14888604 42.1443686,3.0107703 L43.1245592,3.00012344 L43.5452664,3.00012344 Z M32.8542992,9.57832836 C31.1333273,11.9393787 30.7976239,14.9040914 31.4059083,17.8533932 L31.6334165,18.4663592 L31.5539327,18.4983688 C32.1949786,21.035914 33.5135424,23.5284501 35.226974,25.5794466 C37.0849603,27.8034767 48.7860935,28.0192764 51.3034638,25.4584151 C54.5060095,22.2005411 56.3804317,12.9591713 54.2303847,9.80770023 L54.1067801,9.63896051 L53.9809214,9.49277664 C51.015179,6.32545056 35.1904568,6.373287 32.8542992,9.57832836 Z M88.1669819,9.57832836 C85.8662205,6.42184823 70.4825425,6.32762495 67.1839305,9.35102137 L67.0403596,9.49277664 L66.9145009,9.63896051 L66.7908963,9.80770023 C64.6408493,12.9591713 66.5152715,22.2005411 69.7178172,25.4584151 C72.2351876,28.0192764 83.9363207,27.8034767 85.794307,25.5794466 C87.4069485,23.6490969 88.669811,21.3276257 89.347247,18.9456229 L89.4673483,18.4983688 L89.3878645,18.4663592 L89.6153727,17.8533932 L89.6153727,17.8533932 C90.2236571,14.9040914 89.8879537,11.9393787 88.1669819,9.57832836 Z" id="Shape" fill="#000"/></g></g></g></svg>