<svg viewBox="168.972 0 386.959 859" xmlns="http://www.w3.org/2000/svg" xmlns:blush="http://design.blush" overflow="visible" width="450.476" height="1000">
  <g fill="none" fill-rule="evenodd" blush:has-customizable-skin="true">
    <g blush:width="693" blush:height="596" blush:component="Legs">
      <path d="M546.295 529.593l-.738-66.043c-.047-3.578-2.987-6.443-6.528-6.404-20.978.232-41.776.244-62.563-.075-20.769-.318-41.47-.946-61.974-2.037-13.104-.697-26.13-1.582-38.988-2.734-12.85-1.152-25.564-2.558-37.853-4.377a258.03 258.03 0 01-4.586-.701c-1.52-.24-3.048-.475-4.539-.738l-2.25-.385-1.126-.192c-.23-.037-.252-.05-.37-.074l-.292-.062c-.767-.166-1.593-.298-2.326-.418a114.217 114.217 0 01-7.774-1.771c-2.565-.692-5.11-1.477-7.572-2.485-2.44-1.027-4.87-2.2-6.899-3.932-1.01-.86-1.907-1.871-2.517-3.054-.619-1.188-.784-2.54-.91-3.854-.22-2.654.037-5.322.463-7.941.897-5.245 2.518-10.336 4.371-15.315l1.066-2.782 1.665-4.183a395.311 395.311 0 013.532-8.43 492.251 492.251 0 017.732-16.99c5.413-11.356 11.282-22.734 17.44-34.033l-69.364-37.81c-6.745 12.377-13.238 24.95-19.39 37.857a568.142 568.142 0 00-8.942 19.654 474.592 474.592 0 00-4.227 10.086l-2.039 5.123-1.065 2.764-1.282 3.404c-3.352 9.13-6.393 18.385-8.726 27.704-2.384 9.314-4.033 18.673-4.75 27.915a111.279 111.279 0 00-.215 13.745c.094 2.269.3 4.523.53 6.77l.482 3.345.627 3.313c.93 4.395 2.22 8.716 4.354 12.809 2.152 4.062 4.953 7.726 8.06 10.997 6.21 6.584 13.727 11.648 21.783 16.04 8.087 4.357 16.915 7.799 26.038 10.687 9.14 2.867 18.584 5.178 28.124 7.078 2.33.476 4.601.9 6.91 1.326l5.715.992c3.594.609 7.17 1.174 10.732 1.693 28.487 4.155 56.38 6.336 84.182 7.848 43.444 2.28 86.622 2.688 129.58 2.218a6.47 6.47 0 006.419-6.548" fill="#543629" blush:skin="600"/>
      <path d="M521.499 543.49l-17.59.022.213-92.203c7.984.02 15.978-.006 23.992-.064l24.886-.234v31.169c-2.583.463-4.866.952-7.219 1.434l7.219 17.11v78.287l-10.775.106c-8.266.09-11.411-26.007-20.726-35.627" fill="#0A1B45"/>
      <path d="M372.412 308.253a681.238 681.238 0 00-5.317 9.224 854.125 854.125 0 00-15.65 28.903c-6.689 12.951-12.99 25.97-18.624 38.807-2.81 6.414-5.454 12.782-7.848 19.02-1.19 3.11-2.347 6.22-3.387 9.223-.11.551-.134.907-.184 1.352-.156 1.681-.147 3.187.27 4.488a3.75 3.75 0 00.434.918c.201.281.511.506.844.672.685.324 1.445.45 2.147.513.708.057 1.377.046 1.992-.005.307-.026.601-.06.882-.102l.207-.033.102-.017a3.782 3.782 0 01.803.005l1.418.203c13.027 1.878 27.102 3.237 41.467 4.23 14.383.991 29.103 1.647 43.978 2.04 34.704 1.064 70.12.85 105.674-.09l.195 38.86-15.824 11.01 15.931 10.17.4 79.64c-37.599-.593-75.336-1.924-113.549-4.705-16.39-1.258-32.884-2.813-49.587-4.813-16.713-2.013-33.61-4.457-51.14-7.904l-4.132-.805-4.847-1-2.432-.53-2.549-.587-5.092-1.17c-3.396-.77-6.723-1.723-10.082-2.572-3.336-.905-6.606-1.943-9.907-2.905-13.073-4.11-25.428-9.365-36.473-15.896-5.419-3.379-10.673-6.906-15.353-10.995-4.682-4.08-9.019-8.505-12.819-13.467-3.79-4.937-7.118-10.492-9.43-16.317-2.377-5.752-3.87-11.758-4.889-17.883-1.89-12.29-1.623-25.136.253-38.156.89-6.504 2.271-13.053 3.904-19.574 1.616-6.526 3.562-13.032 5.74-19.475a333.908 333.908 0 017.04-19.108 437.197 437.197 0 015.267-12.336c3.586-8.076 7.317-15.894 11.15-23.56C231.066 318.21 240.903 302.462 251 289c6-8 18-21 23-26 0 0 98.843 44.566 98.412 45.253z" fill="#CC2935"/>
      <path d="M423.659 818.494l52.01-44.078c2.813-2.394 3.418-6.424 1.34-9.1a621.517 621.517 0 01-18.195-24.735 674.067 674.067 0 01-17.141-25.745c-11.008-17.417-21.174-35.277-30.154-53.42-6.496-13.153-12.379-26.455-17.433-39.813-5.03-13.355-9.24-26.764-12.374-40.031-3.09-13.258-5.077-26.364-5.7-38.968-.316-6.302-.282-12.475.143-18.457.226-2.988.493-5.949.896-8.845.15-1.469.43-2.882.656-4.314l.171-1.074c.063-.368.1-.683.198-1.134l.511-2.53c2.636-13.519 6.231-26.824 10.752-39.996 4.606-13.166 10.055-26.2 16.388-39.33 3.152-6.563 6.545-13.174 10.053-19.845a1413.818 1413.818 0 0111.095-20.42c3.853-6.979 7.815-14.115 11.846-21.58 4.034-7.512 8.12-15.352 12.114-23.772l-72.42-36.345c-3.06 6.451-6.499 13.087-10.136 19.858-3.668 6.793-7.52 13.736-11.425 20.808-3.917 7.084-7.88 14.35-11.802 21.725-3.907 7.43-7.78 14.97-11.499 22.712-7.458 15.46-14.278 31.646-20.1 48.343-5.757 16.735-10.441 34.011-13.854 51.548l-.655 3.286c-.217 1.1-.404 2.368-.605 3.544-.388 2.396-.817 4.793-1.09 7.19-.657 4.797-1.105 9.586-1.453 14.364-.667 9.555-.704 19.04-.24 28.385.924 18.7 3.776 36.839 7.853 54.331 8.28 34.968 21.22 67.402 36.336 98.039 10.462 21.133 22.035 41.424 34.44 61.054 12.444 19.632 25.623 38.546 39.932 57.022 2.421 3.121 6.732 3.716 9.542 1.323" fill="#694D3D" blush:skin="500"/>
      <path d="M389.403 805.77a763.52 763.52 0 01-11.042-15.557l76.58-56.25a633.754 633.754 0 0013.693 19.075 559.96 559.96 0 007.02 9.207l3.498 4.429 1.706 2.11 1.387 1.686-2.5 2.25-21.447 19.3c-.35-.232-.799-.587-1.238-.938l-1.334-1.07-2.697-2.22a650.28 650.28 0 00-8.979 17.048l-32.645 29.375-27.504 24.747-2.82-3.406-2.31-2.856-4.372-5.52c-5.97-7.694 13.083-27.182 15.004-41.41" fill="#0A1B45"/>
      <path d="M476.85 263.002s6.133-.436 6.11 1.585c0 2.05-.015 1.999-.047 4.049-.023 2.054-.208 4.02-.326 6.035-.142 1.998-.285 4.012-.468 5.999l-.74 5.8-.399 2.898-.208 1.446-.252 1.387-1.049 5.542-.549 2.767-.62 2.641-1.293 5.257c-3.604 13.81-8.205 25.853-12.865 36.647-4.682 10.81-9.471 20.45-14.08 29.465-4.616 9.008-9.072 17.391-13.281 25.447-8.46 16.104-15.81 30.875-22.02 45.408-3.051 7.24-5.843 14.405-8.337 21.53l-1.773 5.34-.881 2.665-.795 2.669c-.523 1.777-1.094 3.549-1.587 5.326l-1.433 5.331c-.514 1.772-.889 3.561-1.32 5.34-.404 1.784-.893 3.55-1.24 5.34-.71 3.579-1.52 7.13-2.07 10.73l-.467 2.688-.235 1.342c-.035.212-.09.477-.107.642l-.058.5c-.133 1.348-.381 2.636-.474 4.017-.26 2.72-.457 5.498-.515 8.374-.306 11.461 1.003 24.177 3.84 37.558 2.829 13.382 7.155 27.382 12.633 41.514 5.475 14.139 12.109 28.417 19.57 42.58 7.671 14.574 16.189 29.055 25.399 43.25 9.184 14.196 19.066 28.156 29.332 41.532l-31.678 24.571a569.735 569.735 0 01-18.274-6.118 659.328 659.328 0 001.01 19.51l-64.921 50.356c-12.027-17.13-23.31-34.59-33.95-52.651-10.643-18.04-20.605-36.67-29.76-56.015-8.872-18.832-16.969-38.362-23.869-58.843-6.885-20.478-12.608-41.91-16.316-64.532-3.684-22.594-5.35-46.472-3.451-71.178.458-6.165 1.187-12.384 2.128-18.608.43-3.107 1.068-6.239 1.616-9.349l.215-1.167.22-1.041.442-2.032.888-4.059c1.123-5.427 2.542-10.775 3.896-16.135.67-2.683 1.483-5.316 2.224-7.973.767-2.646 1.491-5.312 2.352-7.918l2.503-7.848c.856-2.605 1.788-5.167 2.683-7.749l1.36-3.864 1.44-3.81c.971-2.534 1.924-5.082 2.918-7.596 4.019-10.031 8.347-19.797 12.87-29.302 9.09-18.911 19.046-36.697 28.57-53.074 9.477-16.375 18.593-31.636 25.002-44.836 3.212-6.583 5.682-12.58 7.277-17.681 1.608-5.128 2.36-7.146 2.591-10.749.01-.288 37.55-.605 112.619-.95z" fill="#FA3239"/>
      <path d="M482 263c0 55.228-46.562 100-104 100s-104-44.772-104-100" fill="#FA3239"/>
    </g>
    <g blush:width="863" blush:height="528" blush:component="Body">
      <path d="M241.893 310.299c72.568 5.08 276.666-18.16 274.356-31.094-4.582-25.653-12.513-65.739-23.795-120.257 0-22.615-20.158-40.949-45.023-40.949H308.104c-24.865 0-45.021 18.334-45.021 40.949-9.954 52.287-17.186 91.06-21.697 116.317-1.61 9.018-1.441 20.696.507 35.034z" fill="#34D1A1"/>
      <path d="M520 313.19c-100.65 35.654-209.777 1.927-284.463 0l4.79-38.889c73.162 2.617 177.854 34.562 275.998.816L520 313.19z" fill="#2DB386"/>
      <path d="M258.431 318.713c43.282 1.74 92.413 1.673 128.071-25.26 31.444-27.101 38.688-74.523 40.13-115.885.357-18.558 13.055-34.167 32.104-35.59 40.925-1.246 34.85 46.43 31.061 74.808-5.25 40.06-17.744 80.47-45.16 111.884-27.69 32.319-70.749 48.106-111.432 53.506-33.408 4.594-66.688 3.984-99.955.724a586.347 586.347 0 01-45.114-6.264c-8.622-1.272-10.665-13.141-2.926-16.807l-5.435-1.058c-8.967-1.512-9.87-14.311-1.6-17.194-9.36-5.893-1.427-20.165 8.645-16.072-5.085-5.833.704-16.423 8.318-14.686a480.142 480.142 0 0016.664 2.848c3.067-14.422 23.357-3.986 33.462-4.957 10.044.834 7.58 9.656 13.167 10.003" fill="#694D3D" blush:skin="500"/>
      <path d="M262.772 391.03c10.975.47 22.054.62 33.255.243 38.189 11.828 86.847.056 122.886-19.745 41.928-23.33 68.645-68.441 78.546-114.093 6.53-27.78 7.928-60.437 5.269-87.01 1.348-26.016-28.092-52.426-55.297-52.426s-33.426 28.772-32.702 52.223c-4.998 36.524-10.638 78.92-34.868 107.2-13.325 15.025-35.203 23.052-54.031 28.768-15.266 4.604-27.421 7.439-32.13 10.118-9.126.315-18.387.19-27.712-.21l-3.216 74.932z" fill="#34D1A1"/>
      <path d="M295.561 389.782l-2.25-74.967c-8.962.308-18.087.174-27.259-.218l-3.216 74.931c10.808.461 21.697.621 32.725.254" fill="#2DB386"/>
    </g>
    <g blush:width="127" blush:height="211" blush:component="Head">
      <path d="M402 116h4.12c15.398 0 27.88-12.482 27.88-27.88V52h-32v64zm-41 0h-33.358a3.641 3.641 0 01-3.642-3.642V52h37v64z" fill="#000"/>
      <path d="M383.2 105H369V0h14.2C411.254 0 434 22.744 434 50.8v3.4c0 28.057-22.745 50.8-50.8 50.8" fill="#000"/>
      <path d="M367.8 58h9.2V0h-9.2C339.746 0 317 9.854 317 31.551v10.361C317 58 339.745 58 367.8 58" fill="#000"/>
      <path d="M402 73h-45v51.633c0 13.905 10.073 25.177 22.5 25.177s22.5-11.272 22.5-25.177V73z" fill="#694D3D" blush:skin="500"/>
      <path d="M354.947 105h4.987C383.166 105 402 86.167 402 62.935V43.203C402 25.418 387.582 11 369.796 11h-5.593C346.417 11 332 25.418 332 43.203v38.849C332 94.726 342.273 105 354.947 105" fill="#694D3D" blush:skin="500"/>
      <path d="M380.25 107.332c9.294-3.288 13.931-11.593 15.768-22.764-7.271 12.102-20.459 20.245-35.562 20.429l-.522.003H357c7.937 4.23 15.687 5.007 23.25 2.332z" fill="#000" opacity=".12"/>
      <path d="M390 69.5c0 6.903 5.596 12.5 12.5 12.5S415 76.403 415 69.5 409.404 57 402.5 57 390 62.597 390 69.5" fill="#694D3D" blush:skin="500"/>
      <path d="M404.933 64.168c-.905 0-2.157.21-3.442.852-2.146 1.073-3.504 3.035-3.595 5.882l-.005.308h3c0-1.835.701-2.887 1.942-3.507.46-.23.97-.383 1.48-.468a4.887 4.887 0 01.562-.065l.058-.002v-3z" fill="#000" fill-rule="nonzero"/>
      <path d="M403 57h1.536c5.854-5.692 8.103-17.292 8.781-28.551.929-15.43-25.859-28.45-41.316-28.45a36.251 36.251 0 00-29.798 15.606L335 26h41.303c0 17 14.697 31 26.697 31" fill="#000"/>
    </g>
    <g blush:width="61" blush:height="61" blush:component="Expression">
      <path fill="#000" fill-rule="nonzero" d="M356.802 53.397l-2.95-.547L349.565 76h9.874v-3l-6.267-.001z"/>
      <g stroke="#000" stroke-width="3">
        <path d="M368.805 75.572c0 4.75-4.75 8.708-9.501 8.708m-3.75-31.17l-3.958 21.376h8.07"/>
        <path d="M355.554 53.11l-3.958 21.376h8.07"/>
        <path d="M355.554 53.11l-3.958 21.376h8.07m21.774-26.419S375.371 42 365.664 42m-25.871 5.656s5.312-5.312 13.813-5.312m23.06 11.892c-2 5-11 5-12 0m-13 0c-2 5-11 5-12 0"/>
      </g>
    </g>
  </g>
</svg>
