<svg viewBox="17.615 19.632 235.77 209.86" xmlns="http://www.w3.org/2000/svg" xmlns:blush="http://design.blush" overflow="visible" width="1000" height="890.103">
  <g fill="none" fill-rule="evenodd" opacity="0.25">
    <path d="M20.047 97.353l229.985-44.658c2.176-.422 3.802 1.96 2.615 3.833L143.89 228.123a2.527 2.527 0 01-3.961.392L18.702 101.579c-1.38-1.446-.616-3.845 1.345-4.226" fill="#C2F5FF"/>
    <path d="M71.507 27.896c-.096-.822-.13-1.562-.436-2.254-.825-1.857-2.342-2.304-4.127-2.113-1.502.16-2.337 1.225-2.81 2.57-.267.767-.446 1-1.2.455-1.193-.864-2.488-.71-3.646.105-1.284.902-1.785 2.238-1.572 3.815.086.634.126 1.282.395 1.85-.297.22-.48.03-.665-.024-1.17-.351-2.201-.043-2.918.888-.775 1.01-.905 2.505-.378 3.507.285.54.72.476 1.167.476h15.046c6.255 0 12.509.004 18.765-.007.332-.001.79.196.962-.267.164-.445-.068-.853-.356-1.19-.59-.686-1.402-.982-2.227-1.16-1.2-.258-2.034-.905-2.71-1.962-.906-1.42-2.201-2.435-3.936-2.126-1.14.203-2.025.394-2.87-.724-.381-.507-1.24-.596-1.942-.196-.266.15-.476.197-.591-.236-.637-2.38-1.991-2.886-3.951-1.407M208.675 24.408c-.096-.822-.13-1.562-.436-2.254-.825-1.857-2.342-2.304-4.127-2.113-1.502.16-2.337 1.225-2.81 2.57-.267.767-.446 1-1.2.455-1.193-.864-2.488-.71-3.646.105-1.284.902-1.785 2.238-1.572 3.815.086.634.126 1.282.395 1.85-.297.22-.48.03-.665-.024-1.17-.351-2.201-.043-2.918.888-.775 1.01-.905 2.505-.378 3.507.285.54.72.476 1.167.476h15.046c6.255 0 12.509.004 18.765-.007.332-.001.79.196.962-.267.164-.445-.068-.853-.356-1.19-.59-.686-1.402-.982-2.227-1.16-1.2-.258-2.034-.905-2.71-1.962-.906-1.42-2.201-2.435-3.936-2.126-1.14.203-2.025.394-2.87-.724-.381-.507-1.24-.596-1.942-.196-.266.15-.476.197-.591-.236-.637-2.38-1.991-2.886-3.951-1.407" fill="#26B6E3" blush:width="62" blush:height="53" blush:component="Medium Decoration"/>
    <path d="M206.114 57.52c-.076-.656-.103-1.247-.348-1.8-.658-1.483-1.87-1.84-3.296-1.687-1.2.128-1.865.979-2.242 2.053-.215.612-.358.798-.96.363-.952-.691-1.986-.568-2.91.083-1.026.72-1.426 1.788-1.256 3.047.069.506.1 1.024.315 1.476-.237.178-.382.026-.531-.018-.933-.281-1.757-.035-2.33.709-.62.805-.723 2-.302 2.8.228.43.575.38.932.38H205.2c4.995 0 9.989.003 14.983-.006.265-.001.632.157.768-.213.132-.355-.054-.68-.284-.95-.471-.548-1.12-.784-1.778-.925-.957-.208-1.624-.723-2.163-1.568-.724-1.134-1.758-1.944-3.144-1.698-.91.162-1.617.315-2.29-.577-.306-.406-.992-.476-1.553-.157-.211.12-.378.158-.471-.19-.508-1.898-1.59-2.304-3.155-1.122" fill="#F28DFD" blush:width="62" blush:height="53" blush:component="Medium Decoration"/>
    <path d="M109.121 98.058l-.112-1.136c.905-.931 1.82-1.854 2.714-2.796 2.807-2.958 6.182-4.988 10.078-6.158 1.283-.386 2.608-.662 3.938-.736 3.331-.187 6.643.013 9.867.962 1.556.458 3.093.979 4.64 1.472.086.345.423.4.667.487.87.307 1.663.728 2.424 1.25.425.292.964.415 1.498.633 1.588-.592 3.2-1.205 4.907-1.491 1.086-.182 2.162-.421 3.272-.451 1.005-.027 2.005-.018 3.02-.146.966-.121 2 .134 2.981.339a22.113 22.113 0 017.701 3.237c1.468.973 2.785 2.22 3.97 3.566.327.369.38.753.245 1.217-.552.297-1.142.155-1.706.149-11.37-.111-22.74-.236-34.11-.341-.452-.004-.968-.25-1.363.198l-24.63-.255" fill="#26B6E3" blush:width="62" blush:height="53" blush:component="Medium Decoration"/>
    <path d="M183.17 74.745a1 1 0 01.056 1.294l-.081.092-4.494 4.506a1 1 0 01-1.5-1.317l.084-.095 3.815-3.826-4.086-4.402a1 1 0 01-.08-1.26l.081-.1 3.866-4.16-4.141-4.645a1 1 0 01-.023-1.303l.084-.09 4.5-4.236a1 1 0 011.457 1.365l-.086.092-3.791 3.567 4.097 4.599a1 1 0 01.067 1.247l-.08.099-3.852 4.144 4.107 4.429zM82.035 92.226l-6.804 3.206c-1.435.675-1.624 2.674-.351 3.62l6.078 4.512c1.303.969 3.124.111 3.276-1.503l.726-7.718c.151-1.608-1.463-2.806-2.925-2.117zm.826 1.755c.078-.036.18.04.168.18l-.726 7.718c-.013.132-.117.18-.188.128l-6.078-4.513c-.1-.074-.083-.258.02-.307l6.804-3.206z" fill="#FED21C" fill-rule="nonzero" blush:width="24" blush:height="24" blush:component="Decoration"/>
    <g fill="#00A8C4" blush:width="24" blush:height="24" blush:component="Decoration">
      <path d="M208.913 106.367c.018.354-.114.526-.311.662-.277.193-.535.487-.842.555-1.41.304-1.848 1.471-2.406 2.554-.531 1.035-1.264 1.13-1.768.091-.671-1.383-1.52-2.404-2.991-2.992-.8-.318-.793-1.32.023-1.64 1.48-.584 2.343-1.58 2.985-2.995.45-.995 1.274-.91 1.728.085.53 1.163 1.067 2.238 2.462 2.618.509.14 1.003.532 1.12 1.062M206.046 88.59a1.59 1.59 0 11-3.178 0 1.59 1.59 0 013.178 0M206.046 93.39a1.59 1.59 0 11-3.18 0 1.59 1.59 0 013.18 0M206.046 97.89a1.59 1.59 0 11-3.18 0 1.59 1.59 0 013.18 0"/>
    </g>
    <g fill="#FED21C" blush:width="24" blush:height="24" blush:component="Decoration">
      <path d="M243.914 114.367c.018.354-.115.526-.311.662-.277.193-.536.487-.842.555-1.41.304-1.848 1.471-2.407 2.554-.531 1.035-1.264 1.13-1.768.091-.671-1.382-1.52-2.404-2.991-2.992-.8-.318-.793-1.32.023-1.64 1.48-.584 2.343-1.58 2.985-2.995.45-.995 1.274-.91 1.728.085.532 1.163 1.068 2.238 2.462 2.618.51.14 1.004.532 1.12 1.062M241.047 96.59a1.588 1.588 0 11-3.18 0 1.59 1.59 0 013.18 0M241.047 101.39a1.59 1.59 0 11-3.178 0 1.59 1.59 0 013.178 0M241.047 105.89a1.59 1.59 0 11-3.179.002 1.59 1.59 0 013.179-.001"/>
    </g>
    <path d="M129.233 220.313a1 1 0 01.056 1.295l-.08.091-4.494 4.507a1 1 0 01-1.5-1.318l.083-.094 3.815-3.826-4.085-4.402a1 1 0 01-.081-1.261l.081-.1 3.866-4.16-4.14-4.644a1 1 0 01-.024-1.304l.085-.09 4.5-4.235a1 1 0 011.457 1.365l-.086.091-3.792 3.568 4.098 4.598a1 1 0 01.066 1.248l-.08.098-3.852 4.145 4.107 4.428zM159.035 166.226l-6.804 3.206c-1.435.675-1.624 2.674-.351 3.62l6.078 4.512c1.303.969 3.124.111 3.276-1.503l.726-7.718c.151-1.608-1.463-2.806-2.925-2.117zm.826 1.755c.078-.036.18.04.168.18l-.726 7.718c-.013.132-.117.18-.188.128l-6.078-4.513c-.1-.074-.083-.258.02-.307l6.804-3.206z" fill="#FED21C" fill-rule="nonzero" blush:width="24" blush:height="24" blush:component="Decoration"/>
    <path d="M128.767 171.687a1 1 0 01-.056-1.295l.08-.091 4.494-4.507a1 1 0 011.5 1.318l-.083.094-3.815 3.826 4.085 4.402a1 1 0 01.081 1.261l-.081.1-3.866 4.16 4.14 4.644a1 1 0 01.024 1.304l-.085.09-4.5 4.235a1 1 0 01-1.457-1.365l.086-.091 3.792-3.568-4.098-4.598a1 1 0 01-.066-1.248l.08-.098 3.852-4.145-4.107-4.428z" fill="#FF67FF" fill-rule="nonzero" blush:width="24" blush:height="24" blush:component="Decoration"/>
    <path d="M174.813 117.267a1 1 0 011.295-.056l.091.08 4.507 4.494a1 1 0 01-1.318 1.5l-.094-.083-3.826-3.815-4.402 4.085a1 1 0 01-1.261.081l-.1-.081-4.16-3.866-4.644 4.14a1 1 0 01-1.304.024l-.09-.085-4.235-4.5a1 1 0 011.365-1.457l.091.086 3.568 3.792 4.598-4.098a1 1 0 011.248-.066l.098.08 4.145 3.852 4.428-4.107zM133.233 118.313a1 1 0 01.056 1.295l-.08.091-4.494 4.507a1 1 0 01-1.5-1.318l.083-.094 3.815-3.826-4.085-4.402a1 1 0 01-.081-1.261l.081-.1 3.866-4.16-4.14-4.644a1 1 0 01-.024-1.304l.085-.09 4.5-4.235a1 1 0 011.457 1.365l-.086.091-3.792 3.568 4.098 4.598a1 1 0 01.066 1.248l-.08.098-3.852 4.145 4.107 4.428z" fill="#FED21C" fill-rule="nonzero" blush:width="24" blush:height="24" blush:component="Decoration"/>
  </g>
</svg>
