<?xml version="1.0" standalone="no"?>
<!DOCTYPE svg PUBLIC "-//W3C//DTD SVG 20010904//EN"
 "http://www.w3.org/TR/2001/REC-SVG-20010904/DTD/svg10.dtd">
<svg version="1.0" xmlns="http://www.w3.org/2000/svg"
 width="2362.000000pt" height="2362.000000pt" viewBox="0 0 2362.000000 2362.000000"
 preserveAspectRatio="xMidYMid meet">
<metadata>
Created by potrace 1.11, written by Peter Selinger 2001-2013
</metadata>
<g transform="translate(0.000000,2362.000000) scale(0.100000,-0.100000)"
fill="#000000" stroke="none">
<path d="M9185 23305 c-45 -24 -81 -62 -99 -103 -8 -20 -36 -118 -61 -217 -54
-209 -77 -298 -140 -530 -25 -93 -59 -231 -75 -305 -16 -74 -59 -252 -96 -395
-114 -449 -165 -661 -254 -1065 -21 -96 -70 -299 -109 -450 -38 -151 -83 -340
-100 -420 -17 -80 -48 -219 -70 -310 -22 -91 -52 -221 -65 -290 -14 -69 -52
-208 -84 -310 -55 -169 -118 -410 -157 -599 -19 -91 -46 -129 -122 -172 -309
-173 -489 -297 -760 -521 -24 -21 -54 -38 -65 -38 -14 0 -139 119 -372 353
-484 486 -1019 1004 -1216 1177 -90 80 -201 180 -246 222 -45 43 -94 82 -109
88 -34 13 -196 13 -231 0 -41 -16 -183 -131 -244 -197 -29 -32 -73 -89 -98
-127 -148 -228 -431 -951 -552 -1411 -33 -124 -39 -161 -70 -395 -12 -91 -32
-222 -46 -292 -13 -69 -24 -139 -24 -155 0 -15 -12 -86 -26 -158 -23 -117 -27
-171 -37 -535 -6 -223 -12 -675 -12 -1005 0 -530 2 -612 18 -700 38 -213 144
-581 209 -725 16 -36 36 -61 56 -73 63 -36 354 -102 605 -138 77 -11 221 -37
320 -59 192 -41 516 -101 782 -145 88 -15 268 -49 400 -76 359 -74 715 -140
835 -155 80 -9 100 -19 100 -48 0 -20 -39 -54 -228 -194 -125 -93 -274 -200
-331 -237 -119 -78 -333 -189 -499 -258 -124 -52 -469 -179 -517 -191 -16 -4
-77 -29 -135 -56 -58 -27 -186 -83 -285 -123 -99 -40 -186 -76 -193 -81 -17
-10 -16 -157 2 -200 34 -82 340 -508 562 -782 295 -366 539 -611 879 -882 313
-251 427 -329 735 -507 74 -43 194 -115 266 -161 72 -45 164 -99 205 -119 148
-74 148 -85 -7 -230 -147 -137 -389 -402 -563 -616 -74 -90 -173 -207 -221
-259 -226 -248 -443 -546 -665 -915 -103 -170 -202 -339 -220 -375 -89 -177
-151 -355 -220 -630 -20 -80 -48 -188 -63 -240 -25 -94 -26 -100 -26 -440 -1
-341 -1 -347 27 -474 15 -71 56 -215 91 -320 35 -105 78 -238 95 -296 88 -287
245 -511 641 -912 134 -137 248 -254 251 -261 4 -7 12 -45 18 -85 6 -40 23
-117 36 -170 48 -181 57 -466 25 -722 -28 -227 -60 -370 -139 -616 -118 -371
-154 -468 -193 -520 -20 -27 -92 -124 -161 -216 -120 -162 -380 -467 -540
-634 l-78 -81 34 -36 c18 -20 47 -41 63 -48 36 -15 8517 -15 8555 0 14 5 43
29 66 54 46 50 76 131 115 314 19 88 21 140 25 488 8 688 -33 1150 -142 1630
-26 110 -52 232 -60 270 -8 39 -28 142 -46 230 -17 88 -45 216 -61 284 -19 77
-28 136 -24 156 25 129 452 540 771 741 142 89 324 184 353 184 10 0 26 -6 36
-13 24 -18 238 -618 287 -807 58 -224 105 -453 139 -683 34 -229 35 -231 63
-271 l20 -29 321 7 c177 4 393 14 481 21 149 13 170 17 310 65 298 103 437
165 665 295 309 175 560 369 868 669 289 282 821 889 965 1101 23 33 71 101
107 150 188 254 408 602 499 790 107 219 218 499 310 780 196 598 228 700 328
1050 105 370 176 709 232 1115 71 503 66 1454 -10 1900 -20 116 -73 367 -110
515 -48 189 -216 665 -280 788 -46 90 -158 223 -328 390 -136 134 -186 177
-205 177 -23 0 -36 -22 -142 -232 -238 -475 -382 -716 -747 -1255 -34 -50
-100 -158 -147 -239 -161 -279 -526 -822 -1030 -1534 -65 -91 -144 -203 -176
-250 -264 -384 -1013 -1310 -1059 -1310 -37 0 -44 24 -60 200 -27 299 -80 573
-135 698 -34 76 -120 210 -152 237 -60 51 -64 51 -267 -14 -102 -32 -211 -66
-241 -75 -126 -36 -622 -389 -865 -614 -297 -275 -597 -598 -789 -852 -346
-456 -517 -742 -748 -1250 -44 -96 -101 -220 -126 -275 -25 -55 -62 -142 -81
-194 -38 -99 -59 -124 -88 -105 -37 23 -236 432 -398 819 -37 88 -107 254
-157 369 -91 211 -137 348 -178 531 -12 55 -33 141 -46 190 -49 185 -94 520
-94 704 0 53 7 161 17 240 16 132 19 146 44 171 21 21 41 29 86 34 97 11 554
104 664 135 190 54 652 218 789 281 74 34 225 103 335 152 216 97 351 168 597
314 86 51 228 131 315 177 289 152 334 184 628 432 277 234 431 388 561 563
64 86 130 172 146 190 18 22 28 44 28 65 -1 31 -7 36 -152 122 -198 118 -425
304 -493 405 -35 51 -46 76 -41 93 3 12 34 44 70 70 201 148 579 522 881 872
85 100 296 377 397 525 83 121 233 371 285 475 84 168 250 601 255 665 l3 41
-100 33 c-89 29 -347 131 -695 276 -452 188 -762 361 -933 522 -46 43 -49 50
-44 81 3 20 30 88 61 152 46 98 61 143 90 278 48 225 81 459 116 827 5 52 16
151 24 220 35 283 6 1214 -49 1542 -7 48 -19 134 -25 190 -6 57 -19 155 -30
218 -10 63 -29 183 -40 265 -69 488 -307 1374 -505 1880 -62 160 -463 964
-568 1142 -150 250 -202 321 -541 735 -61 73 -178 201 -260 283 -180 179 -253
227 -444 292 -117 39 -135 43 -230 43 -121 0 -154 -12 -209 -74 -44 -51 -66
-99 -260 -561 -211 -503 -246 -588 -366 -900 -172 -443 -229 -598 -401 -1085
-213 -603 -265 -742 -281 -759 -7 -7 -21 -10 -31 -7 -16 5 -32 58 -88 284 -38
152 -89 336 -113 407 -25 72 -80 236 -124 365 -192 568 -307 810 -687 1452
-25 43 -80 117 -121 165 -42 48 -112 131 -156 184 -222 270 -438 499 -565 602
-79 64 -238 147 -330 173 -37 11 -116 17 -245 20 -163 5 -194 3 -220 -11z
m401 -452 c98 -49 131 -71 207 -143 86 -81 263 -277 395 -438 136 -167 225
-317 430 -728 111 -221 231 -448 268 -504 84 -128 126 -225 210 -483 37 -111
77 -225 90 -254 14 -28 38 -91 55 -140 41 -121 163 -606 183 -728 10 -55 28
-147 41 -205 30 -135 59 -310 51 -317 -3 -3 -51 0 -108 8 -145 18 -930 19
-1053 1 -162 -24 -346 -62 -610 -127 -143 -35 -343 -84 -445 -109 -439 -108
-723 -190 -849 -247 -35 -16 -65 -29 -66 -29 -1 0 11 51 27 113 16 61 49 223
73 358 24 135 62 320 84 410 22 90 61 259 86 374 25 116 68 293 95 395 26 102
71 286 100 410 28 124 76 333 106 465 31 132 93 389 139 570 46 182 100 402
120 490 20 88 63 257 95 375 32 118 73 271 90 340 48 193 50 200 60 200 5 0
62 -26 126 -57z m4003 -310 c104 -62 158 -113 305 -288 55 -66 145 -174 201
-240 150 -180 239 -303 347 -481 104 -172 481 -912 563 -1104 56 -132 155
-415 190 -540 12 -47 48 -170 78 -275 134 -464 208 -785 257 -1125 17 -118 33
-222 35 -230 3 -8 14 -91 25 -185 12 -93 27 -210 35 -260 22 -140 43 -480 51
-810 5 -244 3 -322 -10 -420 -8 -66 -27 -232 -41 -370 -37 -366 -98 -731 -138
-825 -8 -19 -23 -87 -32 -150 -20 -135 -52 -262 -94 -378 l-31 -83 78 -81
c104 -109 309 -272 467 -370 262 -164 751 -378 1143 -500 34 -10 62 -24 62
-30 0 -25 -318 -511 -545 -833 -50 -71 -154 -222 -230 -335 -205 -302 -264
-376 -467 -580 -272 -274 -385 -369 -673 -570 -80 -56 -145 -104 -145 -107 0
-47 233 -239 601 -493 l252 -174 -44 -39 c-325 -290 -675 -533 -1054 -732 -71
-38 -218 -120 -325 -183 -276 -162 -412 -231 -770 -390 -241 -107 -382 -163
-600 -236 -357 -119 -384 -127 -670 -181 -548 -103 -1190 -154 -1780 -142
-518 11 -831 54 -1325 183 -561 147 -766 216 -1070 359 -66 31 -172 78 -235
105 -186 78 -398 184 -495 246 -49 31 -182 112 -295 179 -410 243 -452 272
-863 603 -179 144 -419 396 -633 664 -122 153 -335 435 -377 499 l-17 26 57
21 c32 12 99 33 148 47 107 31 352 118 520 185 358 143 575 271 965 569 413
314 646 537 799 762 56 84 62 106 29 114 -115 26 -216 40 -668 96 -307 37
-398 53 -845 144 -198 40 -459 90 -580 109 -328 54 -606 110 -856 170 -227 56
-388 86 -559 106 -132 15 -142 22 -156 95 -6 33 -30 143 -52 245 -72 328 -74
354 -73 830 1 234 6 488 11 565 5 77 10 254 10 392 0 225 3 267 24 380 14 71
30 174 37 231 7 57 16 105 20 108 4 2 54 -9 111 -25 204 -59 429 -83 588 -63
185 24 367 52 405 62 96 27 267 97 344 143 90 53 226 176 295 267 72 94 214
341 242 423 15 42 31 77 35 77 6 0 409 -421 470 -492 13 -15 89 -70 168 -122
l145 -94 123 118 c91 86 143 128 196 155 40 21 90 53 113 71 323 260 750 514
1174 699 96 42 224 101 284 131 140 71 276 125 426 170 67 19 149 48 183 63
145 65 245 86 482 101 77 5 228 19 335 30 401 43 525 50 665 38 99 -9 183 -8
351 1 236 13 349 10 537 -16 102 -14 120 -14 131 -2 7 8 30 70 51 139 65 220
186 571 335 970 225 605 275 744 350 970 83 251 89 267 212 580 184 468 237
599 358 885 70 165 145 344 166 397 29 74 43 96 54 92 8 -3 57 -30 109 -61z
m-8539 -3748 c85 -77 277 -259 425 -405 149 -146 316 -307 373 -359 61 -57
102 -102 102 -114 0 -93 -248 -493 -406 -653 -78 -80 -243 -198 -323 -231 -34
-15 -232 -49 -421 -74 -160 -21 -364 2 -530 61 -99 34 -93 10 -61 225 27 176
48 273 102 450 131 437 363 1004 494 1205 l45 71 23 -18 c13 -10 92 -81 177
-158z m14968 -7067 c186 -459 303 -854 362 -1224 69 -431 77 -1077 20 -1554
-71 -586 -177 -1023 -466 -1920 -224 -696 -341 -977 -553 -1327 -97 -161 -100
-166 -322 -478 -195 -275 -304 -409 -629 -775 -436 -491 -749 -762 -1132 -981
-207 -119 -325 -173 -546 -253 -307 -111 -673 -210 -693 -189 -4 5 -21 97 -38
206 -34 218 -125 616 -176 772 -59 181 -266 746 -301 822 -29 64 -141 253
-150 253 -17 0 -312 -134 -464 -211 -329 -166 -514 -292 -795 -540 -128 -113
-319 -307 -355 -361 -14 -21 -28 -38 -31 -38 -3 0 -25 53 -48 118 -47 129
-136 306 -290 574 l-101 176 20 54 c10 29 55 163 98 298 79 246 116 334 320
771 97 209 248 488 350 649 45 72 324 461 376 525 156 193 496 551 692 727 64
58 374 294 484 368 118 80 324 200 331 192 22 -24 66 -219 93 -407 30 -214 40
-373 40 -655 0 -232 -4 -314 -21 -440 -12 -85 -19 -157 -17 -159 7 -7 190 114
339 225 115 85 194 157 336 300 374 379 609 663 1138 1370 85 112 337 467 458
644 43 63 121 174 173 245 111 154 476 700 586 876 83 135 352 600 429 744 27
50 58 108 70 130 31 56 149 318 236 523 40 94 76 172 80 172 4 0 47 -100 97
-222z m-11939 -2813 c60 -25 176 -58 246 -69 46 -8 170 -44 410 -121 94 -30
197 -61 230 -69 33 -8 96 -24 140 -35 85 -21 217 -47 325 -61 36 -5 119 -19
185 -30 66 -11 161 -27 210 -36 50 -8 106 -19 125 -24 255 -66 350 -74 775
-67 182 4 391 11 465 16 74 6 180 12 235 15 55 3 151 8 214 12 l114 7 -7 -34
c-3 -19 -9 -142 -12 -275 -7 -246 0 -381 33 -617 9 -64 14 -119 11 -122 -2 -3
-42 10 -89 28 -189 75 -340 101 -574 101 -330 -1 -582 -42 -889 -145 -305
-104 -378 -139 -566 -278 -523 -384 -572 -426 -706 -596 -76 -98 -204 -291
-266 -400 -60 -106 -217 -446 -261 -567 -40 -107 -125 -382 -156 -504 -58
-228 -179 -989 -211 -1326 -8 -78 -10 -206 -7 -335 4 -183 9 -225 36 -348 38
-176 77 -392 71 -399 -9 -8 -474 229 -552 281 -162 111 -383 307 -792 707
-181 176 -372 370 -424 431 -160 185 -281 384 -327 540 -15 50 -58 182 -96
295 -87 261 -110 378 -116 585 -6 198 0 240 83 558 103 398 122 445 314 772
310 531 427 704 595 885 28 30 71 82 95 115 24 33 68 85 96 117 29 31 104 121
167 200 121 152 360 419 473 530 115 111 318 288 332 288 7 0 39 -11 71 -25z
m3322 -1605 c157 -32 433 -143 443 -179 3 -9 21 -83 41 -166 46 -196 84 -310
157 -475 33 -74 77 -178 98 -230 55 -136 228 -536 257 -593 13 -27 23 -51 21
-53 -2 -2 -33 1 -69 7 -35 6 -141 11 -235 11 -152 0 -183 -3 -277 -26 -57 -15
-131 -37 -163 -50 -89 -36 -268 -130 -344 -181 -80 -53 -212 -190 -292 -301
-121 -171 -285 -467 -339 -614 -88 -243 -138 -575 -139 -920 0 -351 37 -570
160 -939 43 -130 101 -306 128 -391 48 -151 112 -296 174 -393 17 -26 28 -51
24 -54 -3 -3 -77 1 -163 10 -87 10 -177 17 -200 17 -31 0 -43 4 -47 18 -10 33
-45 228 -61 342 -9 63 -29 169 -45 235 -16 66 -34 147 -41 180 l-12 60 -8 -35
c-14 -59 -57 -385 -74 -555 -9 -88 -20 -187 -25 -220 -6 -33 -15 -148 -20
-255 -6 -107 -17 -253 -25 -323 -10 -83 -15 -228 -15 -407 0 -230 -2 -280 -14
-290 -12 -9 -273 -11 -1130 -8 -614 2 -1116 6 -1116 9 0 3 12 16 26 30 31 29
197 235 240 299 45 65 138 245 168 320 45 117 86 310 86 411 0 73 -33 250 -70
374 -33 112 -89 410 -120 644 -12 85 -23 158 -25 161 -2 4 -13 58 -25 120 -31
174 -41 387 -30 648 9 208 14 297 40 702 9 139 81 565 125 741 31 124 128 431
170 539 38 98 172 386 217 469 45 80 192 305 247 376 90 118 188 210 356 335
504 376 499 373 795 473 266 91 366 114 549 132 86 8 174 17 196 19 86 9 309
-4 406 -24z m971 -1895 c49 -7 109 -24 135 -36 46 -24 48 -27 183 -289 75
-146 162 -309 194 -364 31 -54 78 -139 103 -189 25 -50 55 -107 67 -126 32
-50 168 -285 254 -439 67 -120 130 -264 185 -427 30 -88 73 -201 95 -251 118
-267 271 -863 322 -1259 46 -349 63 -682 56 -1065 -3 -179 -8 -339 -12 -356
l-6 -31 -701 -6 c-386 -4 -756 -11 -822 -17 -284 -24 -476 -29 -1084 -30
l-643 0 6 31 c10 50 140 300 224 431 43 68 101 163 128 211 27 48 76 125 109
170 33 45 84 120 113 166 l53 83 -17 51 c-26 78 -61 153 -100 214 -86 135
-123 224 -242 588 -142 435 -155 482 -182 640 -27 155 -38 489 -21 671 21 224
55 410 102 554 65 199 263 544 419 727 84 99 169 160 335 243 145 72 253 108
365 121 80 9 266 2 382 -16z m-5217 -2389 c247 -220 394 -321 635 -437 218
-105 401 -209 411 -234 10 -24 32 -143 65 -354 13 -85 37 -202 54 -259 16 -58
30 -113 30 -122 0 -44 -101 -415 -136 -500 -42 -102 -25 -82 -461 -527 l-61
-63 -671 0 c-386 0 -671 4 -671 9 0 5 19 31 43 57 197 221 322 415 406 626 51
129 180 560 201 673 24 128 46 304 61 495 13 176 -10 624 -38 730 -6 23 -5 24
13 10 10 -8 64 -55 119 -104z"/>
<path d="M13735 21154 c-13 -30 -47 -94 -73 -142 -101 -179 -284 -555 -385
-792 -116 -273 -300 -804 -428 -1235 -44 -148 -100 -337 -126 -418 -40 -132
-102 -402 -103 -449 0 -10 15 -25 33 -34 17 -9 51 -32 74 -51 22 -19 136 -101
252 -182 247 -173 347 -254 571 -463 159 -148 211 -203 490 -518 271 -304 567
-691 652 -848 9 -18 24 -32 31 -32 29 0 149 308 218 562 23 84 64 216 91 293
l49 139 12 226 c16 299 14 551 -6 740 -9 85 -21 216 -27 290 -7 74 -20 185
-30 245 -41 240 -213 873 -321 1180 -134 383 -581 1196 -808 1470 -46 56 -74
74 -114 75 -24 0 -30 -7 -52 -56z m232 -604 c217 -376 415 -769 478 -950 124
-356 286 -949 329 -1200 8 -47 19 -141 25 -210 6 -69 20 -228 31 -355 18 -204
20 -252 10 -425 -16 -289 -28 -407 -50 -490 -11 -41 -24 -109 -30 -150 -6 -41
-15 -95 -20 -120 -4 -25 -14 -72 -20 -105 l-12 -61 -33 31 c-18 17 -44 50 -58
72 -108 172 -628 757 -878 989 -282 261 -344 313 -514 431 -128 89 -274 191
-301 211 -20 16 -20 17 -3 80 10 35 27 87 38 115 10 29 35 113 56 187 62 230
140 476 322 1020 204 611 284 818 396 1026 l82 152 31 -47 c17 -25 71 -116
121 -201z"/>
<path d="M9902 17248 c-87 -13 -176 -54 -362 -166 -400 -240 -713 -466 -1040
-751 -148 -130 -238 -221 -388 -396 -79 -93 -168 -195 -197 -225 -88 -93 -184
-225 -172 -236 8 -8 290 167 357 221 36 29 99 76 140 106 41 29 129 97 195
149 222 177 382 291 595 423 76 47 398 190 524 233 170 58 242 41 515 -121
138 -82 179 -117 289 -247 124 -148 175 -215 202 -268 12 -25 42 -76 66 -115
54 -88 77 -151 108 -293 14 -61 31 -122 38 -135 11 -21 13 -19 22 28 11 61 -8
355 -34 530 -43 277 -205 668 -376 906 -127 176 -317 349 -399 361 -16 3 -54
1 -83 -4z"/>
</g>
</svg>
